<?xml version="1.0" encoding="UTF-8" standalone="no"?>
<!DOCTYPE svg PUBLIC "-//W3C//DTD SVG 1.1//EN"
 "http://www.w3.org/Graphics/SVG/1.1/DTD/svg11.dtd">
<!-- Generated by graphviz version 2.43.0 (0)
 -->
<!-- Title: G Pages: 1 -->
<svg width="1403pt" height="249pt"
 viewBox="0.00 0.00 1403.00 249.00" xmlns="http://www.w3.org/2000/svg" xmlns:xlink="http://www.w3.org/1999/xlink">
<g id="graph0" class="graph" transform="scale(1 1) rotate(0) translate(4 245)">
<title>G</title>
<polygon fill="white" stroke="transparent" points="-4,4 -4,-245 1399,-245 1399,4 -4,4"/>
<g id="clust1" class="cluster">
<title>cluster_infra</title>
<path fill="white" stroke="#2b6cb0" d="M327,-58C327,-58 805,-58 805,-58 811,-58 817,-64 817,-70 817,-70 817,-171 817,-171 817,-177 811,-183 805,-183 805,-183 327,-183 327,-183 321,-183 315,-177 315,-171 315,-171 315,-70 315,-70 315,-64 321,-58 327,-58"/>
<text text-anchor="middle" x="566" y="-171" font-family="Helvetica,sans-Serif" font-size="10.00">Infrastructure.IB</text>
</g>
<g id="clust2" class="cluster">
<title>cluster_dom</title>
<path fill="white" stroke="#2c7a7b" d="M849,-54C849,-54 996,-54 996,-54 1002,-54 1008,-60 1008,-66 1008,-66 1008,-221 1008,-221 1008,-227 1002,-233 996,-233 996,-233 849,-233 849,-233 843,-233 837,-227 837,-221 837,-221 837,-66 837,-66 837,-60 843,-54 849,-54"/>
<text text-anchor="middle" x="922.5" y="-221" font-family="Helvetica,sans-Serif" font-size="10.00">Domain</text>
</g>
<g id="clust3" class="cluster">
<title>cluster_app</title>
<path fill="white" stroke="#805ad5" d="M20,-8C20,-8 283,-8 283,-8 289,-8 295,-14 295,-20 295,-20 295,-121 295,-121 295,-127 289,-133 283,-133 283,-133 20,-133 20,-133 14,-133 8,-127 8,-121 8,-121 8,-20 8,-20 8,-14 14,-8 20,-8"/>
<text text-anchor="middle" x="151.5" y="-121" font-family="Helvetica,sans-Serif" font-size="10.00">Application</text>
</g>
<g id="clust4" class="cluster">
<title>cluster_pipe</title>
<path fill="white" stroke="#c05621" d="M1040,-54C1040,-54 1285,-54 1285,-54 1291,-54 1297,-60 1297,-66 1297,-66 1297,-167 1297,-167 1297,-173 1291,-179 1285,-179 1285,-179 1040,-179 1040,-179 1034,-179 1028,-173 1028,-167 1028,-167 1028,-66 1028,-66 1028,-60 1034,-54 1040,-54"/>
<text text-anchor="middle" x="1162.5" y="-167" font-family="Helvetica,sans-Serif" font-size="10.00">Pipeline/Storage</text>
</g>
<!-- IB -->
<g id="node1" class="node">
<title>IB</title>
<path fill="#f8f8f8" stroke="#333333" d="M431,-227C431,-227 357,-227 357,-227 351,-227 345,-221 345,-215 345,-215 345,-203 345,-203 345,-197 351,-191 357,-191 357,-191 431,-191 431,-191 437,-191 443,-197 443,-203 443,-203 443,-215 443,-215 443,-221 437,-227 431,-227"/>
<text text-anchor="middle" x="394" y="-206.5" font-family="Helvetica,sans-Serif" font-size="10.00">IB TWS/Gateway</text>
</g>
<!-- CONN -->
<g id="node3" class="node">
<title>CONN</title>
<path fill="#f7fafc" stroke="#4a5568" d="M660,-156C660,-156 513,-156 513,-156 507,-156 501,-150 501,-144 501,-144 501,-132 501,-132 501,-126 507,-120 513,-120 513,-120 660,-120 660,-120 666,-120 672,-126 672,-132 672,-132 672,-144 672,-144 672,-150 666,-156 660,-156"/>
<text text-anchor="middle" x="586.5" y="-141" font-family="Helvetica,sans-Serif" font-size="10.00">EnhancedIBConnectionManager</text>
<text text-anchor="middle" x="586.5" y="-130" font-family="Helvetica,sans-Serif" font-size="10.00">(EWrapper)</text>
</g>
<!-- IB&#45;&gt;CONN -->
<g id="edge1" class="edge">
<title>IB&#45;&gt;CONN</title>
<path fill="none" stroke="#4a5568" d="M443.37,-194.36C450.65,-192 458.05,-189.5 465,-187 487.85,-178.78 512.77,-168.82 533.98,-160.03"/>
<polygon fill="#4a5568" stroke="#4a5568" points="535.56,-163.16 543.44,-156.09 532.87,-156.7 535.56,-163.16"/>
</g>
<!-- FS -->
<g id="node2" class="node">
<title>FS</title>
<path fill="#fff5f5" stroke="#c53030" d="M1395,-71.73C1395,-73.53 1379.31,-75 1360,-75 1340.69,-75 1325,-73.53 1325,-71.73 1325,-71.73 1325,-42.27 1325,-42.27 1325,-40.47 1340.69,-39 1360,-39 1379.31,-39 1395,-40.47 1395,-42.27 1395,-42.27 1395,-71.73 1395,-71.73"/>
<path fill="none" stroke="#c53030" d="M1395,-71.73C1395,-69.92 1379.31,-68.45 1360,-68.45 1340.69,-68.45 1325,-69.92 1325,-71.73"/>
<text text-anchor="middle" x="1360" y="-54.5" font-family="Helvetica,sans-Serif" font-size="10.00">Filesystem</text>
</g>
<!-- ROUTE -->
<g id="node4" class="node">
<title>ROUTE</title>
<path fill="#f7fafc" stroke="#4a5568" d="M797,-156C797,-156 720,-156 720,-156 714,-156 708,-150 708,-144 708,-144 708,-132 708,-132 708,-126 714,-120 720,-120 720,-120 797,-120 797,-120 803,-120 809,-126 809,-132 809,-132 809,-144 809,-144 809,-150 803,-156 797,-156"/>
<text text-anchor="middle" x="758.5" y="-135.5" font-family="Helvetica,sans-Serif" font-size="10.00">IBCallbackRouter</text>
</g>
<!-- CONN&#45;&gt;ROUTE -->
<g id="edge2" class="edge">
<title>CONN&#45;&gt;ROUTE</title>
<path fill="none" stroke="#4a5568" d="M672,-138C680.56,-138 689.12,-138 697.34,-138"/>
<polygon fill="#4a5568" stroke="#4a5568" points="697.54,-141.5 707.54,-138 697.54,-134.5 697.54,-141.5"/>
</g>
<!-- TD -->
<g id="node7" class="node">
<title>TD</title>
<path fill="#f7fafc" stroke="#4a5568" d="M965.5,-206C965.5,-206 879.5,-206 879.5,-206 873.5,-206 867.5,-200 867.5,-194 867.5,-194 867.5,-182 867.5,-182 867.5,-176 873.5,-170 879.5,-170 879.5,-170 965.5,-170 965.5,-170 971.5,-170 977.5,-176 977.5,-182 977.5,-182 977.5,-194 977.5,-194 977.5,-200 971.5,-206 965.5,-206"/>
<text text-anchor="middle" x="922.5" y="-185.5" font-family="Helvetica,sans-Serif" font-size="10.00">TradeDataCollector</text>
</g>
<!-- ROUTE&#45;&gt;TD -->
<g id="edge3" class="edge">
<title>ROUTE&#45;&gt;TD</title>
<path fill="none" stroke="#4a5568" d="M809.43,-153.41C824.59,-158.09 841.47,-163.3 857.44,-168.23"/>
<polygon fill="#4a5568" stroke="#4a5568" points="856.64,-171.65 867.23,-171.25 858.71,-164.96 856.64,-171.65"/>
</g>
<!-- MD -->
<g id="node8" class="node">
<title>MD</title>
<path fill="#f7fafc" stroke="#4a5568" d="M972,-152C972,-152 873,-152 873,-152 867,-152 861,-146 861,-140 861,-140 861,-128 861,-128 861,-122 867,-116 873,-116 873,-116 972,-116 972,-116 978,-116 984,-122 984,-128 984,-128 984,-140 984,-140 984,-146 978,-152 972,-152"/>
<text text-anchor="middle" x="922.5" y="-131.5" font-family="Helvetica,sans-Serif" font-size="10.00">MarketDepthCollector</text>
</g>
<!-- ROUTE&#45;&gt;MD -->
<g id="edge4" class="edge">
<title>ROUTE&#45;&gt;MD</title>
<path fill="none" stroke="#4a5568" d="M809.43,-136.77C822.52,-136.44 836.89,-136.09 850.84,-135.74"/>
<polygon fill="#4a5568" stroke="#4a5568" points="850.99,-139.24 860.9,-135.5 850.82,-132.24 850.99,-139.24"/>
</g>
<!-- FACT -->
<g id="node5" class="node">
<title>FACT</title>
<path fill="#f7fafc" stroke="#4a5568" d="M621,-102C621,-102 552,-102 552,-102 546,-102 540,-96 540,-90 540,-90 540,-78 540,-78 540,-72 546,-66 552,-66 552,-66 621,-66 621,-66 627,-66 633,-72 633,-78 633,-78 633,-90 633,-90 633,-96 627,-102 621,-102"/>
<text text-anchor="middle" x="586.5" y="-81.5" font-family="Helvetica,sans-Serif" font-size="10.00">ContractFactory</text>
</g>
<!-- CLIENT -->
<g id="node6" class="node">
<title>CLIENT</title>
<path fill="#f7fafc" stroke="#4a5568" d="M453,-106C453,-106 335,-106 335,-106 329,-106 323,-100 323,-94 323,-94 323,-82 323,-82 323,-76 329,-70 335,-70 335,-70 453,-70 453,-70 459,-70 465,-76 465,-82 465,-82 465,-94 465,-94 465,-100 459,-106 453,-106"/>
<text text-anchor="middle" x="394" y="-91" font-family="Helvetica,sans-Serif" font-size="10.00">IIBMarketDataClient</text>
<text text-anchor="middle" x="394" y="-80" font-family="Helvetica,sans-Serif" font-size="10.00">IBMarketDataClient/NoOp</text>
</g>
<!-- CLIENT&#45;&gt;CONN -->
<g id="edge13" class="edge">
<title>CLIENT&#45;&gt;CONN</title>
<path fill="none" stroke="#4a5568" d="M463.77,-106.05C477.8,-109.73 492.66,-113.63 507,-117.4"/>
<polygon fill="#4a5568" stroke="#4a5568" points="506.27,-120.82 516.83,-119.98 508.04,-114.05 506.27,-120.82"/>
</g>
<!-- CLIENT&#45;&gt;FACT -->
<g id="edge12" class="edge">
<title>CLIENT&#45;&gt;FACT</title>
<path fill="none" stroke="#4a5568" d="M465.12,-86.53C486.35,-86.08 509.38,-85.6 529.55,-85.17"/>
<polygon fill="#4a5568" stroke="#4a5568" points="529.89,-88.67 539.81,-84.96 529.74,-81.67 529.89,-88.67"/>
</g>
<!-- BUS -->
<g id="node13" class="node">
<title>BUS</title>
<path fill="#f7fafc" stroke="#4a5568" d="M1143,-152C1143,-152 1048,-152 1048,-152 1042,-152 1036,-146 1036,-140 1036,-140 1036,-128 1036,-128 1036,-122 1042,-116 1048,-116 1048,-116 1143,-116 1143,-116 1149,-116 1155,-122 1155,-128 1155,-128 1155,-140 1155,-140 1155,-146 1149,-152 1143,-152"/>
<text text-anchor="middle" x="1095.5" y="-137" font-family="Helvetica,sans-Serif" font-size="10.00">IMarketEventBus</text>
<text text-anchor="middle" x="1095.5" y="-126" font-family="Helvetica,sans-Serif" font-size="10.00">Per&#45;symbol channels</text>
</g>
<!-- TD&#45;&gt;BUS -->
<g id="edge5" class="edge">
<title>TD&#45;&gt;BUS</title>
<path fill="none" stroke="#4a5568" d="M977.61,-170.91C993.47,-165.9 1011.02,-160.36 1027.58,-155.13"/>
<polygon fill="#4a5568" stroke="#4a5568" points="1028.72,-158.44 1037.2,-152.09 1026.61,-151.77 1028.72,-158.44"/>
</g>
<!-- MD&#45;&gt;BUS -->
<g id="edge6" class="edge">
<title>MD&#45;&gt;BUS</title>
<path fill="none" stroke="#4a5568" d="M984.27,-134C997.66,-134 1011.93,-134 1025.61,-134"/>
<polygon fill="#4a5568" stroke="#4a5568" points="1025.93,-137.5 1035.93,-134 1025.93,-130.5 1025.93,-137.5"/>
</g>
<!-- MODELS -->
<g id="node9" class="node">
<title>MODELS</title>
<path fill="#f7fafc" stroke="#4a5568" d="M988,-98C988,-98 857,-98 857,-98 851,-98 845,-92 845,-86 845,-86 845,-74 845,-74 845,-68 851,-62 857,-62 857,-62 988,-62 988,-62 994,-62 1000,-68 1000,-74 1000,-74 1000,-86 1000,-86 1000,-92 994,-98 988,-98"/>
<text text-anchor="middle" x="922.5" y="-83" font-family="Helvetica,sans-Serif" font-size="10.00">Models</text>
<text text-anchor="middle" x="922.5" y="-72" font-family="Helvetica,sans-Serif" font-size="10.00">Trade/LOBSnapshot/Integrity</text>
</g>
<!-- CW -->
<g id="node10" class="node">
<title>CW</title>
<path fill="#f7fafc" stroke="#4a5568" d="M105.5,-106C105.5,-106 42.5,-106 42.5,-106 36.5,-106 30.5,-100 30.5,-94 30.5,-94 30.5,-82 30.5,-82 30.5,-76 36.5,-70 42.5,-70 42.5,-70 105.5,-70 105.5,-70 111.5,-70 117.5,-76 117.5,-82 117.5,-82 117.5,-94 117.5,-94 117.5,-100 111.5,-106 105.5,-106"/>
<text text-anchor="middle" x="74" y="-85.5" font-family="Helvetica,sans-Serif" font-size="10.00">ConfigWatcher</text>
</g>
<!-- SM -->
<g id="node11" class="node">
<title>SM</title>
<path fill="#f7fafc" stroke="#4a5568" d="M275,-106C275,-106 180,-106 180,-106 174,-106 168,-100 168,-94 168,-94 168,-82 168,-82 168,-76 174,-70 180,-70 180,-70 275,-70 275,-70 281,-70 287,-76 287,-82 287,-82 287,-94 287,-94 287,-100 281,-106 275,-106"/>
<text text-anchor="middle" x="227.5" y="-85.5" font-family="Helvetica,sans-Serif" font-size="10.00">SubscriptionManager</text>
</g>
<!-- CW&#45;&gt;SM -->
<g id="edge10" class="edge">
<title>CW&#45;&gt;SM</title>
<path fill="none" stroke="#4a5568" d="M117.6,-88C130.02,-88 143.91,-88 157.51,-88"/>
<polygon fill="#4a5568" stroke="#4a5568" points="157.83,-91.5 167.83,-88 157.83,-84.5 157.83,-91.5"/>
</g>
<!-- SM&#45;&gt;CLIENT -->
<g id="edge11" class="edge">
<title>SM&#45;&gt;CLIENT</title>
<path fill="none" stroke="#4a5568" d="M287.42,-88C295.71,-88 304.33,-88 312.93,-88"/>
<polygon fill="#4a5568" stroke="#4a5568" points="312.98,-91.5 322.98,-88 312.98,-84.5 312.98,-91.5"/>
</g>
<!-- MET -->
<g id="node12" class="node">
<title>MET</title>
<path fill="#f7fafc" stroke="#4a5568" d="M120,-52C120,-52 28,-52 28,-52 22,-52 16,-46 16,-40 16,-40 16,-28 16,-28 16,-22 22,-16 28,-16 28,-16 120,-16 120,-16 126,-16 132,-22 132,-28 132,-28 132,-40 132,-40 132,-46 126,-52 120,-52"/>
<text text-anchor="middle" x="74" y="-31.5" font-family="Helvetica,sans-Serif" font-size="10.00">Metrics/StatusWriter</text>
</g>
<!-- MET&#45;&gt;FS -->
<g id="edge14" class="edge">
<title>MET&#45;&gt;FS</title>
<path fill="none" stroke="#4a5568" d="M132.16,-34C195.81,-34 301.77,-34 393,-34 393,-34 393,-34 1096.5,-34 1173.32,-34 1262.31,-43.9 1314.45,-50.71"/>
<polygon fill="#4a5568" stroke="#4a5568" points="1314.31,-54.22 1324.69,-52.07 1315.23,-47.28 1314.31,-54.22"/>
</g>
<!-- SINK -->
<g id="node14" class="node">
<title>SINK</title>
<path fill="#f7fafc" stroke="#4a5568" d="M1277,-98C1277,-98 1203,-98 1203,-98 1197,-98 1191,-92 1191,-86 1191,-86 1191,-74 1191,-74 1191,-68 1197,-62 1203,-62 1203,-62 1277,-62 1277,-62 1283,-62 1289,-68 1289,-74 1289,-74 1289,-86 1289,-86 1289,-92 1283,-98 1277,-98"/>
<text text-anchor="middle" x="1240" y="-77.5" font-family="Helvetica,sans-Serif" font-size="10.00">JsonlStorageSink</text>
</g>
<!-- BUS&#45;&gt;SINK -->
<g id="edge7" class="edge">
<title>BUS&#45;&gt;SINK</title>
<path fill="none" stroke="#4a5568" d="M1144.35,-115.87C1156.21,-111.37 1169.05,-106.51 1181.34,-101.85"/>
<polygon fill="#4a5568" stroke="#4a5568" points="1182.93,-104.99 1191.04,-98.18 1180.45,-98.45 1182.93,-104.99"/>
</g>
<!-- SINK&#45;&gt;FS -->
<g id="edge8" class="edge">
<title>SINK&#45;&gt;FS</title>
<path fill="none" stroke="#4a5568" d="M1289.34,-70.58C1297.84,-68.92 1306.66,-67.2 1315.03,-65.57"/>
<polygon fill="#4a5568" stroke="#4a5568" points="1315.85,-68.98 1324.99,-63.63 1314.51,-62.11 1315.85,-68.98"/>
</g>
<!-- POL -->
<g id="node15" class="node">
<title>POL</title>
<path fill="#f7fafc" stroke="#4a5568" d="M1137,-98C1137,-98 1054,-98 1054,-98 1048,-98 1042,-92 1042,-86 1042,-86 1042,-74 1042,-74 1042,-68 1048,-62 1054,-62 1054,-62 1137,-62 1137,-62 1143,-62 1149,-68 1149,-74 1149,-74 1149,-86 1149,-86 1149,-92 1143,-98 1137,-98"/>
<text text-anchor="middle" x="1095.5" y="-77.5" font-family="Helvetica,sans-Serif" font-size="10.00">JsonlStoragePolicy</text>
</g>
<!-- POL&#45;&gt;SINK -->
<g id="edge9" class="edge">
<title>POL&#45;&gt;SINK</title>
<path fill="none" stroke="#4a5568" d="M1149.16,-80C1159.38,-80 1170.16,-80 1180.56,-80"/>
<polygon fill="#4a5568" stroke="#4a5568" points="1180.8,-83.5 1190.8,-80 1180.8,-76.5 1180.8,-83.5"/>
</g>
</g>
</svg>
