<?xml version="1.0" encoding="UTF-8" standalone="no"?>
<!DOCTYPE svg PUBLIC "-//W3C//DTD SVG 1.1//EN"
 "http://www.w3.org/Graphics/SVG/1.1/DTD/svg11.dtd">
<!-- Generated by graphviz version 2.43.0 (0)
 -->
<!-- Title: C4_Context Pages: 1 -->
<svg width="2762pt" height="617pt"
 viewBox="0.00 0.00 2762.00 617.43" xmlns="http://www.w3.org/2000/svg" xmlns:xlink="http://www.w3.org/1999/xlink">
<g id="graph0" class="graph" transform="scale(1 1) rotate(0) translate(36 581.43)">
<title>C4_Context</title>
<polygon fill="white" stroke="transparent" points="-36,36 -36,-581.43 2726,-581.43 2726,36 -36,36"/>
<text text-anchor="middle" x="1345" y="-531.83" font-family="Helvetica,sans-Serif" font-size="12.00">Market Data Collector &#45; System Context (C4 Level 1)</text>
<text text-anchor="middle" x="1345" y="-518.83" font-family="Helvetica,sans-Serif" font-size="12.00">v1.6.1</text>
<g id="clust1" class="cluster">
<title>cluster_actors</title>
</g>
<g id="clust2" class="cluster">
<title>cluster_streaming</title>
<path fill="#f0f8ff" stroke="#2b6cb0" d="M627,-374.65C627,-374.65 1237,-374.65 1237,-374.65 1243,-374.65 1249,-380.65 1249,-386.65 1249,-386.65 1249,-468.65 1249,-468.65 1249,-474.65 1243,-480.65 1237,-480.65 1237,-480.65 627,-480.65 627,-480.65 621,-480.65 615,-474.65 615,-468.65 615,-468.65 615,-386.65 615,-386.65 615,-380.65 621,-374.65 627,-374.65"/>
<text text-anchor="middle" x="932" y="-467.05" font-family="Helvetica,sans-Serif" font-size="12.00">Real&#45;Time Streaming Providers</text>
</g>
<g id="clust3" class="cluster">
<title>cluster_historical</title>
<path fill="#e6fffa" stroke="#2c7a7b" d="M1269,-374.65C1269,-374.65 1970,-374.65 1970,-374.65 1976,-374.65 1982,-380.65 1982,-386.65 1982,-386.65 1982,-468.65 1982,-468.65 1982,-474.65 1976,-480.65 1970,-480.65 1970,-480.65 1269,-480.65 1269,-480.65 1263,-480.65 1257,-474.65 1257,-468.65 1257,-468.65 1257,-386.65 1257,-386.65 1257,-380.65 1263,-374.65 1269,-374.65"/>
<text text-anchor="middle" x="1619.5" y="-467.05" font-family="Helvetica,sans-Serif" font-size="12.00">Historical Data Providers (8 Implemented)</text>
</g>
<g id="clust4" class="cluster">
<title>cluster_downstream</title>
<path fill="#faf5ff" stroke="#805ad5" d="M324,-20.94C324,-20.94 792,-20.94 792,-20.94 798,-20.94 804,-26.94 804,-32.94 804,-32.94 804,-114.94 804,-114.94 804,-120.94 798,-126.94 792,-126.94 792,-126.94 324,-126.94 324,-126.94 318,-126.94 312,-120.94 312,-114.94 312,-114.94 312,-32.94 312,-32.94 312,-26.94 318,-20.94 324,-20.94"/>
<text text-anchor="middle" x="558" y="-113.34" font-family="Helvetica,sans-Serif" font-size="12.00">Analysis &amp; Trading Systems</text>
</g>
<g id="clust5" class="cluster">
<title>cluster_infra</title>
<path fill="#fff5f5" stroke="#c53030" d="M824,-8C824,-8 1314,-8 1314,-8 1320,-8 1326,-14 1326,-20 1326,-20 1326,-127.88 1326,-127.88 1326,-133.88 1320,-139.88 1314,-139.88 1314,-139.88 824,-139.88 824,-139.88 818,-139.88 812,-133.88 812,-127.88 812,-127.88 812,-20 812,-20 812,-14 818,-8 824,-8"/>
<text text-anchor="middle" x="1069" y="-126.28" font-family="Helvetica,sans-Serif" font-size="12.00">Infrastructure</text>
</g>
<g id="clust6" class="cluster">
<title>cluster_legend</title>
<path fill="#fafafa" stroke="#666666" d="M2002,-391.15C2002,-391.15 2670,-391.15 2670,-391.15 2676,-391.15 2682,-397.15 2682,-403.15 2682,-403.15 2682,-452.15 2682,-452.15 2682,-458.15 2676,-464.15 2670,-464.15 2670,-464.15 2002,-464.15 2002,-464.15 1996,-464.15 1990,-458.15 1990,-452.15 1990,-452.15 1990,-403.15 1990,-403.15 1990,-397.15 1996,-391.15 2002,-391.15"/>
<text text-anchor="middle" x="2336" y="-450.55" font-family="Helvetica,sans-Serif" font-size="12.00">Legend</text>
</g>
<!-- Operator -->
<g id="node1" class="node">
<title>Operator</title>
<ellipse fill="#08427b" stroke="black" cx="504" cy="-417.15" rx="95.42" ry="57.05"/>
<text text-anchor="middle" x="504" y="-444.85" font-family="Helvetica,sans-Serif" font-size="11.00" fill="white">Operator</text>
<text text-anchor="middle" x="504" y="-432.85" font-family="Helvetica,sans-Serif" font-size="11.00" fill="white">[Person]</text>
<text text-anchor="middle" x="504" y="-407.85" font-family="Helvetica,sans-Serif" font-size="11.00" fill="white">Configures collection,</text>
<text text-anchor="middle" x="504" y="-395.85" font-family="Helvetica,sans-Serif" font-size="11.00" fill="white">monitors health,</text>
<text text-anchor="middle" x="504" y="-383.85" font-family="Helvetica,sans-Serif" font-size="11.00" fill="white">manages backfill</text>
</g>
<!-- MDC -->
<g id="node4" class="node">
<title>MDC</title>
<path fill="#438dd5" stroke="black" d="M1156,-303.88C1156,-303.88 892,-303.88 892,-303.88 886,-303.88 880,-297.88 880,-291.88 880,-291.88 880,-197.88 880,-197.88 880,-191.88 886,-185.88 892,-185.88 892,-185.88 1156,-185.88 1156,-185.88 1162,-185.88 1168,-191.88 1168,-197.88 1168,-197.88 1168,-291.88 1168,-291.88 1168,-297.88 1162,-303.88 1156,-303.88"/>
<text text-anchor="middle" x="1024" y="-291.07" font-family="Helvetica,sans-Serif" font-size="11.00" fill="white">Market Data Collector</text>
<text text-anchor="middle" x="1024" y="-279.07" font-family="Helvetica,sans-Serif" font-size="11.00" fill="white">[Software System]</text>
<text text-anchor="middle" x="1024" y="-254.07" font-family="Helvetica,sans-Serif" font-size="11.00" fill="white">.NET 9.0 | C# 13 | F# 8</text>
<text text-anchor="middle" x="1024" y="-229.07" font-family="Helvetica,sans-Serif" font-size="11.00" fill="white">Collects, validates, stores, and exports</text>
<text text-anchor="middle" x="1024" y="-217.07" font-family="Helvetica,sans-Serif" font-size="11.00" fill="white">real&#45;time and historical market data</text>
<text text-anchor="middle" x="1024" y="-205.07" font-family="Helvetica,sans-Serif" font-size="11.00" fill="white">from multiple providers with</text>
<text text-anchor="middle" x="1024" y="-193.07" font-family="Helvetica,sans-Serif" font-size="11.00" fill="white">archival&#45;first persistence</text>
</g>
<!-- Operator&#45;&gt;MDC -->
<g id="edge1" class="edge">
<title>Operator&#45;&gt;MDC</title>
<path fill="none" stroke="#4a5568" d="M560.66,-371C668.73,-371 893.67,-371 893.67,-371 893.67,-371 893.67,-313.88 893.67,-313.88"/>
<polygon fill="#4a5568" stroke="#4a5568" points="897.17,-313.88 893.67,-303.88 890.17,-313.88 897.17,-313.88"/>
<text text-anchor="middle" x="796.5" y="-334.68" font-family="Helvetica,sans-Serif" font-size="9.00">Configures via</text>
<text text-anchor="middle" x="796.5" y="-324.68" font-family="Helvetica,sans-Serif" font-size="9.00">UWP/Web/CLI</text>
</g>
<!-- Quant -->
<g id="node2" class="node">
<title>Quant</title>
<ellipse fill="#08427b" stroke="black" cx="314" cy="-417.15" rx="76.24" ry="57.05"/>
<text text-anchor="middle" x="314" y="-444.85" font-family="Helvetica,sans-Serif" font-size="11.00" fill="white">Quant/Analyst</text>
<text text-anchor="middle" x="314" y="-432.85" font-family="Helvetica,sans-Serif" font-size="11.00" fill="white">[Person]</text>
<text text-anchor="middle" x="314" y="-407.85" font-family="Helvetica,sans-Serif" font-size="11.00" fill="white">Analyzes data,</text>
<text text-anchor="middle" x="314" y="-395.85" font-family="Helvetica,sans-Serif" font-size="11.00" fill="white">runs backtests,</text>
<text text-anchor="middle" x="314" y="-383.85" font-family="Helvetica,sans-Serif" font-size="11.00" fill="white">builds strategies</text>
</g>
<!-- Quant&#45;&gt;MDC -->
<g id="edge2" class="edge">
<title>Quant&#45;&gt;MDC</title>
<path fill="none" stroke="#4a5568" d="M355.43,-368.69C355.43,-323.82 355.43,-264 355.43,-264 355.43,-264 869.75,-264 869.75,-264"/>
<polygon fill="#4a5568" stroke="#4a5568" points="869.75,-267.5 879.75,-264 869.75,-260.5 869.75,-267.5"/>
<text text-anchor="middle" x="712" y="-334.68" font-family="Helvetica,sans-Serif" font-size="9.00">Exports data</text>
<text text-anchor="middle" x="712" y="-324.68" font-family="Helvetica,sans-Serif" font-size="9.00">for analysis</text>
</g>
<!-- DevOps -->
<g id="node3" class="node">
<title>DevOps</title>
<ellipse fill="#08427b" stroke="black" cx="118" cy="-417.15" rx="101.65" ry="48.58"/>
<text text-anchor="middle" x="118" y="-438.85" font-family="Helvetica,sans-Serif" font-size="11.00" fill="white">DevOps</text>
<text text-anchor="middle" x="118" y="-426.85" font-family="Helvetica,sans-Serif" font-size="11.00" fill="white">[Person]</text>
<text text-anchor="middle" x="118" y="-401.85" font-family="Helvetica,sans-Serif" font-size="11.00" fill="white">Deploys, scales,</text>
<text text-anchor="middle" x="118" y="-389.85" font-family="Helvetica,sans-Serif" font-size="11.00" fill="white">monitors infrastructure</text>
</g>
<!-- PROM -->
<g id="node18" class="node">
<title>PROM</title>
<path fill="#e53e3e" stroke="black" d="M951.5,-97.94C951.5,-97.94 832.5,-97.94 832.5,-97.94 826.5,-97.94 820.5,-91.94 820.5,-85.94 820.5,-85.94 820.5,-40.94 820.5,-40.94 820.5,-34.94 826.5,-28.94 832.5,-28.94 832.5,-28.94 951.5,-28.94 951.5,-28.94 957.5,-28.94 963.5,-34.94 963.5,-40.94 963.5,-40.94 963.5,-85.94 963.5,-85.94 963.5,-91.94 957.5,-97.94 951.5,-97.94"/>
<text text-anchor="middle" x="892" y="-85.14" font-family="Helvetica,sans-Serif" font-size="11.00" fill="white">Prometheus + Grafana</text>
<text text-anchor="middle" x="892" y="-73.14" font-family="Helvetica,sans-Serif" font-size="11.00" fill="white">[Infrastructure]</text>
<text text-anchor="middle" x="892" y="-48.14" font-family="Helvetica,sans-Serif" font-size="11.00" fill="white">Metrics, Dashboards</text>
<text text-anchor="middle" x="892" y="-36.14" font-family="Helvetica,sans-Serif" font-size="11.00" fill="white">Alerting</text>
</g>
<!-- DevOps&#45;&gt;PROM -->
<g id="edge3" class="edge">
<title>DevOps&#45;&gt;PROM</title>
<path fill="none" stroke="#4a5568" d="M118,-368.29C118,-348.84 118,-331 118,-331 118,-331 850.25,-331 850.25,-331 850.25,-331 850.25,-108.14 850.25,-108.14"/>
<polygon fill="#4a5568" stroke="#4a5568" points="853.75,-108.14 850.25,-98.14 846.75,-108.14 853.75,-108.14"/>
<text text-anchor="middle" x="681.5" y="-247.68" font-family="Helvetica,sans-Serif" font-size="9.00">Monitors</text>
<text text-anchor="middle" x="681.5" y="-237.68" font-family="Helvetica,sans-Serif" font-size="9.00">infrastructure</text>
</g>
<!-- LEAN -->
<g id="node14" class="node">
<title>LEAN</title>
<path fill="#805ad5" stroke="black" d="M471.5,-97.94C471.5,-97.94 332.5,-97.94 332.5,-97.94 326.5,-97.94 320.5,-91.94 320.5,-85.94 320.5,-85.94 320.5,-40.94 320.5,-40.94 320.5,-34.94 326.5,-28.94 332.5,-28.94 332.5,-28.94 471.5,-28.94 471.5,-28.94 477.5,-28.94 483.5,-34.94 483.5,-40.94 483.5,-40.94 483.5,-85.94 483.5,-85.94 483.5,-91.94 477.5,-97.94 471.5,-97.94"/>
<text text-anchor="middle" x="402" y="-85.14" font-family="Helvetica,sans-Serif" font-size="11.00" fill="white">QuantConnect Lean</text>
<text text-anchor="middle" x="402" y="-73.14" font-family="Helvetica,sans-Serif" font-size="11.00" fill="white">[External System]</text>
<text text-anchor="middle" x="402" y="-48.14" font-family="Helvetica,sans-Serif" font-size="11.00" fill="white">Algorithmic Trading Engine</text>
<text text-anchor="middle" x="402" y="-36.14" font-family="Helvetica,sans-Serif" font-size="11.00" fill="white">Backtesting + Live</text>
</g>
<!-- MDC&#45;&gt;LEAN -->
<g id="edge15" class="edge">
<title>MDC&#45;&gt;LEAN</title>
<path fill="none" stroke="#805ad5" d="M879.64,-244C708.45,-244 446.02,-244 446.02,-244 446.02,-244 446.02,-108.25 446.02,-108.25"/>
<polygon fill="#805ad5" stroke="#805ad5" points="449.52,-108.25 446.02,-98.25 442.52,-108.25 449.52,-108.25"/>
<text text-anchor="middle" x="470.5" y="-160.68" font-family="Helvetica,sans-Serif" font-size="9.00">Exports Lean</text>
<text text-anchor="middle" x="470.5" y="-150.68" font-family="Helvetica,sans-Serif" font-size="9.00">format data</text>
</g>
<!-- PYTHON -->
<g id="node15" class="node">
<title>PYTHON</title>
<path fill="#805ad5" stroke="black" d="M610,-97.94C610,-97.94 514,-97.94 514,-97.94 508,-97.94 502,-91.94 502,-85.94 502,-85.94 502,-40.94 502,-40.94 502,-34.94 508,-28.94 514,-28.94 514,-28.94 610,-28.94 610,-28.94 616,-28.94 622,-34.94 622,-40.94 622,-40.94 622,-85.94 622,-85.94 622,-91.94 616,-97.94 610,-97.94"/>
<text text-anchor="middle" x="562" y="-85.14" font-family="Helvetica,sans-Serif" font-size="11.00" fill="white">Python/R Analytics</text>
<text text-anchor="middle" x="562" y="-73.14" font-family="Helvetica,sans-Serif" font-size="11.00" fill="white">[External System]</text>
<text text-anchor="middle" x="562" y="-48.14" font-family="Helvetica,sans-Serif" font-size="11.00" fill="white">Pandas, NumPy</text>
<text text-anchor="middle" x="562" y="-36.14" font-family="Helvetica,sans-Serif" font-size="11.00" fill="white">Data Science</text>
</g>
<!-- MDC&#45;&gt;PYTHON -->
<g id="edge16" class="edge">
<title>MDC&#45;&gt;PYTHON</title>
<path fill="none" stroke="#805ad5" d="M879.75,-225C760.53,-225 610.73,-225 610.73,-225 610.73,-225 610.73,-108.1 610.73,-108.1"/>
<polygon fill="#805ad5" stroke="#805ad5" points="614.23,-108.1 610.73,-98.1 607.23,-108.1 614.23,-108.1"/>
<text text-anchor="middle" x="598.5" y="-160.68" font-family="Helvetica,sans-Serif" font-size="9.00">Exports Parquet</text>
<text text-anchor="middle" x="598.5" y="-150.68" font-family="Helvetica,sans-Serif" font-size="9.00">CSV, Excel</text>
</g>
<!-- PGSQL -->
<g id="node16" class="node">
<title>PGSQL</title>
<path fill="#805ad5" stroke="black" d="M783.5,-97.94C783.5,-97.94 652.5,-97.94 652.5,-97.94 646.5,-97.94 640.5,-91.94 640.5,-85.94 640.5,-85.94 640.5,-40.94 640.5,-40.94 640.5,-34.94 646.5,-28.94 652.5,-28.94 652.5,-28.94 783.5,-28.94 783.5,-28.94 789.5,-28.94 795.5,-34.94 795.5,-40.94 795.5,-40.94 795.5,-85.94 795.5,-85.94 795.5,-91.94 789.5,-97.94 783.5,-97.94"/>
<text text-anchor="middle" x="718" y="-85.14" font-family="Helvetica,sans-Serif" font-size="11.00" fill="white">PostgreSQL/TimescaleDB</text>
<text text-anchor="middle" x="718" y="-73.14" font-family="Helvetica,sans-Serif" font-size="11.00" fill="white">[External System]</text>
<text text-anchor="middle" x="718" y="-48.14" font-family="Helvetica,sans-Serif" font-size="11.00" fill="white">Time&#45;Series Analytics</text>
<text text-anchor="middle" x="718" y="-36.14" font-family="Helvetica,sans-Serif" font-size="11.00" fill="white">SQL Queries</text>
</g>
<!-- MDC&#45;&gt;PGSQL -->
<g id="edge17" class="edge">
<title>MDC&#45;&gt;PGSQL</title>
<path fill="none" stroke="#805ad5" d="M879.92,-205C830.78,-205 788,-205 788,-205 788,-205 788,-108.07 788,-108.07"/>
<polygon fill="#805ad5" stroke="#805ad5" points="791.5,-108.07 788,-98.07 784.5,-108.07 791.5,-108.07"/>
<text text-anchor="middle" x="793" y="-160.68" font-family="Helvetica,sans-Serif" font-size="9.00">Exports CSV</text>
<text text-anchor="middle" x="793" y="-150.68" font-family="Helvetica,sans-Serif" font-size="9.00">with DDL</text>
</g>
<!-- DISK -->
<g id="node17" class="node">
<title>DISK</title>
<path fill="#e53e3e" stroke="black" d="M1176,-102.2C1176,-106.95 1132.52,-110.81 1079,-110.81 1025.48,-110.81 982,-106.95 982,-102.2 982,-102.2 982,-24.68 982,-24.68 982,-19.92 1025.48,-16.06 1079,-16.06 1132.52,-16.06 1176,-19.92 1176,-24.68 1176,-24.68 1176,-102.2 1176,-102.2"/>
<path fill="none" stroke="black" d="M1176,-102.2C1176,-97.45 1132.52,-93.59 1079,-93.59 1025.48,-93.59 982,-97.45 982,-102.2"/>
<text text-anchor="middle" x="1079" y="-85.14" font-family="Helvetica,sans-Serif" font-size="11.00" fill="white">Storage</text>
<text text-anchor="middle" x="1079" y="-73.14" font-family="Helvetica,sans-Serif" font-size="11.00" fill="white">[Infrastructure]</text>
<text text-anchor="middle" x="1079" y="-48.14" font-family="Helvetica,sans-Serif" font-size="11.00" fill="white">JSONL (Hot) + Parquet (Archive)</text>
<text text-anchor="middle" x="1079" y="-36.14" font-family="Helvetica,sans-Serif" font-size="11.00" fill="white">Local/Cloud/S3</text>
</g>
<!-- MDC&#45;&gt;DISK -->
<g id="edge13" class="edge">
<title>MDC&#45;&gt;DISK</title>
<path fill="none" stroke="#c53030" d="M1075,-185.72C1075,-185.72 1075,-121.04 1075,-121.04"/>
<polygon fill="#c53030" stroke="#c53030" points="1078.5,-121.04 1075,-111.04 1071.5,-121.04 1078.5,-121.04"/>
<text text-anchor="middle" x="1084.5" y="-160.68" font-family="Helvetica,sans-Serif" font-size="9.00">Persists events</text>
<text text-anchor="middle" x="1084.5" y="-150.68" font-family="Helvetica,sans-Serif" font-size="9.00">WAL + JSONL</text>
</g>
<!-- MDC&#45;&gt;PROM -->
<g id="edge18" class="edge">
<title>MDC&#45;&gt;PROM</title>
<path fill="none" stroke="#c53030" d="M921.75,-185.72C921.75,-185.72 921.75,-108.17 921.75,-108.17"/>
<polygon fill="#c53030" stroke="#c53030" points="925.25,-108.17 921.75,-98.17 918.25,-108.17 925.25,-108.17"/>
<text text-anchor="middle" x="946" y="-160.68" font-family="Helvetica,sans-Serif" font-size="9.00">Exposes /metrics</text>
<text text-anchor="middle" x="946" y="-150.68" font-family="Helvetica,sans-Serif" font-size="9.00">Prometheus format</text>
</g>
<!-- MQ -->
<g id="node19" class="node">
<title>MQ</title>
<path fill="#e53e3e" stroke="black" d="M1306,-97.94C1306,-97.94 1206,-97.94 1206,-97.94 1200,-97.94 1194,-91.94 1194,-85.94 1194,-85.94 1194,-40.94 1194,-40.94 1194,-34.94 1200,-28.94 1206,-28.94 1206,-28.94 1306,-28.94 1306,-28.94 1312,-28.94 1318,-34.94 1318,-40.94 1318,-40.94 1318,-85.94 1318,-85.94 1318,-91.94 1312,-97.94 1306,-97.94"/>
<text text-anchor="middle" x="1256" y="-85.14" font-family="Helvetica,sans-Serif" font-size="11.00" fill="white">RabbitMQ/Azure SB</text>
<text text-anchor="middle" x="1256" y="-73.14" font-family="Helvetica,sans-Serif" font-size="11.00" fill="white">[Infrastructure]</text>
<text text-anchor="middle" x="1256" y="-48.14" font-family="Helvetica,sans-Serif" font-size="11.00" fill="white">Message Bus</text>
<text text-anchor="middle" x="1256" y="-36.14" font-family="Helvetica,sans-Serif" font-size="11.00" fill="white">Distributed Events</text>
</g>
<!-- MDC&#45;&gt;MQ -->
<g id="edge14" class="edge">
<title>MDC&#45;&gt;MQ</title>
<path fill="none" stroke="#c53030" d="M1168.24,-202C1196.32,-202 1217.25,-202 1217.25,-202 1217.25,-202 1217.25,-108.05 1217.25,-108.05"/>
<polygon fill="#c53030" stroke="#c53030" points="1220.75,-108.05 1217.25,-98.05 1213.75,-108.05 1220.75,-108.05"/>
<text text-anchor="middle" x="1254.5" y="-160.68" font-family="Helvetica,sans-Serif" font-size="9.00">Publishes</text>
<text text-anchor="middle" x="1254.5" y="-150.68" font-family="Helvetica,sans-Serif" font-size="9.00">MassTransit events</text>
</g>
<!-- IB -->
<g id="node5" class="node">
<title>IB</title>
<path fill="#4a90d9" stroke="black" d="M768.5,-451.65C768.5,-451.65 635.5,-451.65 635.5,-451.65 629.5,-451.65 623.5,-445.65 623.5,-439.65 623.5,-439.65 623.5,-394.65 623.5,-394.65 623.5,-388.65 629.5,-382.65 635.5,-382.65 635.5,-382.65 768.5,-382.65 768.5,-382.65 774.5,-382.65 780.5,-388.65 780.5,-394.65 780.5,-394.65 780.5,-439.65 780.5,-439.65 780.5,-445.65 774.5,-451.65 768.5,-451.65"/>
<text text-anchor="middle" x="702" y="-438.85" font-family="Helvetica,sans-Serif" font-size="11.00" fill="white">Interactive Brokers</text>
<text text-anchor="middle" x="702" y="-426.85" font-family="Helvetica,sans-Serif" font-size="11.00" fill="white">[External System]</text>
<text text-anchor="middle" x="702" y="-401.85" font-family="Helvetica,sans-Serif" font-size="11.00" fill="white">TWS/Gateway API</text>
<text text-anchor="middle" x="702" y="-389.85" font-family="Helvetica,sans-Serif" font-size="11.00" fill="white">Trades, Quotes, L2 Depth</text>
</g>
<!-- IB&#45;&gt;MDC -->
<g id="edge4" class="edge">
<title>IB&#45;&gt;MDC</title>
<path fill="none" stroke="#2b6cb0" d="M710.5,-382.51C710.5,-343.06 710.5,-284 710.5,-284 710.5,-284 869.64,-284 869.64,-284"/>
<polygon fill="#2b6cb0" stroke="#2b6cb0" points="869.64,-287.5 879.64,-284 869.64,-280.5 869.64,-287.5"/>
<text text-anchor="middle" x="889.5" y="-334.68" font-family="Helvetica,sans-Serif" font-size="9.00">WebSocket</text>
<text text-anchor="middle" x="889.5" y="-324.68" font-family="Helvetica,sans-Serif" font-size="9.00">L1/L2 streaming</text>
</g>
<!-- ALP -->
<g id="node6" class="node">
<title>ALP</title>
<path fill="#4a90d9" stroke="black" d="M909,-451.65C909,-451.65 811,-451.65 811,-451.65 805,-451.65 799,-445.65 799,-439.65 799,-439.65 799,-394.65 799,-394.65 799,-388.65 805,-382.65 811,-382.65 811,-382.65 909,-382.65 909,-382.65 915,-382.65 921,-388.65 921,-394.65 921,-394.65 921,-439.65 921,-439.65 921,-445.65 915,-451.65 909,-451.65"/>
<text text-anchor="middle" x="860" y="-438.85" font-family="Helvetica,sans-Serif" font-size="11.00" fill="white">Alpaca Markets</text>
<text text-anchor="middle" x="860" y="-426.85" font-family="Helvetica,sans-Serif" font-size="11.00" fill="white">[External System]</text>
<text text-anchor="middle" x="860" y="-401.85" font-family="Helvetica,sans-Serif" font-size="11.00" fill="white">WebSocket + REST</text>
<text text-anchor="middle" x="860" y="-389.85" font-family="Helvetica,sans-Serif" font-size="11.00" fill="white">IEX/SIP Feeds</text>
</g>
<!-- ALP&#45;&gt;MDC -->
<g id="edge5" class="edge">
<title>ALP&#45;&gt;MDC</title>
<path fill="none" stroke="#2b6cb0" d="M907.33,-382.29C907.33,-382.29 907.33,-314.12 907.33,-314.12"/>
<polygon fill="#2b6cb0" stroke="#2b6cb0" points="910.83,-314.12 907.33,-304.12 903.83,-314.12 910.83,-314.12"/>
<text text-anchor="middle" x="975.5" y="-334.68" font-family="Helvetica,sans-Serif" font-size="9.00">WebSocket</text>
<text text-anchor="middle" x="975.5" y="-324.68" font-family="Helvetica,sans-Serif" font-size="9.00">real&#45;time</text>
</g>
<!-- NYSE -->
<g id="node7" class="node">
<title>NYSE</title>
<path fill="#4a90d9" stroke="black" d="M1063,-451.65C1063,-451.65 951,-451.65 951,-451.65 945,-451.65 939,-445.65 939,-439.65 939,-439.65 939,-394.65 939,-394.65 939,-388.65 945,-382.65 951,-382.65 951,-382.65 1063,-382.65 1063,-382.65 1069,-382.65 1075,-388.65 1075,-394.65 1075,-394.65 1075,-439.65 1075,-439.65 1075,-445.65 1069,-451.65 1063,-451.65"/>
<text text-anchor="middle" x="1007" y="-438.85" font-family="Helvetica,sans-Serif" font-size="11.00" fill="white">NYSE Direct</text>
<text text-anchor="middle" x="1007" y="-426.85" font-family="Helvetica,sans-Serif" font-size="11.00" fill="white">[External System]</text>
<text text-anchor="middle" x="1007" y="-401.85" font-family="Helvetica,sans-Serif" font-size="11.00" fill="white">Exchange&#45;Direct Feed</text>
<text text-anchor="middle" x="1007" y="-389.85" font-family="Helvetica,sans-Serif" font-size="11.00" fill="white">US Equities</text>
</g>
<!-- NYSE&#45;&gt;MDC -->
<g id="edge6" class="edge">
<title>NYSE&#45;&gt;MDC</title>
<path fill="none" stroke="#2b6cb0" d="M1007,-382.29C1007,-382.29 1007,-314.12 1007,-314.12"/>
<polygon fill="#2b6cb0" stroke="#2b6cb0" points="1010.5,-314.12 1007,-304.12 1003.5,-314.12 1010.5,-314.12"/>
<text text-anchor="middle" x="1058" y="-334.68" font-family="Helvetica,sans-Serif" font-size="9.00">Exchange feed</text>
<text text-anchor="middle" x="1058" y="-324.68" font-family="Helvetica,sans-Serif" font-size="9.00">US equities</text>
</g>
<!-- SS -->
<g id="node8" class="node">
<title>SS</title>
<path fill="#4a90d9" stroke="black" d="M1228.5,-451.65C1228.5,-451.65 1105.5,-451.65 1105.5,-451.65 1099.5,-451.65 1093.5,-445.65 1093.5,-439.65 1093.5,-439.65 1093.5,-394.65 1093.5,-394.65 1093.5,-388.65 1099.5,-382.65 1105.5,-382.65 1105.5,-382.65 1228.5,-382.65 1228.5,-382.65 1234.5,-382.65 1240.5,-388.65 1240.5,-394.65 1240.5,-394.65 1240.5,-439.65 1240.5,-439.65 1240.5,-445.65 1234.5,-451.65 1228.5,-451.65"/>
<text text-anchor="middle" x="1167" y="-438.85" font-family="Helvetica,sans-Serif" font-size="11.00" fill="white">StockSharp</text>
<text text-anchor="middle" x="1167" y="-426.85" font-family="Helvetica,sans-Serif" font-size="11.00" fill="white">[External System]</text>
<text text-anchor="middle" x="1167" y="-401.85" font-family="Helvetica,sans-Serif" font-size="11.00" fill="white">Multi&#45;Exchange Adapter</text>
<text text-anchor="middle" x="1167" y="-389.85" font-family="Helvetica,sans-Serif" font-size="11.00" fill="white">Global Markets</text>
</g>
<!-- SS&#45;&gt;MDC -->
<g id="edge7" class="edge">
<title>SS&#45;&gt;MDC</title>
<path fill="none" stroke="#2b6cb0" d="M1130.75,-382.29C1130.75,-382.29 1130.75,-314.12 1130.75,-314.12"/>
<polygon fill="#2b6cb0" stroke="#2b6cb0" points="1134.25,-314.12 1130.75,-304.12 1127.25,-314.12 1134.25,-314.12"/>
<text text-anchor="middle" x="1184" y="-334.68" font-family="Helvetica,sans-Serif" font-size="9.00">Multi&#45;exchange</text>
<text text-anchor="middle" x="1184" y="-324.68" font-family="Helvetica,sans-Serif" font-size="9.00">adapter</text>
</g>
<!-- YF -->
<g id="node9" class="node">
<title>YF</title>
<path fill="#38a169" stroke="black" d="M1961.5,-451.65C1961.5,-451.65 1842.5,-451.65 1842.5,-451.65 1836.5,-451.65 1830.5,-445.65 1830.5,-439.65 1830.5,-439.65 1830.5,-394.65 1830.5,-394.65 1830.5,-388.65 1836.5,-382.65 1842.5,-382.65 1842.5,-382.65 1961.5,-382.65 1961.5,-382.65 1967.5,-382.65 1973.5,-388.65 1973.5,-394.65 1973.5,-394.65 1973.5,-439.65 1973.5,-439.65 1973.5,-445.65 1967.5,-451.65 1961.5,-451.65"/>
<text text-anchor="middle" x="1902" y="-438.85" font-family="Helvetica,sans-Serif" font-size="11.00" fill="white">Yahoo Finance</text>
<text text-anchor="middle" x="1902" y="-426.85" font-family="Helvetica,sans-Serif" font-size="11.00" fill="white">[External System]</text>
<text text-anchor="middle" x="1902" y="-401.85" font-family="Helvetica,sans-Serif" font-size="11.00" fill="white">50K+ Global Securities</text>
<text text-anchor="middle" x="1902" y="-389.85" font-family="Helvetica,sans-Serif" font-size="11.00" fill="white">Free OHLCV</text>
</g>
<!-- YF&#45;&gt;MDC -->
<g id="edge8" class="edge">
<title>YF&#45;&gt;MDC</title>
<path fill="none" stroke="#2c7a7b" d="M1902,-382.64C1902,-325.86 1902,-219 1902,-219 1902,-219 1178,-219 1178,-219"/>
<polygon fill="#2c7a7b" stroke="#2c7a7b" points="1178,-215.5 1168,-219 1178,-222.5 1178,-215.5"/>
<text text-anchor="middle" x="1869" y="-334.68" font-family="Helvetica,sans-Serif" font-size="9.00">REST</text>
<text text-anchor="middle" x="1869" y="-324.68" font-family="Helvetica,sans-Serif" font-size="9.00">historical bars</text>
</g>
<!-- TI -->
<g id="node10" class="node">
<title>TI</title>
<path fill="#38a169" stroke="black" d="M1369,-451.65C1369,-451.65 1277,-451.65 1277,-451.65 1271,-451.65 1265,-445.65 1265,-439.65 1265,-439.65 1265,-394.65 1265,-394.65 1265,-388.65 1271,-382.65 1277,-382.65 1277,-382.65 1369,-382.65 1369,-382.65 1375,-382.65 1381,-388.65 1381,-394.65 1381,-394.65 1381,-439.65 1381,-439.65 1381,-445.65 1375,-451.65 1369,-451.65"/>
<text text-anchor="middle" x="1323" y="-438.85" font-family="Helvetica,sans-Serif" font-size="11.00" fill="white">Tiingo</text>
<text text-anchor="middle" x="1323" y="-426.85" font-family="Helvetica,sans-Serif" font-size="11.00" fill="white">[External System]</text>
<text text-anchor="middle" x="1323" y="-401.85" font-family="Helvetica,sans-Serif" font-size="11.00" fill="white">Dividend&#45;Adjusted</text>
<text text-anchor="middle" x="1323" y="-389.85" font-family="Helvetica,sans-Serif" font-size="11.00" fill="white">Fundamentals</text>
</g>
<!-- TI&#45;&gt;MDC -->
<g id="edge9" class="edge">
<title>TI&#45;&gt;MDC</title>
<path fill="none" stroke="#2c7a7b" d="M1291.5,-382.61C1291.5,-344.06 1291.5,-287 1291.5,-287 1291.5,-287 1178.32,-287 1178.32,-287"/>
<polygon fill="#2c7a7b" stroke="#2c7a7b" points="1178.32,-283.5 1168.32,-287 1178.32,-290.5 1178.32,-283.5"/>
<text text-anchor="middle" x="1322.5" y="-334.68" font-family="Helvetica,sans-Serif" font-size="9.00">REST</text>
<text text-anchor="middle" x="1322.5" y="-324.68" font-family="Helvetica,sans-Serif" font-size="9.00">adjusted data</text>
</g>
<!-- FH -->
<g id="node11" class="node">
<title>FH</title>
<path fill="#38a169" stroke="black" d="M1503,-451.65C1503,-451.65 1411,-451.65 1411,-451.65 1405,-451.65 1399,-445.65 1399,-439.65 1399,-439.65 1399,-394.65 1399,-394.65 1399,-388.65 1405,-382.65 1411,-382.65 1411,-382.65 1503,-382.65 1503,-382.65 1509,-382.65 1515,-388.65 1515,-394.65 1515,-394.65 1515,-439.65 1515,-439.65 1515,-445.65 1509,-451.65 1503,-451.65"/>
<text text-anchor="middle" x="1457" y="-438.85" font-family="Helvetica,sans-Serif" font-size="11.00" fill="white">Finnhub</text>
<text text-anchor="middle" x="1457" y="-426.85" font-family="Helvetica,sans-Serif" font-size="11.00" fill="white">[External System]</text>
<text text-anchor="middle" x="1457" y="-401.85" font-family="Helvetica,sans-Serif" font-size="11.00" fill="white">Historical + News</text>
<text text-anchor="middle" x="1457" y="-389.85" font-family="Helvetica,sans-Serif" font-size="11.00" fill="white">Fundamentals</text>
</g>
<!-- FH&#45;&gt;MDC -->
<g id="edge10" class="edge">
<title>FH&#45;&gt;MDC</title>
<path fill="none" stroke="#2c7a7b" d="M1457,-382.65C1457,-339.16 1457,-270 1457,-270 1457,-270 1178.18,-270 1178.18,-270"/>
<polygon fill="#2c7a7b" stroke="#2c7a7b" points="1178.18,-266.5 1168.18,-270 1178.18,-273.5 1178.18,-266.5"/>
<text text-anchor="middle" x="1456.5" y="-334.68" font-family="Helvetica,sans-Serif" font-size="9.00">REST</text>
<text text-anchor="middle" x="1456.5" y="-324.68" font-family="Helvetica,sans-Serif" font-size="9.00">fundamentals</text>
</g>
<!-- POL -->
<g id="node12" class="node">
<title>POL</title>
<path fill="#38a169" stroke="black" d="M1637,-451.65C1637,-451.65 1545,-451.65 1545,-451.65 1539,-451.65 1533,-445.65 1533,-439.65 1533,-439.65 1533,-394.65 1533,-394.65 1533,-388.65 1539,-382.65 1545,-382.65 1545,-382.65 1637,-382.65 1637,-382.65 1643,-382.65 1649,-388.65 1649,-394.65 1649,-394.65 1649,-439.65 1649,-439.65 1649,-445.65 1643,-451.65 1637,-451.65"/>
<text text-anchor="middle" x="1591" y="-438.85" font-family="Helvetica,sans-Serif" font-size="11.00" fill="white">Polygon.io</text>
<text text-anchor="middle" x="1591" y="-426.85" font-family="Helvetica,sans-Serif" font-size="11.00" fill="white">[External System]</text>
<text text-anchor="middle" x="1591" y="-401.85" font-family="Helvetica,sans-Serif" font-size="11.00" fill="white">Historical Bars</text>
<text text-anchor="middle" x="1591" y="-389.85" font-family="Helvetica,sans-Serif" font-size="11.00" fill="white">Minute/Day</text>
</g>
<!-- POL&#45;&gt;MDC -->
<g id="edge11" class="edge">
<title>POL&#45;&gt;MDC</title>
<path fill="none" stroke="#2c7a7b" d="M1591,-382.34C1591,-334.15 1591,-253 1591,-253 1591,-253 1178.18,-253 1178.18,-253"/>
<polygon fill="#2c7a7b" stroke="#2c7a7b" points="1178.18,-249.5 1168.18,-253 1178.18,-256.5 1178.18,-249.5"/>
<text text-anchor="middle" x="1579.5" y="-334.68" font-family="Helvetica,sans-Serif" font-size="9.00">REST</text>
<text text-anchor="middle" x="1579.5" y="-324.68" font-family="Helvetica,sans-Serif" font-size="9.00">historical</text>
</g>
<!-- STOOQ -->
<g id="node13" class="node">
<title>STOOQ</title>
<path fill="#38a169" stroke="black" d="M1800.5,-451.65C1800.5,-451.65 1679.5,-451.65 1679.5,-451.65 1673.5,-451.65 1667.5,-445.65 1667.5,-439.65 1667.5,-439.65 1667.5,-394.65 1667.5,-394.65 1667.5,-388.65 1673.5,-382.65 1679.5,-382.65 1679.5,-382.65 1800.5,-382.65 1800.5,-382.65 1806.5,-382.65 1812.5,-388.65 1812.5,-394.65 1812.5,-394.65 1812.5,-439.65 1812.5,-439.65 1812.5,-445.65 1806.5,-451.65 1800.5,-451.65"/>
<text text-anchor="middle" x="1740" y="-438.85" font-family="Helvetica,sans-Serif" font-size="11.00" fill="white">Stooq + Others</text>
<text text-anchor="middle" x="1740" y="-426.85" font-family="Helvetica,sans-Serif" font-size="11.00" fill="white">[External System]</text>
<text text-anchor="middle" x="1740" y="-401.85" font-family="Helvetica,sans-Serif" font-size="11.00" fill="white">Nasdaq, Alpha Vantage</text>
<text text-anchor="middle" x="1740" y="-389.85" font-family="Helvetica,sans-Serif" font-size="11.00" fill="white">EOD Data</text>
</g>
<!-- STOOQ&#45;&gt;MDC -->
<g id="edge12" class="edge">
<title>STOOQ&#45;&gt;MDC</title>
<path fill="none" stroke="#2c7a7b" d="M1740,-382.22C1740,-329.58 1740,-236 1740,-236 1740,-236 1178.03,-236 1178.03,-236"/>
<polygon fill="#2c7a7b" stroke="#2c7a7b" points="1178.03,-232.5 1168.03,-236 1178.03,-239.5 1178.03,-232.5"/>
<text text-anchor="middle" x="1711.5" y="-334.68" font-family="Helvetica,sans-Serif" font-size="9.00">REST</text>
<text text-anchor="middle" x="1711.5" y="-324.68" font-family="Helvetica,sans-Serif" font-size="9.00">EOD data</text>
</g>
<!-- L1 -->
<g id="node20" class="node">
<title>L1</title>
<ellipse fill="#08427b" stroke="black" cx="2642" cy="-417.15" rx="31.74" ry="18"/>
<text text-anchor="middle" x="2642" y="-414.35" font-family="Helvetica,sans-Serif" font-size="11.00" fill="white">Person</text>
</g>
<!-- L2 -->
<g id="node21" class="node">
<title>L2</title>
<path fill="#438dd5" stroke="black" d="M2580,-435.15C2580,-435.15 2546,-435.15 2546,-435.15 2540,-435.15 2534,-429.15 2534,-423.15 2534,-423.15 2534,-411.15 2534,-411.15 2534,-405.15 2540,-399.15 2546,-399.15 2546,-399.15 2580,-399.15 2580,-399.15 2586,-399.15 2592,-405.15 2592,-411.15 2592,-411.15 2592,-423.15 2592,-423.15 2592,-429.15 2586,-435.15 2580,-435.15"/>
<text text-anchor="middle" x="2563" y="-414.35" font-family="Helvetica,sans-Serif" font-size="11.00" fill="white">System</text>
</g>
<!-- L3 -->
<g id="node22" class="node">
<title>L3</title>
<path fill="#4a90d9" stroke="black" d="M2504,-435.15C2504,-435.15 2406,-435.15 2406,-435.15 2400,-435.15 2394,-429.15 2394,-423.15 2394,-423.15 2394,-411.15 2394,-411.15 2394,-405.15 2400,-399.15 2406,-399.15 2406,-399.15 2504,-399.15 2504,-399.15 2510,-399.15 2516,-405.15 2516,-411.15 2516,-411.15 2516,-423.15 2516,-423.15 2516,-429.15 2510,-435.15 2504,-435.15"/>
<text text-anchor="middle" x="2455" y="-414.35" font-family="Helvetica,sans-Serif" font-size="11.00" fill="white">Streaming Provider</text>
</g>
<!-- L4 -->
<g id="node23" class="node">
<title>L4</title>
<path fill="#38a169" stroke="black" d="M2364,-435.15C2364,-435.15 2270,-435.15 2270,-435.15 2264,-435.15 2258,-429.15 2258,-423.15 2258,-423.15 2258,-411.15 2258,-411.15 2258,-405.15 2264,-399.15 2270,-399.15 2270,-399.15 2364,-399.15 2364,-399.15 2370,-399.15 2376,-405.15 2376,-411.15 2376,-411.15 2376,-423.15 2376,-423.15 2376,-429.15 2370,-435.15 2364,-435.15"/>
<text text-anchor="middle" x="2317" y="-414.35" font-family="Helvetica,sans-Serif" font-size="11.00" fill="white">Historical Provider</text>
</g>
<!-- L5 -->
<g id="node24" class="node">
<title>L5</title>
<path fill="#805ad5" stroke="black" d="M2227.5,-435.15C2227.5,-435.15 2120.5,-435.15 2120.5,-435.15 2114.5,-435.15 2108.5,-429.15 2108.5,-423.15 2108.5,-423.15 2108.5,-411.15 2108.5,-411.15 2108.5,-405.15 2114.5,-399.15 2120.5,-399.15 2120.5,-399.15 2227.5,-399.15 2227.5,-399.15 2233.5,-399.15 2239.5,-405.15 2239.5,-411.15 2239.5,-411.15 2239.5,-423.15 2239.5,-423.15 2239.5,-429.15 2233.5,-435.15 2227.5,-435.15"/>
<text text-anchor="middle" x="2174" y="-414.35" font-family="Helvetica,sans-Serif" font-size="11.00" fill="white">Downstream System</text>
</g>
<!-- L6 -->
<g id="node25" class="node">
<title>L6</title>
<path fill="#e53e3e" stroke="black" d="M2090,-431.88C2090,-433.68 2069.38,-435.15 2044,-435.15 2018.62,-435.15 1998,-433.68 1998,-431.88 1998,-431.88 1998,-402.42 1998,-402.42 1998,-400.62 2018.62,-399.15 2044,-399.15 2069.38,-399.15 2090,-400.62 2090,-402.42 2090,-402.42 2090,-431.88 2090,-431.88"/>
<path fill="none" stroke="black" d="M2090,-431.88C2090,-430.07 2069.38,-428.61 2044,-428.61 2018.62,-428.61 1998,-430.07 1998,-431.88"/>
<text text-anchor="middle" x="2044" y="-414.35" font-family="Helvetica,sans-Serif" font-size="11.00" fill="white">Infrastructure</text>
</g>
</g>
</svg>
