<?xml version="1.0" encoding="UTF-8" standalone="no"?>
<!DOCTYPE svg PUBLIC "-//W3C//DTD SVG 1.1//EN"
 "http://www.w3.org/Graphics/SVG/1.1/DTD/svg11.dtd">
<!-- Generated by graphviz version 2.43.0 (0)
 -->
<!-- Title: G Pages: 1 -->
<svg width="476pt" height="98pt"
 viewBox="0.00 0.00 476.46 98.00" xmlns="http://www.w3.org/2000/svg" xmlns:xlink="http://www.w3.org/1999/xlink">
<g id="graph0" class="graph" transform="scale(1 1) rotate(0) translate(4 94)">
<title>G</title>
<polygon fill="white" stroke="transparent" points="-4,4 -4,-94 472.46,-94 472.46,4 -4,4"/>
<!-- Operator -->
<g id="node1" class="node">
<title>Operator</title>
<ellipse fill="#ffffff" stroke="#333333" cx="34.73" cy="-18" rx="34.96" ry="18"/>
<text text-anchor="middle" x="34.73" y="-15.5" font-family="Helvetica,sans-Serif" font-size="10.00">Operator</text>
</g>
<!-- UI -->
<g id="node3" class="node">
<title>UI</title>
<path fill="#e8f4ff" stroke="#2b6cb0" d="M200.96,-36C200.96,-36 118.96,-36 118.96,-36 112.96,-36 106.96,-30 106.96,-24 106.96,-24 106.96,-12 106.96,-12 106.96,-6 112.96,0 118.96,0 118.96,0 200.96,0 200.96,0 206.96,0 212.96,-6 212.96,-12 212.96,-12 212.96,-24 212.96,-24 212.96,-30 206.96,-36 200.96,-36"/>
<text text-anchor="middle" x="159.96" y="-21" font-family="Helvetica,sans-Serif" font-size="10.00">IBDataCollector.Ui</text>
<text text-anchor="middle" x="159.96" y="-10" font-family="Helvetica,sans-Serif" font-size="10.00">Dashboard</text>
</g>
<!-- Operator&#45;&gt;UI -->
<g id="edge1" class="edge">
<title>Operator&#45;&gt;UI</title>
<path fill="none" stroke="#4a5568" d="M69.73,-18C78.1,-18 87.33,-18 96.58,-18"/>
<polygon fill="#4a5568" stroke="#4a5568" points="96.59,-21.5 106.59,-18 96.59,-14.5 96.59,-21.5"/>
</g>
<!-- IB -->
<g id="node2" class="node">
<title>IB</title>
<path fill="#f8f8f8" stroke="#333333" d="M202.46,-90C202.46,-90 117.46,-90 117.46,-90 111.46,-90 105.46,-84 105.46,-78 105.46,-78 105.46,-66 105.46,-66 105.46,-60 111.46,-54 117.46,-54 117.46,-54 202.46,-54 202.46,-54 208.46,-54 214.46,-60 214.46,-66 214.46,-66 214.46,-78 214.46,-78 214.46,-84 208.46,-90 202.46,-90"/>
<text text-anchor="middle" x="159.96" y="-75" font-family="Helvetica,sans-Serif" font-size="10.00">Interactive Brokers</text>
<text text-anchor="middle" x="159.96" y="-64" font-family="Helvetica,sans-Serif" font-size="10.00">TWS/Gateway</text>
</g>
<!-- COL -->
<g id="node4" class="node">
<title>COL</title>
<path fill="#e6fffa" stroke="#2c7a7b" d="M337.46,-82C337.46,-82 262.46,-82 262.46,-82 256.46,-82 250.46,-76 250.46,-70 250.46,-70 250.46,-58 250.46,-58 250.46,-52 256.46,-46 262.46,-46 262.46,-46 337.46,-46 337.46,-46 343.46,-46 349.46,-52 349.46,-58 349.46,-58 349.46,-70 349.46,-70 349.46,-76 343.46,-82 337.46,-82"/>
<text text-anchor="middle" x="299.96" y="-67" font-family="Helvetica,sans-Serif" font-size="10.00">IB Data Collector</text>
<text text-anchor="middle" x="299.96" y="-56" font-family="Helvetica,sans-Serif" font-size="10.00">Service</text>
</g>
<!-- IB&#45;&gt;COL -->
<g id="edge3" class="edge">
<title>IB&#45;&gt;COL</title>
<path fill="none" stroke="#4a5568" d="M214.71,-68.88C223,-68.4 231.59,-67.91 239.98,-67.42"/>
<polygon fill="#4a5568" stroke="#4a5568" points="240.31,-70.91 250.09,-66.83 239.9,-63.92 240.31,-70.91"/>
</g>
<!-- UI&#45;&gt;COL -->
<g id="edge2" class="edge">
<title>UI&#45;&gt;COL</title>
<path fill="none" stroke="#4a5568" d="M213.13,-35.39C222.1,-38.38 231.47,-41.5 240.59,-44.54"/>
<polygon fill="#4a5568" stroke="#4a5568" points="239.76,-47.96 250.36,-47.8 241.98,-41.32 239.76,-47.96"/>
</g>
<!-- DISK -->
<g id="node5" class="node">
<title>DISK</title>
<path fill="#fff5f5" stroke="#c53030" d="M468.46,-57.98C468.46,-60.06 449.86,-61.75 426.96,-61.75 404.06,-61.75 385.46,-60.06 385.46,-57.98 385.46,-57.98 385.46,-24.02 385.46,-24.02 385.46,-21.94 404.06,-20.25 426.96,-20.25 449.86,-20.25 468.46,-21.94 468.46,-24.02 468.46,-24.02 468.46,-57.98 468.46,-57.98"/>
<path fill="none" stroke="#c53030" d="M468.46,-57.98C468.46,-55.9 449.86,-54.21 426.96,-54.21 404.06,-54.21 385.46,-55.9 385.46,-57.98"/>
<text text-anchor="middle" x="426.96" y="-44" font-family="Helvetica,sans-Serif" font-size="10.00">Local Storage</text>
<text text-anchor="middle" x="426.96" y="-33" font-family="Helvetica,sans-Serif" font-size="10.00">JSONL / Gzip</text>
</g>
<!-- UI&#45;&gt;DISK -->
<g id="edge5" class="edge">
<title>UI&#45;&gt;DISK</title>
<path fill="none" stroke="#4a5568" d="M223.06,-23.39C269.4,-27.41 331.93,-32.84 375.27,-36.6"/>
<polygon fill="#4a5568" stroke="#4a5568" points="223.27,-19.89 213,-22.52 222.66,-26.87 223.27,-19.89"/>
<polygon fill="#4a5568" stroke="#4a5568" points="375.05,-40.09 385.31,-37.47 375.65,-33.12 375.05,-40.09"/>
</g>
<!-- COL&#45;&gt;DISK -->
<g id="edge4" class="edge">
<title>COL&#45;&gt;DISK</title>
<path fill="none" stroke="#4a5568" d="M349.65,-55.04C358.03,-53.5 366.76,-51.89 375.2,-50.34"/>
<polygon fill="#4a5568" stroke="#4a5568" points="376.1,-53.73 385.3,-48.48 374.83,-46.85 376.1,-53.73"/>
</g>
</g>
</svg>
