<?xml version="1.0" encoding="UTF-8" standalone="no"?>
<!DOCTYPE svg PUBLIC "-//W3C//DTD SVG 1.1//EN"
 "http://www.w3.org/Graphics/SVG/1.1/DTD/svg11.dtd">
<!-- Generated by graphviz version 14.1.1 (20251213.1925)
 -->
<!-- Title: C4_Context Pages: 1 -->
<svg width="2684pt" height="650pt"
 viewBox="0.00 0.00 2684.00 650.00" xmlns="http://www.w3.org/2000/svg" xmlns:xlink="http://www.w3.org/1999/xlink">
<g id="graph0" class="graph" transform="scale(1 1) rotate(0) translate(36 613.71)">
<title>C4_Context</title>
<polygon fill="white" stroke="none" points="-36,36 -36,-613.71 2648,-613.71 2648,36 -36,36"/>
<text xml:space="preserve" text-anchor="middle" x="1306" y="-562.91" font-family="Helvetica,sans-Serif" font-size="12.00">Market Data Collector &#45; System Context (C4 Level 1)</text>
<text xml:space="preserve" text-anchor="middle" x="1306" y="-548.51" font-family="Helvetica,sans-Serif" font-size="12.00">v1.6.1</text>
<g id="clust1" class="cluster">
<title>cluster_actors</title>
</g>
<g id="clust2" class="cluster">
<title>cluster_streaming</title>
<path fill="#f0f8ff" stroke="#2b6cb0" d="M564,-396.09C564,-396.09 1269,-396.09 1269,-396.09 1275,-396.09 1281,-402.09 1281,-408.09 1281,-408.09 1281,-496.29 1281,-496.29 1281,-502.29 1275,-508.29 1269,-508.29 1269,-508.29 564,-508.29 564,-508.29 558,-508.29 552,-502.29 552,-496.29 552,-496.29 552,-408.09 552,-408.09 552,-402.09 558,-396.09 564,-396.09"/>
<text xml:space="preserve" text-anchor="middle" x="916.5" y="-493.49" font-family="Helvetica,sans-Serif" font-size="12.00">Real&#45;Time Streaming Providers</text>
</g>
<g id="clust3" class="cluster">
<title>cluster_historical</title>
<path fill="#e6fffa" stroke="#2c7a7b" d="M1301,-396.09C1301,-396.09 1949,-396.09 1949,-396.09 1955,-396.09 1961,-402.09 1961,-408.09 1961,-408.09 1961,-496.29 1961,-496.29 1961,-502.29 1955,-508.29 1949,-508.29 1949,-508.29 1301,-508.29 1301,-508.29 1295,-508.29 1289,-502.29 1289,-496.29 1289,-496.29 1289,-408.09 1289,-408.09 1289,-402.09 1295,-396.09 1301,-396.09"/>
<text xml:space="preserve" text-anchor="middle" x="1625" y="-493.49" font-family="Helvetica,sans-Serif" font-size="12.00">Historical Data Providers (10 Implemented)</text>
</g>
<g id="clust4" class="cluster">
<title>cluster_downstream</title>
<path fill="#faf5ff" stroke="#805ad5" d="M342,-21.84C342,-21.84 770,-21.84 770,-21.84 776,-21.84 782,-27.84 782,-33.84 782,-33.84 782,-122.04 782,-122.04 782,-128.04 776,-134.04 770,-134.04 770,-134.04 342,-134.04 342,-134.04 336,-134.04 330,-128.04 330,-122.04 330,-122.04 330,-33.84 330,-33.84 330,-27.84 336,-21.84 342,-21.84"/>
<text xml:space="preserve" text-anchor="middle" x="556" y="-119.24" font-family="Helvetica,sans-Serif" font-size="12.00">Analysis &amp; Trading Systems</text>
</g>
<g id="clust5" class="cluster">
<title>cluster_infra</title>
<path fill="#fff5f5" stroke="#c53030" d="M802,-8C802,-8 1250,-8 1250,-8 1256,-8 1262,-14 1262,-20 1262,-20 1262,-135.88 1262,-135.88 1262,-141.88 1256,-147.88 1250,-147.88 1250,-147.88 802,-147.88 802,-147.88 796,-147.88 790,-141.88 790,-135.88 790,-135.88 790,-20 790,-20 790,-14 796,-8 802,-8"/>
<text xml:space="preserve" text-anchor="middle" x="1026" y="-133.07" font-family="Helvetica,sans-Serif" font-size="12.00">Infrastructure</text>
</g>
<g id="clust6" class="cluster">
<title>cluster_legend</title>
<path fill="#fafafa" stroke="#666666" d="M1981,-414.99C1981,-414.99 2592,-414.99 2592,-414.99 2598,-414.99 2604,-420.99 2604,-426.99 2604,-426.99 2604,-477.39 2604,-477.39 2604,-483.39 2598,-489.39 2592,-489.39 2592,-489.39 1981,-489.39 1981,-489.39 1975,-489.39 1969,-483.39 1969,-477.39 1969,-477.39 1969,-426.99 1969,-426.99 1969,-420.99 1975,-414.99 1981,-414.99"/>
<text xml:space="preserve" text-anchor="middle" x="2286.5" y="-474.59" font-family="Helvetica,sans-Serif" font-size="12.00">Legend</text>
</g>
<!-- Operator -->
<g id="node1" class="node">
<title>Operator</title>
<ellipse fill="#08427b" stroke="black" cx="297" cy="-440.99" rx="85.68" ry="61.52"/>
<text xml:space="preserve" text-anchor="middle" x="297" y="-470.59" font-family="Helvetica,sans-Serif" font-size="11.00" fill="white">Operator</text>
<text xml:space="preserve" text-anchor="middle" x="297" y="-457.39" font-family="Helvetica,sans-Serif" font-size="11.00" fill="white">[Person]</text>
<text xml:space="preserve" text-anchor="middle" x="297" y="-431.19" font-family="Helvetica,sans-Serif" font-size="11.00" fill="white">Configures collection,</text>
<text xml:space="preserve" text-anchor="middle" x="297" y="-417.99" font-family="Helvetica,sans-Serif" font-size="11.00" fill="white">monitors health,</text>
<text xml:space="preserve" text-anchor="middle" x="297" y="-404.79" font-family="Helvetica,sans-Serif" font-size="11.00" fill="white">manages backfill</text>
</g>
<!-- MDC -->
<g id="node4" class="node">
<title>MDC</title>
<path fill="#438dd5" stroke="black" d="M1138,-321.87C1138,-321.87 874,-321.87 874,-321.87 868,-321.87 862,-315.87 862,-309.87 862,-309.87 862,-207.47 862,-207.47 862,-201.47 868,-195.47 874,-195.47 874,-195.47 1138,-195.47 1138,-195.47 1144,-195.47 1150,-201.47 1150,-207.47 1150,-207.47 1150,-309.87 1150,-309.87 1150,-315.87 1144,-321.87 1138,-321.87"/>
<text xml:space="preserve" text-anchor="middle" x="1006" y="-307.97" font-family="Helvetica,sans-Serif" font-size="11.00" fill="white">Market Data Collector</text>
<text xml:space="preserve" text-anchor="middle" x="1006" y="-294.77" font-family="Helvetica,sans-Serif" font-size="11.00" fill="white">[Software System]</text>
<text xml:space="preserve" text-anchor="middle" x="1006" y="-268.57" font-family="Helvetica,sans-Serif" font-size="11.00" fill="white">.NET 9.0 | C# 13 | F# 8</text>
<text xml:space="preserve" text-anchor="middle" x="1006" y="-242.37" font-family="Helvetica,sans-Serif" font-size="11.00" fill="white">Collects, validates, stores, and exports</text>
<text xml:space="preserve" text-anchor="middle" x="1006" y="-229.17" font-family="Helvetica,sans-Serif" font-size="11.00" fill="white">real&#45;time and historical market data</text>
<text xml:space="preserve" text-anchor="middle" x="1006" y="-215.97" font-family="Helvetica,sans-Serif" font-size="11.00" fill="white">from multiple providers with</text>
<text xml:space="preserve" text-anchor="middle" x="1006" y="-202.78" font-family="Helvetica,sans-Serif" font-size="11.00" fill="white">archival&#45;first persistence</text>
</g>
<!-- Operator&#45;&gt;MDC -->
<g id="edge1" class="edge">
<title>Operator&#45;&gt;MDC</title>
<path fill="none" stroke="#4a5568" d="M360.32,-399.11C360.32,-351.41 360.32,-280 360.32,-280 360.32,-280 850.39,-280 850.39,-280"/>
<polygon fill="#4a5568" stroke="#4a5568" points="850.39,-283.5 860.39,-280 850.39,-276.5 850.39,-283.5"/>
<text xml:space="preserve" text-anchor="middle" x="699.76" y="-353.37" font-family="Helvetica,sans-Serif" font-size="9.00">Configures via</text>
<text xml:space="preserve" text-anchor="middle" x="699.76" y="-342.57" font-family="Helvetica,sans-Serif" font-size="9.00">WPF/Web/CLI</text>
</g>
<!-- Quant -->
<g id="node2" class="node">
<title>Quant</title>
<ellipse fill="#08427b" stroke="black" cx="468" cy="-440.99" rx="67.52" ry="61.52"/>
<text xml:space="preserve" text-anchor="middle" x="468" y="-470.59" font-family="Helvetica,sans-Serif" font-size="11.00" fill="white">Quant/Analyst</text>
<text xml:space="preserve" text-anchor="middle" x="468" y="-457.39" font-family="Helvetica,sans-Serif" font-size="11.00" fill="white">[Person]</text>
<text xml:space="preserve" text-anchor="middle" x="468" y="-431.19" font-family="Helvetica,sans-Serif" font-size="11.00" fill="white">Analyzes data,</text>
<text xml:space="preserve" text-anchor="middle" x="468" y="-417.99" font-family="Helvetica,sans-Serif" font-size="11.00" fill="white">runs backtests,</text>
<text xml:space="preserve" text-anchor="middle" x="468" y="-404.79" font-family="Helvetica,sans-Serif" font-size="11.00" fill="white">builds strategies</text>
</g>
<!-- Quant&#45;&gt;MDC -->
<g id="edge2" class="edge">
<title>Quant&#45;&gt;MDC</title>
<path fill="none" stroke="#4a5568" d="M509.4,-392C611.16,-392 865.31,-392 865.31,-392 865.31,-392 865.31,-333.73 865.31,-333.73"/>
<polygon fill="#4a5568" stroke="#4a5568" points="868.81,-333.73 865.31,-323.73 861.81,-333.73 868.81,-333.73"/>
<text xml:space="preserve" text-anchor="middle" x="777.26" y="-353.37" font-family="Helvetica,sans-Serif" font-size="9.00">Exports data</text>
<text xml:space="preserve" text-anchor="middle" x="777.26" y="-342.57" font-family="Helvetica,sans-Serif" font-size="9.00">for analysis</text>
</g>
<!-- DevOps -->
<g id="node3" class="node">
<title>DevOps</title>
<ellipse fill="#08427b" stroke="black" cx="105" cy="-440.99" rx="88.69" ry="52.18"/>
<text xml:space="preserve" text-anchor="middle" x="105" y="-463.99" font-family="Helvetica,sans-Serif" font-size="11.00" fill="white">DevOps</text>
<text xml:space="preserve" text-anchor="middle" x="105" y="-450.79" font-family="Helvetica,sans-Serif" font-size="11.00" fill="white">[Person]</text>
<text xml:space="preserve" text-anchor="middle" x="105" y="-424.59" font-family="Helvetica,sans-Serif" font-size="11.00" fill="white">Deploys, scales,</text>
<text xml:space="preserve" text-anchor="middle" x="105" y="-411.39" font-family="Helvetica,sans-Serif" font-size="11.00" fill="white">monitors infrastructure</text>
</g>
<!-- PROM -->
<g id="node19" class="node">
<title>PROM</title>
<path fill="#e53e3e" stroke="black" d="M913.79,-103.64C913.79,-103.64 810.21,-103.64 810.21,-103.64 804.21,-103.64 798.21,-97.64 798.21,-91.64 798.21,-91.64 798.21,-41.84 798.21,-41.84 798.21,-35.84 804.21,-29.84 810.21,-29.84 810.21,-29.84 913.79,-29.84 913.79,-29.84 919.79,-29.84 925.79,-35.84 925.79,-41.84 925.79,-41.84 925.79,-91.64 925.79,-91.64 925.79,-97.64 919.79,-103.64 913.79,-103.64"/>
<text xml:space="preserve" text-anchor="middle" x="862" y="-89.74" font-family="Helvetica,sans-Serif" font-size="11.00" fill="white">Prometheus + Grafana</text>
<text xml:space="preserve" text-anchor="middle" x="862" y="-76.54" font-family="Helvetica,sans-Serif" font-size="11.00" fill="white">[Infrastructure]</text>
<text xml:space="preserve" text-anchor="middle" x="862" y="-50.34" font-family="Helvetica,sans-Serif" font-size="11.00" fill="white">Metrics, Dashboards</text>
<text xml:space="preserve" text-anchor="middle" x="862" y="-37.14" font-family="Helvetica,sans-Serif" font-size="11.00" fill="white">Alerting</text>
</g>
<!-- DevOps&#45;&gt;PROM -->
<g id="edge3" class="edge">
<title>DevOps&#45;&gt;PROM</title>
<path fill="none" stroke="#4a5568" d="M105,-388.38C105,-368.69 105,-351 105,-351 105,-351 826.24,-351 826.24,-351 826.24,-351 826.24,-115.41 826.24,-115.41"/>
<polygon fill="#4a5568" stroke="#4a5568" points="829.75,-115.41 826.25,-105.41 822.75,-115.41 829.75,-115.41"/>
<text xml:space="preserve" text-anchor="middle" x="664.26" y="-261.37" font-family="Helvetica,sans-Serif" font-size="9.00">Monitors</text>
<text xml:space="preserve" text-anchor="middle" x="664.26" y="-250.57" font-family="Helvetica,sans-Serif" font-size="9.00">infrastructure</text>
</g>
<!-- LEAN -->
<g id="node15" class="node">
<title>LEAN</title>
<path fill="#805ad5" stroke="black" d="M474.03,-103.64C474.03,-103.64 349.97,-103.64 349.97,-103.64 343.97,-103.64 337.97,-97.64 337.97,-91.64 337.97,-91.64 337.97,-41.84 337.97,-41.84 337.97,-35.84 343.97,-29.84 349.97,-29.84 349.97,-29.84 474.03,-29.84 474.03,-29.84 480.03,-29.84 486.03,-35.84 486.03,-41.84 486.03,-41.84 486.03,-91.64 486.03,-91.64 486.03,-97.64 480.03,-103.64 474.03,-103.64"/>
<text xml:space="preserve" text-anchor="middle" x="412" y="-89.74" font-family="Helvetica,sans-Serif" font-size="11.00" fill="white">QuantConnect Lean</text>
<text xml:space="preserve" text-anchor="middle" x="412" y="-76.54" font-family="Helvetica,sans-Serif" font-size="11.00" fill="white">[External System]</text>
<text xml:space="preserve" text-anchor="middle" x="412" y="-50.34" font-family="Helvetica,sans-Serif" font-size="11.00" fill="white">Algorithmic Trading Engine</text>
<text xml:space="preserve" text-anchor="middle" x="412" y="-37.14" font-family="Helvetica,sans-Serif" font-size="11.00" fill="white">Backtesting + Live</text>
</g>
<!-- MDC&#45;&gt;LEAN -->
<g id="edge16" class="edge">
<title>MDC&#45;&gt;LEAN</title>
<path fill="none" stroke="#805ad5" d="M861.81,-259C695.08,-259 443.26,-259 443.26,-259 443.26,-259 443.26,-115.32 443.26,-115.32"/>
<polygon fill="#805ad5" stroke="#805ad5" points="446.76,-115.32 443.26,-105.32 439.76,-115.32 446.76,-115.32"/>
<text xml:space="preserve" text-anchor="middle" x="473.52" y="-169.38" font-family="Helvetica,sans-Serif" font-size="9.00">Exports Lean</text>
<text xml:space="preserve" text-anchor="middle" x="473.52" y="-158.57" font-family="Helvetica,sans-Serif" font-size="9.00">format data</text>
</g>
<!-- PYTHON -->
<g id="node16" class="node">
<title>PYTHON</title>
<path fill="#805ad5" stroke="black" d="M600.16,-103.64C600.16,-103.64 515.84,-103.64 515.84,-103.64 509.84,-103.64 503.84,-97.64 503.84,-91.64 503.84,-91.64 503.84,-41.84 503.84,-41.84 503.84,-35.84 509.84,-29.84 515.84,-29.84 515.84,-29.84 600.16,-29.84 600.16,-29.84 606.16,-29.84 612.16,-35.84 612.16,-41.84 612.16,-41.84 612.16,-91.64 612.16,-91.64 612.16,-97.64 606.16,-103.64 600.16,-103.64"/>
<text xml:space="preserve" text-anchor="middle" x="558" y="-89.74" font-family="Helvetica,sans-Serif" font-size="11.00" fill="white">Python/R Analytics</text>
<text xml:space="preserve" text-anchor="middle" x="558" y="-76.54" font-family="Helvetica,sans-Serif" font-size="11.00" fill="white">[External System]</text>
<text xml:space="preserve" text-anchor="middle" x="558" y="-50.34" font-family="Helvetica,sans-Serif" font-size="11.00" fill="white">Pandas, NumPy</text>
<text xml:space="preserve" text-anchor="middle" x="558" y="-37.14" font-family="Helvetica,sans-Serif" font-size="11.00" fill="white">Data Science</text>
</g>
<!-- MDC&#45;&gt;PYTHON -->
<g id="edge17" class="edge">
<title>MDC&#45;&gt;PYTHON</title>
<path fill="none" stroke="#805ad5" d="M861.54,-238C740.11,-238 586.23,-238 586.23,-238 586.23,-238 586.23,-115.41 586.23,-115.41"/>
<polygon fill="#805ad5" stroke="#805ad5" points="589.73,-115.41 586.23,-105.41 582.73,-115.41 589.73,-115.41"/>
<text xml:space="preserve" text-anchor="middle" x="590.27" y="-169.38" font-family="Helvetica,sans-Serif" font-size="9.00">Exports Parquet</text>
<text xml:space="preserve" text-anchor="middle" x="590.27" y="-158.57" font-family="Helvetica,sans-Serif" font-size="9.00">CSV, Excel</text>
</g>
<!-- PGSQL -->
<g id="node17" class="node">
<title>PGSQL</title>
<path fill="#805ad5" stroke="black" d="M762.19,-103.64C762.19,-103.64 641.81,-103.64 641.81,-103.64 635.81,-103.64 629.81,-97.64 629.81,-91.64 629.81,-91.64 629.81,-41.84 629.81,-41.84 629.81,-35.84 635.81,-29.84 641.81,-29.84 641.81,-29.84 762.19,-29.84 762.19,-29.84 768.19,-29.84 774.19,-35.84 774.19,-41.84 774.19,-41.84 774.19,-91.64 774.19,-91.64 774.19,-97.64 768.19,-103.64 762.19,-103.64"/>
<text xml:space="preserve" text-anchor="middle" x="702" y="-89.74" font-family="Helvetica,sans-Serif" font-size="11.00" fill="white">PostgreSQL/TimescaleDB</text>
<text xml:space="preserve" text-anchor="middle" x="702" y="-76.54" font-family="Helvetica,sans-Serif" font-size="11.00" fill="white">[External System]</text>
<text xml:space="preserve" text-anchor="middle" x="702" y="-50.34" font-family="Helvetica,sans-Serif" font-size="11.00" fill="white">Time&#45;Series Analytics</text>
<text xml:space="preserve" text-anchor="middle" x="702" y="-37.14" font-family="Helvetica,sans-Serif" font-size="11.00" fill="white">SQL Queries</text>
</g>
<!-- MDC&#45;&gt;PGSQL -->
<g id="edge18" class="edge">
<title>MDC&#45;&gt;PGSQL</title>
<path fill="none" stroke="#805ad5" d="M861.78,-217C800.51,-217 742.95,-217 742.95,-217 742.95,-217 742.95,-115.39 742.95,-115.39"/>
<polygon fill="#805ad5" stroke="#805ad5" points="746.45,-115.39 742.95,-105.39 739.45,-115.39 746.45,-115.39"/>
<text xml:space="preserve" text-anchor="middle" x="788.76" y="-169.38" font-family="Helvetica,sans-Serif" font-size="9.00">Exports CSV</text>
<text xml:space="preserve" text-anchor="middle" x="788.76" y="-158.57" font-family="Helvetica,sans-Serif" font-size="9.00">with DDL</text>
</g>
<!-- DISK -->
<g id="node18" class="node">
<title>DISK</title>
<path fill="#e53e3e" stroke="black" d="M1120.54,-108.25C1120.54,-113.34 1080.85,-117.47 1032,-117.47 983.15,-117.47 943.46,-113.34 943.46,-108.25 943.46,-108.25 943.46,-25.23 943.46,-25.23 943.46,-20.13 983.15,-16 1032,-16 1080.85,-16 1120.54,-20.13 1120.54,-25.23 1120.54,-25.23 1120.54,-108.25 1120.54,-108.25"/>
<path fill="none" stroke="black" d="M1120.54,-108.25C1120.54,-103.16 1080.85,-99.03 1032,-99.03 983.15,-99.03 943.46,-103.16 943.46,-108.25"/>
<text xml:space="preserve" text-anchor="middle" x="1032" y="-89.74" font-family="Helvetica,sans-Serif" font-size="11.00" fill="white">Storage</text>
<text xml:space="preserve" text-anchor="middle" x="1032" y="-76.54" font-family="Helvetica,sans-Serif" font-size="11.00" fill="white">[Infrastructure]</text>
<text xml:space="preserve" text-anchor="middle" x="1032" y="-50.34" font-family="Helvetica,sans-Serif" font-size="11.00" fill="white">JSONL (Hot) + Parquet (Archive)</text>
<text xml:space="preserve" text-anchor="middle" x="1032" y="-37.14" font-family="Helvetica,sans-Serif" font-size="11.00" fill="white">Local/Cloud/S3</text>
</g>
<!-- MDC&#45;&gt;DISK -->
<g id="edge14" class="edge">
<title>MDC&#45;&gt;DISK</title>
<path fill="none" stroke="#c53030" d="M1032,-195.03C1032,-195.03 1032,-129.29 1032,-129.29"/>
<polygon fill="#c53030" stroke="#c53030" points="1035.5,-129.29 1032,-119.29 1028.5,-129.29 1035.5,-129.29"/>
<text xml:space="preserve" text-anchor="middle" x="1053.51" y="-169.38" font-family="Helvetica,sans-Serif" font-size="9.00">Persists events</text>
<text xml:space="preserve" text-anchor="middle" x="1053.51" y="-158.57" font-family="Helvetica,sans-Serif" font-size="9.00">WAL + JSONL</text>
</g>
<!-- MDC&#45;&gt;PROM -->
<g id="edge19" class="edge">
<title>MDC&#45;&gt;PROM</title>
<path fill="none" stroke="#c53030" d="M893.9,-195.03C893.9,-195.03 893.9,-115.42 893.9,-115.42"/>
<polygon fill="#c53030" stroke="#c53030" points="897.4,-115.42 893.9,-105.42 890.4,-115.42 897.4,-115.42"/>
<text xml:space="preserve" text-anchor="middle" x="918.27" y="-169.38" font-family="Helvetica,sans-Serif" font-size="9.00">Exposes /metrics</text>
<text xml:space="preserve" text-anchor="middle" x="918.27" y="-158.57" font-family="Helvetica,sans-Serif" font-size="9.00">Prometheus format</text>
</g>
<!-- MQ -->
<g id="node20" class="node">
<title>MQ</title>
<path fill="#e53e3e" stroke="black" d="M1241.52,-103.64C1241.52,-103.64 1150.48,-103.64 1150.48,-103.64 1144.48,-103.64 1138.48,-97.64 1138.48,-91.64 1138.48,-91.64 1138.48,-41.84 1138.48,-41.84 1138.48,-35.84 1144.48,-29.84 1150.48,-29.84 1150.48,-29.84 1241.52,-29.84 1241.52,-29.84 1247.52,-29.84 1253.52,-35.84 1253.52,-41.84 1253.52,-41.84 1253.52,-91.64 1253.52,-91.64 1253.52,-97.64 1247.52,-103.64 1241.52,-103.64"/>
<text xml:space="preserve" text-anchor="middle" x="1196" y="-89.74" font-family="Helvetica,sans-Serif" font-size="11.00" fill="white">RabbitMQ/Azure SB</text>
<text xml:space="preserve" text-anchor="middle" x="1196" y="-76.54" font-family="Helvetica,sans-Serif" font-size="11.00" fill="white">[Infrastructure]</text>
<text xml:space="preserve" text-anchor="middle" x="1196" y="-50.34" font-family="Helvetica,sans-Serif" font-size="11.00" fill="white">Message Bus</text>
<text xml:space="preserve" text-anchor="middle" x="1196" y="-37.14" font-family="Helvetica,sans-Serif" font-size="11.00" fill="white">Distributed Events</text>
</g>
<!-- MDC&#45;&gt;MQ -->
<g id="edge15" class="edge">
<title>MDC&#45;&gt;MQ</title>
<path fill="none" stroke="#c53030" d="M1144.24,-195.03C1144.24,-195.03 1144.24,-115.42 1144.24,-115.42"/>
<polygon fill="#c53030" stroke="#c53030" points="1147.74,-115.42 1144.24,-105.42 1140.74,-115.42 1147.74,-115.42"/>
<text xml:space="preserve" text-anchor="middle" x="1203.01" y="-169.38" font-family="Helvetica,sans-Serif" font-size="9.00">Publishes</text>
<text xml:space="preserve" text-anchor="middle" x="1203.01" y="-158.57" font-family="Helvetica,sans-Serif" font-size="9.00">MassTransit events</text>
</g>
<!-- IB -->
<g id="node5" class="node">
<title>IB</title>
<path fill="#4a90d9" stroke="black" d="M842.28,-477.89C842.28,-477.89 723.72,-477.89 723.72,-477.89 717.72,-477.89 711.72,-471.89 711.72,-465.89 711.72,-465.89 711.72,-416.09 711.72,-416.09 711.72,-410.09 717.72,-404.09 723.72,-404.09 723.72,-404.09 842.28,-404.09 842.28,-404.09 848.28,-404.09 854.28,-410.09 854.28,-416.09 854.28,-416.09 854.28,-465.89 854.28,-465.89 854.28,-471.89 848.28,-477.89 842.28,-477.89"/>
<text xml:space="preserve" text-anchor="middle" x="783" y="-463.99" font-family="Helvetica,sans-Serif" font-size="11.00" fill="white">Interactive Brokers</text>
<text xml:space="preserve" text-anchor="middle" x="783" y="-450.79" font-family="Helvetica,sans-Serif" font-size="11.00" fill="white">[External System]</text>
<text xml:space="preserve" text-anchor="middle" x="783" y="-424.59" font-family="Helvetica,sans-Serif" font-size="11.00" fill="white">TWS/Gateway API</text>
<text xml:space="preserve" text-anchor="middle" x="783" y="-411.39" font-family="Helvetica,sans-Serif" font-size="11.00" fill="white">Trades, Quotes, L2 Depth</text>
</g>
<!-- IB&#45;&gt;MDC -->
<g id="edge4" class="edge">
<title>IB&#45;&gt;MDC</title>
<path fill="none" stroke="#2b6cb0" d="M854.49,-441C862.94,-441 868.63,-441 868.63,-441 868.63,-441 868.63,-333.7 868.63,-333.7"/>
<polygon fill="#2b6cb0" stroke="#2b6cb0" points="872.13,-333.7 868.63,-323.7 865.13,-333.7 872.13,-333.7"/>
<text xml:space="preserve" text-anchor="middle" x="942.27" y="-353.37" font-family="Helvetica,sans-Serif" font-size="9.00">WebSocket</text>
<text xml:space="preserve" text-anchor="middle" x="942.27" y="-342.57" font-family="Helvetica,sans-Serif" font-size="9.00">L1/L2 streaming</text>
</g>
<!-- ALP -->
<g id="node6" class="node">
<title>ALP</title>
<path fill="#4a90d9" stroke="black" d="M974.06,-477.89C974.06,-477.89 883.94,-477.89 883.94,-477.89 877.94,-477.89 871.94,-471.89 871.94,-465.89 871.94,-465.89 871.94,-416.09 871.94,-416.09 871.94,-410.09 877.94,-404.09 883.94,-404.09 883.94,-404.09 974.06,-404.09 974.06,-404.09 980.06,-404.09 986.06,-410.09 986.06,-416.09 986.06,-416.09 986.06,-465.89 986.06,-465.89 986.06,-471.89 980.06,-477.89 974.06,-477.89"/>
<text xml:space="preserve" text-anchor="middle" x="929" y="-463.99" font-family="Helvetica,sans-Serif" font-size="11.00" fill="white">Alpaca Markets</text>
<text xml:space="preserve" text-anchor="middle" x="929" y="-450.79" font-family="Helvetica,sans-Serif" font-size="11.00" fill="white">[External System]</text>
<text xml:space="preserve" text-anchor="middle" x="929" y="-424.59" font-family="Helvetica,sans-Serif" font-size="11.00" fill="white">WebSocket + REST</text>
<text xml:space="preserve" text-anchor="middle" x="929" y="-411.39" font-family="Helvetica,sans-Serif" font-size="11.00" fill="white">IEX/SIP Feeds</text>
</g>
<!-- ALP&#45;&gt;MDC -->
<g id="edge5" class="edge">
<title>ALP&#45;&gt;MDC</title>
<path fill="none" stroke="#2b6cb0" d="M929,-403.66C929,-403.66 929,-333.69 929,-333.69"/>
<polygon fill="#2b6cb0" stroke="#2b6cb0" points="932.5,-333.69 929,-323.69 925.5,-333.69 932.5,-333.69"/>
<text xml:space="preserve" text-anchor="middle" x="1021.01" y="-353.37" font-family="Helvetica,sans-Serif" font-size="9.00">WebSocket</text>
<text xml:space="preserve" text-anchor="middle" x="1021.01" y="-342.57" font-family="Helvetica,sans-Serif" font-size="9.00">real&#45;time</text>
</g>
<!-- NYSE -->
<g id="node7" class="node">
<title>NYSE</title>
<path fill="#4a90d9" stroke="black" d="M1117.72,-477.89C1117.72,-477.89 1016.28,-477.89 1016.28,-477.89 1010.28,-477.89 1004.28,-471.89 1004.28,-465.89 1004.28,-465.89 1004.28,-416.09 1004.28,-416.09 1004.28,-410.09 1010.28,-404.09 1016.28,-404.09 1016.28,-404.09 1117.72,-404.09 1117.72,-404.09 1123.72,-404.09 1129.72,-410.09 1129.72,-416.09 1129.72,-416.09 1129.72,-465.89 1129.72,-465.89 1129.72,-471.89 1123.72,-477.89 1117.72,-477.89"/>
<text xml:space="preserve" text-anchor="middle" x="1067" y="-463.99" font-family="Helvetica,sans-Serif" font-size="11.00" fill="white">NYSE Direct</text>
<text xml:space="preserve" text-anchor="middle" x="1067" y="-450.79" font-family="Helvetica,sans-Serif" font-size="11.00" fill="white">[External System]</text>
<text xml:space="preserve" text-anchor="middle" x="1067" y="-424.59" font-family="Helvetica,sans-Serif" font-size="11.00" fill="white">Exchange&#45;Direct Feed</text>
<text xml:space="preserve" text-anchor="middle" x="1067" y="-411.39" font-family="Helvetica,sans-Serif" font-size="11.00" fill="white">US Equities</text>
</g>
<!-- NYSE&#45;&gt;MDC -->
<g id="edge6" class="edge">
<title>NYSE&#45;&gt;MDC</title>
<path fill="none" stroke="#2b6cb0" d="M1067,-403.66C1067,-403.66 1067,-333.69 1067,-333.69"/>
<polygon fill="#2b6cb0" stroke="#2b6cb0" points="1070.5,-333.69 1067,-323.69 1063.5,-333.69 1070.5,-333.69"/>
<text xml:space="preserve" text-anchor="middle" x="1097.02" y="-353.37" font-family="Helvetica,sans-Serif" font-size="9.00">Exchange feed</text>
<text xml:space="preserve" text-anchor="middle" x="1097.02" y="-342.57" font-family="Helvetica,sans-Serif" font-size="9.00">US equities</text>
</g>
<!-- POL_STREAM -->
<g id="node8" class="node">
<title>POL_STREAM</title>
<path fill="#4a90d9" stroke="black" d="M1260.72,-477.89C1260.72,-477.89 1159.28,-477.89 1159.28,-477.89 1153.28,-477.89 1147.28,-471.89 1147.28,-465.89 1147.28,-465.89 1147.28,-416.09 1147.28,-416.09 1147.28,-410.09 1153.28,-404.09 1159.28,-404.09 1159.28,-404.09 1260.72,-404.09 1260.72,-404.09 1266.72,-404.09 1272.72,-410.09 1272.72,-416.09 1272.72,-416.09 1272.72,-465.89 1272.72,-465.89 1272.72,-471.89 1266.72,-477.89 1260.72,-477.89"/>
<text xml:space="preserve" text-anchor="middle" x="1210" y="-463.99" font-family="Helvetica,sans-Serif" font-size="11.00" fill="white">Polygon.io</text>
<text xml:space="preserve" text-anchor="middle" x="1210" y="-450.79" font-family="Helvetica,sans-Serif" font-size="11.00" fill="white">[External System]</text>
<text xml:space="preserve" text-anchor="middle" x="1210" y="-424.59" font-family="Helvetica,sans-Serif" font-size="11.00" fill="white">WebSocket Streaming</text>
<text xml:space="preserve" text-anchor="middle" x="1210" y="-411.39" font-family="Helvetica,sans-Serif" font-size="11.00" fill="white">Trades, Quotes</text>
</g>
<!-- POL_STREAM&#45;&gt;MDC -->
<g id="edge7" class="edge">
<title>POL_STREAM&#45;&gt;MDC</title>
<path fill="none" stroke="#2b6cb0" d="M1146.98,-441C1141.8,-441 1138.5,-441 1138.5,-441 1138.5,-441 1138.5,-333.7 1138.5,-333.7"/>
<polygon fill="#2b6cb0" stroke="#2b6cb0" points="1142,-333.7 1138.5,-323.7 1135,-333.7 1142,-333.7"/>
<text xml:space="preserve" text-anchor="middle" x="1203.01" y="-353.37" font-family="Helvetica,sans-Serif" font-size="9.00">WebSocket</text>
<text xml:space="preserve" text-anchor="middle" x="1203.01" y="-342.57" font-family="Helvetica,sans-Serif" font-size="9.00">streaming</text>
</g>
<!-- SS -->
<g id="node9" class="node">
<title>SS</title>
<path fill="#4a90d9" stroke="black" d="M681.7,-477.89C681.7,-477.89 572.3,-477.89 572.3,-477.89 566.3,-477.89 560.3,-471.89 560.3,-465.89 560.3,-465.89 560.3,-416.09 560.3,-416.09 560.3,-410.09 566.3,-404.09 572.3,-404.09 572.3,-404.09 681.7,-404.09 681.7,-404.09 687.7,-404.09 693.7,-410.09 693.7,-416.09 693.7,-416.09 693.7,-465.89 693.7,-465.89 693.7,-471.89 687.7,-477.89 681.7,-477.89"/>
<text xml:space="preserve" text-anchor="middle" x="627" y="-463.99" font-family="Helvetica,sans-Serif" font-size="11.00" fill="white">StockSharp</text>
<text xml:space="preserve" text-anchor="middle" x="627" y="-450.79" font-family="Helvetica,sans-Serif" font-size="11.00" fill="white">[External System]</text>
<text xml:space="preserve" text-anchor="middle" x="627" y="-424.59" font-family="Helvetica,sans-Serif" font-size="11.00" fill="white">Multi&#45;Exchange Adapter</text>
<text xml:space="preserve" text-anchor="middle" x="627" y="-411.39" font-family="Helvetica,sans-Serif" font-size="11.00" fill="white">Global Markets</text>
</g>
<!-- SS&#45;&gt;MDC -->
<g id="edge8" class="edge">
<title>SS&#45;&gt;MDC</title>
<path fill="none" stroke="#2b6cb0" d="M661.75,-403.85C661.75,-362.37 661.75,-301 661.75,-301 661.75,-301 849.99,-301 849.99,-301"/>
<polygon fill="#2b6cb0" stroke="#2b6cb0" points="849.99,-304.5 859.99,-301 849.99,-297.5 849.99,-304.5"/>
<text xml:space="preserve" text-anchor="middle" x="856.52" y="-353.37" font-family="Helvetica,sans-Serif" font-size="9.00">Multi&#45;exchange</text>
<text xml:space="preserve" text-anchor="middle" x="856.52" y="-342.57" font-family="Helvetica,sans-Serif" font-size="9.00">adapter</text>
</g>
<!-- YF -->
<g id="node10" class="node">
<title>YF</title>
<path fill="#38a169" stroke="black" d="M1577.1,-477.89C1577.1,-477.89 1472.9,-477.89 1472.9,-477.89 1466.9,-477.89 1460.9,-471.89 1460.9,-465.89 1460.9,-465.89 1460.9,-416.09 1460.9,-416.09 1460.9,-410.09 1466.9,-404.09 1472.9,-404.09 1472.9,-404.09 1577.1,-404.09 1577.1,-404.09 1583.1,-404.09 1589.1,-410.09 1589.1,-416.09 1589.1,-416.09 1589.1,-465.89 1589.1,-465.89 1589.1,-471.89 1583.1,-477.89 1577.1,-477.89"/>
<text xml:space="preserve" text-anchor="middle" x="1525" y="-463.99" font-family="Helvetica,sans-Serif" font-size="11.00" fill="white">Yahoo Finance</text>
<text xml:space="preserve" text-anchor="middle" x="1525" y="-450.79" font-family="Helvetica,sans-Serif" font-size="11.00" fill="white">[External System]</text>
<text xml:space="preserve" text-anchor="middle" x="1525" y="-424.59" font-family="Helvetica,sans-Serif" font-size="11.00" fill="white">50K+ Global Securities</text>
<text xml:space="preserve" text-anchor="middle" x="1525" y="-411.39" font-family="Helvetica,sans-Serif" font-size="11.00" fill="white">Free OHLCV</text>
</g>
<!-- YF&#45;&gt;MDC -->
<g id="edge9" class="edge">
<title>YF&#45;&gt;MDC</title>
<path fill="none" stroke="#2c7a7b" d="M1525,-403.65C1525,-356.09 1525,-280 1525,-280 1525,-280 1161.74,-280 1161.74,-280"/>
<polygon fill="#2c7a7b" stroke="#2c7a7b" points="1161.74,-276.5 1151.74,-280 1161.74,-283.5 1161.74,-276.5"/>
<text xml:space="preserve" text-anchor="middle" x="1475.76" y="-353.37" font-family="Helvetica,sans-Serif" font-size="9.00">REST</text>
<text xml:space="preserve" text-anchor="middle" x="1475.76" y="-342.57" font-family="Helvetica,sans-Serif" font-size="9.00">historical bars</text>
</g>
<!-- TI -->
<g id="node11" class="node">
<title>TI</title>
<path fill="#38a169" stroke="black" d="M1700.64,-477.89C1700.64,-477.89 1619.36,-477.89 1619.36,-477.89 1613.36,-477.89 1607.36,-471.89 1607.36,-465.89 1607.36,-465.89 1607.36,-416.09 1607.36,-416.09 1607.36,-410.09 1613.36,-404.09 1619.36,-404.09 1619.36,-404.09 1700.64,-404.09 1700.64,-404.09 1706.64,-404.09 1712.64,-410.09 1712.64,-416.09 1712.64,-416.09 1712.64,-465.89 1712.64,-465.89 1712.64,-471.89 1706.64,-477.89 1700.64,-477.89"/>
<text xml:space="preserve" text-anchor="middle" x="1660" y="-463.99" font-family="Helvetica,sans-Serif" font-size="11.00" fill="white">Tiingo</text>
<text xml:space="preserve" text-anchor="middle" x="1660" y="-450.79" font-family="Helvetica,sans-Serif" font-size="11.00" fill="white">[External System]</text>
<text xml:space="preserve" text-anchor="middle" x="1660" y="-424.59" font-family="Helvetica,sans-Serif" font-size="11.00" fill="white">Dividend&#45;Adjusted</text>
<text xml:space="preserve" text-anchor="middle" x="1660" y="-411.39" font-family="Helvetica,sans-Serif" font-size="11.00" fill="white">Fundamentals</text>
</g>
<!-- TI&#45;&gt;MDC -->
<g id="edge10" class="edge">
<title>TI&#45;&gt;MDC</title>
<path fill="none" stroke="#2c7a7b" d="M1660,-403.73C1660,-350.48 1660,-259 1660,-259 1660,-259 1161.85,-259 1161.85,-259"/>
<polygon fill="#2c7a7b" stroke="#2c7a7b" points="1161.85,-255.5 1151.85,-259 1161.85,-262.5 1161.85,-255.5"/>
<text xml:space="preserve" text-anchor="middle" x="1620.02" y="-353.37" font-family="Helvetica,sans-Serif" font-size="9.00">REST</text>
<text xml:space="preserve" text-anchor="middle" x="1620.02" y="-342.57" font-family="Helvetica,sans-Serif" font-size="9.00">adjusted data</text>
</g>
<!-- FH -->
<g id="node12" class="node">
<title>FH</title>
<path fill="#38a169" stroke="black" d="M1821.1,-477.89C1821.1,-477.89 1742.9,-477.89 1742.9,-477.89 1736.9,-477.89 1730.9,-471.89 1730.9,-465.89 1730.9,-465.89 1730.9,-416.09 1730.9,-416.09 1730.9,-410.09 1736.9,-404.09 1742.9,-404.09 1742.9,-404.09 1821.1,-404.09 1821.1,-404.09 1827.1,-404.09 1833.1,-410.09 1833.1,-416.09 1833.1,-416.09 1833.1,-465.89 1833.1,-465.89 1833.1,-471.89 1827.1,-477.89 1821.1,-477.89"/>
<text xml:space="preserve" text-anchor="middle" x="1782" y="-463.99" font-family="Helvetica,sans-Serif" font-size="11.00" fill="white">Finnhub</text>
<text xml:space="preserve" text-anchor="middle" x="1782" y="-450.79" font-family="Helvetica,sans-Serif" font-size="11.00" fill="white">[External System]</text>
<text xml:space="preserve" text-anchor="middle" x="1782" y="-424.59" font-family="Helvetica,sans-Serif" font-size="11.00" fill="white">Historical + News</text>
<text xml:space="preserve" text-anchor="middle" x="1782" y="-411.39" font-family="Helvetica,sans-Serif" font-size="11.00" fill="white">Fundamentals</text>
</g>
<!-- FH&#45;&gt;MDC -->
<g id="edge11" class="edge">
<title>FH&#45;&gt;MDC</title>
<path fill="none" stroke="#2c7a7b" d="M1782,-403.76C1782,-345.16 1782,-238 1782,-238 1782,-238 1161.65,-238 1161.65,-238"/>
<polygon fill="#2c7a7b" stroke="#2c7a7b" points="1161.65,-234.5 1151.65,-238 1161.65,-241.5 1161.65,-234.5"/>
<text xml:space="preserve" text-anchor="middle" x="1753.02" y="-353.37" font-family="Helvetica,sans-Serif" font-size="9.00">REST</text>
<text xml:space="preserve" text-anchor="middle" x="1753.02" y="-342.57" font-family="Helvetica,sans-Serif" font-size="9.00">fundamentals</text>
</g>
<!-- POL -->
<g id="node13" class="node">
<title>POL</title>
<path fill="#38a169" stroke="black" d="M1941.1,-477.89C1941.1,-477.89 1862.9,-477.89 1862.9,-477.89 1856.9,-477.89 1850.9,-471.89 1850.9,-465.89 1850.9,-465.89 1850.9,-416.09 1850.9,-416.09 1850.9,-410.09 1856.9,-404.09 1862.9,-404.09 1862.9,-404.09 1941.1,-404.09 1941.1,-404.09 1947.1,-404.09 1953.1,-410.09 1953.1,-416.09 1953.1,-416.09 1953.1,-465.89 1953.1,-465.89 1953.1,-471.89 1947.1,-477.89 1941.1,-477.89"/>
<text xml:space="preserve" text-anchor="middle" x="1902" y="-463.99" font-family="Helvetica,sans-Serif" font-size="11.00" fill="white">Polygon.io</text>
<text xml:space="preserve" text-anchor="middle" x="1902" y="-450.79" font-family="Helvetica,sans-Serif" font-size="11.00" fill="white">[External System]</text>
<text xml:space="preserve" text-anchor="middle" x="1902" y="-424.59" font-family="Helvetica,sans-Serif" font-size="11.00" fill="white">Historical Bars</text>
<text xml:space="preserve" text-anchor="middle" x="1902" y="-411.39" font-family="Helvetica,sans-Serif" font-size="11.00" fill="white">Minute/Day</text>
</g>
<!-- POL&#45;&gt;MDC -->
<g id="edge12" class="edge">
<title>POL&#45;&gt;MDC</title>
<path fill="none" stroke="#2c7a7b" d="M1902,-403.75C1902,-340.06 1902,-217 1902,-217 1902,-217 1161.97,-217 1161.97,-217"/>
<polygon fill="#2c7a7b" stroke="#2c7a7b" points="1161.97,-213.5 1151.97,-217 1161.97,-220.5 1161.97,-213.5"/>
<text xml:space="preserve" text-anchor="middle" x="1869.76" y="-353.37" font-family="Helvetica,sans-Serif" font-size="9.00">REST</text>
<text xml:space="preserve" text-anchor="middle" x="1869.76" y="-342.57" font-family="Helvetica,sans-Serif" font-size="9.00">historical</text>
</g>
<!-- STOOQ -->
<g id="node14" class="node">
<title>STOOQ</title>
<path fill="#38a169" stroke="black" d="M1430.8,-477.89C1430.8,-477.89 1309.2,-477.89 1309.2,-477.89 1303.2,-477.89 1297.2,-471.89 1297.2,-465.89 1297.2,-465.89 1297.2,-416.09 1297.2,-416.09 1297.2,-410.09 1303.2,-404.09 1309.2,-404.09 1309.2,-404.09 1430.8,-404.09 1430.8,-404.09 1436.8,-404.09 1442.8,-410.09 1442.8,-416.09 1442.8,-416.09 1442.8,-465.89 1442.8,-465.89 1442.8,-471.89 1436.8,-477.89 1430.8,-477.89"/>
<text xml:space="preserve" text-anchor="middle" x="1370" y="-463.99" font-family="Helvetica,sans-Serif" font-size="11.00" fill="white">Stooq + Others</text>
<text xml:space="preserve" text-anchor="middle" x="1370" y="-450.79" font-family="Helvetica,sans-Serif" font-size="11.00" fill="white">[External System]</text>
<text xml:space="preserve" text-anchor="middle" x="1370" y="-424.59" font-family="Helvetica,sans-Serif" font-size="11.00" fill="white">Nasdaq, Alpha Vantage</text>
<text xml:space="preserve" text-anchor="middle" x="1370" y="-411.39" font-family="Helvetica,sans-Serif" font-size="11.00" fill="white">IB, StockSharp, EOD Data</text>
</g>
<!-- STOOQ&#45;&gt;MDC -->
<g id="edge13" class="edge">
<title>STOOQ&#45;&gt;MDC</title>
<path fill="none" stroke="#2c7a7b" d="M1370,-403.85C1370,-362.37 1370,-301 1370,-301 1370,-301 1161.9,-301 1161.9,-301"/>
<polygon fill="#2c7a7b" stroke="#2c7a7b" points="1161.9,-297.5 1151.9,-301 1161.9,-304.5 1161.9,-297.5"/>
<text xml:space="preserve" text-anchor="middle" x="1328.76" y="-353.37" font-family="Helvetica,sans-Serif" font-size="9.00">REST</text>
<text xml:space="preserve" text-anchor="middle" x="1328.76" y="-342.57" font-family="Helvetica,sans-Serif" font-size="9.00">EOD data</text>
</g>
<!-- L1 -->
<g id="node21" class="node">
<title>L1</title>
<ellipse fill="#08427b" stroke="black" cx="2008" cy="-440.99" rx="31.46" ry="18"/>
<text xml:space="preserve" text-anchor="middle" x="2008" y="-437.69" font-family="Helvetica,sans-Serif" font-size="11.00" fill="white">Person</text>
</g>
<!-- L2 -->
<g id="node22" class="node">
<title>L2</title>
<path fill="#438dd5" stroke="black" d="M2099,-458.99C2099,-458.99 2069,-458.99 2069,-458.99 2063,-458.99 2057,-452.99 2057,-446.99 2057,-446.99 2057,-434.99 2057,-434.99 2057,-428.99 2063,-422.99 2069,-422.99 2069,-422.99 2099,-422.99 2099,-422.99 2105,-422.99 2111,-428.99 2111,-434.99 2111,-434.99 2111,-446.99 2111,-446.99 2111,-452.99 2105,-458.99 2099,-458.99"/>
<text xml:space="preserve" text-anchor="middle" x="2084" y="-437.69" font-family="Helvetica,sans-Serif" font-size="11.00" fill="white">System</text>
</g>
<!-- L3 -->
<g id="node23" class="node">
<title>L3</title>
<path fill="#4a90d9" stroke="black" d="M2227.07,-458.99C2227.07,-458.99 2140.93,-458.99 2140.93,-458.99 2134.93,-458.99 2128.93,-452.99 2128.93,-446.99 2128.93,-446.99 2128.93,-434.99 2128.93,-434.99 2128.93,-428.99 2134.93,-422.99 2140.93,-422.99 2140.93,-422.99 2227.07,-422.99 2227.07,-422.99 2233.07,-422.99 2239.07,-428.99 2239.07,-434.99 2239.07,-434.99 2239.07,-446.99 2239.07,-446.99 2239.07,-452.99 2233.07,-458.99 2227.07,-458.99"/>
<text xml:space="preserve" text-anchor="middle" x="2184" y="-437.69" font-family="Helvetica,sans-Serif" font-size="11.00" fill="white">Streaming Provider</text>
</g>
<!-- L4 -->
<g id="node24" class="node">
<title>L4</title>
<path fill="#38a169" stroke="black" d="M2350.62,-458.99C2350.62,-458.99 2269.38,-458.99 2269.38,-458.99 2263.38,-458.99 2257.38,-452.99 2257.38,-446.99 2257.38,-446.99 2257.38,-434.99 2257.38,-434.99 2257.38,-428.99 2263.38,-422.99 2269.38,-422.99 2269.38,-422.99 2350.62,-422.99 2350.62,-422.99 2356.62,-422.99 2362.62,-428.99 2362.62,-434.99 2362.62,-434.99 2362.62,-446.99 2362.62,-446.99 2362.62,-452.99 2356.62,-458.99 2350.62,-458.99"/>
<text xml:space="preserve" text-anchor="middle" x="2310" y="-437.69" font-family="Helvetica,sans-Serif" font-size="11.00" fill="white">Historical Provider</text>
</g>
<!-- L5 -->
<g id="node25" class="node">
<title>L5</title>
<path fill="#805ad5" stroke="black" d="M2485.74,-458.99C2485.74,-458.99 2392.26,-458.99 2392.26,-458.99 2386.26,-458.99 2380.26,-452.99 2380.26,-446.99 2380.26,-446.99 2380.26,-434.99 2380.26,-434.99 2380.26,-428.99 2386.26,-422.99 2392.26,-422.99 2392.26,-422.99 2485.74,-422.99 2485.74,-422.99 2491.74,-422.99 2497.74,-428.99 2497.74,-434.99 2497.74,-434.99 2497.74,-446.99 2497.74,-446.99 2497.74,-452.99 2491.74,-458.99 2485.74,-458.99"/>
<text xml:space="preserve" text-anchor="middle" x="2439" y="-437.69" font-family="Helvetica,sans-Serif" font-size="11.00" fill="white">Downstream System</text>
</g>
<!-- L6 -->
<g id="node26" class="node">
<title>L6</title>
<path fill="#e53e3e" stroke="black" d="M2596.4,-455.72C2596.4,-457.53 2578.29,-458.99 2556,-458.99 2533.71,-458.99 2515.6,-457.53 2515.6,-455.72 2515.6,-455.72 2515.6,-426.27 2515.6,-426.27 2515.6,-424.46 2533.71,-422.99 2556,-422.99 2578.29,-422.99 2596.4,-424.46 2596.4,-426.27 2596.4,-426.27 2596.4,-455.72 2596.4,-455.72"/>
<path fill="none" stroke="black" d="M2596.4,-455.72C2596.4,-453.91 2578.29,-452.45 2556,-452.45 2533.71,-452.45 2515.6,-453.91 2515.6,-455.72"/>
<text xml:space="preserve" text-anchor="middle" x="2556" y="-437.69" font-family="Helvetica,sans-Serif" font-size="11.00" fill="white">Infrastructure</text>
</g>
</g>
</svg>
