<?xml version="1.0" encoding="UTF-8" standalone="no"?>
<!DOCTYPE svg PUBLIC "-//W3C//DTD SVG 1.1//EN"
 "http://www.w3.org/Graphics/SVG/1.1/DTD/svg11.dtd">
<!-- Generated by graphviz version 14.1.1 (20251213.1925)
 -->
<!-- Title: C4_Context Pages: 1 -->
<svg width="2526pt" height="650pt"
 viewBox="0.00 0.00 2526.00 650.00" xmlns="http://www.w3.org/2000/svg" xmlns:xlink="http://www.w3.org/1999/xlink">
<g id="graph0" class="graph" transform="scale(1 1) rotate(0) translate(36 613.71)">
<title>C4_Context</title>
<polygon fill="white" stroke="none" points="-36,36 -36,-613.71 2490,-613.71 2490,36 -36,36"/>
<text xml:space="preserve" text-anchor="middle" x="1227" y="-562.91" font-family="Helvetica,sans-Serif" font-size="12.00">Market Data Collector &#45; System Context (C4 Level 1)</text>
<text xml:space="preserve" text-anchor="middle" x="1227" y="-548.51" font-family="Helvetica,sans-Serif" font-size="12.00">v1.6.1</text>
<g id="clust1" class="cluster">
<title>cluster_actors</title>
</g>
<g id="clust2" class="cluster">
<title>cluster_streaming</title>
<path fill="#f0f8ff" stroke="#2b6cb0" d="M564,-396.09C564,-396.09 1125,-396.09 1125,-396.09 1131,-396.09 1137,-402.09 1137,-408.09 1137,-408.09 1137,-496.29 1137,-496.29 1137,-502.29 1131,-508.29 1125,-508.29 1125,-508.29 564,-508.29 564,-508.29 558,-508.29 552,-502.29 552,-496.29 552,-496.29 552,-408.09 552,-408.09 552,-402.09 558,-396.09 564,-396.09"/>
<text xml:space="preserve" text-anchor="middle" x="844.5" y="-493.49" font-family="Helvetica,sans-Serif" font-size="12.00">Real&#45;Time Streaming Providers</text>
</g>
<g id="clust3" class="cluster">
<title>cluster_historical</title>
<path fill="#e6fffa" stroke="#2c7a7b" d="M1157,-396.09C1157,-396.09 1791,-396.09 1791,-396.09 1797,-396.09 1803,-402.09 1803,-408.09 1803,-408.09 1803,-496.29 1803,-496.29 1803,-502.29 1797,-508.29 1791,-508.29 1791,-508.29 1157,-508.29 1157,-508.29 1151,-508.29 1145,-502.29 1145,-496.29 1145,-496.29 1145,-408.09 1145,-408.09 1145,-402.09 1151,-396.09 1157,-396.09"/>
<text xml:space="preserve" text-anchor="middle" x="1474" y="-493.49" font-family="Helvetica,sans-Serif" font-size="12.00">Historical Data Providers (8 Implemented)</text>
</g>
<g id="clust4" class="cluster">
<title>cluster_downstream</title>
<path fill="#faf5ff" stroke="#805ad5" d="M289,-21.84C289,-21.84 717,-21.84 717,-21.84 723,-21.84 729,-27.84 729,-33.84 729,-33.84 729,-122.04 729,-122.04 729,-128.04 723,-134.04 717,-134.04 717,-134.04 289,-134.04 289,-134.04 283,-134.04 277,-128.04 277,-122.04 277,-122.04 277,-33.84 277,-33.84 277,-27.84 283,-21.84 289,-21.84"/>
<text xml:space="preserve" text-anchor="middle" x="503" y="-119.24" font-family="Helvetica,sans-Serif" font-size="12.00">Analysis &amp; Trading Systems</text>
</g>
<g id="clust5" class="cluster">
<title>cluster_infra</title>
<path fill="#fff5f5" stroke="#c53030" d="M749,-8C749,-8 1197,-8 1197,-8 1203,-8 1209,-14 1209,-20 1209,-20 1209,-135.88 1209,-135.88 1209,-141.88 1203,-147.88 1197,-147.88 1197,-147.88 749,-147.88 749,-147.88 743,-147.88 737,-141.88 737,-135.88 737,-135.88 737,-20 737,-20 737,-14 743,-8 749,-8"/>
<text xml:space="preserve" text-anchor="middle" x="973" y="-133.07" font-family="Helvetica,sans-Serif" font-size="12.00">Infrastructure</text>
</g>
<g id="clust6" class="cluster">
<title>cluster_legend</title>
<path fill="#fafafa" stroke="#666666" d="M1823,-414.99C1823,-414.99 2434,-414.99 2434,-414.99 2440,-414.99 2446,-420.99 2446,-426.99 2446,-426.99 2446,-477.39 2446,-477.39 2446,-483.39 2440,-489.39 2434,-489.39 2434,-489.39 1823,-489.39 1823,-489.39 1817,-489.39 1811,-483.39 1811,-477.39 1811,-477.39 1811,-426.99 1811,-426.99 1811,-420.99 1817,-414.99 1823,-414.99"/>
<text xml:space="preserve" text-anchor="middle" x="2128.5" y="-474.59" font-family="Helvetica,sans-Serif" font-size="12.00">Legend</text>
</g>
<!-- Operator -->
<g id="node1" class="node">
<title>Operator</title>
<ellipse fill="#08427b" stroke="black" cx="450" cy="-440.99" rx="85.68" ry="61.52"/>
<text xml:space="preserve" text-anchor="middle" x="450" y="-470.59" font-family="Helvetica,sans-Serif" font-size="11.00" fill="white">Operator</text>
<text xml:space="preserve" text-anchor="middle" x="450" y="-457.39" font-family="Helvetica,sans-Serif" font-size="11.00" fill="white">[Person]</text>
<text xml:space="preserve" text-anchor="middle" x="450" y="-431.19" font-family="Helvetica,sans-Serif" font-size="11.00" fill="white">Configures collection,</text>
<text xml:space="preserve" text-anchor="middle" x="450" y="-417.99" font-family="Helvetica,sans-Serif" font-size="11.00" fill="white">monitors health,</text>
<text xml:space="preserve" text-anchor="middle" x="450" y="-404.79" font-family="Helvetica,sans-Serif" font-size="11.00" fill="white">manages backfill</text>
</g>
<!-- MDC -->
<g id="node4" class="node">
<title>MDC</title>
<path fill="#438dd5" stroke="black" d="M1063,-321.87C1063,-321.87 799,-321.87 799,-321.87 793,-321.87 787,-315.87 787,-309.87 787,-309.87 787,-207.47 787,-207.47 787,-201.47 793,-195.47 799,-195.47 799,-195.47 1063,-195.47 1063,-195.47 1069,-195.47 1075,-201.47 1075,-207.47 1075,-207.47 1075,-309.87 1075,-309.87 1075,-315.87 1069,-321.87 1063,-321.87"/>
<text xml:space="preserve" text-anchor="middle" x="931" y="-307.97" font-family="Helvetica,sans-Serif" font-size="11.00" fill="white">Market Data Collector</text>
<text xml:space="preserve" text-anchor="middle" x="931" y="-294.77" font-family="Helvetica,sans-Serif" font-size="11.00" fill="white">[Software System]</text>
<text xml:space="preserve" text-anchor="middle" x="931" y="-268.57" font-family="Helvetica,sans-Serif" font-size="11.00" fill="white">.NET 9.0 | C# 13 | F# 8</text>
<text xml:space="preserve" text-anchor="middle" x="931" y="-242.37" font-family="Helvetica,sans-Serif" font-size="11.00" fill="white">Collects, validates, stores, and exports</text>
<text xml:space="preserve" text-anchor="middle" x="931" y="-229.17" font-family="Helvetica,sans-Serif" font-size="11.00" fill="white">real&#45;time and historical market data</text>
<text xml:space="preserve" text-anchor="middle" x="931" y="-215.97" font-family="Helvetica,sans-Serif" font-size="11.00" fill="white">from multiple providers with</text>
<text xml:space="preserve" text-anchor="middle" x="931" y="-202.78" font-family="Helvetica,sans-Serif" font-size="11.00" fill="white">archival&#45;first persistence</text>
</g>
<!-- Operator&#45;&gt;MDC -->
<g id="edge1" class="edge">
<title>Operator&#45;&gt;MDC</title>
<path fill="none" stroke="#4a5568" d="M502.8,-392C601.19,-392 802.69,-392 802.69,-392 802.69,-392 802.69,-333.73 802.69,-333.73"/>
<polygon fill="#4a5568" stroke="#4a5568" points="806.19,-333.73 802.69,-323.73 799.19,-333.73 806.19,-333.73"/>
<text xml:space="preserve" text-anchor="middle" x="721.25" y="-353.37" font-family="Helvetica,sans-Serif" font-size="9.00">Configures via</text>
<text xml:space="preserve" text-anchor="middle" x="721.25" y="-342.57" font-family="Helvetica,sans-Serif" font-size="9.00">UWP/Web/CLI</text>
</g>
<!-- Quant -->
<g id="node2" class="node">
<title>Quant</title>
<ellipse fill="#08427b" stroke="black" cx="279" cy="-440.99" rx="67.52" ry="61.52"/>
<text xml:space="preserve" text-anchor="middle" x="279" y="-470.59" font-family="Helvetica,sans-Serif" font-size="11.00" fill="white">Quant/Analyst</text>
<text xml:space="preserve" text-anchor="middle" x="279" y="-457.39" font-family="Helvetica,sans-Serif" font-size="11.00" fill="white">[Person]</text>
<text xml:space="preserve" text-anchor="middle" x="279" y="-431.19" font-family="Helvetica,sans-Serif" font-size="11.00" fill="white">Analyzes data,</text>
<text xml:space="preserve" text-anchor="middle" x="279" y="-417.99" font-family="Helvetica,sans-Serif" font-size="11.00" fill="white">runs backtests,</text>
<text xml:space="preserve" text-anchor="middle" x="279" y="-404.79" font-family="Helvetica,sans-Serif" font-size="11.00" fill="white">builds strategies</text>
</g>
<!-- Quant&#45;&gt;MDC -->
<g id="edge2" class="edge">
<title>Quant&#45;&gt;MDC</title>
<path fill="none" stroke="#4a5568" d="M315.74,-389.17C315.74,-342.1 315.74,-280 315.74,-280 315.74,-280 775.24,-280 775.24,-280"/>
<polygon fill="#4a5568" stroke="#4a5568" points="775.24,-283.5 785.24,-280 775.24,-276.5 775.24,-283.5"/>
<text xml:space="preserve" text-anchor="middle" x="643.26" y="-353.37" font-family="Helvetica,sans-Serif" font-size="9.00">Exports data</text>
<text xml:space="preserve" text-anchor="middle" x="643.26" y="-342.57" font-family="Helvetica,sans-Serif" font-size="9.00">for analysis</text>
</g>
<!-- DevOps -->
<g id="node3" class="node">
<title>DevOps</title>
<ellipse fill="#08427b" stroke="black" cx="105" cy="-440.99" rx="88.69" ry="52.18"/>
<text xml:space="preserve" text-anchor="middle" x="105" y="-463.99" font-family="Helvetica,sans-Serif" font-size="11.00" fill="white">DevOps</text>
<text xml:space="preserve" text-anchor="middle" x="105" y="-450.79" font-family="Helvetica,sans-Serif" font-size="11.00" fill="white">[Person]</text>
<text xml:space="preserve" text-anchor="middle" x="105" y="-424.59" font-family="Helvetica,sans-Serif" font-size="11.00" fill="white">Deploys, scales,</text>
<text xml:space="preserve" text-anchor="middle" x="105" y="-411.39" font-family="Helvetica,sans-Serif" font-size="11.00" fill="white">monitors infrastructure</text>
</g>
<!-- PROM -->
<g id="node18" class="node">
<title>PROM</title>
<path fill="#e53e3e" stroke="black" d="M860.79,-103.64C860.79,-103.64 757.21,-103.64 757.21,-103.64 751.21,-103.64 745.21,-97.64 745.21,-91.64 745.21,-91.64 745.21,-41.84 745.21,-41.84 745.21,-35.84 751.21,-29.84 757.21,-29.84 757.21,-29.84 860.79,-29.84 860.79,-29.84 866.79,-29.84 872.79,-35.84 872.79,-41.84 872.79,-41.84 872.79,-91.64 872.79,-91.64 872.79,-97.64 866.79,-103.64 860.79,-103.64"/>
<text xml:space="preserve" text-anchor="middle" x="809" y="-89.74" font-family="Helvetica,sans-Serif" font-size="11.00" fill="white">Prometheus + Grafana</text>
<text xml:space="preserve" text-anchor="middle" x="809" y="-76.54" font-family="Helvetica,sans-Serif" font-size="11.00" fill="white">[Infrastructure]</text>
<text xml:space="preserve" text-anchor="middle" x="809" y="-50.34" font-family="Helvetica,sans-Serif" font-size="11.00" fill="white">Metrics, Dashboards</text>
<text xml:space="preserve" text-anchor="middle" x="809" y="-37.14" font-family="Helvetica,sans-Serif" font-size="11.00" fill="white">Alerting</text>
</g>
<!-- DevOps&#45;&gt;PROM -->
<g id="edge3" class="edge">
<title>DevOps&#45;&gt;PROM</title>
<path fill="none" stroke="#4a5568" d="M105,-388.38C105,-368.69 105,-351 105,-351 105,-351 766.1,-351 766.1,-351 766.1,-351 766.1,-115.41 766.1,-115.41"/>
<polygon fill="#4a5568" stroke="#4a5568" points="769.6,-115.41 766.1,-105.41 762.6,-115.41 769.6,-115.41"/>
<text xml:space="preserve" text-anchor="middle" x="611.26" y="-261.37" font-family="Helvetica,sans-Serif" font-size="9.00">Monitors</text>
<text xml:space="preserve" text-anchor="middle" x="611.26" y="-250.57" font-family="Helvetica,sans-Serif" font-size="9.00">infrastructure</text>
</g>
<!-- LEAN -->
<g id="node14" class="node">
<title>LEAN</title>
<path fill="#805ad5" stroke="black" d="M421.03,-103.64C421.03,-103.64 296.97,-103.64 296.97,-103.64 290.97,-103.64 284.97,-97.64 284.97,-91.64 284.97,-91.64 284.97,-41.84 284.97,-41.84 284.97,-35.84 290.97,-29.84 296.97,-29.84 296.97,-29.84 421.03,-29.84 421.03,-29.84 427.03,-29.84 433.03,-35.84 433.03,-41.84 433.03,-41.84 433.03,-91.64 433.03,-91.64 433.03,-97.64 427.03,-103.64 421.03,-103.64"/>
<text xml:space="preserve" text-anchor="middle" x="359" y="-89.74" font-family="Helvetica,sans-Serif" font-size="11.00" fill="white">QuantConnect Lean</text>
<text xml:space="preserve" text-anchor="middle" x="359" y="-76.54" font-family="Helvetica,sans-Serif" font-size="11.00" fill="white">[External System]</text>
<text xml:space="preserve" text-anchor="middle" x="359" y="-50.34" font-family="Helvetica,sans-Serif" font-size="11.00" fill="white">Algorithmic Trading Engine</text>
<text xml:space="preserve" text-anchor="middle" x="359" y="-37.14" font-family="Helvetica,sans-Serif" font-size="11.00" fill="white">Backtesting + Live</text>
</g>
<!-- MDC&#45;&gt;LEAN -->
<g id="edge15" class="edge">
<title>MDC&#45;&gt;LEAN</title>
<path fill="none" stroke="#805ad5" d="M786.59,-259C628.95,-259 398.68,-259 398.68,-259 398.68,-259 398.68,-115.32 398.68,-115.32"/>
<polygon fill="#805ad5" stroke="#805ad5" points="402.18,-115.32 398.68,-105.32 395.18,-115.32 402.18,-115.32"/>
<text xml:space="preserve" text-anchor="middle" x="420.52" y="-169.38" font-family="Helvetica,sans-Serif" font-size="9.00">Exports Lean</text>
<text xml:space="preserve" text-anchor="middle" x="420.52" y="-158.57" font-family="Helvetica,sans-Serif" font-size="9.00">format data</text>
</g>
<!-- PYTHON -->
<g id="node15" class="node">
<title>PYTHON</title>
<path fill="#805ad5" stroke="black" d="M547.16,-103.64C547.16,-103.64 462.84,-103.64 462.84,-103.64 456.84,-103.64 450.84,-97.64 450.84,-91.64 450.84,-91.64 450.84,-41.84 450.84,-41.84 450.84,-35.84 456.84,-29.84 462.84,-29.84 462.84,-29.84 547.16,-29.84 547.16,-29.84 553.16,-29.84 559.16,-35.84 559.16,-41.84 559.16,-41.84 559.16,-91.64 559.16,-91.64 559.16,-97.64 553.16,-103.64 547.16,-103.64"/>
<text xml:space="preserve" text-anchor="middle" x="505" y="-89.74" font-family="Helvetica,sans-Serif" font-size="11.00" fill="white">Python/R Analytics</text>
<text xml:space="preserve" text-anchor="middle" x="505" y="-76.54" font-family="Helvetica,sans-Serif" font-size="11.00" fill="white">[External System]</text>
<text xml:space="preserve" text-anchor="middle" x="505" y="-50.34" font-family="Helvetica,sans-Serif" font-size="11.00" fill="white">Pandas, NumPy</text>
<text xml:space="preserve" text-anchor="middle" x="505" y="-37.14" font-family="Helvetica,sans-Serif" font-size="11.00" fill="white">Data Science</text>
</g>
<!-- MDC&#45;&gt;PYTHON -->
<g id="edge16" class="edge">
<title>MDC&#45;&gt;PYTHON</title>
<path fill="none" stroke="#805ad5" d="M786.53,-238C677.8,-238 547.42,-238 547.42,-238 547.42,-238 547.42,-115.41 547.42,-115.41"/>
<polygon fill="#805ad5" stroke="#805ad5" points="550.92,-115.41 547.42,-105.41 543.92,-115.41 550.92,-115.41"/>
<text xml:space="preserve" text-anchor="middle" x="537.27" y="-169.38" font-family="Helvetica,sans-Serif" font-size="9.00">Exports Parquet</text>
<text xml:space="preserve" text-anchor="middle" x="537.27" y="-158.57" font-family="Helvetica,sans-Serif" font-size="9.00">CSV, Excel</text>
</g>
<!-- PGSQL -->
<g id="node16" class="node">
<title>PGSQL</title>
<path fill="#805ad5" stroke="black" d="M709.19,-103.64C709.19,-103.64 588.81,-103.64 588.81,-103.64 582.81,-103.64 576.81,-97.64 576.81,-91.64 576.81,-91.64 576.81,-41.84 576.81,-41.84 576.81,-35.84 582.81,-29.84 588.81,-29.84 588.81,-29.84 709.19,-29.84 709.19,-29.84 715.19,-29.84 721.19,-35.84 721.19,-41.84 721.19,-41.84 721.19,-91.64 721.19,-91.64 721.19,-97.64 715.19,-103.64 709.19,-103.64"/>
<text xml:space="preserve" text-anchor="middle" x="649" y="-89.74" font-family="Helvetica,sans-Serif" font-size="11.00" fill="white">PostgreSQL/TimescaleDB</text>
<text xml:space="preserve" text-anchor="middle" x="649" y="-76.54" font-family="Helvetica,sans-Serif" font-size="11.00" fill="white">[External System]</text>
<text xml:space="preserve" text-anchor="middle" x="649" y="-50.34" font-family="Helvetica,sans-Serif" font-size="11.00" fill="white">Time&#45;Series Analytics</text>
<text xml:space="preserve" text-anchor="middle" x="649" y="-37.14" font-family="Helvetica,sans-Serif" font-size="11.00" fill="white">SQL Queries</text>
</g>
<!-- MDC&#45;&gt;PGSQL -->
<g id="edge17" class="edge">
<title>MDC&#45;&gt;PGSQL</title>
<path fill="none" stroke="#805ad5" d="M786.79,-217C745.34,-217 711.11,-217 711.11,-217 711.11,-217 711.11,-115.39 711.11,-115.39"/>
<polygon fill="#805ad5" stroke="#805ad5" points="714.61,-115.39 711.11,-105.39 707.61,-115.39 714.61,-115.39"/>
<text xml:space="preserve" text-anchor="middle" x="728.76" y="-169.38" font-family="Helvetica,sans-Serif" font-size="9.00">Exports CSV</text>
<text xml:space="preserve" text-anchor="middle" x="728.76" y="-158.57" font-family="Helvetica,sans-Serif" font-size="9.00">with DDL</text>
</g>
<!-- DISK -->
<g id="node17" class="node">
<title>DISK</title>
<path fill="#e53e3e" stroke="black" d="M1067.54,-108.25C1067.54,-113.34 1027.85,-117.47 979,-117.47 930.15,-117.47 890.46,-113.34 890.46,-108.25 890.46,-108.25 890.46,-25.23 890.46,-25.23 890.46,-20.13 930.15,-16 979,-16 1027.85,-16 1067.54,-20.13 1067.54,-25.23 1067.54,-25.23 1067.54,-108.25 1067.54,-108.25"/>
<path fill="none" stroke="black" d="M1067.54,-108.25C1067.54,-103.16 1027.85,-99.03 979,-99.03 930.15,-99.03 890.46,-103.16 890.46,-108.25"/>
<text xml:space="preserve" text-anchor="middle" x="979" y="-89.74" font-family="Helvetica,sans-Serif" font-size="11.00" fill="white">Storage</text>
<text xml:space="preserve" text-anchor="middle" x="979" y="-76.54" font-family="Helvetica,sans-Serif" font-size="11.00" fill="white">[Infrastructure]</text>
<text xml:space="preserve" text-anchor="middle" x="979" y="-50.34" font-family="Helvetica,sans-Serif" font-size="11.00" fill="white">JSONL (Hot) + Parquet (Archive)</text>
<text xml:space="preserve" text-anchor="middle" x="979" y="-37.14" font-family="Helvetica,sans-Serif" font-size="11.00" fill="white">Local/Cloud/S3</text>
</g>
<!-- MDC&#45;&gt;DISK -->
<g id="edge13" class="edge">
<title>MDC&#45;&gt;DISK</title>
<path fill="none" stroke="#c53030" d="M979,-195.03C979,-195.03 979,-129.29 979,-129.29"/>
<polygon fill="#c53030" stroke="#c53030" points="982.5,-129.29 979,-119.29 975.5,-129.29 982.5,-129.29"/>
<text xml:space="preserve" text-anchor="middle" x="985.51" y="-169.38" font-family="Helvetica,sans-Serif" font-size="9.00">Persists events</text>
<text xml:space="preserve" text-anchor="middle" x="985.51" y="-158.57" font-family="Helvetica,sans-Serif" font-size="9.00">WAL + JSONL</text>
</g>
<!-- MDC&#45;&gt;PROM -->
<g id="edge18" class="edge">
<title>MDC&#45;&gt;PROM</title>
<path fill="none" stroke="#c53030" d="M829.9,-195.03C829.9,-195.03 829.9,-115.42 829.9,-115.42"/>
<polygon fill="#c53030" stroke="#c53030" points="833.4,-115.42 829.9,-105.42 826.4,-115.42 833.4,-115.42"/>
<text xml:space="preserve" text-anchor="middle" x="858.27" y="-169.38" font-family="Helvetica,sans-Serif" font-size="9.00">Exposes /metrics</text>
<text xml:space="preserve" text-anchor="middle" x="858.27" y="-158.57" font-family="Helvetica,sans-Serif" font-size="9.00">Prometheus format</text>
</g>
<!-- MQ -->
<g id="node19" class="node">
<title>MQ</title>
<path fill="#e53e3e" stroke="black" d="M1188.52,-103.64C1188.52,-103.64 1097.48,-103.64 1097.48,-103.64 1091.48,-103.64 1085.48,-97.64 1085.48,-91.64 1085.48,-91.64 1085.48,-41.84 1085.48,-41.84 1085.48,-35.84 1091.48,-29.84 1097.48,-29.84 1097.48,-29.84 1188.52,-29.84 1188.52,-29.84 1194.52,-29.84 1200.52,-35.84 1200.52,-41.84 1200.52,-41.84 1200.52,-91.64 1200.52,-91.64 1200.52,-97.64 1194.52,-103.64 1188.52,-103.64"/>
<text xml:space="preserve" text-anchor="middle" x="1143" y="-89.74" font-family="Helvetica,sans-Serif" font-size="11.00" fill="white">RabbitMQ/Azure SB</text>
<text xml:space="preserve" text-anchor="middle" x="1143" y="-76.54" font-family="Helvetica,sans-Serif" font-size="11.00" fill="white">[Infrastructure]</text>
<text xml:space="preserve" text-anchor="middle" x="1143" y="-50.34" font-family="Helvetica,sans-Serif" font-size="11.00" fill="white">Message Bus</text>
<text xml:space="preserve" text-anchor="middle" x="1143" y="-37.14" font-family="Helvetica,sans-Serif" font-size="11.00" fill="white">Distributed Events</text>
</g>
<!-- MDC&#45;&gt;MQ -->
<g id="edge14" class="edge">
<title>MDC&#45;&gt;MQ</title>
<path fill="none" stroke="#c53030" d="M1071.27,-195.12C1071.27,-139.32 1071.27,-67 1071.27,-67 1071.27,-67 1073.59,-67 1073.59,-67"/>
<polygon fill="#c53030" stroke="#c53030" points="1073.59,-70.5 1083.59,-67 1073.59,-63.5 1073.59,-70.5"/>
<text xml:space="preserve" text-anchor="middle" x="1142.01" y="-169.38" font-family="Helvetica,sans-Serif" font-size="9.00">Publishes</text>
<text xml:space="preserve" text-anchor="middle" x="1142.01" y="-158.57" font-family="Helvetica,sans-Serif" font-size="9.00">MassTransit events</text>
</g>
<!-- IB -->
<g id="node5" class="node">
<title>IB</title>
<path fill="#4a90d9" stroke="black" d="M690.28,-477.89C690.28,-477.89 571.72,-477.89 571.72,-477.89 565.72,-477.89 559.72,-471.89 559.72,-465.89 559.72,-465.89 559.72,-416.09 559.72,-416.09 559.72,-410.09 565.72,-404.09 571.72,-404.09 571.72,-404.09 690.28,-404.09 690.28,-404.09 696.28,-404.09 702.28,-410.09 702.28,-416.09 702.28,-416.09 702.28,-465.89 702.28,-465.89 702.28,-471.89 696.28,-477.89 690.28,-477.89"/>
<text xml:space="preserve" text-anchor="middle" x="631" y="-463.99" font-family="Helvetica,sans-Serif" font-size="11.00" fill="white">Interactive Brokers</text>
<text xml:space="preserve" text-anchor="middle" x="631" y="-450.79" font-family="Helvetica,sans-Serif" font-size="11.00" fill="white">[External System]</text>
<text xml:space="preserve" text-anchor="middle" x="631" y="-424.59" font-family="Helvetica,sans-Serif" font-size="11.00" fill="white">TWS/Gateway API</text>
<text xml:space="preserve" text-anchor="middle" x="631" y="-411.39" font-family="Helvetica,sans-Serif" font-size="11.00" fill="white">Trades, Quotes, L2 Depth</text>
</g>
<!-- IB&#45;&gt;MDC -->
<g id="edge4" class="edge">
<title>IB&#45;&gt;MDC</title>
<path fill="none" stroke="#2b6cb0" d="M639.55,-403.85C639.55,-362.37 639.55,-301 639.55,-301 639.55,-301 775.04,-301 775.04,-301"/>
<polygon fill="#2b6cb0" stroke="#2b6cb0" points="775.04,-304.5 785.04,-301 775.04,-297.5 775.04,-304.5"/>
<text xml:space="preserve" text-anchor="middle" x="806.27" y="-353.37" font-family="Helvetica,sans-Serif" font-size="9.00">WebSocket</text>
<text xml:space="preserve" text-anchor="middle" x="806.27" y="-342.57" font-family="Helvetica,sans-Serif" font-size="9.00">L1/L2 streaming</text>
</g>
<!-- ALP -->
<g id="node6" class="node">
<title>ALP</title>
<path fill="#4a90d9" stroke="black" d="M822.06,-477.89C822.06,-477.89 731.94,-477.89 731.94,-477.89 725.94,-477.89 719.94,-471.89 719.94,-465.89 719.94,-465.89 719.94,-416.09 719.94,-416.09 719.94,-410.09 725.94,-404.09 731.94,-404.09 731.94,-404.09 822.06,-404.09 822.06,-404.09 828.06,-404.09 834.06,-410.09 834.06,-416.09 834.06,-416.09 834.06,-465.89 834.06,-465.89 834.06,-471.89 828.06,-477.89 822.06,-477.89"/>
<text xml:space="preserve" text-anchor="middle" x="777" y="-463.99" font-family="Helvetica,sans-Serif" font-size="11.00" fill="white">Alpaca Markets</text>
<text xml:space="preserve" text-anchor="middle" x="777" y="-450.79" font-family="Helvetica,sans-Serif" font-size="11.00" fill="white">[External System]</text>
<text xml:space="preserve" text-anchor="middle" x="777" y="-424.59" font-family="Helvetica,sans-Serif" font-size="11.00" fill="white">WebSocket + REST</text>
<text xml:space="preserve" text-anchor="middle" x="777" y="-411.39" font-family="Helvetica,sans-Serif" font-size="11.00" fill="white">IEX/SIP Feeds</text>
</g>
<!-- ALP&#45;&gt;MDC -->
<g id="edge5" class="edge">
<title>ALP&#45;&gt;MDC</title>
<path fill="none" stroke="#2b6cb0" d="M818.37,-403.66C818.37,-403.66 818.37,-333.69 818.37,-333.69"/>
<polygon fill="#2b6cb0" stroke="#2b6cb0" points="821.87,-333.69 818.37,-323.69 814.87,-333.69 821.87,-333.69"/>
<text xml:space="preserve" text-anchor="middle" x="885.01" y="-353.37" font-family="Helvetica,sans-Serif" font-size="9.00">WebSocket</text>
<text xml:space="preserve" text-anchor="middle" x="885.01" y="-342.57" font-family="Helvetica,sans-Serif" font-size="9.00">real&#45;time</text>
</g>
<!-- NYSE -->
<g id="node7" class="node">
<title>NYSE</title>
<path fill="#4a90d9" stroke="black" d="M965.72,-477.89C965.72,-477.89 864.28,-477.89 864.28,-477.89 858.28,-477.89 852.28,-471.89 852.28,-465.89 852.28,-465.89 852.28,-416.09 852.28,-416.09 852.28,-410.09 858.28,-404.09 864.28,-404.09 864.28,-404.09 965.72,-404.09 965.72,-404.09 971.72,-404.09 977.72,-410.09 977.72,-416.09 977.72,-416.09 977.72,-465.89 977.72,-465.89 977.72,-471.89 971.72,-477.89 965.72,-477.89"/>
<text xml:space="preserve" text-anchor="middle" x="915" y="-463.99" font-family="Helvetica,sans-Serif" font-size="11.00" fill="white">NYSE Direct</text>
<text xml:space="preserve" text-anchor="middle" x="915" y="-450.79" font-family="Helvetica,sans-Serif" font-size="11.00" fill="white">[External System]</text>
<text xml:space="preserve" text-anchor="middle" x="915" y="-424.59" font-family="Helvetica,sans-Serif" font-size="11.00" fill="white">Exchange&#45;Direct Feed</text>
<text xml:space="preserve" text-anchor="middle" x="915" y="-411.39" font-family="Helvetica,sans-Serif" font-size="11.00" fill="white">US Equities</text>
</g>
<!-- NYSE&#45;&gt;MDC -->
<g id="edge6" class="edge">
<title>NYSE&#45;&gt;MDC</title>
<path fill="none" stroke="#2b6cb0" d="M915,-403.66C915,-403.66 915,-333.69 915,-333.69"/>
<polygon fill="#2b6cb0" stroke="#2b6cb0" points="918.5,-333.69 915,-323.69 911.5,-333.69 918.5,-333.69"/>
<text xml:space="preserve" text-anchor="middle" x="961.02" y="-353.37" font-family="Helvetica,sans-Serif" font-size="9.00">Exchange feed</text>
<text xml:space="preserve" text-anchor="middle" x="961.02" y="-342.57" font-family="Helvetica,sans-Serif" font-size="9.00">US equities</text>
</g>
<!-- SS -->
<g id="node8" class="node">
<title>SS</title>
<path fill="#4a90d9" stroke="black" d="M1116.7,-477.89C1116.7,-477.89 1007.3,-477.89 1007.3,-477.89 1001.3,-477.89 995.3,-471.89 995.3,-465.89 995.3,-465.89 995.3,-416.09 995.3,-416.09 995.3,-410.09 1001.3,-404.09 1007.3,-404.09 1007.3,-404.09 1116.7,-404.09 1116.7,-404.09 1122.7,-404.09 1128.7,-410.09 1128.7,-416.09 1128.7,-416.09 1128.7,-465.89 1128.7,-465.89 1128.7,-471.89 1122.7,-477.89 1116.7,-477.89"/>
<text xml:space="preserve" text-anchor="middle" x="1062" y="-463.99" font-family="Helvetica,sans-Serif" font-size="11.00" fill="white">StockSharp</text>
<text xml:space="preserve" text-anchor="middle" x="1062" y="-450.79" font-family="Helvetica,sans-Serif" font-size="11.00" fill="white">[External System]</text>
<text xml:space="preserve" text-anchor="middle" x="1062" y="-424.59" font-family="Helvetica,sans-Serif" font-size="11.00" fill="white">Multi&#45;Exchange Adapter</text>
<text xml:space="preserve" text-anchor="middle" x="1062" y="-411.39" font-family="Helvetica,sans-Serif" font-size="11.00" fill="white">Global Markets</text>
</g>
<!-- SS&#45;&gt;MDC -->
<g id="edge7" class="edge">
<title>SS&#45;&gt;MDC</title>
<path fill="none" stroke="#2b6cb0" d="M1035.15,-403.66C1035.15,-403.66 1035.15,-333.69 1035.15,-333.69"/>
<polygon fill="#2b6cb0" stroke="#2b6cb0" points="1038.65,-333.69 1035.15,-323.69 1031.65,-333.69 1038.65,-333.69"/>
<text xml:space="preserve" text-anchor="middle" x="1076.52" y="-353.37" font-family="Helvetica,sans-Serif" font-size="9.00">Multi&#45;exchange</text>
<text xml:space="preserve" text-anchor="middle" x="1076.52" y="-342.57" font-family="Helvetica,sans-Serif" font-size="9.00">adapter</text>
</g>
<!-- YF -->
<g id="node9" class="node">
<title>YF</title>
<path fill="#38a169" stroke="black" d="M1783.1,-477.89C1783.1,-477.89 1678.9,-477.89 1678.9,-477.89 1672.9,-477.89 1666.9,-471.89 1666.9,-465.89 1666.9,-465.89 1666.9,-416.09 1666.9,-416.09 1666.9,-410.09 1672.9,-404.09 1678.9,-404.09 1678.9,-404.09 1783.1,-404.09 1783.1,-404.09 1789.1,-404.09 1795.1,-410.09 1795.1,-416.09 1795.1,-416.09 1795.1,-465.89 1795.1,-465.89 1795.1,-471.89 1789.1,-477.89 1783.1,-477.89"/>
<text xml:space="preserve" text-anchor="middle" x="1731" y="-463.99" font-family="Helvetica,sans-Serif" font-size="11.00" fill="white">Yahoo Finance</text>
<text xml:space="preserve" text-anchor="middle" x="1731" y="-450.79" font-family="Helvetica,sans-Serif" font-size="11.00" fill="white">[External System]</text>
<text xml:space="preserve" text-anchor="middle" x="1731" y="-424.59" font-family="Helvetica,sans-Serif" font-size="11.00" fill="white">50K+ Global Securities</text>
<text xml:space="preserve" text-anchor="middle" x="1731" y="-411.39" font-family="Helvetica,sans-Serif" font-size="11.00" fill="white">Free OHLCV</text>
</g>
<!-- YF&#45;&gt;MDC -->
<g id="edge8" class="edge">
<title>YF&#45;&gt;MDC</title>
<path fill="none" stroke="#2c7a7b" d="M1731,-403.75C1731,-340.06 1731,-217 1731,-217 1731,-217 1086.92,-217 1086.92,-217"/>
<polygon fill="#2c7a7b" stroke="#2c7a7b" points="1086.92,-213.5 1076.92,-217 1086.92,-220.5 1086.92,-213.5"/>
<text xml:space="preserve" text-anchor="middle" x="1701.76" y="-353.37" font-family="Helvetica,sans-Serif" font-size="9.00">REST</text>
<text xml:space="preserve" text-anchor="middle" x="1701.76" y="-342.57" font-family="Helvetica,sans-Serif" font-size="9.00">historical bars</text>
</g>
<!-- TI -->
<g id="node10" class="node">
<title>TI</title>
<path fill="#38a169" stroke="black" d="M1246.64,-477.89C1246.64,-477.89 1165.36,-477.89 1165.36,-477.89 1159.36,-477.89 1153.36,-471.89 1153.36,-465.89 1153.36,-465.89 1153.36,-416.09 1153.36,-416.09 1153.36,-410.09 1159.36,-404.09 1165.36,-404.09 1165.36,-404.09 1246.64,-404.09 1246.64,-404.09 1252.64,-404.09 1258.64,-410.09 1258.64,-416.09 1258.64,-416.09 1258.64,-465.89 1258.64,-465.89 1258.64,-471.89 1252.64,-477.89 1246.64,-477.89"/>
<text xml:space="preserve" text-anchor="middle" x="1206" y="-463.99" font-family="Helvetica,sans-Serif" font-size="11.00" fill="white">Tiingo</text>
<text xml:space="preserve" text-anchor="middle" x="1206" y="-450.79" font-family="Helvetica,sans-Serif" font-size="11.00" fill="white">[External System]</text>
<text xml:space="preserve" text-anchor="middle" x="1206" y="-424.59" font-family="Helvetica,sans-Serif" font-size="11.00" fill="white">Dividend&#45;Adjusted</text>
<text xml:space="preserve" text-anchor="middle" x="1206" y="-411.39" font-family="Helvetica,sans-Serif" font-size="11.00" fill="white">Fundamentals</text>
</g>
<!-- TI&#45;&gt;MDC -->
<g id="edge9" class="edge">
<title>TI&#45;&gt;MDC</title>
<path fill="none" stroke="#2c7a7b" d="M1176.94,-403.85C1176.94,-362.37 1176.94,-301 1176.94,-301 1176.94,-301 1087,-301 1087,-301"/>
<polygon fill="#2c7a7b" stroke="#2c7a7b" points="1087,-297.5 1077,-301 1087,-304.5 1087,-297.5"/>
<text xml:space="preserve" text-anchor="middle" x="1203.02" y="-353.37" font-family="Helvetica,sans-Serif" font-size="9.00">REST</text>
<text xml:space="preserve" text-anchor="middle" x="1203.02" y="-342.57" font-family="Helvetica,sans-Serif" font-size="9.00">adjusted data</text>
</g>
<!-- FH -->
<g id="node11" class="node">
<title>FH</title>
<path fill="#38a169" stroke="black" d="M1367.1,-477.89C1367.1,-477.89 1288.9,-477.89 1288.9,-477.89 1282.9,-477.89 1276.9,-471.89 1276.9,-465.89 1276.9,-465.89 1276.9,-416.09 1276.9,-416.09 1276.9,-410.09 1282.9,-404.09 1288.9,-404.09 1288.9,-404.09 1367.1,-404.09 1367.1,-404.09 1373.1,-404.09 1379.1,-410.09 1379.1,-416.09 1379.1,-416.09 1379.1,-465.89 1379.1,-465.89 1379.1,-471.89 1373.1,-477.89 1367.1,-477.89"/>
<text xml:space="preserve" text-anchor="middle" x="1328" y="-463.99" font-family="Helvetica,sans-Serif" font-size="11.00" fill="white">Finnhub</text>
<text xml:space="preserve" text-anchor="middle" x="1328" y="-450.79" font-family="Helvetica,sans-Serif" font-size="11.00" fill="white">[External System]</text>
<text xml:space="preserve" text-anchor="middle" x="1328" y="-424.59" font-family="Helvetica,sans-Serif" font-size="11.00" fill="white">Historical + News</text>
<text xml:space="preserve" text-anchor="middle" x="1328" y="-411.39" font-family="Helvetica,sans-Serif" font-size="11.00" fill="white">Fundamentals</text>
</g>
<!-- FH&#45;&gt;MDC -->
<g id="edge10" class="edge">
<title>FH&#45;&gt;MDC</title>
<path fill="none" stroke="#2c7a7b" d="M1328,-403.65C1328,-356.09 1328,-280 1328,-280 1328,-280 1086.96,-280 1086.96,-280"/>
<polygon fill="#2c7a7b" stroke="#2c7a7b" points="1086.96,-276.5 1076.96,-280 1086.96,-283.5 1086.96,-276.5"/>
<text xml:space="preserve" text-anchor="middle" x="1325.02" y="-353.37" font-family="Helvetica,sans-Serif" font-size="9.00">REST</text>
<text xml:space="preserve" text-anchor="middle" x="1325.02" y="-342.57" font-family="Helvetica,sans-Serif" font-size="9.00">fundamentals</text>
</g>
<!-- POL -->
<g id="node12" class="node">
<title>POL</title>
<path fill="#38a169" stroke="black" d="M1487.1,-477.89C1487.1,-477.89 1408.9,-477.89 1408.9,-477.89 1402.9,-477.89 1396.9,-471.89 1396.9,-465.89 1396.9,-465.89 1396.9,-416.09 1396.9,-416.09 1396.9,-410.09 1402.9,-404.09 1408.9,-404.09 1408.9,-404.09 1487.1,-404.09 1487.1,-404.09 1493.1,-404.09 1499.1,-410.09 1499.1,-416.09 1499.1,-416.09 1499.1,-465.89 1499.1,-465.89 1499.1,-471.89 1493.1,-477.89 1487.1,-477.89"/>
<text xml:space="preserve" text-anchor="middle" x="1448" y="-463.99" font-family="Helvetica,sans-Serif" font-size="11.00" fill="white">Polygon.io</text>
<text xml:space="preserve" text-anchor="middle" x="1448" y="-450.79" font-family="Helvetica,sans-Serif" font-size="11.00" fill="white">[External System]</text>
<text xml:space="preserve" text-anchor="middle" x="1448" y="-424.59" font-family="Helvetica,sans-Serif" font-size="11.00" fill="white">Historical Bars</text>
<text xml:space="preserve" text-anchor="middle" x="1448" y="-411.39" font-family="Helvetica,sans-Serif" font-size="11.00" fill="white">Minute/Day</text>
</g>
<!-- POL&#45;&gt;MDC -->
<g id="edge11" class="edge">
<title>POL&#45;&gt;MDC</title>
<path fill="none" stroke="#2c7a7b" d="M1448,-403.73C1448,-350.48 1448,-259 1448,-259 1448,-259 1086.87,-259 1086.87,-259"/>
<polygon fill="#2c7a7b" stroke="#2c7a7b" points="1086.87,-255.5 1076.87,-259 1086.87,-262.5 1086.87,-255.5"/>
<text xml:space="preserve" text-anchor="middle" x="1436.76" y="-353.37" font-family="Helvetica,sans-Serif" font-size="9.00">REST</text>
<text xml:space="preserve" text-anchor="middle" x="1436.76" y="-342.57" font-family="Helvetica,sans-Serif" font-size="9.00">historical</text>
</g>
<!-- STOOQ -->
<g id="node13" class="node">
<title>STOOQ</title>
<path fill="#38a169" stroke="black" d="M1637.1,-477.89C1637.1,-477.89 1528.9,-477.89 1528.9,-477.89 1522.9,-477.89 1516.9,-471.89 1516.9,-465.89 1516.9,-465.89 1516.9,-416.09 1516.9,-416.09 1516.9,-410.09 1522.9,-404.09 1528.9,-404.09 1528.9,-404.09 1637.1,-404.09 1637.1,-404.09 1643.1,-404.09 1649.1,-410.09 1649.1,-416.09 1649.1,-416.09 1649.1,-465.89 1649.1,-465.89 1649.1,-471.89 1643.1,-477.89 1637.1,-477.89"/>
<text xml:space="preserve" text-anchor="middle" x="1583" y="-463.99" font-family="Helvetica,sans-Serif" font-size="11.00" fill="white">Stooq + Others</text>
<text xml:space="preserve" text-anchor="middle" x="1583" y="-450.79" font-family="Helvetica,sans-Serif" font-size="11.00" fill="white">[External System]</text>
<text xml:space="preserve" text-anchor="middle" x="1583" y="-424.59" font-family="Helvetica,sans-Serif" font-size="11.00" fill="white">Nasdaq, Alpha Vantage</text>
<text xml:space="preserve" text-anchor="middle" x="1583" y="-411.39" font-family="Helvetica,sans-Serif" font-size="11.00" fill="white">EOD Data</text>
</g>
<!-- STOOQ&#45;&gt;MDC -->
<g id="edge12" class="edge">
<title>STOOQ&#45;&gt;MDC</title>
<path fill="none" stroke="#2c7a7b" d="M1583,-403.76C1583,-345.16 1583,-238 1583,-238 1583,-238 1086.81,-238 1086.81,-238"/>
<polygon fill="#2c7a7b" stroke="#2c7a7b" points="1086.81,-234.5 1076.81,-238 1086.81,-241.5 1086.81,-234.5"/>
<text xml:space="preserve" text-anchor="middle" x="1557.76" y="-353.37" font-family="Helvetica,sans-Serif" font-size="9.00">REST</text>
<text xml:space="preserve" text-anchor="middle" x="1557.76" y="-342.57" font-family="Helvetica,sans-Serif" font-size="9.00">EOD data</text>
</g>
<!-- L1 -->
<g id="node20" class="node">
<title>L1</title>
<ellipse fill="#08427b" stroke="black" cx="1850" cy="-440.99" rx="31.46" ry="18"/>
<text xml:space="preserve" text-anchor="middle" x="1850" y="-437.69" font-family="Helvetica,sans-Serif" font-size="11.00" fill="white">Person</text>
</g>
<!-- L2 -->
<g id="node21" class="node">
<title>L2</title>
<path fill="#438dd5" stroke="black" d="M1941,-458.99C1941,-458.99 1911,-458.99 1911,-458.99 1905,-458.99 1899,-452.99 1899,-446.99 1899,-446.99 1899,-434.99 1899,-434.99 1899,-428.99 1905,-422.99 1911,-422.99 1911,-422.99 1941,-422.99 1941,-422.99 1947,-422.99 1953,-428.99 1953,-434.99 1953,-434.99 1953,-446.99 1953,-446.99 1953,-452.99 1947,-458.99 1941,-458.99"/>
<text xml:space="preserve" text-anchor="middle" x="1926" y="-437.69" font-family="Helvetica,sans-Serif" font-size="11.00" fill="white">System</text>
</g>
<!-- L3 -->
<g id="node22" class="node">
<title>L3</title>
<path fill="#4a90d9" stroke="black" d="M2069.07,-458.99C2069.07,-458.99 1982.93,-458.99 1982.93,-458.99 1976.93,-458.99 1970.93,-452.99 1970.93,-446.99 1970.93,-446.99 1970.93,-434.99 1970.93,-434.99 1970.93,-428.99 1976.93,-422.99 1982.93,-422.99 1982.93,-422.99 2069.07,-422.99 2069.07,-422.99 2075.07,-422.99 2081.07,-428.99 2081.07,-434.99 2081.07,-434.99 2081.07,-446.99 2081.07,-446.99 2081.07,-452.99 2075.07,-458.99 2069.07,-458.99"/>
<text xml:space="preserve" text-anchor="middle" x="2026" y="-437.69" font-family="Helvetica,sans-Serif" font-size="11.00" fill="white">Streaming Provider</text>
</g>
<!-- L4 -->
<g id="node23" class="node">
<title>L4</title>
<path fill="#38a169" stroke="black" d="M2192.62,-458.99C2192.62,-458.99 2111.38,-458.99 2111.38,-458.99 2105.38,-458.99 2099.38,-452.99 2099.38,-446.99 2099.38,-446.99 2099.38,-434.99 2099.38,-434.99 2099.38,-428.99 2105.38,-422.99 2111.38,-422.99 2111.38,-422.99 2192.62,-422.99 2192.62,-422.99 2198.62,-422.99 2204.62,-428.99 2204.62,-434.99 2204.62,-434.99 2204.62,-446.99 2204.62,-446.99 2204.62,-452.99 2198.62,-458.99 2192.62,-458.99"/>
<text xml:space="preserve" text-anchor="middle" x="2152" y="-437.69" font-family="Helvetica,sans-Serif" font-size="11.00" fill="white">Historical Provider</text>
</g>
<!-- L5 -->
<g id="node24" class="node">
<title>L5</title>
<path fill="#805ad5" stroke="black" d="M2327.74,-458.99C2327.74,-458.99 2234.26,-458.99 2234.26,-458.99 2228.26,-458.99 2222.26,-452.99 2222.26,-446.99 2222.26,-446.99 2222.26,-434.99 2222.26,-434.99 2222.26,-428.99 2228.26,-422.99 2234.26,-422.99 2234.26,-422.99 2327.74,-422.99 2327.74,-422.99 2333.74,-422.99 2339.74,-428.99 2339.74,-434.99 2339.74,-434.99 2339.74,-446.99 2339.74,-446.99 2339.74,-452.99 2333.74,-458.99 2327.74,-458.99"/>
<text xml:space="preserve" text-anchor="middle" x="2281" y="-437.69" font-family="Helvetica,sans-Serif" font-size="11.00" fill="white">Downstream System</text>
</g>
<!-- L6 -->
<g id="node25" class="node">
<title>L6</title>
<path fill="#e53e3e" stroke="black" d="M2438.4,-455.72C2438.4,-457.53 2420.29,-458.99 2398,-458.99 2375.71,-458.99 2357.6,-457.53 2357.6,-455.72 2357.6,-455.72 2357.6,-426.27 2357.6,-426.27 2357.6,-424.46 2375.71,-422.99 2398,-422.99 2420.29,-422.99 2438.4,-424.46 2438.4,-426.27 2438.4,-426.27 2438.4,-455.72 2438.4,-455.72"/>
<path fill="none" stroke="black" d="M2438.4,-455.72C2438.4,-453.91 2420.29,-452.45 2398,-452.45 2375.71,-452.45 2357.6,-453.91 2357.6,-455.72"/>
<text xml:space="preserve" text-anchor="middle" x="2398" y="-437.69" font-family="Helvetica,sans-Serif" font-size="11.00" fill="white">Infrastructure</text>
</g>
</g>
</svg>
