<?xml version="1.0" encoding="UTF-8" standalone="no"?>
<!DOCTYPE svg PUBLIC "-//W3C//DTD SVG 1.1//EN"
 "http://www.w3.org/Graphics/SVG/1.1/DTD/svg11.dtd">
<!-- Generated by graphviz version 2.43.0 (0)
 -->
<!-- Title: G Pages: 1 -->
<svg width="503pt" height="444pt"
 viewBox="0.00 0.00 502.50 444.25" xmlns="http://www.w3.org/2000/svg" xmlns:xlink="http://www.w3.org/1999/xlink">
<g id="graph0" class="graph" transform="scale(1 1) rotate(0) translate(4 440.25)">
<title>G</title>
<polygon fill="white" stroke="transparent" points="-4,4 -4,-440.25 498.5,-440.25 498.5,4 -4,4"/>
<g id="clust1" class="cluster">
<title>cluster_proc</title>
<path fill="white" stroke="#2c7a7b" d="M127,-69.25C127,-69.25 365,-69.25 365,-69.25 371,-69.25 377,-75.25 377,-81.25 377,-81.25 377,-416.25 377,-416.25 377,-422.25 371,-428.25 365,-428.25 365,-428.25 127,-428.25 127,-428.25 121,-428.25 115,-422.25 115,-416.25 115,-416.25 115,-81.25 115,-81.25 115,-75.25 121,-69.25 127,-69.25"/>
<text text-anchor="middle" x="246" y="-416.25" font-family="Helvetica,sans-Serif" font-size="10.00">IB Data Collector (Process)</text>
</g>
<!-- Operator -->
<g id="node1" class="node">
<title>Operator</title>
<ellipse fill="#ffffff" stroke="#333333" cx="53" cy="-167.25" rx="34.96" ry="18"/>
<text text-anchor="middle" x="53" y="-164.75" font-family="Helvetica,sans-Serif" font-size="10.00">Operator</text>
</g>
<!-- UI -->
<g id="node2" class="node">
<title>UI</title>
<path fill="#e8f4ff" stroke="#2b6cb0" d="M94,-113.25C94,-113.25 12,-113.25 12,-113.25 6,-113.25 0,-107.25 0,-101.25 0,-101.25 0,-89.25 0,-89.25 0,-83.25 6,-77.25 12,-77.25 12,-77.25 94,-77.25 94,-77.25 100,-77.25 106,-83.25 106,-89.25 106,-89.25 106,-101.25 106,-101.25 106,-107.25 100,-113.25 94,-113.25"/>
<text text-anchor="middle" x="53" y="-98.25" font-family="Helvetica,sans-Serif" font-size="10.00">ASP.NET UI</text>
<text text-anchor="middle" x="53" y="-87.25" font-family="Helvetica,sans-Serif" font-size="10.00">IBDataCollector.Ui</text>
</g>
<!-- Operator&#45;&gt;UI -->
<g id="edge8" class="edge">
<title>Operator&#45;&gt;UI</title>
<path fill="none" stroke="#4a5568" d="M53,-148.95C53,-141.23 53,-131.96 53,-123.36"/>
<polygon fill="#4a5568" stroke="#4a5568" points="56.5,-123.35 53,-113.35 49.5,-123.35 56.5,-123.35"/>
</g>
<!-- DISK -->
<g id="node3" class="node">
<title>DISK</title>
<path fill="#fff5f5" stroke="#c53030" d="M156,-37.6C156,-39.68 140.31,-41.38 121,-41.38 101.69,-41.38 86,-39.68 86,-37.6 86,-37.6 86,-3.65 86,-3.65 86,-1.57 101.69,0.13 121,0.13 140.31,0.13 156,-1.57 156,-3.65 156,-3.65 156,-37.6 156,-37.6"/>
<path fill="none" stroke="#c53030" d="M156,-37.6C156,-35.52 140.31,-33.83 121,-33.83 101.69,-33.83 86,-35.52 86,-37.6"/>
<text text-anchor="middle" x="121" y="-23.62" font-family="Helvetica,sans-Serif" font-size="10.00">Filesystem</text>
<text text-anchor="middle" x="121" y="-12.62" font-family="Helvetica,sans-Serif" font-size="10.00">./data</text>
</g>
<!-- UI&#45;&gt;DISK -->
<g id="edge9" class="edge">
<title>UI&#45;&gt;DISK</title>
<path fill="none" stroke="#4a5568" d="M76.08,-69.61C82.29,-62.97 89.05,-55.74 95.4,-48.97"/>
<polygon fill="#4a5568" stroke="#4a5568" points="73.39,-67.35 69.12,-77.04 78.5,-72.13 73.39,-67.35"/>
<polygon fill="#4a5568" stroke="#4a5568" points="98.32,-50.97 102.6,-41.28 93.21,-46.19 98.32,-50.97"/>
</g>
<!-- IB -->
<g id="node4" class="node">
<title>IB</title>
<path fill="#f8f8f8" stroke="#333333" d="M482.5,-401.25C482.5,-401.25 397.5,-401.25 397.5,-401.25 391.5,-401.25 385.5,-395.25 385.5,-389.25 385.5,-389.25 385.5,-377.25 385.5,-377.25 385.5,-371.25 391.5,-365.25 397.5,-365.25 397.5,-365.25 482.5,-365.25 482.5,-365.25 488.5,-365.25 494.5,-371.25 494.5,-377.25 494.5,-377.25 494.5,-389.25 494.5,-389.25 494.5,-395.25 488.5,-401.25 482.5,-401.25"/>
<text text-anchor="middle" x="440" y="-386.25" font-family="Helvetica,sans-Serif" font-size="10.00">Interactive Brokers</text>
<text text-anchor="middle" x="440" y="-375.25" font-family="Helvetica,sans-Serif" font-size="10.00">TWS/Gateway</text>
</g>
<!-- INFRA -->
<g id="node9" class="node">
<title>INFRA</title>
<path fill="#f7fafc" stroke="#4a5568" d="M357,-329.25C357,-329.25 195,-329.25 195,-329.25 189,-329.25 183,-323.25 183,-317.25 183,-317.25 183,-305.25 183,-305.25 183,-299.25 189,-293.25 195,-293.25 195,-293.25 357,-293.25 357,-293.25 363,-293.25 369,-299.25 369,-305.25 369,-305.25 369,-317.25 369,-317.25 369,-323.25 363,-329.25 357,-329.25"/>
<text text-anchor="middle" x="276" y="-314.25" font-family="Helvetica,sans-Serif" font-size="10.00">Infrastructure (IB)</text>
<text text-anchor="middle" x="276" y="-303.25" font-family="Helvetica,sans-Serif" font-size="10.00">Connection/Router/ContractFactory</text>
</g>
<!-- IB&#45;&gt;INFRA -->
<g id="edge10" class="edge">
<title>IB&#45;&gt;INFRA</title>
<path fill="none" stroke="#4a5568" d="M399.88,-365.13C377.36,-355.51 349.08,-343.44 325.23,-333.26"/>
<polygon fill="#4a5568" stroke="#4a5568" points="326.56,-330.02 315.99,-329.32 323.81,-336.46 326.56,-330.02"/>
</g>
<!-- APP -->
<g id="node5" class="node">
<title>APP</title>
<path fill="#e8f4ff" stroke="#2b6cb0" d="M348.5,-401.25C348.5,-401.25 135.5,-401.25 135.5,-401.25 129.5,-401.25 123.5,-395.25 123.5,-389.25 123.5,-389.25 123.5,-377.25 123.5,-377.25 123.5,-371.25 129.5,-365.25 135.5,-365.25 135.5,-365.25 348.5,-365.25 348.5,-365.25 354.5,-365.25 360.5,-371.25 360.5,-377.25 360.5,-377.25 360.5,-389.25 360.5,-389.25 360.5,-395.25 354.5,-401.25 348.5,-401.25"/>
<text text-anchor="middle" x="242" y="-386.25" font-family="Helvetica,sans-Serif" font-size="10.00">Application Layer</text>
<text text-anchor="middle" x="242" y="-375.25" font-family="Helvetica,sans-Serif" font-size="10.00">Program/ConfigWatcher/SubscriptionManager</text>
</g>
<!-- DOM -->
<g id="node6" class="node">
<title>DOM</title>
<path fill="#f7fafc" stroke="#4a5568" d="M274.5,-257.25C274.5,-257.25 183.5,-257.25 183.5,-257.25 177.5,-257.25 171.5,-251.25 171.5,-245.25 171.5,-245.25 171.5,-233.25 171.5,-233.25 171.5,-227.25 177.5,-221.25 183.5,-221.25 183.5,-221.25 274.5,-221.25 274.5,-221.25 280.5,-221.25 286.5,-227.25 286.5,-233.25 286.5,-233.25 286.5,-245.25 286.5,-245.25 286.5,-251.25 280.5,-257.25 274.5,-257.25"/>
<text text-anchor="middle" x="229" y="-242.25" font-family="Helvetica,sans-Serif" font-size="10.00">Domain Layer</text>
<text text-anchor="middle" x="229" y="-231.25" font-family="Helvetica,sans-Serif" font-size="10.00">Collectors + Models</text>
</g>
<!-- APP&#45;&gt;DOM -->
<g id="edge2" class="edge">
<title>APP&#45;&gt;DOM</title>
<path fill="none" stroke="#4a5568" d="M208.64,-365.11C195.29,-356.34 181.36,-344.31 174,-329.25 166.98,-314.87 167.74,-307.97 174,-293.25 178.73,-282.11 187.08,-272.18 195.87,-264.01"/>
<polygon fill="#4a5568" stroke="#4a5568" points="198.35,-266.49 203.62,-257.3 193.77,-261.2 198.35,-266.49"/>
</g>
<!-- PIPE -->
<g id="node7" class="node">
<title>PIPE</title>
<path fill="#f7fafc" stroke="#4a5568" d="M303,-185.25C303,-185.25 155,-185.25 155,-185.25 149,-185.25 143,-179.25 143,-173.25 143,-173.25 143,-161.25 143,-161.25 143,-155.25 149,-149.25 155,-149.25 155,-149.25 303,-149.25 303,-149.25 309,-149.25 315,-155.25 315,-161.25 315,-161.25 315,-173.25 315,-173.25 315,-179.25 309,-185.25 303,-185.25"/>
<text text-anchor="middle" x="229" y="-170.25" font-family="Helvetica,sans-Serif" font-size="10.00">Event Pipeline</text>
<text text-anchor="middle" x="229" y="-159.25" font-family="Helvetica,sans-Serif" font-size="10.00">IMarketEventBus/Routed Fanout</text>
</g>
<!-- APP&#45;&gt;PIPE -->
<g id="edge3" class="edge">
<title>APP&#45;&gt;PIPE</title>
<path fill="none" stroke="#4a5568" d="M202.94,-365.03C188.38,-356.49 173.37,-344.65 165,-329.25 142.07,-287.07 142.24,-264.54 163,-221.25 168.67,-209.43 178.39,-199.42 188.66,-191.39"/>
<polygon fill="#4a5568" stroke="#4a5568" points="190.91,-194.08 196.95,-185.37 186.8,-188.41 190.91,-194.08"/>
</g>
<!-- STOR -->
<g id="node8" class="node">
<title>STOR</title>
<path fill="#f7fafc" stroke="#4a5568" d="M243.5,-113.25C243.5,-113.25 136.5,-113.25 136.5,-113.25 130.5,-113.25 124.5,-107.25 124.5,-101.25 124.5,-101.25 124.5,-89.25 124.5,-89.25 124.5,-83.25 130.5,-77.25 136.5,-77.25 136.5,-77.25 243.5,-77.25 243.5,-77.25 249.5,-77.25 255.5,-83.25 255.5,-89.25 255.5,-89.25 255.5,-101.25 255.5,-101.25 255.5,-107.25 249.5,-113.25 243.5,-113.25"/>
<text text-anchor="middle" x="190" y="-98.25" font-family="Helvetica,sans-Serif" font-size="10.00">Storage</text>
<text text-anchor="middle" x="190" y="-87.25" font-family="Helvetica,sans-Serif" font-size="10.00">JsonlStorageSink/Policy</text>
</g>
<!-- APP&#45;&gt;STOR -->
<g id="edge4" class="edge">
<title>APP&#45;&gt;STOR</title>
<path fill="none" stroke="#4a5568" d="M190.53,-365.24C173.6,-357.04 156.45,-345.39 146,-329.25 102.41,-261.95 102.3,-222.9 134,-149.25 138.79,-138.12 147.19,-128.24 156.05,-120.11"/>
<polygon fill="#4a5568" stroke="#4a5568" points="158.54,-122.59 163.88,-113.43 154,-117.26 158.54,-122.59"/>
</g>
<!-- APP&#45;&gt;INFRA -->
<g id="edge1" class="edge">
<title>APP&#45;&gt;INFRA</title>
<path fill="none" stroke="#4a5568" d="M250.4,-364.95C254.27,-356.98 258.95,-347.35 263.24,-338.51"/>
<polygon fill="#4a5568" stroke="#4a5568" points="266.47,-339.88 267.69,-329.35 260.17,-336.82 266.47,-339.88"/>
</g>
<!-- DOM&#45;&gt;PIPE -->
<g id="edge6" class="edge">
<title>DOM&#45;&gt;PIPE</title>
<path fill="none" stroke="#4a5568" d="M229,-220.95C229,-213.23 229,-203.96 229,-195.36"/>
<polygon fill="#4a5568" stroke="#4a5568" points="232.5,-195.35 229,-185.35 225.5,-195.35 232.5,-195.35"/>
</g>
<!-- PIPE&#45;&gt;STOR -->
<g id="edge7" class="edge">
<title>PIPE&#45;&gt;STOR</title>
<path fill="none" stroke="#4a5568" d="M219.36,-148.95C214.87,-140.89 209.44,-131.14 204.48,-122.23"/>
<polygon fill="#4a5568" stroke="#4a5568" points="207.45,-120.39 199.53,-113.35 201.34,-123.79 207.45,-120.39"/>
</g>
<!-- STOR&#45;&gt;DISK -->
<g id="edge11" class="edge">
<title>STOR&#45;&gt;DISK</title>
<path fill="none" stroke="#4a5568" d="M173.65,-77.04C165.6,-68.57 155.7,-58.15 146.68,-48.65"/>
<polygon fill="#4a5568" stroke="#4a5568" points="149.1,-46.12 139.67,-41.28 144.02,-50.94 149.1,-46.12"/>
</g>
<!-- INFRA&#45;&gt;DOM -->
<g id="edge5" class="edge">
<title>INFRA&#45;&gt;DOM</title>
<path fill="none" stroke="#4a5568" d="M264.38,-292.95C258.86,-284.72 252.15,-274.73 246.07,-265.67"/>
<polygon fill="#4a5568" stroke="#4a5568" points="248.96,-263.71 240.48,-257.35 243.15,-267.61 248.96,-263.71"/>
</g>
</g>
</svg>
