<?xml version="1.0" encoding="UTF-8" standalone="no"?>
<!DOCTYPE svg PUBLIC "-//W3C//DTD SVG 1.1//EN"
 "http://www.w3.org/Graphics/SVG/1.1/DTD/svg11.dtd">
<!-- Generated by graphviz version 14.1.1 (20251213.1925)
 -->
<!-- Title: CLICommands Pages: 1 -->
<svg width="2629pt" height="472pt"
 viewBox="0.00 0.00 2629.00 472.00" xmlns="http://www.w3.org/2000/svg" xmlns:xlink="http://www.w3.org/1999/xlink">
<g id="graph0" class="graph" transform="scale(1 1) rotate(0) translate(36 436.4)">
<title>CLICommands</title>
<polygon fill="white" stroke="none" points="-36,36 -36,-436.4 2593,-436.4 2593,36 -36,36"/>
<text xml:space="preserve" text-anchor="middle" x="1278.5" y="-385.6" font-family="Helvetica,sans-Serif" font-size="12.00">Market Data Collector &#45; CLI Commands Reference</text>
<text xml:space="preserve" text-anchor="middle" x="1278.5" y="-371.2" font-family="Helvetica,sans-Serif" font-size="12.00">All Available Flags and Options | v1.5.0</text>
<g id="clust1" class="cluster">
<title>cluster_setup</title>
<path fill="#ede9fe" stroke="#805ad5" d="M20,-116C20,-116 631,-116 631,-116 637,-116 643,-122 643,-128 643,-128 643,-203.6 643,-203.6 643,-209.6 637,-215.6 631,-215.6 631,-215.6 20,-215.6 20,-215.6 14,-215.6 8,-209.6 8,-203.6 8,-203.6 8,-128 8,-128 8,-122 14,-116 20,-116"/>
<text xml:space="preserve" text-anchor="middle" x="325.5" y="-200.8" font-family="Helvetica,sans-Serif" font-size="12.00">Setup Commands (First&#45;Time Configuration)</text>
</g>
<g id="clust2" class="cluster">
<title>cluster_diagnostic</title>
<path fill="#dbeafe" stroke="#2b6cb0" d="M663,-116C663,-116 1254,-116 1254,-116 1260,-116 1266,-122 1266,-128 1266,-128 1266,-203.6 1266,-203.6 1266,-209.6 1260,-215.6 1254,-215.6 1254,-215.6 663,-215.6 663,-215.6 657,-215.6 651,-209.6 651,-203.6 651,-203.6 651,-128 651,-128 651,-122 657,-116 663,-116"/>
<text xml:space="preserve" text-anchor="middle" x="958.5" y="-200.8" font-family="Helvetica,sans-Serif" font-size="12.00">Diagnostic Commands (Health &amp; Validation)</text>
</g>
<g id="clust3" class="cluster">
<title>cluster_operation</title>
<path fill="#f0fff4" stroke="#38a169" d="M1286,-8C1286,-8 1518,-8 1518,-8 1524,-8 1530,-14 1530,-20 1530,-20 1530,-203.6 1530,-203.6 1530,-209.6 1524,-215.6 1518,-215.6 1518,-215.6 1286,-215.6 1286,-215.6 1280,-215.6 1274,-209.6 1274,-203.6 1274,-203.6 1274,-20 1274,-20 1274,-14 1280,-8 1286,-8"/>
<text xml:space="preserve" text-anchor="middle" x="1402" y="-200.8" font-family="Helvetica,sans-Serif" font-size="12.00">Operation Commands (Runtime Modes)</text>
</g>
<g id="clust4" class="cluster">
<title>cluster_docs</title>
<path fill="#fffaf0" stroke="#ed8936" d="M1550,-116C1550,-116 2004,-116 2004,-116 2010,-116 2016,-122 2016,-128 2016,-128 2016,-203.6 2016,-203.6 2016,-209.6 2010,-215.6 2004,-215.6 2004,-215.6 1550,-215.6 1550,-215.6 1544,-215.6 1538,-209.6 1538,-203.6 1538,-203.6 1538,-128 1538,-128 1538,-122 1544,-116 1550,-116"/>
<text xml:space="preserve" text-anchor="middle" x="1777" y="-200.8" font-family="Helvetica,sans-Serif" font-size="12.00">Documentation Commands (Help &amp; Info)</text>
</g>
<g id="clust5" class="cluster">
<title>cluster_workflows</title>
<path fill="#f7fafc" stroke="#718096" d="M1226,-229C1226,-229 1871,-229 1871,-229 1877,-229 1883,-235 1883,-241 1883,-241 1883,-338.2 1883,-338.2 1883,-344.2 1877,-350.2 1871,-350.2 1871,-350.2 1226,-350.2 1226,-350.2 1220,-350.2 1214,-344.2 1214,-338.2 1214,-338.2 1214,-241 1214,-241 1214,-235 1220,-229 1226,-229"/>
<text xml:space="preserve" text-anchor="middle" x="1548.5" y="-335.4" font-family="Helvetica,sans-Serif" font-size="12.00">Common Workflows</text>
</g>
<g id="clust6" class="cluster">
<title>cluster_exit</title>
<path fill="#fee2e2" stroke="#e53e3e" d="M1903,-223.6C1903,-223.6 2003,-223.6 2003,-223.6 2009,-223.6 2015,-229.6 2015,-235.6 2015,-235.6 2015,-343.6 2015,-343.6 2015,-349.6 2009,-355.6 2003,-355.6 2003,-355.6 1903,-355.6 1903,-355.6 1897,-355.6 1891,-349.6 1891,-343.6 1891,-343.6 1891,-235.6 1891,-235.6 1891,-229.6 1897,-223.6 1903,-223.6"/>
<text xml:space="preserve" text-anchor="middle" x="1953" y="-340.8" font-family="Helvetica,sans-Serif" font-size="12.00">Exit Codes</text>
</g>
<g id="clust7" class="cluster">
<title>cluster_legend</title>
<path fill="#fafafa" stroke="#666666" d="M2035,-229.4C2035,-229.4 2537,-229.4 2537,-229.4 2543,-229.4 2549,-235.4 2549,-241.4 2549,-241.4 2549,-337.8 2549,-337.8 2549,-343.8 2543,-349.8 2537,-349.8 2537,-349.8 2035,-349.8 2035,-349.8 2029,-349.8 2023,-343.8 2023,-337.8 2023,-337.8 2023,-241.4 2023,-241.4 2023,-235.4 2029,-229.4 2035,-229.4"/>
<text xml:space="preserve" text-anchor="middle" x="2286" y="-335" font-family="Helvetica,sans-Serif" font-size="12.00">Legend</text>
</g>
<!-- MDC -->
<g id="node1" class="node">
<title>MDC</title>
<path fill="#438dd5" stroke="black" d="M1192,-303.6C1192,-303.6 1000,-303.6 1000,-303.6 994,-303.6 988,-297.6 988,-291.6 988,-291.6 988,-265.2 988,-265.2 988,-259.2 994,-253.2 1000,-253.2 1000,-253.2 1192,-253.2 1192,-253.2 1198,-253.2 1204,-259.2 1204,-265.2 1204,-265.2 1204,-291.6 1204,-291.6 1204,-297.6 1198,-303.6 1192,-303.6"/>
<text xml:space="preserve" text-anchor="middle" x="1096" y="-291.5" font-family="Helvetica,sans-Serif" font-size="9.00" fill="white">dotnet run &#45;&#45;project src/MarketDataCollector</text>
<text xml:space="preserve" text-anchor="middle" x="1096" y="-270.7" font-family="Helvetica,sans-Serif" font-size="9.00" fill="white">Market Data Collector CLI</text>
<text xml:space="preserve" text-anchor="middle" x="1096" y="-259.9" font-family="Helvetica,sans-Serif" font-size="9.00" fill="white">.NET 9.0 | Cross&#45;Platform</text>
</g>
<!-- WIZARD -->
<g id="node2" class="node">
<title>WIZARD</title>
<path fill="#c4b5fd" stroke="black" d="M171.79,-185.2C171.79,-185.2 28.21,-185.2 28.21,-185.2 22.21,-185.2 16.21,-179.2 16.21,-173.2 16.21,-173.2 16.21,-136 16.21,-136 16.21,-130 22.21,-124 28.21,-124 28.21,-124 171.79,-124 171.79,-124 177.79,-124 183.79,-130 183.79,-136 183.79,-136 183.79,-173.2 183.79,-173.2 183.79,-179.2 177.79,-185.2 171.79,-185.2"/>
<text xml:space="preserve" text-anchor="middle" x="100" y="-173.1" font-family="Helvetica,sans-Serif" font-size="9.00">&#45;&#45;wizard</text>
<text xml:space="preserve" text-anchor="middle" x="100" y="-152.3" font-family="Helvetica,sans-Serif" font-size="9.00">Interactive 8&#45;step configuration wizard</text>
<text xml:space="preserve" text-anchor="middle" x="100" y="-141.5" font-family="Helvetica,sans-Serif" font-size="9.00">Guides through all settings</text>
<text xml:space="preserve" text-anchor="middle" x="100" y="-130.7" font-family="Helvetica,sans-Serif" font-size="9.00">Generates appsettings.json</text>
</g>
<!-- MDC&#45;&gt;WIZARD -->
<g id="edge1" class="edge">
<title>MDC&#45;&gt;WIZARD</title>
<path fill="none" stroke="#805ad5" d="M987.67,-276.8C780.66,-274.54 336.6,-264.01 192,-215.6 175.84,-210.19 159.75,-201.24 145.65,-191.89"/>
<polygon fill="#805ad5" stroke="#805ad5" points="147.69,-189.05 137.48,-186.25 143.72,-194.81 147.69,-189.05"/>
</g>
<!-- AUTO_CONFIG -->
<g id="node3" class="node">
<title>AUTO_CONFIG</title>
<path fill="#c4b5fd" stroke="black" d="M332.52,-185.2C332.52,-185.2 213.48,-185.2 213.48,-185.2 207.48,-185.2 201.48,-179.2 201.48,-173.2 201.48,-173.2 201.48,-136 201.48,-136 201.48,-130 207.48,-124 213.48,-124 213.48,-124 332.52,-124 332.52,-124 338.52,-124 344.52,-130 344.52,-136 344.52,-136 344.52,-173.2 344.52,-173.2 344.52,-179.2 338.52,-185.2 332.52,-185.2"/>
<text xml:space="preserve" text-anchor="middle" x="273" y="-173.1" font-family="Helvetica,sans-Serif" font-size="9.00">&#45;&#45;auto&#45;config</text>
<text xml:space="preserve" text-anchor="middle" x="273" y="-152.3" font-family="Helvetica,sans-Serif" font-size="9.00">Quick auto&#45;configuration</text>
<text xml:space="preserve" text-anchor="middle" x="273" y="-141.5" font-family="Helvetica,sans-Serif" font-size="9.00">Detects providers from env vars</text>
<text xml:space="preserve" text-anchor="middle" x="273" y="-130.7" font-family="Helvetica,sans-Serif" font-size="9.00">Generates minimal config</text>
</g>
<!-- MDC&#45;&gt;AUTO_CONFIG -->
<g id="edge2" class="edge">
<title>MDC&#45;&gt;AUTO_CONFIG</title>
<path fill="none" stroke="#805ad5" d="M987.82,-275.72C810.44,-271.76 466.13,-258.6 353,-215.6 338.9,-210.24 325.16,-201.61 313.16,-192.55"/>
<polygon fill="#805ad5" stroke="#805ad5" points="315.55,-189.97 305.53,-186.52 311.21,-195.46 315.55,-189.97"/>
</g>
<!-- GEN_CONFIG -->
<g id="node4" class="node">
<title>GEN_CONFIG</title>
<path fill="#c4b5fd" stroke="black" d="M477.52,-185.2C477.52,-185.2 374.48,-185.2 374.48,-185.2 368.48,-185.2 362.48,-179.2 362.48,-173.2 362.48,-173.2 362.48,-136 362.48,-136 362.48,-130 368.48,-124 374.48,-124 374.48,-124 477.52,-124 477.52,-124 483.52,-124 489.52,-130 489.52,-136 489.52,-136 489.52,-173.2 489.52,-173.2 489.52,-179.2 483.52,-185.2 477.52,-185.2"/>
<text xml:space="preserve" text-anchor="middle" x="426" y="-173.1" font-family="Helvetica,sans-Serif" font-size="9.00">&#45;&#45;generate&#45;config &lt;type&gt;</text>
<text xml:space="preserve" text-anchor="middle" x="426" y="-152.3" font-family="Helvetica,sans-Serif" font-size="9.00">Generate config templates</text>
<text xml:space="preserve" text-anchor="middle" x="426" y="-141.5" font-family="Helvetica,sans-Serif" font-size="9.00">Types: minimal, full, alpaca,</text>
<text xml:space="preserve" text-anchor="middle" x="426" y="-130.7" font-family="Helvetica,sans-Serif" font-size="9.00">backfill, production, docker</text>
</g>
<!-- MDC&#45;&gt;GEN_CONFIG -->
<g id="edge3" class="edge">
<title>MDC&#45;&gt;GEN_CONFIG</title>
<path fill="none" stroke="#805ad5" d="M987.75,-273.76C839.99,-267.51 583.72,-251.73 498,-215.6 485.23,-210.22 472.99,-201.78 462.34,-192.91"/>
<polygon fill="#805ad5" stroke="#805ad5" points="464.76,-190.37 454.93,-186.41 460.14,-195.64 464.76,-190.37"/>
</g>
<!-- DETECT -->
<g id="node5" class="node">
<title>DETECT</title>
<path fill="#c4b5fd" stroke="black" d="M622.53,-185.2C622.53,-185.2 519.47,-185.2 519.47,-185.2 513.47,-185.2 507.47,-179.2 507.47,-173.2 507.47,-173.2 507.47,-136 507.47,-136 507.47,-130 513.47,-124 519.47,-124 519.47,-124 622.53,-124 622.53,-124 628.53,-124 634.53,-130 634.53,-136 634.53,-136 634.53,-173.2 634.53,-173.2 634.53,-179.2 628.53,-185.2 622.53,-185.2"/>
<text xml:space="preserve" text-anchor="middle" x="571" y="-173.1" font-family="Helvetica,sans-Serif" font-size="9.00">&#45;&#45;detect&#45;providers</text>
<text xml:space="preserve" text-anchor="middle" x="571" y="-152.3" font-family="Helvetica,sans-Serif" font-size="9.00">Scan environment variables</text>
<text xml:space="preserve" text-anchor="middle" x="571" y="-141.5" font-family="Helvetica,sans-Serif" font-size="9.00">Show available providers</text>
<text xml:space="preserve" text-anchor="middle" x="571" y="-130.7" font-family="Helvetica,sans-Serif" font-size="9.00">Display capabilities</text>
</g>
<!-- MDC&#45;&gt;DETECT -->
<g id="edge4" class="edge">
<title>MDC&#45;&gt;DETECT</title>
<path fill="none" stroke="#805ad5" d="M987.74,-269.08C874.96,-259.24 706.55,-240.95 647,-215.6 633.82,-209.99 620.99,-201.46 609.74,-192.59"/>
<polygon fill="#805ad5" stroke="#805ad5" points="612.19,-190.07 602.25,-186.41 607.74,-195.47 612.19,-190.07"/>
</g>
<!-- VAL_CREDS -->
<g id="node6" class="node">
<title>VAL_CREDS</title>
<path fill="#93c5fd" stroke="black" d="M746.77,-185.2C746.77,-185.2 671.23,-185.2 671.23,-185.2 665.23,-185.2 659.23,-179.2 659.23,-173.2 659.23,-173.2 659.23,-136 659.23,-136 659.23,-130 665.23,-124 671.23,-124 671.23,-124 746.77,-124 746.77,-124 752.77,-124 758.77,-130 758.77,-136 758.77,-136 758.77,-173.2 758.77,-173.2 758.77,-179.2 752.77,-185.2 746.77,-185.2"/>
<text xml:space="preserve" text-anchor="middle" x="709" y="-173.1" font-family="Helvetica,sans-Serif" font-size="9.00">&#45;&#45;validate&#45;credentials</text>
<text xml:space="preserve" text-anchor="middle" x="709" y="-152.3" font-family="Helvetica,sans-Serif" font-size="9.00">Test API credentials</text>
<text xml:space="preserve" text-anchor="middle" x="709" y="-141.5" font-family="Helvetica,sans-Serif" font-size="9.00">Validate all providers</text>
<text xml:space="preserve" text-anchor="middle" x="709" y="-130.7" font-family="Helvetica,sans-Serif" font-size="9.00">Show account info</text>
</g>
<!-- MDC&#45;&gt;VAL_CREDS -->
<g id="edge5" class="edge">
<title>MDC&#45;&gt;VAL_CREDS</title>
<path fill="none" stroke="#2b6cb0" d="M987.51,-273.62C920.55,-267.38 834.8,-252.11 767,-215.6 756.76,-210.09 747.25,-202.13 739,-193.81"/>
<polygon fill="#2b6cb0" stroke="#2b6cb0" points="741.61,-191.48 732.23,-186.55 736.49,-196.26 741.61,-191.48"/>
</g>
<!-- TEST_CONN -->
<g id="node7" class="node">
<title>TEST_CONN</title>
<path fill="#93c5fd" stroke="black" d="M881.52,-185.2C881.52,-185.2 788.48,-185.2 788.48,-185.2 782.48,-185.2 776.48,-179.2 776.48,-173.2 776.48,-173.2 776.48,-136 776.48,-136 776.48,-130 782.48,-124 788.48,-124 788.48,-124 881.52,-124 881.52,-124 887.52,-124 893.52,-130 893.52,-136 893.52,-136 893.52,-173.2 893.52,-173.2 893.52,-179.2 887.52,-185.2 881.52,-185.2"/>
<text xml:space="preserve" text-anchor="middle" x="835" y="-173.1" font-family="Helvetica,sans-Serif" font-size="9.00">&#45;&#45;test&#45;connectivity</text>
<text xml:space="preserve" text-anchor="middle" x="835" y="-152.3" font-family="Helvetica,sans-Serif" font-size="9.00">Test network connectivity</text>
<text xml:space="preserve" text-anchor="middle" x="835" y="-141.5" font-family="Helvetica,sans-Serif" font-size="9.00">Check DNS resolution</text>
<text xml:space="preserve" text-anchor="middle" x="835" y="-130.7" font-family="Helvetica,sans-Serif" font-size="9.00">Measure response times</text>
</g>
<!-- MDC&#45;&gt;TEST_CONN -->
<g id="edge6" class="edge">
<title>MDC&#45;&gt;TEST_CONN</title>
<path fill="none" stroke="#2b6cb0" d="M990.91,-252.75C961.08,-243.44 929.31,-231.21 902,-215.6 891.21,-209.43 880.65,-201.29 871.22,-193.01"/>
<polygon fill="#2b6cb0" stroke="#2b6cb0" points="873.76,-190.6 864.02,-186.44 869.04,-195.76 873.76,-190.6"/>
</g>
<!-- QUICK_CHECK -->
<g id="node8" class="node">
<title>QUICK_CHECK</title>
<path fill="#93c5fd" stroke="black" d="M1014.77,-185.2C1014.77,-185.2 923.23,-185.2 923.23,-185.2 917.23,-185.2 911.23,-179.2 911.23,-173.2 911.23,-173.2 911.23,-136 911.23,-136 911.23,-130 917.23,-124 923.23,-124 923.23,-124 1014.77,-124 1014.77,-124 1020.77,-124 1026.77,-130 1026.77,-136 1026.77,-136 1026.77,-173.2 1026.77,-173.2 1026.77,-179.2 1020.77,-185.2 1014.77,-185.2"/>
<text xml:space="preserve" text-anchor="middle" x="969" y="-173.1" font-family="Helvetica,sans-Serif" font-size="9.00">&#45;&#45;quick&#45;check</text>
<text xml:space="preserve" text-anchor="middle" x="969" y="-152.3" font-family="Helvetica,sans-Serif" font-size="9.00">Fast health diagnostics</text>
<text xml:space="preserve" text-anchor="middle" x="969" y="-141.5" font-family="Helvetica,sans-Serif" font-size="9.00">Check: disk, symbols,</text>
<text xml:space="preserve" text-anchor="middle" x="969" y="-130.7" font-family="Helvetica,sans-Serif" font-size="9.00">credentials, compression</text>
</g>
<!-- MDC&#45;&gt;QUICK_CHECK -->
<g id="edge7" class="edge">
<title>MDC&#45;&gt;QUICK_CHECK</title>
<path fill="none" stroke="#2b6cb0" d="M1070.3,-252.75C1052.46,-235.65 1028.37,-212.54 1008.16,-193.15"/>
<polygon fill="#2b6cb0" stroke="#2b6cb0" points="1010.78,-190.82 1001.14,-186.42 1005.93,-195.87 1010.78,-190.82"/>
</g>
<!-- VAL_CONFIG -->
<g id="node9" class="node">
<title>VAL_CONFIG</title>
<path fill="#93c5fd" stroke="black" d="M1135.28,-185.2C1135.28,-185.2 1056.72,-185.2 1056.72,-185.2 1050.72,-185.2 1044.72,-179.2 1044.72,-173.2 1044.72,-173.2 1044.72,-136 1044.72,-136 1044.72,-130 1050.72,-124 1056.72,-124 1056.72,-124 1135.28,-124 1135.28,-124 1141.28,-124 1147.28,-130 1147.28,-136 1147.28,-136 1147.28,-173.2 1147.28,-173.2 1147.28,-179.2 1141.28,-185.2 1135.28,-185.2"/>
<text xml:space="preserve" text-anchor="middle" x="1096" y="-173.1" font-family="Helvetica,sans-Serif" font-size="9.00">&#45;&#45;validate&#45;config</text>
<text xml:space="preserve" text-anchor="middle" x="1096" y="-152.3" font-family="Helvetica,sans-Serif" font-size="9.00">Validate configuration</text>
<text xml:space="preserve" text-anchor="middle" x="1096" y="-141.5" font-family="Helvetica,sans-Serif" font-size="9.00">Check required fields</text>
<text xml:space="preserve" text-anchor="middle" x="1096" y="-130.7" font-family="Helvetica,sans-Serif" font-size="9.00">No startup</text>
</g>
<!-- MDC&#45;&gt;VAL_CONFIG -->
<g id="edge8" class="edge">
<title>MDC&#45;&gt;VAL_CONFIG</title>
<path fill="none" stroke="#2b6cb0" d="M1096,-252.75C1096,-236.71 1096,-215.39 1096,-196.81"/>
<polygon fill="#2b6cb0" stroke="#2b6cb0" points="1099.5,-196.89 1096,-186.89 1092.5,-196.89 1099.5,-196.89"/>
</g>
<!-- DRY_RUN -->
<g id="node10" class="node">
<title>DRY_RUN</title>
<path fill="#93c5fd" stroke="black" d="M1246.27,-185.2C1246.27,-185.2 1177.73,-185.2 1177.73,-185.2 1171.73,-185.2 1165.73,-179.2 1165.73,-173.2 1165.73,-173.2 1165.73,-136 1165.73,-136 1165.73,-130 1171.73,-124 1177.73,-124 1177.73,-124 1246.27,-124 1246.27,-124 1252.27,-124 1258.27,-130 1258.27,-136 1258.27,-136 1258.27,-173.2 1258.27,-173.2 1258.27,-179.2 1252.27,-185.2 1246.27,-185.2"/>
<text xml:space="preserve" text-anchor="middle" x="1212" y="-173.1" font-family="Helvetica,sans-Serif" font-size="9.00">&#45;&#45;dry&#45;run</text>
<text xml:space="preserve" text-anchor="middle" x="1212" y="-152.3" font-family="Helvetica,sans-Serif" font-size="9.00">Test initialization</text>
<text xml:space="preserve" text-anchor="middle" x="1212" y="-141.5" font-family="Helvetica,sans-Serif" font-size="9.00">Validate everything</text>
<text xml:space="preserve" text-anchor="middle" x="1212" y="-130.7" font-family="Helvetica,sans-Serif" font-size="9.00">No data collection</text>
</g>
<!-- MDC&#45;&gt;DRY_RUN -->
<g id="edge9" class="edge">
<title>MDC&#45;&gt;DRY_RUN</title>
<path fill="none" stroke="#2b6cb0" d="M1120.05,-252.85C1131.06,-241.55 1144.25,-227.95 1156,-215.6 1162.64,-208.63 1169.67,-201.16 1176.43,-193.93"/>
<polygon fill="#2b6cb0" stroke="#2b6cb0" points="1178.9,-196.42 1183.17,-186.72 1173.78,-191.64 1178.9,-196.42"/>
</g>
<!-- UI_MODE -->
<g id="node11" class="node">
<title>UI_MODE</title>
<path fill="#68d391" stroke="black" d="M1378.03,-185.2C1378.03,-185.2 1293.97,-185.2 1293.97,-185.2 1287.97,-185.2 1281.97,-179.2 1281.97,-173.2 1281.97,-173.2 1281.97,-136 1281.97,-136 1281.97,-130 1287.97,-124 1293.97,-124 1293.97,-124 1378.03,-124 1378.03,-124 1384.03,-124 1390.03,-130 1390.03,-136 1390.03,-136 1390.03,-173.2 1390.03,-173.2 1390.03,-179.2 1384.03,-185.2 1378.03,-185.2"/>
<text xml:space="preserve" text-anchor="middle" x="1336" y="-173.1" font-family="Helvetica,sans-Serif" font-size="9.00">&#45;&#45;ui</text>
<text xml:space="preserve" text-anchor="middle" x="1336" y="-152.3" font-family="Helvetica,sans-Serif" font-size="9.00">Enable web dashboard</text>
<text xml:space="preserve" text-anchor="middle" x="1336" y="-141.5" font-family="Helvetica,sans-Serif" font-size="9.00">HTTP endpoints active</text>
<text xml:space="preserve" text-anchor="middle" x="1336" y="-130.7" font-family="Helvetica,sans-Serif" font-size="9.00">Real&#45;time monitoring</text>
</g>
<!-- MDC&#45;&gt;UI_MODE -->
<g id="edge10" class="edge">
<title>MDC&#45;&gt;UI_MODE</title>
<path fill="none" stroke="#38a169" d="M1139.95,-252.76C1160.62,-242.2 1185.96,-230.69 1210,-223.6 1235.8,-215.99 1245.6,-226.94 1270,-215.6 1281.73,-210.15 1292.83,-201.86 1302.47,-193.18"/>
<polygon fill="#38a169" stroke="#38a169" points="1304.6,-195.98 1309.44,-186.55 1299.78,-190.9 1304.6,-195.98"/>
</g>
<!-- BACKFILL -->
<g id="node13" class="node">
<title>BACKFILL</title>
<path fill="#68d391" stroke="black" d="M1509.77,-185.2C1509.77,-185.2 1420.23,-185.2 1420.23,-185.2 1414.23,-185.2 1408.23,-179.2 1408.23,-173.2 1408.23,-173.2 1408.23,-136 1408.23,-136 1408.23,-130 1414.23,-124 1420.23,-124 1420.23,-124 1509.77,-124 1509.77,-124 1515.77,-124 1521.77,-130 1521.77,-136 1521.77,-136 1521.77,-173.2 1521.77,-173.2 1521.77,-179.2 1515.77,-185.2 1509.77,-185.2"/>
<text xml:space="preserve" text-anchor="middle" x="1465" y="-173.1" font-family="Helvetica,sans-Serif" font-size="9.00">&#45;&#45;backfill</text>
<text xml:space="preserve" text-anchor="middle" x="1465" y="-152.3" font-family="Helvetica,sans-Serif" font-size="9.00">Run historical backfill</text>
<text xml:space="preserve" text-anchor="middle" x="1465" y="-141.5" font-family="Helvetica,sans-Serif" font-size="9.00">Requires provider config</text>
<text xml:space="preserve" text-anchor="middle" x="1465" y="-130.7" font-family="Helvetica,sans-Serif" font-size="9.00">No streaming</text>
</g>
<!-- MDC&#45;&gt;BACKFILL -->
<g id="edge11" class="edge">
<title>MDC&#45;&gt;BACKFILL</title>
<path fill="none" stroke="#38a169" d="M1137.81,-252.74C1158.75,-241.69 1184.93,-229.78 1210,-223.6 1250.82,-213.54 1360.12,-231.58 1399,-215.6 1411.19,-210.59 1422.56,-202.28 1432.32,-193.42"/>
<polygon fill="#38a169" stroke="#38a169" points="1434.61,-196.08 1439.37,-186.62 1429.74,-191.05 1434.61,-196.08"/>
</g>
<!-- SHOW_CONFIG -->
<g id="node15" class="node">
<title>SHOW_CONFIG</title>
<path fill="#fbd38d" stroke="black" d="M1642.02,-185.2C1642.02,-185.2 1557.98,-185.2 1557.98,-185.2 1551.98,-185.2 1545.98,-179.2 1545.98,-173.2 1545.98,-173.2 1545.98,-136 1545.98,-136 1545.98,-130 1551.98,-124 1557.98,-124 1557.98,-124 1642.02,-124 1642.02,-124 1648.02,-124 1654.02,-130 1654.02,-136 1654.02,-136 1654.02,-173.2 1654.02,-173.2 1654.02,-179.2 1648.02,-185.2 1642.02,-185.2"/>
<text xml:space="preserve" text-anchor="middle" x="1600" y="-173.1" font-family="Helvetica,sans-Serif" font-size="9.00">&#45;&#45;show&#45;config</text>
<text xml:space="preserve" text-anchor="middle" x="1600" y="-152.3" font-family="Helvetica,sans-Serif" font-size="9.00">Display current config</text>
<text xml:space="preserve" text-anchor="middle" x="1600" y="-141.5" font-family="Helvetica,sans-Serif" font-size="9.00">Mask sensitive values</text>
<text xml:space="preserve" text-anchor="middle" x="1600" y="-130.7" font-family="Helvetica,sans-Serif" font-size="9.00">Show effective settings</text>
</g>
<!-- MDC&#45;&gt;SHOW_CONFIG -->
<g id="edge14" class="edge">
<title>MDC&#45;&gt;SHOW_CONFIG</title>
<path fill="none" stroke="#ed8936" d="M1137.23,-252.83C1158.24,-241.66 1184.66,-229.61 1210,-223.6 1245.04,-215.29 1500.57,-229 1534,-215.6 1546.34,-210.65 1557.83,-202.28 1567.64,-193.33"/>
<polygon fill="#ed8936" stroke="#ed8936" points="1570,-195.92 1574.73,-186.44 1565.12,-190.9 1570,-195.92"/>
</g>
<!-- ERROR_CODES -->
<g id="node16" class="node">
<title>ERROR_CODES</title>
<path fill="#fbd38d" stroke="black" d="M1768,-185.2C1768,-185.2 1684,-185.2 1684,-185.2 1678,-185.2 1672,-179.2 1672,-173.2 1672,-173.2 1672,-136 1672,-136 1672,-130 1678,-124 1684,-124 1684,-124 1768,-124 1768,-124 1774,-124 1780,-130 1780,-136 1780,-136 1780,-173.2 1780,-173.2 1780,-179.2 1774,-185.2 1768,-185.2"/>
<text xml:space="preserve" text-anchor="middle" x="1726" y="-173.1" font-family="Helvetica,sans-Serif" font-size="9.00">&#45;&#45;error&#45;codes</text>
<text xml:space="preserve" text-anchor="middle" x="1726" y="-152.3" font-family="Helvetica,sans-Serif" font-size="9.00">List all error codes</text>
<text xml:space="preserve" text-anchor="middle" x="1726" y="-141.5" font-family="Helvetica,sans-Serif" font-size="9.00">MDC&#45;XXX&#45;NNN format</text>
<text xml:space="preserve" text-anchor="middle" x="1726" y="-130.7" font-family="Helvetica,sans-Serif" font-size="9.00">Troubleshooting tips</text>
</g>
<!-- MDC&#45;&gt;ERROR_CODES -->
<g id="edge15" class="edge">
<title>MDC&#45;&gt;ERROR_CODES</title>
<path fill="none" stroke="#ed8936" d="M1137.21,-252.75C1158.22,-241.56 1184.64,-229.52 1210,-223.6 1234.51,-217.88 1639.71,-225.15 1663,-215.6 1675,-210.68 1686.03,-202.31 1695.4,-193.36"/>
<polygon fill="#ed8936" stroke="#ed8936" points="1697.63,-196.09 1702.13,-186.5 1692.63,-191.19 1697.63,-196.09"/>
</g>
<!-- HELP -->
<g id="node17" class="node">
<title>HELP</title>
<path fill="#fbd38d" stroke="black" d="M1882.27,-185.2C1882.27,-185.2 1809.73,-185.2 1809.73,-185.2 1803.73,-185.2 1797.73,-179.2 1797.73,-173.2 1797.73,-173.2 1797.73,-136 1797.73,-136 1797.73,-130 1803.73,-124 1809.73,-124 1809.73,-124 1882.27,-124 1882.27,-124 1888.27,-124 1894.27,-130 1894.27,-136 1894.27,-136 1894.27,-173.2 1894.27,-173.2 1894.27,-179.2 1888.27,-185.2 1882.27,-185.2"/>
<text xml:space="preserve" text-anchor="middle" x="1846" y="-173.1" font-family="Helvetica,sans-Serif" font-size="9.00">&#45;&#45;help</text>
<text xml:space="preserve" text-anchor="middle" x="1846" y="-152.3" font-family="Helvetica,sans-Serif" font-size="9.00">Show all commands</text>
<text xml:space="preserve" text-anchor="middle" x="1846" y="-141.5" font-family="Helvetica,sans-Serif" font-size="9.00">Usage examples</text>
<text xml:space="preserve" text-anchor="middle" x="1846" y="-130.7" font-family="Helvetica,sans-Serif" font-size="9.00">Version info</text>
</g>
<!-- MDC&#45;&gt;HELP -->
<g id="edge16" class="edge">
<title>MDC&#45;&gt;HELP</title>
<path fill="none" stroke="#ed8936" d="M1137.2,-252.71C1158.21,-241.51 1184.63,-229.47 1210,-223.6 1241.34,-216.35 1759.53,-228.49 1789,-215.6 1800.07,-210.76 1810.02,-202.62 1818.39,-193.87"/>
<polygon fill="#ed8936" stroke="#ed8936" points="1820.9,-196.32 1824.91,-186.52 1815.66,-191.68 1820.9,-196.32"/>
</g>
<!-- VERSION -->
<g id="node18" class="node">
<title>VERSION</title>
<path fill="#fbd38d" stroke="black" d="M1995.52,-179.8C1995.52,-179.8 1924.48,-179.8 1924.48,-179.8 1918.48,-179.8 1912.48,-173.8 1912.48,-167.8 1912.48,-167.8 1912.48,-141.4 1912.48,-141.4 1912.48,-135.4 1918.48,-129.4 1924.48,-129.4 1924.48,-129.4 1995.52,-129.4 1995.52,-129.4 2001.52,-129.4 2007.52,-135.4 2007.52,-141.4 2007.52,-141.4 2007.52,-167.8 2007.52,-167.8 2007.52,-173.8 2001.52,-179.8 1995.52,-179.8"/>
<text xml:space="preserve" text-anchor="middle" x="1960" y="-167.7" font-family="Helvetica,sans-Serif" font-size="9.00">&#45;&#45;version</text>
<text xml:space="preserve" text-anchor="middle" x="1960" y="-146.9" font-family="Helvetica,sans-Serif" font-size="9.00">Show version: 1.5.0</text>
<text xml:space="preserve" text-anchor="middle" x="1960" y="-136.1" font-family="Helvetica,sans-Serif" font-size="9.00">.NET runtime info</text>
</g>
<!-- MDC&#45;&gt;VERSION -->
<g id="edge17" class="edge">
<title>MDC&#45;&gt;VERSION</title>
<path fill="none" stroke="#ed8936" d="M1136.93,-252.83C1157.98,-241.58 1184.51,-229.47 1210,-223.6 1247.52,-214.96 1867.71,-230.99 1903,-215.6 1916.17,-209.86 1927.75,-199.44 1936.97,-188.89"/>
<polygon fill="#ed8936" stroke="#ed8936" points="1939.58,-191.22 1943.19,-181.26 1934.16,-186.8 1939.58,-191.22"/>
</g>
<!-- HTTP_PORT -->
<g id="node12" class="node">
<title>HTTP_PORT</title>
<path fill="#9ae6b4" stroke="black" d="M1369.51,-82.6C1369.51,-82.6 1302.49,-82.6 1302.49,-82.6 1296.49,-82.6 1290.49,-76.6 1290.49,-70.6 1290.49,-70.6 1290.49,-33.4 1290.49,-33.4 1290.49,-27.4 1296.49,-21.4 1302.49,-21.4 1302.49,-21.4 1369.51,-21.4 1369.51,-21.4 1375.51,-21.4 1381.51,-27.4 1381.51,-33.4 1381.51,-33.4 1381.51,-70.6 1381.51,-70.6 1381.51,-76.6 1375.51,-82.6 1369.51,-82.6"/>
<text xml:space="preserve" text-anchor="middle" x="1336" y="-70.5" font-family="Helvetica,sans-Serif" font-size="9.00">&#45;&#45;http&#45;port &lt;port&gt;</text>
<text xml:space="preserve" text-anchor="middle" x="1336" y="-49.7" font-family="Helvetica,sans-Serif" font-size="9.00">Custom HTTP port</text>
<text xml:space="preserve" text-anchor="middle" x="1336" y="-38.9" font-family="Helvetica,sans-Serif" font-size="9.00">Default: 8080</text>
<text xml:space="preserve" text-anchor="middle" x="1336" y="-28.1" font-family="Helvetica,sans-Serif" font-size="9.00">Used with &#45;&#45;ui</text>
</g>
<!-- UI_MODE&#45;&gt;HTTP_PORT -->
<g id="edge12" class="edge">
<title>UI_MODE&#45;&gt;HTTP_PORT</title>
<path fill="none" stroke="#4a5568" stroke-dasharray="5,2" d="M1336,-123.69C1336,-114.45 1336,-104.1 1336,-94.23"/>
<polygon fill="#4a5568" stroke="#4a5568" points="1339.5,-94.48 1336,-84.48 1332.5,-94.48 1339.5,-94.48"/>
</g>
<!-- BACKFILL_OPTS -->
<g id="node14" class="node">
<title>BACKFILL_OPTS</title>
<path fill="#9ae6b4" stroke="black" d="M1510.27,-88C1510.27,-88 1413.73,-88 1413.73,-88 1407.73,-88 1401.73,-82 1401.73,-76 1401.73,-76 1401.73,-28 1401.73,-28 1401.73,-22 1407.73,-16 1413.73,-16 1413.73,-16 1510.27,-16 1510.27,-16 1516.27,-16 1522.27,-22 1522.27,-28 1522.27,-28 1522.27,-76 1522.27,-76 1522.27,-82 1516.27,-88 1510.27,-88"/>
<text xml:space="preserve" text-anchor="middle" x="1462" y="-75.9" font-family="Helvetica,sans-Serif" font-size="9.00">&#45;&#45;backfill&#45;provider &lt;name&gt;</text>
<text xml:space="preserve" text-anchor="middle" x="1462" y="-65.1" font-family="Helvetica,sans-Serif" font-size="9.00">&#45;&#45;backfill&#45;symbols &lt;list&gt;</text>
<text xml:space="preserve" text-anchor="middle" x="1462" y="-54.3" font-family="Helvetica,sans-Serif" font-size="9.00">&#45;&#45;backfill&#45;from &lt;date&gt;</text>
<text xml:space="preserve" text-anchor="middle" x="1462" y="-43.5" font-family="Helvetica,sans-Serif" font-size="9.00">&#45;&#45;backfill&#45;to &lt;date&gt;</text>
<text xml:space="preserve" text-anchor="middle" x="1462" y="-22.7" font-family="Helvetica,sans-Serif" font-size="9.00">Backfill options</text>
</g>
<!-- BACKFILL&#45;&gt;BACKFILL_OPTS -->
<g id="edge13" class="edge">
<title>BACKFILL&#45;&gt;BACKFILL_OPTS</title>
<path fill="none" stroke="#4a5568" stroke-dasharray="5,2" d="M1464.11,-123.69C1463.88,-116.13 1463.64,-107.83 1463.39,-99.66"/>
<polygon fill="#4a5568" stroke="#4a5568" points="1466.89,-99.7 1463.1,-89.8 1459.9,-99.9 1466.89,-99.7"/>
</g>
<!-- WF_NEW -->
<g id="node19" class="node">
<title>WF_NEW</title>
<polygon fill="#edf2f7" stroke="black" points="1377.53,-314.4 1222.47,-314.4 1222.47,-242.4 1383.53,-242.4 1383.53,-308.4 1377.53,-314.4"/>
<polyline fill="none" stroke="black" points="1377.53,-314.4 1377.53,-308.4"/>
<polyline fill="none" stroke="black" points="1383.53,-308.4 1377.53,-308.4"/>
<text xml:space="preserve" text-anchor="middle" x="1303" y="-302.3" font-family="Helvetica,sans-Serif" font-size="9.00">New Installation:</text>
<text xml:space="preserve" text-anchor="middle" x="1303" y="-281.5" font-family="Helvetica,sans-Serif" font-size="9.00">1. dotnet run &#45;&#45; &#45;&#45;wizard</text>
<text xml:space="preserve" text-anchor="middle" x="1303" y="-270.7" font-family="Helvetica,sans-Serif" font-size="9.00">2. dotnet run &#45;&#45; &#45;&#45;validate&#45;credentials</text>
<text xml:space="preserve" text-anchor="middle" x="1303" y="-259.9" font-family="Helvetica,sans-Serif" font-size="9.00">3. dotnet run &#45;&#45; &#45;&#45;dry&#45;run</text>
<text xml:space="preserve" text-anchor="middle" x="1303" y="-249.1" font-family="Helvetica,sans-Serif" font-size="9.00">4. dotnet run &#45;&#45; &#45;&#45;ui</text>
</g>
<!-- WF_CI -->
<g id="node20" class="node">
<title>WF_CI</title>
<polygon fill="#edf2f7" stroke="black" points="1536.78,-314.4 1401.22,-314.4 1401.22,-242.4 1542.78,-242.4 1542.78,-308.4 1536.78,-314.4"/>
<polyline fill="none" stroke="black" points="1536.78,-314.4 1536.78,-308.4"/>
<polyline fill="none" stroke="black" points="1542.78,-308.4 1536.78,-308.4"/>
<text xml:space="preserve" text-anchor="middle" x="1472" y="-302.3" font-family="Helvetica,sans-Serif" font-size="9.00">CI/CD Setup:</text>
<text xml:space="preserve" text-anchor="middle" x="1472" y="-281.5" font-family="Helvetica,sans-Serif" font-size="9.00">1. Set environment variables</text>
<text xml:space="preserve" text-anchor="middle" x="1472" y="-270.7" font-family="Helvetica,sans-Serif" font-size="9.00">2. dotnet run &#45;&#45; &#45;&#45;auto&#45;config</text>
<text xml:space="preserve" text-anchor="middle" x="1472" y="-259.9" font-family="Helvetica,sans-Serif" font-size="9.00">3. dotnet run &#45;&#45; &#45;&#45;validate&#45;config</text>
<text xml:space="preserve" text-anchor="middle" x="1472" y="-249.1" font-family="Helvetica,sans-Serif" font-size="9.00">4. dotnet run</text>
</g>
<!-- WF_DEBUG -->
<g id="node21" class="node">
<title>WF_DEBUG</title>
<polygon fill="#edf2f7" stroke="black" points="1703.03,-314.4 1560.97,-314.4 1560.97,-242.4 1709.03,-242.4 1709.03,-308.4 1703.03,-314.4"/>
<polyline fill="none" stroke="black" points="1703.03,-314.4 1703.03,-308.4"/>
<polyline fill="none" stroke="black" points="1709.03,-308.4 1703.03,-308.4"/>
<text xml:space="preserve" text-anchor="middle" x="1635" y="-302.3" font-family="Helvetica,sans-Serif" font-size="9.00">Troubleshooting:</text>
<text xml:space="preserve" text-anchor="middle" x="1635" y="-281.5" font-family="Helvetica,sans-Serif" font-size="9.00">1. dotnet run &#45;&#45; &#45;&#45;show&#45;config</text>
<text xml:space="preserve" text-anchor="middle" x="1635" y="-270.7" font-family="Helvetica,sans-Serif" font-size="9.00">2. dotnet run &#45;&#45; &#45;&#45;test&#45;connectivity</text>
<text xml:space="preserve" text-anchor="middle" x="1635" y="-259.9" font-family="Helvetica,sans-Serif" font-size="9.00">3. dotnet run &#45;&#45; &#45;&#45;quick&#45;check</text>
<text xml:space="preserve" text-anchor="middle" x="1635" y="-249.1" font-family="Helvetica,sans-Serif" font-size="9.00">4. dotnet run &#45;&#45; &#45;&#45;error&#45;codes</text>
</g>
<!-- WF_BACKFILL -->
<g id="node22" class="node">
<title>WF_BACKFILL</title>
<polygon fill="#edf2f7" stroke="black" points="1869.03,-319.8 1726.97,-319.8 1726.97,-237 1875.03,-237 1875.03,-313.8 1869.03,-319.8"/>
<polyline fill="none" stroke="black" points="1869.03,-319.8 1869.03,-313.8"/>
<polyline fill="none" stroke="black" points="1875.03,-313.8 1869.03,-313.8"/>
<text xml:space="preserve" text-anchor="middle" x="1801" y="-307.7" font-family="Helvetica,sans-Serif" font-size="9.00">Historical Backfill:</text>
<text xml:space="preserve" text-anchor="middle" x="1801" y="-286.9" font-family="Helvetica,sans-Serif" font-size="9.00">1. dotnet run &#45;&#45; &#45;&#45;detect&#45;providers</text>
<text xml:space="preserve" text-anchor="middle" x="1801" y="-276.1" font-family="Helvetica,sans-Serif" font-size="9.00">2. dotnet run &#45;&#45; &#45;&#45;backfill \</text>
<text xml:space="preserve" text-anchor="middle" x="1801" y="-265.3" font-family="Helvetica,sans-Serif" font-size="9.00"> &#160;&#160;&#45;&#45;backfill&#45;provider alpaca \</text>
<text xml:space="preserve" text-anchor="middle" x="1801" y="-254.5" font-family="Helvetica,sans-Serif" font-size="9.00"> &#160;&#160;&#45;&#45;backfill&#45;symbols SPY,QQQ \</text>
<text xml:space="preserve" text-anchor="middle" x="1801" y="-243.7" font-family="Helvetica,sans-Serif" font-size="9.00"> &#160;&#160;&#45;&#45;backfill&#45;from 2024&#45;01&#45;01</text>
</g>
<!-- EXIT_CODES -->
<g id="node23" class="node">
<title>EXIT_CODES</title>
<path fill="#fecaca" stroke="black" d="M1994.77,-325.2C1994.77,-325.2 1911.23,-325.2 1911.23,-325.2 1905.23,-325.2 1899.23,-319.2 1899.23,-313.2 1899.23,-313.2 1899.23,-243.6 1899.23,-243.6 1899.23,-237.6 1905.23,-231.6 1911.23,-231.6 1911.23,-231.6 1994.77,-231.6 1994.77,-231.6 2000.77,-231.6 2006.77,-237.6 2006.77,-243.6 2006.77,-243.6 2006.77,-313.2 2006.77,-313.2 2006.77,-319.2 2000.77,-325.2 1994.77,-325.2"/>
<text xml:space="preserve" text-anchor="middle" x="1953" y="-313.1" font-family="Helvetica,sans-Serif" font-size="9.00">Exit Codes:</text>
<text xml:space="preserve" text-anchor="middle" x="1953" y="-292.3" font-family="Helvetica,sans-Serif" font-size="9.00">0 &#45; Success</text>
<text xml:space="preserve" text-anchor="middle" x="1953" y="-281.5" font-family="Helvetica,sans-Serif" font-size="9.00">1 &#45; General error</text>
<text xml:space="preserve" text-anchor="middle" x="1953" y="-270.7" font-family="Helvetica,sans-Serif" font-size="9.00">2 &#45; Configuration error</text>
<text xml:space="preserve" text-anchor="middle" x="1953" y="-259.9" font-family="Helvetica,sans-Serif" font-size="9.00">3 &#45; Connection error</text>
<text xml:space="preserve" text-anchor="middle" x="1953" y="-249.1" font-family="Helvetica,sans-Serif" font-size="9.00">4 &#45; Authentication error</text>
<text xml:space="preserve" text-anchor="middle" x="1953" y="-238.3" font-family="Helvetica,sans-Serif" font-size="9.00">5 &#45; Validation failed</text>
</g>
<!-- L1 -->
<g id="node24" class="node">
<title>L1</title>
<path fill="#c4b5fd" stroke="black" d="M2073,-296.4C2073,-296.4 2043,-296.4 2043,-296.4 2037,-296.4 2031,-290.4 2031,-284.4 2031,-284.4 2031,-272.4 2031,-272.4 2031,-266.4 2037,-260.4 2043,-260.4 2043,-260.4 2073,-260.4 2073,-260.4 2079,-260.4 2085,-266.4 2085,-272.4 2085,-272.4 2085,-284.4 2085,-284.4 2085,-290.4 2079,-296.4 2073,-296.4"/>
<text xml:space="preserve" text-anchor="middle" x="2058" y="-275.7" font-family="Helvetica,sans-Serif" font-size="9.00">Setup</text>
</g>
<!-- L2 -->
<g id="node25" class="node">
<title>L2</title>
<path fill="#93c5fd" stroke="black" d="M2149.01,-296.4C2149.01,-296.4 2114.99,-296.4 2114.99,-296.4 2108.99,-296.4 2102.99,-290.4 2102.99,-284.4 2102.99,-284.4 2102.99,-272.4 2102.99,-272.4 2102.99,-266.4 2108.99,-260.4 2114.99,-260.4 2114.99,-260.4 2149.01,-260.4 2149.01,-260.4 2155.01,-260.4 2161.01,-266.4 2161.01,-272.4 2161.01,-272.4 2161.01,-284.4 2161.01,-284.4 2161.01,-290.4 2155.01,-296.4 2149.01,-296.4"/>
<text xml:space="preserve" text-anchor="middle" x="2132" y="-275.7" font-family="Helvetica,sans-Serif" font-size="9.00">Diagnostic</text>
</g>
<!-- L3 -->
<g id="node26" class="node">
<title>L3</title>
<path fill="#68d391" stroke="black" d="M2222.76,-296.4C2222.76,-296.4 2191.24,-296.4 2191.24,-296.4 2185.24,-296.4 2179.24,-290.4 2179.24,-284.4 2179.24,-284.4 2179.24,-272.4 2179.24,-272.4 2179.24,-266.4 2185.24,-260.4 2191.24,-260.4 2191.24,-260.4 2222.76,-260.4 2222.76,-260.4 2228.76,-260.4 2234.76,-266.4 2234.76,-272.4 2234.76,-272.4 2234.76,-284.4 2234.76,-284.4 2234.76,-290.4 2228.76,-296.4 2222.76,-296.4"/>
<text xml:space="preserve" text-anchor="middle" x="2207" y="-275.7" font-family="Helvetica,sans-Serif" font-size="9.00">Operation</text>
</g>
<!-- L4 -->
<g id="node27" class="node">
<title>L4</title>
<path fill="#fbd38d" stroke="black" d="M2317.27,-296.4C2317.27,-296.4 2264.73,-296.4 2264.73,-296.4 2258.73,-296.4 2252.73,-290.4 2252.73,-284.4 2252.73,-284.4 2252.73,-272.4 2252.73,-272.4 2252.73,-266.4 2258.73,-260.4 2264.73,-260.4 2264.73,-260.4 2317.27,-260.4 2317.27,-260.4 2323.27,-260.4 2329.27,-266.4 2329.27,-272.4 2329.27,-272.4 2329.27,-284.4 2329.27,-284.4 2329.27,-290.4 2323.27,-296.4 2317.27,-296.4"/>
<text xml:space="preserve" text-anchor="middle" x="2291" y="-275.7" font-family="Helvetica,sans-Serif" font-size="9.00">Documentation</text>
</g>
<!-- ENV_NOTE -->
<g id="node28" class="node">
<title>ENV_NOTE</title>
<path fill="lightgrey" stroke="none" d="M2528.79,-319.4C2528.79,-319.4 2359.21,-319.4 2359.21,-319.4 2353.21,-319.4 2347.21,-313.4 2347.21,-307.4 2347.21,-307.4 2347.21,-249.4 2347.21,-249.4 2347.21,-243.4 2353.21,-237.4 2359.21,-237.4 2359.21,-237.4 2528.79,-237.4 2528.79,-237.4 2534.79,-237.4 2540.79,-243.4 2540.79,-249.4 2540.79,-249.4 2540.79,-307.4 2540.79,-307.4 2540.79,-313.4 2534.79,-319.4 2528.79,-319.4"/>
<text xml:space="preserve" text-anchor="middle" x="2444" y="-307.3" font-family="Helvetica,sans-Serif" font-size="9.00">Environment Variables:</text>
<text xml:space="preserve" text-anchor="middle" x="2444" y="-286.5" font-family="Helvetica,sans-Serif" font-size="9.00">ALPACA__KEYID, ALPACA__SECRETKEY</text>
<text xml:space="preserve" text-anchor="middle" x="2444" y="-275.7" font-family="Helvetica,sans-Serif" font-size="9.00">POLYGON__APIKEY, TIINGO__TOKEN</text>
<text xml:space="preserve" text-anchor="middle" x="2444" y="-264.9" font-family="Helvetica,sans-Serif" font-size="9.00">NYSE__APIKEY, etc.</text>
<text xml:space="preserve" text-anchor="middle" x="2444" y="-244.1" font-family="Helvetica,sans-Serif" font-size="9.00">(Use double underscore for nested config)</text>
</g>
</g>
</svg>
