<?xml version="1.0" encoding="UTF-8" standalone="no"?>
<!DOCTYPE svg PUBLIC "-//W3C//DTD SVG 1.1//EN"
 "http://www.w3.org/Graphics/SVG/1.1/DTD/svg11.dtd">
<!-- Generated by graphviz version 2.43.0 (0)
 -->
<!-- Title: OnboardingFlow Pages: 1 -->
<svg width="1457pt" height="2135pt"
 viewBox="0.00 0.00 1457.00 2134.71" xmlns="http://www.w3.org/2000/svg" xmlns:xlink="http://www.w3.org/1999/xlink">
<g id="graph0" class="graph" transform="scale(1 1) rotate(0) translate(36 2098.71)">
<title>OnboardingFlow</title>
<polygon fill="white" stroke="transparent" points="-36,36 -36,-2098.71 1421,-2098.71 1421,36 -36,36"/>
<text text-anchor="middle" x="692.5" y="-2049.11" font-family="Helvetica,sans-Serif" font-size="12.00">Meridian &#45; Onboarding &amp; Diagnostics Flow</text>
<text text-anchor="middle" x="692.5" y="-2036.11" font-family="Helvetica,sans-Serif" font-size="12.00">User Journey from Installation to Operation | v1.6.1</text>
<g id="clust1" class="cluster">
<title>cluster_firstrun</title>
<path fill="#fffaf0" stroke="#ed8936" d="M389,-1663.5C389,-1663.5 545,-1663.5 545,-1663.5 551,-1663.5 557,-1669.5 557,-1675.5 557,-1675.5 557,-1913.5 557,-1913.5 557,-1919.5 551,-1925.5 545,-1925.5 545,-1925.5 389,-1925.5 389,-1925.5 383,-1925.5 377,-1919.5 377,-1913.5 377,-1913.5 377,-1675.5 377,-1675.5 377,-1669.5 383,-1663.5 389,-1663.5"/>
<text text-anchor="middle" x="467" y="-1911.9" font-family="Helvetica,sans-Serif" font-size="12.00">First&#45;Run Detection</text>
</g>
<g id="clust2" class="cluster">
<title>cluster_setup</title>
<path fill="#ede9fe" stroke="#805ad5" d="M20,-1433.5C20,-1433.5 482,-1433.5 482,-1433.5 488,-1433.5 494,-1439.5 494,-1445.5 494,-1445.5 494,-1632.5 494,-1632.5 494,-1638.5 488,-1644.5 482,-1644.5 482,-1644.5 20,-1644.5 20,-1644.5 14,-1644.5 8,-1638.5 8,-1632.5 8,-1632.5 8,-1445.5 8,-1445.5 8,-1439.5 14,-1433.5 20,-1433.5"/>
<text text-anchor="middle" x="251" y="-1630.9" font-family="Helvetica,sans-Serif" font-size="12.00">Setup Options (Choose One)</text>
</g>
<g id="clust3" class="cluster">
<title>cluster_wizard</title>
<path fill="#d1fae5" stroke="#2c7a7b" d="M290,-628C290,-628 464,-628 464,-628 470,-628 476,-634 476,-640 476,-640 476,-1402.5 476,-1402.5 476,-1408.5 470,-1414.5 464,-1414.5 464,-1414.5 290,-1414.5 290,-1414.5 284,-1414.5 278,-1408.5 278,-1402.5 278,-1402.5 278,-640 278,-640 278,-634 284,-628 290,-628"/>
<text text-anchor="middle" x="377" y="-1400.9" font-family="Helvetica,sans-Serif" font-size="12.00">Configuration Wizard (8 Steps)</text>
</g>
<g id="clust4" class="cluster">
<title>cluster_validation</title>
<path fill="#dbeafe" stroke="#2b6cb0" d="M49,-229C49,-229 602,-229 602,-229 608,-229 614,-235 614,-241 614,-241 614,-441.5 614,-441.5 614,-447.5 608,-453.5 602,-453.5 602,-453.5 49,-453.5 49,-453.5 43,-453.5 37,-447.5 37,-441.5 37,-441.5 37,-241 37,-241 37,-235 43,-229 49,-229"/>
<text text-anchor="middle" x="325.5" y="-439.9" font-family="Helvetica,sans-Serif" font-size="12.00">Validation &amp; Diagnostics</text>
</g>
<g id="clust5" class="cluster">
<title>cluster_docs</title>
<path fill="#f0fff4" stroke="#38a169" d="M496,-622.5C496,-622.5 903,-622.5 903,-622.5 909,-622.5 915,-628.5 915,-634.5 915,-634.5 915,-711.5 915,-711.5 915,-717.5 909,-723.5 903,-723.5 903,-723.5 496,-723.5 496,-723.5 490,-723.5 484,-717.5 484,-711.5 484,-711.5 484,-634.5 484,-634.5 484,-628.5 490,-622.5 496,-622.5"/>
<text text-anchor="middle" x="699.5" y="-709.9" font-family="Helvetica,sans-Serif" font-size="12.00">Documentation &amp; Help</text>
</g>
<g id="clust6" class="cluster">
<title>cluster_ready</title>
<path fill="#c6f6d5" stroke="#38a169" d="M446,-8C446,-8 558,-8 558,-8 564,-8 570,-14 570,-20 570,-20 570,-198 570,-198 570,-204 564,-210 558,-210 558,-210 446,-210 446,-210 440,-210 434,-204 434,-198 434,-198 434,-20 434,-20 434,-14 440,-8 446,-8"/>
<text text-anchor="middle" x="502" y="-196.4" font-family="Helvetica,sans-Serif" font-size="12.00">Ready to Operate</text>
</g>
<g id="clust7" class="cluster">
<title>cluster_errors</title>
<path fill="#fee2e2" stroke="#e53e3e" d="M771,-330C771,-330 891,-330 891,-330 897,-330 903,-336 903,-342 903,-342 903,-582.5 903,-582.5 903,-588.5 897,-594.5 891,-594.5 891,-594.5 771,-594.5 771,-594.5 765,-594.5 759,-588.5 759,-582.5 759,-582.5 759,-342 759,-342 759,-336 765,-330 771,-330"/>
<text text-anchor="middle" x="831" y="-580.9" font-family="Helvetica,sans-Serif" font-size="12.00">Error Handling</text>
</g>
<g id="clust8" class="cluster">
<title>cluster_legend</title>
<path fill="#fafafa" stroke="#666666" d="M535,-1947.71C535,-1947.71 1365,-1947.71 1365,-1947.71 1371,-1947.71 1377,-1953.71 1377,-1959.71 1377,-1959.71 1377,-2008.71 1377,-2008.71 1377,-2014.71 1371,-2020.71 1365,-2020.71 1365,-2020.71 535,-2020.71 535,-2020.71 529,-2020.71 523,-2014.71 523,-2008.71 523,-2008.71 523,-1959.71 523,-1959.71 523,-1953.71 529,-1947.71 535,-1947.71"/>
<text text-anchor="middle" x="950" y="-2007.11" font-family="Helvetica,sans-Serif" font-size="12.00">Legend</text>
</g>
<!-- START -->
<g id="node1" class="node">
<title>START</title>
<ellipse fill="#38a169" stroke="black" cx="467" cy="-1973.71" rx="46.84" ry="21.43"/>
<text text-anchor="middle" x="467" y="-1976.71" font-family="Helvetica,sans-Serif" font-size="10.00" fill="white">User Runs</text>
<text text-anchor="middle" x="467" y="-1965.71" font-family="Helvetica,sans-Serif" font-size="10.00" fill="white">Meridian</text>
</g>
<!-- FIRST_RUN -->
<g id="node2" class="node">
<title>FIRST_RUN</title>
<path fill="#fbd38d" stroke="black" d="M537,-1896.5C537,-1896.5 397,-1896.5 397,-1896.5 391,-1896.5 385,-1890.5 385,-1884.5 385,-1884.5 385,-1855.5 385,-1855.5 385,-1849.5 391,-1843.5 397,-1843.5 397,-1843.5 537,-1843.5 537,-1843.5 543,-1843.5 549,-1849.5 549,-1855.5 549,-1855.5 549,-1884.5 549,-1884.5 549,-1890.5 543,-1896.5 537,-1896.5"/>
<text text-anchor="middle" x="467" y="-1884.5" font-family="Helvetica,sans-Serif" font-size="10.00">FirstRunDetector</text>
<text text-anchor="middle" x="467" y="-1861.5" font-family="Helvetica,sans-Serif" font-size="10.00">Check for .meridian&#45;initialized</text>
<text text-anchor="middle" x="467" y="-1850.5" font-family="Helvetica,sans-Serif" font-size="10.00">Check for appsettings.json</text>
</g>
<!-- START&#45;&gt;FIRST_RUN -->
<g id="edge1" class="edge">
<title>START&#45;&gt;FIRST_RUN</title>
<path fill="none" stroke="#38a169" d="M467,-1952.48C467,-1952.48 467,-1906.75 467,-1906.75"/>
<polygon fill="#38a169" stroke="#38a169" points="470.5,-1906.75 467,-1896.75 463.5,-1906.75 470.5,-1906.75"/>
</g>
<!-- FIRST_RUN_CHOICE -->
<g id="node4" class="node">
<title>FIRST_RUN_CHOICE</title>
<path fill="#fed7aa" stroke="black" d="M455.61,-1802.72C455.61,-1802.72 424.16,-1792.28 424.16,-1792.28 418.47,-1790.39 418.47,-1786.61 424.16,-1784.72 424.16,-1784.72 455.61,-1774.28 455.61,-1774.28 461.31,-1772.39 472.69,-1772.39 478.39,-1774.28 478.39,-1774.28 509.84,-1784.72 509.84,-1784.72 515.53,-1786.61 515.53,-1790.39 509.84,-1792.28 509.84,-1792.28 478.39,-1802.72 478.39,-1802.72 472.69,-1804.61 461.31,-1804.61 455.61,-1802.72"/>
<text text-anchor="middle" x="467" y="-1786" font-family="Helvetica,sans-Serif" font-size="10.00">First Run?</text>
</g>
<!-- FIRST_RUN&#45;&gt;FIRST_RUN_CHOICE -->
<g id="edge2" class="edge">
<title>FIRST_RUN&#45;&gt;FIRST_RUN_CHOICE</title>
<path fill="none" stroke="#4a5568" d="M467,-1843.31C467,-1843.31 467,-1816.99 467,-1816.99"/>
<polygon fill="#4a5568" stroke="#4a5568" points="470.5,-1816.99 467,-1806.99 463.5,-1816.99 470.5,-1816.99"/>
</g>
<!-- WELCOME -->
<g id="node3" class="node">
<title>WELCOME</title>
<path fill="#fbd38d" stroke="black" d="M531.5,-1724.5C531.5,-1724.5 398.5,-1724.5 398.5,-1724.5 392.5,-1724.5 386.5,-1718.5 386.5,-1712.5 386.5,-1712.5 386.5,-1683.5 386.5,-1683.5 386.5,-1677.5 392.5,-1671.5 398.5,-1671.5 398.5,-1671.5 531.5,-1671.5 531.5,-1671.5 537.5,-1671.5 543.5,-1677.5 543.5,-1683.5 543.5,-1683.5 543.5,-1712.5 543.5,-1712.5 543.5,-1718.5 537.5,-1724.5 531.5,-1724.5"/>
<text text-anchor="middle" x="465" y="-1712.5" font-family="Helvetica,sans-Serif" font-size="10.00">Welcome Message</text>
<text text-anchor="middle" x="465" y="-1689.5" font-family="Helvetica,sans-Serif" font-size="10.00">Display ASCII banner</text>
<text text-anchor="middle" x="465" y="-1678.5" font-family="Helvetica,sans-Serif" font-size="10.00">Show getting started options</text>
</g>
<!-- WIZARD_OPT -->
<g id="node5" class="node">
<title>WIZARD_OPT</title>
<path fill="#c4b5fd" stroke="black" d="M463.5,-1505.5C463.5,-1505.5 368.5,-1505.5 368.5,-1505.5 362.5,-1505.5 356.5,-1499.5 356.5,-1493.5 356.5,-1493.5 356.5,-1453.5 356.5,-1453.5 356.5,-1447.5 362.5,-1441.5 368.5,-1441.5 368.5,-1441.5 463.5,-1441.5 463.5,-1441.5 469.5,-1441.5 475.5,-1447.5 475.5,-1453.5 475.5,-1453.5 475.5,-1493.5 475.5,-1493.5 475.5,-1499.5 469.5,-1505.5 463.5,-1505.5"/>
<text text-anchor="middle" x="416" y="-1493.5" font-family="Helvetica,sans-Serif" font-size="10.00">&#45;&#45;wizard</text>
<text text-anchor="middle" x="416" y="-1482.5" font-family="Helvetica,sans-Serif" font-size="10.00">[Interactive Setup]</text>
<text text-anchor="middle" x="416" y="-1459.5" font-family="Helvetica,sans-Serif" font-size="10.00">8&#45;step guided wizard</text>
<text text-anchor="middle" x="416" y="-1448.5" font-family="Helvetica,sans-Serif" font-size="10.00">Best for new users</text>
</g>
<!-- WELCOME&#45;&gt;WIZARD_OPT -->
<g id="edge5" class="edge">
<title>WELCOME&#45;&gt;WIZARD_OPT</title>
<path fill="none" stroke="#4a5568" stroke-dasharray="5,2" d="M517.75,-1671.31C517.75,-1611.71 517.75,-1473 517.75,-1473 517.75,-1473 485.78,-1473 485.78,-1473"/>
<polygon fill="#4a5568" stroke="#4a5568" points="485.78,-1469.5 475.78,-1473 485.78,-1476.5 485.78,-1469.5"/>
</g>
<!-- AUTO_OPT -->
<g id="node6" class="node">
<title>AUTO_OPT</title>
<path fill="#c4b5fd" stroke="black" d="M149.5,-1615.5C149.5,-1615.5 28.5,-1615.5 28.5,-1615.5 22.5,-1615.5 16.5,-1609.5 16.5,-1603.5 16.5,-1603.5 16.5,-1563.5 16.5,-1563.5 16.5,-1557.5 22.5,-1551.5 28.5,-1551.5 28.5,-1551.5 149.5,-1551.5 149.5,-1551.5 155.5,-1551.5 161.5,-1557.5 161.5,-1563.5 161.5,-1563.5 161.5,-1603.5 161.5,-1603.5 161.5,-1609.5 155.5,-1615.5 149.5,-1615.5"/>
<text text-anchor="middle" x="89" y="-1603.5" font-family="Helvetica,sans-Serif" font-size="10.00">&#45;&#45;auto&#45;config</text>
<text text-anchor="middle" x="89" y="-1592.5" font-family="Helvetica,sans-Serif" font-size="10.00">[Quick Setup]</text>
<text text-anchor="middle" x="89" y="-1569.5" font-family="Helvetica,sans-Serif" font-size="10.00">Auto&#45;detect from env vars</text>
<text text-anchor="middle" x="89" y="-1558.5" font-family="Helvetica,sans-Serif" font-size="10.00">Best for CI/CD</text>
</g>
<!-- WELCOME&#45;&gt;AUTO_OPT -->
<g id="edge6" class="edge">
<title>WELCOME&#45;&gt;AUTO_OPT</title>
<path fill="none" stroke="#4a5568" stroke-dasharray="5,2" d="M386.18,-1698C275.92,-1698 89,-1698 89,-1698 89,-1698 89,-1625.7 89,-1625.7"/>
<polygon fill="#4a5568" stroke="#4a5568" points="92.5,-1625.7 89,-1615.7 85.5,-1625.7 92.5,-1625.7"/>
</g>
<!-- DETECT_OPT -->
<g id="node8" class="node">
<title>DETECT_OPT</title>
<path fill="#c4b5fd" stroke="black" d="M474,-1615.5C474,-1615.5 358,-1615.5 358,-1615.5 352,-1615.5 346,-1609.5 346,-1603.5 346,-1603.5 346,-1563.5 346,-1563.5 346,-1557.5 352,-1551.5 358,-1551.5 358,-1551.5 474,-1551.5 474,-1551.5 480,-1551.5 486,-1557.5 486,-1563.5 486,-1563.5 486,-1603.5 486,-1603.5 486,-1609.5 480,-1615.5 474,-1615.5"/>
<text text-anchor="middle" x="416" y="-1603.5" font-family="Helvetica,sans-Serif" font-size="10.00">&#45;&#45;detect&#45;providers</text>
<text text-anchor="middle" x="416" y="-1592.5" font-family="Helvetica,sans-Serif" font-size="10.00">[Discovery]</text>
<text text-anchor="middle" x="416" y="-1569.5" font-family="Helvetica,sans-Serif" font-size="10.00">Scan environment</text>
<text text-anchor="middle" x="416" y="-1558.5" font-family="Helvetica,sans-Serif" font-size="10.00">Show available providers</text>
</g>
<!-- WELCOME&#45;&gt;DETECT_OPT -->
<g id="edge7" class="edge">
<title>WELCOME&#45;&gt;DETECT_OPT</title>
<path fill="none" stroke="#4a5568" stroke-dasharray="5,2" d="M436.25,-1671.44C436.25,-1671.44 436.25,-1625.62 436.25,-1625.62"/>
<polygon fill="#4a5568" stroke="#4a5568" points="439.75,-1625.62 436.25,-1615.62 432.75,-1625.62 439.75,-1625.62"/>
</g>
<!-- FIRST_RUN_CHOICE&#45;&gt;WELCOME -->
<g id="edge3" class="edge">
<title>FIRST_RUN_CHOICE&#45;&gt;WELCOME</title>
<path fill="none" stroke="#4a5568" d="M467,-1770.19C467,-1770.19 467,-1734.52 467,-1734.52"/>
<polygon fill="#4a5568" stroke="#4a5568" points="470.5,-1734.52 467,-1724.52 463.5,-1734.52 470.5,-1734.52"/>
<text text-anchor="middle" x="473.5" y="-1745.3" font-family="Helvetica,sans-Serif" font-size="9.00">Yes</text>
</g>
<!-- STARTUP_SUM -->
<g id="node26" class="node">
<title>STARTUP_SUM</title>
<path fill="#68d391" stroke="black" d="M549,-181C549,-181 455,-181 455,-181 449,-181 443,-175 443,-169 443,-169 443,-129 443,-129 443,-123 449,-117 455,-117 455,-117 549,-117 549,-117 555,-117 561,-123 561,-129 561,-129 561,-169 561,-169 561,-175 555,-181 549,-181"/>
<text text-anchor="middle" x="502" y="-169" font-family="Helvetica,sans-Serif" font-size="10.00">StartupSummary</text>
<text text-anchor="middle" x="502" y="-146" font-family="Helvetica,sans-Serif" font-size="10.00">Configuration review</text>
<text text-anchor="middle" x="502" y="-135" font-family="Helvetica,sans-Serif" font-size="10.00">Provider status</text>
<text text-anchor="middle" x="502" y="-124" font-family="Helvetica,sans-Serif" font-size="10.00">Health checks</text>
</g>
<!-- FIRST_RUN_CHOICE&#45;&gt;STARTUP_SUM -->
<g id="edge4" class="edge">
<title>FIRST_RUN_CHOICE&#45;&gt;STARTUP_SUM</title>
<path fill="none" stroke="#38a169" d="M519.84,-1788C560.58,-1788 610,-1788 610,-1788 610,-1788 610,-149 610,-149 610,-149 571.06,-149 571.06,-149"/>
<polygon fill="#38a169" stroke="#38a169" points="571.06,-145.5 561.06,-149 571.06,-152.5 571.06,-145.5"/>
<text text-anchor="middle" x="941.5" y="-1004.3" font-family="Helvetica,sans-Serif" font-size="9.00">No</text>
</g>
<!-- W1 -->
<g id="node9" class="node">
<title>W1</title>
<path fill="#6ee7b7" stroke="black" d="M454.5,-1385.5C454.5,-1385.5 353.5,-1385.5 353.5,-1385.5 347.5,-1385.5 341.5,-1379.5 341.5,-1373.5 341.5,-1373.5 341.5,-1344.5 341.5,-1344.5 341.5,-1338.5 347.5,-1332.5 353.5,-1332.5 353.5,-1332.5 454.5,-1332.5 454.5,-1332.5 460.5,-1332.5 466.5,-1338.5 466.5,-1344.5 466.5,-1344.5 466.5,-1373.5 466.5,-1373.5 466.5,-1379.5 460.5,-1385.5 454.5,-1385.5"/>
<text text-anchor="middle" x="404" y="-1373.5" font-family="Helvetica,sans-Serif" font-size="10.00">1. Detect Providers</text>
<text text-anchor="middle" x="404" y="-1350.5" font-family="Helvetica,sans-Serif" font-size="10.00">Scan env vars</text>
<text text-anchor="middle" x="404" y="-1339.5" font-family="Helvetica,sans-Serif" font-size="10.00">Identify available APIs</text>
</g>
<!-- WIZARD_OPT&#45;&gt;W1 -->
<g id="edge8" class="edge">
<title>WIZARD_OPT&#45;&gt;W1</title>
<path fill="none" stroke="#805ad5" d="M411.5,-1441.3C411.5,-1441.3 411.5,-1395.56 411.5,-1395.56"/>
<polygon fill="#805ad5" stroke="#805ad5" points="415,-1395.56 411.5,-1385.56 408,-1395.56 415,-1395.56"/>
</g>
<!-- CONFIG -->
<g id="node25" class="node">
<title>CONFIG</title>
<path fill="#fef3c7" stroke="black" d="M460.5,-569.5C460.5,-573.91 432.93,-577.5 399,-577.5 365.07,-577.5 337.5,-573.91 337.5,-569.5 337.5,-569.5 337.5,-497.5 337.5,-497.5 337.5,-493.09 365.07,-489.5 399,-489.5 432.93,-489.5 460.5,-493.09 460.5,-497.5 460.5,-497.5 460.5,-569.5 460.5,-569.5"/>
<path fill="none" stroke="black" d="M460.5,-569.5C460.5,-565.09 432.93,-561.5 399,-561.5 365.07,-561.5 337.5,-565.09 337.5,-569.5"/>
<text text-anchor="middle" x="399" y="-553.5" font-family="Helvetica,sans-Serif" font-size="10.00">appsettings.json</text>
<text text-anchor="middle" x="399" y="-542.5" font-family="Helvetica,sans-Serif" font-size="10.00">[Configuration File]</text>
<text text-anchor="middle" x="399" y="-519.5" font-family="Helvetica,sans-Serif" font-size="10.00">Generated or updated</text>
<text text-anchor="middle" x="399" y="-508.5" font-family="Helvetica,sans-Serif" font-size="10.00">All settings stored</text>
</g>
<!-- AUTO_OPT&#45;&gt;CONFIG -->
<g id="edge9" class="edge">
<title>AUTO_OPT&#45;&gt;CONFIG</title>
<path fill="none" stroke="#805ad5" d="M103.5,-1551.49C103.5,-1375.43 103.5,-533 103.5,-533 103.5,-533 327.41,-533 327.41,-533"/>
<polygon fill="#805ad5" stroke="#805ad5" points="327.41,-536.5 337.41,-533 327.41,-529.5 327.41,-536.5"/>
<text text-anchor="middle" x="119" y="-1053.8" font-family="Helvetica,sans-Serif" font-size="9.00">generates</text>
</g>
<!-- GENERATE_OPT -->
<g id="node7" class="node">
<title>GENERATE_OPT</title>
<path fill="#c4b5fd" stroke="black" d="M316,-1615.5C316,-1615.5 192,-1615.5 192,-1615.5 186,-1615.5 180,-1609.5 180,-1603.5 180,-1603.5 180,-1563.5 180,-1563.5 180,-1557.5 186,-1551.5 192,-1551.5 192,-1551.5 316,-1551.5 316,-1551.5 322,-1551.5 328,-1557.5 328,-1563.5 328,-1563.5 328,-1603.5 328,-1603.5 328,-1609.5 322,-1615.5 316,-1615.5"/>
<text text-anchor="middle" x="254" y="-1603.5" font-family="Helvetica,sans-Serif" font-size="10.00">&#45;&#45;generate&#45;config &lt;type&gt;</text>
<text text-anchor="middle" x="254" y="-1592.5" font-family="Helvetica,sans-Serif" font-size="10.00">[Template Generation]</text>
<text text-anchor="middle" x="254" y="-1569.5" font-family="Helvetica,sans-Serif" font-size="10.00">minimal, full, alpaca</text>
<text text-anchor="middle" x="254" y="-1558.5" font-family="Helvetica,sans-Serif" font-size="10.00">backfill, production, docker</text>
</g>
<!-- GENERATE_OPT&#45;&gt;CONFIG -->
<g id="edge10" class="edge">
<title>GENERATE_OPT&#45;&gt;CONFIG</title>
<path fill="none" stroke="#805ad5" d="M264.5,-1551.31C264.5,-1377.09 264.5,-555 264.5,-555 264.5,-555 327.26,-555 327.26,-555"/>
<polygon fill="#805ad5" stroke="#805ad5" points="327.26,-558.5 337.26,-555 327.26,-551.5 327.26,-558.5"/>
<text text-anchor="middle" x="231.5" y="-1053.8" font-family="Helvetica,sans-Serif" font-size="9.00">creates template</text>
</g>
<!-- DETECT_OPT&#45;&gt;WIZARD_OPT -->
<g id="edge11" class="edge">
<title>DETECT_OPT&#45;&gt;WIZARD_OPT</title>
<path fill="none" stroke="#4a5568" stroke-dasharray="5,2" d="M416,-1551.39C416,-1551.39 416,-1515.84 416,-1515.84"/>
<polygon fill="#4a5568" stroke="#4a5568" points="419.5,-1515.84 416,-1505.84 412.5,-1515.84 419.5,-1515.84"/>
<text text-anchor="middle" x="433" y="-1526.3" font-family="Helvetica,sans-Serif" font-size="9.00">informs</text>
</g>
<!-- W2 -->
<g id="node10" class="node">
<title>W2</title>
<path fill="#6ee7b7" stroke="black" d="M442.5,-1295.5C442.5,-1295.5 359.5,-1295.5 359.5,-1295.5 353.5,-1295.5 347.5,-1289.5 347.5,-1283.5 347.5,-1283.5 347.5,-1221.5 347.5,-1221.5 347.5,-1215.5 353.5,-1209.5 359.5,-1209.5 359.5,-1209.5 442.5,-1209.5 442.5,-1209.5 448.5,-1209.5 454.5,-1215.5 454.5,-1221.5 454.5,-1221.5 454.5,-1283.5 454.5,-1283.5 454.5,-1289.5 448.5,-1295.5 442.5,-1295.5"/>
<text text-anchor="middle" x="401" y="-1283.5" font-family="Helvetica,sans-Serif" font-size="10.00">2. Select Use Case</text>
<text text-anchor="middle" x="401" y="-1260.5" font-family="Helvetica,sans-Serif" font-size="10.00">Development</text>
<text text-anchor="middle" x="401" y="-1249.5" font-family="Helvetica,sans-Serif" font-size="10.00">Research</text>
<text text-anchor="middle" x="401" y="-1238.5" font-family="Helvetica,sans-Serif" font-size="10.00">Trading</text>
<text text-anchor="middle" x="401" y="-1227.5" font-family="Helvetica,sans-Serif" font-size="10.00">Backfill</text>
<text text-anchor="middle" x="401" y="-1216.5" font-family="Helvetica,sans-Serif" font-size="10.00">Production</text>
</g>
<!-- W1&#45;&gt;W2 -->
<g id="edge12" class="edge">
<title>W1&#45;&gt;W2</title>
<path fill="none" stroke="#2c7a7b" d="M401,-1332.4C401,-1332.4 401,-1305.73 401,-1305.73"/>
<polygon fill="#2c7a7b" stroke="#2c7a7b" points="404.5,-1305.73 401,-1295.73 397.5,-1305.73 404.5,-1305.73"/>
</g>
<!-- W3 -->
<g id="node11" class="node">
<title>W3</title>
<path fill="#6ee7b7" stroke="black" d="M455.5,-1172.5C455.5,-1172.5 342.5,-1172.5 342.5,-1172.5 336.5,-1172.5 330.5,-1166.5 330.5,-1160.5 330.5,-1160.5 330.5,-1131.5 330.5,-1131.5 330.5,-1125.5 336.5,-1119.5 342.5,-1119.5 342.5,-1119.5 455.5,-1119.5 455.5,-1119.5 461.5,-1119.5 467.5,-1125.5 467.5,-1131.5 467.5,-1131.5 467.5,-1160.5 467.5,-1160.5 467.5,-1166.5 461.5,-1172.5 455.5,-1172.5"/>
<text text-anchor="middle" x="399" y="-1160.5" font-family="Helvetica,sans-Serif" font-size="10.00">3. Configure Data Source</text>
<text text-anchor="middle" x="399" y="-1137.5" font-family="Helvetica,sans-Serif" font-size="10.00">Primary provider</text>
<text text-anchor="middle" x="399" y="-1126.5" font-family="Helvetica,sans-Serif" font-size="10.00">Connection settings</text>
</g>
<!-- W2&#45;&gt;W3 -->
<g id="edge13" class="edge">
<title>W2&#45;&gt;W3</title>
<path fill="none" stroke="#2c7a7b" d="M401,-1209.49C401,-1209.49 401,-1182.62 401,-1182.62"/>
<polygon fill="#2c7a7b" stroke="#2c7a7b" points="404.5,-1182.62 401,-1172.62 397.5,-1182.62 404.5,-1182.62"/>
</g>
<!-- W4 -->
<g id="node12" class="node">
<title>W4</title>
<path fill="#6ee7b7" stroke="black" d="M447,-1082.5C447,-1082.5 351,-1082.5 351,-1082.5 345,-1082.5 339,-1076.5 339,-1070.5 339,-1070.5 339,-1041.5 339,-1041.5 339,-1035.5 345,-1029.5 351,-1029.5 351,-1029.5 447,-1029.5 447,-1029.5 453,-1029.5 459,-1035.5 459,-1041.5 459,-1041.5 459,-1070.5 459,-1070.5 459,-1076.5 453,-1082.5 447,-1082.5"/>
<text text-anchor="middle" x="399" y="-1070.5" font-family="Helvetica,sans-Serif" font-size="10.00">4. Configure Symbols</text>
<text text-anchor="middle" x="399" y="-1047.5" font-family="Helvetica,sans-Serif" font-size="10.00">Presets: US Indices,</text>
<text text-anchor="middle" x="399" y="-1036.5" font-family="Helvetica,sans-Serif" font-size="10.00">Tech Giants, S&amp;P 500</text>
</g>
<!-- W3&#45;&gt;W4 -->
<g id="edge14" class="edge">
<title>W3&#45;&gt;W4</title>
<path fill="none" stroke="#2c7a7b" d="M399,-1119.48C399,-1119.48 399,-1092.64 399,-1092.64"/>
<polygon fill="#2c7a7b" stroke="#2c7a7b" points="402.5,-1092.64 399,-1082.64 395.5,-1092.64 402.5,-1092.64"/>
</g>
<!-- W5 -->
<g id="node13" class="node">
<title>W5</title>
<path fill="#6ee7b7" stroke="black" d="M445,-983.5C445,-983.5 353,-983.5 353,-983.5 347,-983.5 341,-977.5 341,-971.5 341,-971.5 341,-942.5 341,-942.5 341,-936.5 347,-930.5 353,-930.5 353,-930.5 445,-930.5 445,-930.5 451,-930.5 457,-936.5 457,-942.5 457,-942.5 457,-971.5 457,-971.5 457,-977.5 451,-983.5 445,-983.5"/>
<text text-anchor="middle" x="399" y="-971.5" font-family="Helvetica,sans-Serif" font-size="10.00">5. Configure Storage</text>
<text text-anchor="middle" x="399" y="-948.5" font-family="Helvetica,sans-Serif" font-size="10.00">Path, format</text>
<text text-anchor="middle" x="399" y="-937.5" font-family="Helvetica,sans-Serif" font-size="10.00">Retention policy</text>
</g>
<!-- W4&#45;&gt;W5 -->
<g id="edge15" class="edge">
<title>W4&#45;&gt;W5</title>
<path fill="none" stroke="#2c7a7b" d="M399,-1029.47C399,-1029.47 399,-993.6 399,-993.6"/>
<polygon fill="#2c7a7b" stroke="#2c7a7b" points="402.5,-993.6 399,-983.6 395.5,-993.6 402.5,-993.6"/>
</g>
<!-- W6 -->
<g id="node14" class="node">
<title>W6</title>
<path fill="#6ee7b7" stroke="black" d="M444,-893.5C444,-893.5 354,-893.5 354,-893.5 348,-893.5 342,-887.5 342,-881.5 342,-881.5 342,-852.5 342,-852.5 342,-846.5 348,-840.5 354,-840.5 354,-840.5 444,-840.5 444,-840.5 450,-840.5 456,-846.5 456,-852.5 456,-852.5 456,-881.5 456,-881.5 456,-887.5 450,-893.5 444,-893.5"/>
<text text-anchor="middle" x="399" y="-881.5" font-family="Helvetica,sans-Serif" font-size="10.00">6. Configure Backfill</text>
<text text-anchor="middle" x="399" y="-858.5" font-family="Helvetica,sans-Serif" font-size="10.00">Historical providers</text>
<text text-anchor="middle" x="399" y="-847.5" font-family="Helvetica,sans-Serif" font-size="10.00">Priority chain</text>
</g>
<!-- W5&#45;&gt;W6 -->
<g id="edge16" class="edge">
<title>W5&#45;&gt;W6</title>
<path fill="none" stroke="#2c7a7b" d="M399,-930.48C399,-930.48 399,-903.64 399,-903.64"/>
<polygon fill="#2c7a7b" stroke="#2c7a7b" points="402.5,-903.64 399,-893.64 395.5,-903.64 402.5,-903.64"/>
</g>
<!-- W7 -->
<g id="node15" class="node">
<title>W7</title>
<path fill="#6ee7b7" stroke="black" d="M440.5,-803.5C440.5,-803.5 357.5,-803.5 357.5,-803.5 351.5,-803.5 345.5,-797.5 345.5,-791.5 345.5,-791.5 345.5,-762.5 345.5,-762.5 345.5,-756.5 351.5,-750.5 357.5,-750.5 357.5,-750.5 440.5,-750.5 440.5,-750.5 446.5,-750.5 452.5,-756.5 452.5,-762.5 452.5,-762.5 452.5,-791.5 452.5,-791.5 452.5,-797.5 446.5,-803.5 440.5,-803.5"/>
<text text-anchor="middle" x="399" y="-791.5" font-family="Helvetica,sans-Serif" font-size="10.00">7. Review Settings</text>
<text text-anchor="middle" x="399" y="-768.5" font-family="Helvetica,sans-Serif" font-size="10.00">Summary display</text>
<text text-anchor="middle" x="399" y="-757.5" font-family="Helvetica,sans-Serif" font-size="10.00">Confirmation</text>
</g>
<!-- W6&#45;&gt;W7 -->
<g id="edge17" class="edge">
<title>W6&#45;&gt;W7</title>
<path fill="none" stroke="#2c7a7b" d="M399,-840.48C399,-840.48 399,-813.64 399,-813.64"/>
<polygon fill="#2c7a7b" stroke="#2c7a7b" points="402.5,-813.64 399,-803.64 395.5,-813.64 402.5,-813.64"/>
</g>
<!-- W8 -->
<g id="node16" class="node">
<title>W8</title>
<path fill="#6ee7b7" stroke="black" d="M450,-689C450,-689 348,-689 348,-689 342,-689 336,-683 336,-677 336,-677 336,-648 336,-648 336,-642 342,-636 348,-636 348,-636 450,-636 450,-636 456,-636 462,-642 462,-648 462,-648 462,-677 462,-677 462,-683 456,-689 450,-689"/>
<text text-anchor="middle" x="399" y="-677" font-family="Helvetica,sans-Serif" font-size="10.00">8. Save Configuration</text>
<text text-anchor="middle" x="399" y="-654" font-family="Helvetica,sans-Serif" font-size="10.00">Write appsettings.json</text>
<text text-anchor="middle" x="399" y="-643" font-family="Helvetica,sans-Serif" font-size="10.00">Create marker file</text>
</g>
<!-- W7&#45;&gt;W8 -->
<g id="edge18" class="edge">
<title>W7&#45;&gt;W8</title>
<path fill="none" stroke="#2c7a7b" d="M399,-750.44C399,-750.44 399,-699.31 399,-699.31"/>
<polygon fill="#2c7a7b" stroke="#2c7a7b" points="402.5,-699.31 399,-689.31 395.5,-699.31 402.5,-699.31"/>
</g>
<!-- W8&#45;&gt;CONFIG -->
<g id="edge19" class="edge">
<title>W8&#45;&gt;CONFIG</title>
<path fill="none" stroke="#2c7a7b" d="M399,-635.77C399,-635.77 399,-587.72 399,-587.72"/>
<polygon fill="#2c7a7b" stroke="#2c7a7b" points="402.5,-587.72 399,-577.72 395.5,-587.72 402.5,-587.72"/>
</g>
<!-- VAL_CREDS -->
<g id="node17" class="node">
<title>VAL_CREDS</title>
<path fill="#93c5fd" stroke="black" d="M593.5,-419C593.5,-419 496.5,-419 496.5,-419 490.5,-419 484.5,-413 484.5,-407 484.5,-407 484.5,-367 484.5,-367 484.5,-361 490.5,-355 496.5,-355 496.5,-355 593.5,-355 593.5,-355 599.5,-355 605.5,-361 605.5,-367 605.5,-367 605.5,-407 605.5,-407 605.5,-413 599.5,-419 593.5,-419"/>
<text text-anchor="middle" x="545" y="-407" font-family="Helvetica,sans-Serif" font-size="10.00">&#45;&#45;validate&#45;credentials</text>
<text text-anchor="middle" x="545" y="-384" font-family="Helvetica,sans-Serif" font-size="10.00">Test all API keys</text>
<text text-anchor="middle" x="545" y="-373" font-family="Helvetica,sans-Serif" font-size="10.00">Show account info</text>
<text text-anchor="middle" x="545" y="-362" font-family="Helvetica,sans-Serif" font-size="10.00">Report issues</text>
</g>
<!-- VAL_CREDS&#45;&gt;STARTUP_SUM -->
<g id="edge25" class="edge">
<title>VAL_CREDS&#45;&gt;STARTUP_SUM</title>
<path fill="none" stroke="#38a169" stroke-dasharray="5,2" d="M528.25,-354.9C528.25,-354.9 528.25,-191.35 528.25,-191.35"/>
<polygon fill="#38a169" stroke="#38a169" points="531.75,-191.35 528.25,-181.35 524.75,-191.35 531.75,-191.35"/>
</g>
<!-- TEST_CONN -->
<g id="node18" class="node">
<title>TEST_CONN</title>
<path fill="#93c5fd" stroke="black" d="M170.5,-419C170.5,-419 57.5,-419 57.5,-419 51.5,-419 45.5,-413 45.5,-407 45.5,-407 45.5,-367 45.5,-367 45.5,-361 51.5,-355 57.5,-355 57.5,-355 170.5,-355 170.5,-355 176.5,-355 182.5,-361 182.5,-367 182.5,-367 182.5,-407 182.5,-407 182.5,-413 176.5,-419 170.5,-419"/>
<text text-anchor="middle" x="114" y="-407" font-family="Helvetica,sans-Serif" font-size="10.00">&#45;&#45;test&#45;connectivity</text>
<text text-anchor="middle" x="114" y="-384" font-family="Helvetica,sans-Serif" font-size="10.00">Test internet, DNS</text>
<text text-anchor="middle" x="114" y="-373" font-family="Helvetica,sans-Serif" font-size="10.00">Test each provider</text>
<text text-anchor="middle" x="114" y="-362" font-family="Helvetica,sans-Serif" font-size="10.00">Measure response times</text>
</g>
<!-- TEST_CONN&#45;&gt;STARTUP_SUM -->
<g id="edge26" class="edge">
<title>TEST_CONN&#45;&gt;STARTUP_SUM</title>
<path fill="none" stroke="#38a169" stroke-dasharray="5,2" d="M114,-354.83C114,-286.48 114,-133 114,-133 114,-133 432.65,-133 432.65,-133"/>
<polygon fill="#38a169" stroke="#38a169" points="432.65,-136.5 442.65,-133 432.65,-129.5 432.65,-136.5"/>
</g>
<!-- QUICK_CHECK -->
<g id="node19" class="node">
<title>QUICK_CHECK</title>
<path fill="#93c5fd" stroke="black" d="M317,-424.5C317,-424.5 213,-424.5 213,-424.5 207,-424.5 201,-418.5 201,-412.5 201,-412.5 201,-361.5 201,-361.5 201,-355.5 207,-349.5 213,-349.5 213,-349.5 317,-349.5 317,-349.5 323,-349.5 329,-355.5 329,-361.5 329,-361.5 329,-412.5 329,-412.5 329,-418.5 323,-424.5 317,-424.5"/>
<text text-anchor="middle" x="265" y="-412.5" font-family="Helvetica,sans-Serif" font-size="10.00">&#45;&#45;quick&#45;check</text>
<text text-anchor="middle" x="265" y="-389.5" font-family="Helvetica,sans-Serif" font-size="10.00">Disk space check</text>
<text text-anchor="middle" x="265" y="-378.5" font-family="Helvetica,sans-Serif" font-size="10.00">Symbol configuration</text>
<text text-anchor="middle" x="265" y="-367.5" font-family="Helvetica,sans-Serif" font-size="10.00">Credentials present</text>
<text text-anchor="middle" x="265" y="-356.5" font-family="Helvetica,sans-Serif" font-size="10.00">Compression available</text>
</g>
<!-- QUICK_CHECK&#45;&gt;STARTUP_SUM -->
<g id="edge27" class="edge">
<title>QUICK_CHECK&#45;&gt;STARTUP_SUM</title>
<path fill="none" stroke="#38a169" stroke-dasharray="5,2" d="M265,-349.29C265,-282.18 265,-149 265,-149 265,-149 432.81,-149 432.81,-149"/>
<polygon fill="#38a169" stroke="#38a169" points="432.81,-152.5 442.81,-149 432.81,-145.5 432.81,-152.5"/>
</g>
<!-- VAL_CONFIG -->
<g id="node20" class="node">
<title>VAL_CONFIG</title>
<path fill="#93c5fd" stroke="black" d="M454.5,-419C454.5,-419 359.5,-419 359.5,-419 353.5,-419 347.5,-413 347.5,-407 347.5,-407 347.5,-367 347.5,-367 347.5,-361 353.5,-355 359.5,-355 359.5,-355 454.5,-355 454.5,-355 460.5,-355 466.5,-361 466.5,-367 466.5,-367 466.5,-407 466.5,-407 466.5,-413 460.5,-419 454.5,-419"/>
<text text-anchor="middle" x="407" y="-407" font-family="Helvetica,sans-Serif" font-size="10.00">&#45;&#45;validate&#45;config</text>
<text text-anchor="middle" x="407" y="-384" font-family="Helvetica,sans-Serif" font-size="10.00">Parse configuration</text>
<text text-anchor="middle" x="407" y="-373" font-family="Helvetica,sans-Serif" font-size="10.00">Check required fields</text>
<text text-anchor="middle" x="407" y="-362" font-family="Helvetica,sans-Serif" font-size="10.00">Validate values</text>
</g>
<!-- DRY_RUN -->
<g id="node21" class="node">
<title>DRY_RUN</title>
<path fill="#93c5fd" stroke="black" d="M483.5,-301C483.5,-301 402.5,-301 402.5,-301 396.5,-301 390.5,-295 390.5,-289 390.5,-289 390.5,-249 390.5,-249 390.5,-243 396.5,-237 402.5,-237 402.5,-237 483.5,-237 483.5,-237 489.5,-237 495.5,-243 495.5,-249 495.5,-249 495.5,-289 495.5,-289 495.5,-295 489.5,-301 483.5,-301"/>
<text text-anchor="middle" x="443" y="-289" font-family="Helvetica,sans-Serif" font-size="10.00">&#45;&#45;dry&#45;run</text>
<text text-anchor="middle" x="443" y="-266" font-family="Helvetica,sans-Serif" font-size="10.00">Full initialization</text>
<text text-anchor="middle" x="443" y="-255" font-family="Helvetica,sans-Serif" font-size="10.00">No data collection</text>
<text text-anchor="middle" x="443" y="-244" font-family="Helvetica,sans-Serif" font-size="10.00">Test everything</text>
</g>
<!-- VAL_CONFIG&#45;&gt;DRY_RUN -->
<g id="edge24" class="edge">
<title>VAL_CONFIG&#45;&gt;DRY_RUN</title>
<path fill="none" stroke="#4a5568" stroke-dasharray="5,2" d="M428.5,-354.76C428.5,-354.76 428.5,-311.21 428.5,-311.21"/>
<polygon fill="#4a5568" stroke="#4a5568" points="432,-311.2 428.5,-301.21 425,-311.21 432,-311.2"/>
</g>
<!-- DRY_RUN&#45;&gt;STARTUP_SUM -->
<g id="edge28" class="edge">
<title>DRY_RUN&#45;&gt;STARTUP_SUM</title>
<path fill="none" stroke="#38a169" stroke-dasharray="5,2" d="M469.25,-236.84C469.25,-236.84 469.25,-191.25 469.25,-191.25"/>
<polygon fill="#38a169" stroke="#38a169" points="472.75,-191.25 469.25,-181.25 465.75,-191.25 472.75,-191.25"/>
</g>
<!-- SHOW_CONFIG -->
<g id="node22" class="node">
<title>SHOW_CONFIG</title>
<path fill="#9ae6b4" stroke="black" d="M725.5,-689C725.5,-689 626.5,-689 626.5,-689 620.5,-689 614.5,-683 614.5,-677 614.5,-677 614.5,-648 614.5,-648 614.5,-642 620.5,-636 626.5,-636 626.5,-636 725.5,-636 725.5,-636 731.5,-636 737.5,-642 737.5,-648 737.5,-648 737.5,-677 737.5,-677 737.5,-683 731.5,-689 725.5,-689"/>
<text text-anchor="middle" x="676" y="-677" font-family="Helvetica,sans-Serif" font-size="10.00">&#45;&#45;show&#45;config</text>
<text text-anchor="middle" x="676" y="-654" font-family="Helvetica,sans-Serif" font-size="10.00">Display current config</text>
<text text-anchor="middle" x="676" y="-643" font-family="Helvetica,sans-Serif" font-size="10.00">Masked credentials</text>
</g>
<!-- SHOW_CONFIG&#45;&gt;CONFIG -->
<g id="edge32" class="edge">
<title>SHOW_CONFIG&#45;&gt;CONFIG</title>
<path fill="none" stroke="#4a5568" stroke-dasharray="5,2" d="M676,-635.54C676,-608.55 676,-571 676,-571 676,-571 470.82,-571 470.82,-571"/>
<polygon fill="#4a5568" stroke="#4a5568" points="470.82,-567.5 460.82,-571 470.82,-574.5 470.82,-567.5"/>
<text text-anchor="middle" x="566.5" y="-605.3" font-family="Helvetica,sans-Serif" font-size="9.00">reads</text>
</g>
<!-- ERROR_CODES -->
<g id="node23" class="node">
<title>ERROR_CODES</title>
<path fill="#9ae6b4" stroke="black" d="M894.5,-694.5C894.5,-694.5 767.5,-694.5 767.5,-694.5 761.5,-694.5 755.5,-688.5 755.5,-682.5 755.5,-682.5 755.5,-642.5 755.5,-642.5 755.5,-636.5 761.5,-630.5 767.5,-630.5 767.5,-630.5 894.5,-630.5 894.5,-630.5 900.5,-630.5 906.5,-636.5 906.5,-642.5 906.5,-642.5 906.5,-682.5 906.5,-682.5 906.5,-688.5 900.5,-694.5 894.5,-694.5"/>
<text text-anchor="middle" x="831" y="-682.5" font-family="Helvetica,sans-Serif" font-size="10.00">&#45;&#45;error&#45;codes</text>
<text text-anchor="middle" x="831" y="-659.5" font-family="Helvetica,sans-Serif" font-size="10.00">24 error codes</text>
<text text-anchor="middle" x="831" y="-648.5" font-family="Helvetica,sans-Serif" font-size="10.00">MERIDIAN&#45;XXX&#45;NNN format</text>
<text text-anchor="middle" x="831" y="-637.5" font-family="Helvetica,sans-Serif" font-size="10.00">Troubleshooting tips</text>
</g>
<!-- ERROR_FMT -->
<g id="node28" class="node">
<title>ERROR_FMT</title>
<path fill="#fc8181" stroke="black" d="M882.5,-565.5C882.5,-565.5 779.5,-565.5 779.5,-565.5 773.5,-565.5 767.5,-559.5 767.5,-553.5 767.5,-553.5 767.5,-513.5 767.5,-513.5 767.5,-507.5 773.5,-501.5 779.5,-501.5 779.5,-501.5 882.5,-501.5 882.5,-501.5 888.5,-501.5 894.5,-507.5 894.5,-513.5 894.5,-513.5 894.5,-553.5 894.5,-553.5 894.5,-559.5 888.5,-565.5 882.5,-565.5"/>
<text text-anchor="middle" x="831" y="-553.5" font-family="Helvetica,sans-Serif" font-size="10.00" fill="white">FriendlyErrorFormatter</text>
<text text-anchor="middle" x="831" y="-530.5" font-family="Helvetica,sans-Serif" font-size="10.00" fill="white">Parse exception</text>
<text text-anchor="middle" x="831" y="-519.5" font-family="Helvetica,sans-Serif" font-size="10.00" fill="white">Assign error code</text>
<text text-anchor="middle" x="831" y="-508.5" font-family="Helvetica,sans-Serif" font-size="10.00" fill="white">Generate suggestions</text>
</g>
<!-- ERROR_CODES&#45;&gt;ERROR_FMT -->
<g id="edge33" class="edge">
<title>ERROR_CODES&#45;&gt;ERROR_FMT</title>
<path fill="none" stroke="#4a5568" stroke-dasharray="5,2" d="M831,-630.28C831,-630.28 831,-575.76 831,-575.76"/>
<polygon fill="#4a5568" stroke="#4a5568" points="834.5,-575.76 831,-565.76 827.5,-575.76 834.5,-575.76"/>
<text text-anchor="middle" x="852.5" y="-605.3" font-family="Helvetica,sans-Serif" font-size="9.00">reference</text>
</g>
<!-- HELP -->
<g id="node24" class="node">
<title>HELP</title>
<path fill="#9ae6b4" stroke="black" d="M584,-689C584,-689 504,-689 504,-689 498,-689 492,-683 492,-677 492,-677 492,-648 492,-648 492,-642 498,-636 504,-636 504,-636 584,-636 584,-636 590,-636 596,-642 596,-648 596,-648 596,-677 596,-677 596,-683 590,-689 584,-689"/>
<text text-anchor="middle" x="544" y="-677" font-family="Helvetica,sans-Serif" font-size="10.00">&#45;&#45;help</text>
<text text-anchor="middle" x="544" y="-654" font-family="Helvetica,sans-Serif" font-size="10.00">All available flags</text>
<text text-anchor="middle" x="544" y="-643" font-family="Helvetica,sans-Serif" font-size="10.00">Usage examples</text>
</g>
<!-- CONFIG&#45;&gt;VAL_CREDS -->
<g id="edge20" class="edge">
<title>CONFIG&#45;&gt;VAL_CREDS</title>
<path fill="none" stroke="#4a5568" stroke-dasharray="5,2" d="M460.91,-495C500.32,-495 544,-495 544,-495 544,-495 544,-429.11 544,-429.11"/>
<polygon fill="#4a5568" stroke="#4a5568" points="547.5,-429.11 544,-419.11 540.5,-429.11 547.5,-429.11"/>
<text text-anchor="middle" x="524.5" y="-464.3" font-family="Helvetica,sans-Serif" font-size="9.00">optional</text>
</g>
<!-- CONFIG&#45;&gt;TEST_CONN -->
<g id="edge21" class="edge">
<title>CONFIG&#45;&gt;TEST_CONN</title>
<path fill="none" stroke="#4a5568" stroke-dasharray="5,2" d="M337.23,-511C269.64,-511 170.75,-511 170.75,-511 170.75,-511 170.75,-429.26 170.75,-429.26"/>
<polygon fill="#4a5568" stroke="#4a5568" points="174.25,-429.26 170.75,-419.26 167.25,-429.26 174.25,-429.26"/>
<text text-anchor="middle" x="178.5" y="-464.3" font-family="Helvetica,sans-Serif" font-size="9.00">optional</text>
</g>
<!-- CONFIG&#45;&gt;QUICK_CHECK -->
<g id="edge22" class="edge">
<title>CONFIG&#45;&gt;QUICK_CHECK</title>
<path fill="none" stroke="#4a5568" stroke-dasharray="5,2" d="M340.83,-492.3C340.83,-448.97 340.83,-387 340.83,-387 340.83,-387 339.32,-387 339.32,-387"/>
<polygon fill="#4a5568" stroke="#4a5568" points="339.32,-383.5 329.32,-387 339.32,-390.5 339.32,-383.5"/>
<text text-anchor="middle" x="324.5" y="-464.3" font-family="Helvetica,sans-Serif" font-size="9.00">optional</text>
</g>
<!-- CONFIG&#45;&gt;VAL_CONFIG -->
<g id="edge23" class="edge">
<title>CONFIG&#45;&gt;VAL_CONFIG</title>
<path fill="none" stroke="#4a5568" stroke-dasharray="5,2" d="M404,-489.15C404,-489.15 404,-429.11 404,-429.11"/>
<polygon fill="#4a5568" stroke="#4a5568" points="407.5,-429.11 404,-419.11 400.5,-429.11 407.5,-429.11"/>
<text text-anchor="middle" x="425.5" y="-464.3" font-family="Helvetica,sans-Serif" font-size="9.00">optional</text>
</g>
<!-- CONFIG&#45;&gt;STARTUP_SUM -->
<g id="edge29" class="edge">
<title>CONFIG&#45;&gt;STARTUP_SUM</title>
<path fill="none" stroke="#38a169" d="M344.17,-491.94C344.17,-395.57 344.17,-165 344.17,-165 344.17,-165 432.78,-165 432.78,-165"/>
<polygon fill="#38a169" stroke="#38a169" points="432.78,-168.5 442.78,-165 432.78,-161.5 432.78,-168.5"/>
</g>
<!-- RUN_NORMAL -->
<g id="node27" class="node">
<title>RUN_NORMAL</title>
<path fill="#38a169" stroke="black" d="M549.5,-80C549.5,-80 454.5,-80 454.5,-80 448.5,-80 442.5,-74 442.5,-68 442.5,-68 442.5,-28 442.5,-28 442.5,-22 448.5,-16 454.5,-16 454.5,-16 549.5,-16 549.5,-16 555.5,-16 561.5,-22 561.5,-28 561.5,-28 561.5,-68 561.5,-68 561.5,-74 555.5,-80 549.5,-80"/>
<text text-anchor="middle" x="502" y="-68" font-family="Helvetica,sans-Serif" font-size="10.00" fill="white">Normal Operation</text>
<text text-anchor="middle" x="502" y="-45" font-family="Helvetica,sans-Serif" font-size="10.00" fill="white">&#45;&#45;ui (with dashboard)</text>
<text text-anchor="middle" x="502" y="-34" font-family="Helvetica,sans-Serif" font-size="10.00" fill="white">&#45;&#45;backfill (historical)</text>
<text text-anchor="middle" x="502" y="-23" font-family="Helvetica,sans-Serif" font-size="10.00" fill="white">default (streaming)</text>
</g>
<!-- STARTUP_SUM&#45;&gt;RUN_NORMAL -->
<g id="edge30" class="edge">
<title>STARTUP_SUM&#45;&gt;RUN_NORMAL</title>
<path fill="none" stroke="#38a169" d="M502,-116.77C502,-116.77 502,-90.27 502,-90.27"/>
<polygon fill="#38a169" stroke="#38a169" points="505.5,-90.27 502,-80.27 498.5,-90.27 505.5,-90.27"/>
</g>
<!-- ERROR_DISPLAY -->
<g id="node29" class="node">
<title>ERROR_DISPLAY</title>
<path fill="#fecaca" stroke="black" d="M879.5,-436C879.5,-436 782.5,-436 782.5,-436 776.5,-436 770.5,-430 770.5,-424 770.5,-424 770.5,-350 770.5,-350 770.5,-344 776.5,-338 782.5,-338 782.5,-338 879.5,-338 879.5,-338 885.5,-338 891.5,-344 891.5,-350 891.5,-350 891.5,-424 891.5,-424 891.5,-430 885.5,-436 879.5,-436"/>
<text text-anchor="middle" x="831" y="-424" font-family="Helvetica,sans-Serif" font-size="10.00">User&#45;Friendly Error</text>
<text text-anchor="middle" x="831" y="-401" font-family="Helvetica,sans-Serif" font-size="10.00">[Meridian&#45;CFG&#45;001]</text>
<text text-anchor="middle" x="831" y="-390" font-family="Helvetica,sans-Serif" font-size="10.00">Missing configuration</text>
<text text-anchor="middle" x="831" y="-367" font-family="Helvetica,sans-Serif" font-size="10.00">Suggestions:</text>
<text text-anchor="middle" x="831" y="-356" font-family="Helvetica,sans-Serif" font-size="10.00">1. Run &#45;&#45;wizard</text>
<text text-anchor="middle" x="831" y="-345" font-family="Helvetica,sans-Serif" font-size="10.00">2. Check env vars</text>
</g>
<!-- ERROR_FMT&#45;&gt;ERROR_DISPLAY -->
<g id="edge31" class="edge">
<title>ERROR_FMT&#45;&gt;ERROR_DISPLAY</title>
<path fill="none" stroke="#e53e3e" d="M831,-501.35C831,-501.35 831,-446.08 831,-446.08"/>
<polygon fill="#e53e3e" stroke="#e53e3e" points="834.5,-446.08 831,-436.08 827.5,-446.08 834.5,-446.08"/>
</g>
<!-- L1 -->
<g id="node30" class="node">
<title>L1</title>
<path fill="#fbd38d" stroke="black" d="M1357,-1991.71C1357,-1991.71 1277,-1991.71 1277,-1991.71 1271,-1991.71 1265,-1985.71 1265,-1979.71 1265,-1979.71 1265,-1967.71 1265,-1967.71 1265,-1961.71 1271,-1955.71 1277,-1955.71 1277,-1955.71 1357,-1955.71 1357,-1955.71 1363,-1955.71 1369,-1961.71 1369,-1967.71 1369,-1967.71 1369,-1979.71 1369,-1979.71 1369,-1985.71 1363,-1991.71 1357,-1991.71"/>
<text text-anchor="middle" x="1317" y="-1971.21" font-family="Helvetica,sans-Serif" font-size="10.00">First&#45;Run Services</text>
</g>
<!-- L2 -->
<g id="node31" class="node">
<title>L2</title>
<path fill="#c4b5fd" stroke="black" d="M1234.5,-1991.71C1234.5,-1991.71 1173.5,-1991.71 1173.5,-1991.71 1167.5,-1991.71 1161.5,-1985.71 1161.5,-1979.71 1161.5,-1979.71 1161.5,-1967.71 1161.5,-1967.71 1161.5,-1961.71 1167.5,-1955.71 1173.5,-1955.71 1173.5,-1955.71 1234.5,-1955.71 1234.5,-1955.71 1240.5,-1955.71 1246.5,-1961.71 1246.5,-1967.71 1246.5,-1967.71 1246.5,-1979.71 1246.5,-1979.71 1246.5,-1985.71 1240.5,-1991.71 1234.5,-1991.71"/>
<text text-anchor="middle" x="1204" y="-1971.21" font-family="Helvetica,sans-Serif" font-size="10.00">Setup Options</text>
</g>
<!-- L3 -->
<g id="node32" class="node">
<title>L3</title>
<path fill="#6ee7b7" stroke="black" d="M1131,-1991.71C1131,-1991.71 1075,-1991.71 1075,-1991.71 1069,-1991.71 1063,-1985.71 1063,-1979.71 1063,-1979.71 1063,-1967.71 1063,-1967.71 1063,-1961.71 1069,-1955.71 1075,-1955.71 1075,-1955.71 1131,-1955.71 1131,-1955.71 1137,-1955.71 1143,-1961.71 1143,-1967.71 1143,-1967.71 1143,-1979.71 1143,-1979.71 1143,-1985.71 1137,-1991.71 1131,-1991.71"/>
<text text-anchor="middle" x="1103" y="-1971.21" font-family="Helvetica,sans-Serif" font-size="10.00">Wizard Steps</text>
</g>
<!-- L4 -->
<g id="node33" class="node">
<title>L4</title>
<path fill="#93c5fd" stroke="black" d="M1032.5,-1991.71C1032.5,-1991.71 931.5,-1991.71 931.5,-1991.71 925.5,-1991.71 919.5,-1985.71 919.5,-1979.71 919.5,-1979.71 919.5,-1967.71 919.5,-1967.71 919.5,-1961.71 925.5,-1955.71 931.5,-1955.71 931.5,-1955.71 1032.5,-1955.71 1032.5,-1955.71 1038.5,-1955.71 1044.5,-1961.71 1044.5,-1967.71 1044.5,-1967.71 1044.5,-1979.71 1044.5,-1979.71 1044.5,-1985.71 1038.5,-1991.71 1032.5,-1991.71"/>
<text text-anchor="middle" x="982" y="-1971.21" font-family="Helvetica,sans-Serif" font-size="10.00">Validation/Diagnostics</text>
</g>
<!-- L5 -->
<g id="node34" class="node">
<title>L5</title>
<path fill="#9ae6b4" stroke="black" d="M889,-1991.71C889,-1991.71 821,-1991.71 821,-1991.71 815,-1991.71 809,-1985.71 809,-1979.71 809,-1979.71 809,-1967.71 809,-1967.71 809,-1961.71 815,-1955.71 821,-1955.71 821,-1955.71 889,-1955.71 889,-1955.71 895,-1955.71 901,-1961.71 901,-1967.71 901,-1967.71 901,-1979.71 901,-1979.71 901,-1985.71 895,-1991.71 889,-1991.71"/>
<text text-anchor="middle" x="855" y="-1971.21" font-family="Helvetica,sans-Serif" font-size="10.00">Documentation</text>
</g>
<!-- L6 -->
<g id="node35" class="node">
<title>L6</title>
<path fill="#fc8181" stroke="black" d="M779,-1991.71C779,-1991.71 717,-1991.71 717,-1991.71 711,-1991.71 705,-1985.71 705,-1979.71 705,-1979.71 705,-1967.71 705,-1967.71 705,-1961.71 711,-1955.71 717,-1955.71 717,-1955.71 779,-1955.71 779,-1955.71 785,-1955.71 791,-1961.71 791,-1967.71 791,-1967.71 791,-1979.71 791,-1979.71 791,-1985.71 785,-1991.71 779,-1991.71"/>
<text text-anchor="middle" x="748" y="-1971.21" font-family="Helvetica,sans-Serif" font-size="10.00" fill="white">Error Handling</text>
</g>
<!-- LEG_FLOW -->
<g id="node36" class="node">
<title>LEG_FLOW</title>
<path fill="lightgrey" stroke="transparent" d="M674.5,-1991.71C674.5,-1991.71 543.5,-1991.71 543.5,-1991.71 537.5,-1991.71 531.5,-1985.71 531.5,-1979.71 531.5,-1979.71 531.5,-1967.71 531.5,-1967.71 531.5,-1961.71 537.5,-1955.71 543.5,-1955.71 543.5,-1955.71 674.5,-1955.71 674.5,-1955.71 680.5,-1955.71 686.5,-1961.71 686.5,-1967.71 686.5,-1967.71 686.5,-1979.71 686.5,-1979.71 686.5,-1985.71 680.5,-1991.71 674.5,-1991.71"/>
<text text-anchor="middle" x="609" y="-1976.71" font-family="Helvetica,sans-Serif" font-size="10.00">━━ Primary flow</text>
<text text-anchor="middle" x="609" y="-1965.71" font-family="Helvetica,sans-Serif" font-size="10.00">─ ─ Optional/alternative flow</text>
</g>
</g>
</svg>
