<?xml version="1.0" encoding="UTF-8" standalone="no"?>
<!DOCTYPE svg PUBLIC "-//W3C//DTD SVG 1.1//EN"
 "http://www.w3.org/Graphics/SVG/1.1/DTD/svg11.dtd">
<!-- Generated by graphviz version 14.1.1 (20251213.1925)
 -->
<!-- Title: OnboardingFlow Pages: 1 -->
<svg width="1412pt" height="2218pt"
 viewBox="0.00 0.00 1412.00 2218.00" xmlns="http://www.w3.org/2000/svg" xmlns:xlink="http://www.w3.org/1999/xlink">
<g id="graph0" class="graph" transform="scale(1 1) rotate(0) translate(36 2182.38)">
<title>OnboardingFlow</title>
<polygon fill="white" stroke="none" points="-36,36 -36,-2182.38 1376,-2182.38 1376,36 -36,36"/>
<text xml:space="preserve" text-anchor="middle" x="670" y="-2131.58" font-family="Helvetica,sans-Serif" font-size="12.00">Market Data Collector &#45; Onboarding &amp; Diagnostics Flow</text>
<text xml:space="preserve" text-anchor="middle" x="670" y="-2117.18" font-family="Helvetica,sans-Serif" font-size="12.00">User Journey from Installation to Operation | v1.5.0</text>
<g id="clust1" class="cluster">
<title>cluster_firstrun</title>
<path fill="#fffaf0" stroke="#ed8936" d="M376,-1733.35C376,-1733.35 510,-1733.35 510,-1733.35 516,-1733.35 522,-1739.35 522,-1745.35 522,-1745.35 522,-1991.55 522,-1991.55 522,-1997.55 516,-2003.55 510,-2003.55 510,-2003.55 376,-2003.55 376,-2003.55 370,-2003.55 364,-1997.55 364,-1991.55 364,-1991.55 364,-1745.35 364,-1745.35 364,-1739.35 370,-1733.35 376,-1733.35"/>
<text xml:space="preserve" text-anchor="middle" x="443" y="-1988.75" font-family="Helvetica,sans-Serif" font-size="12.00">First&#45;Run Detection</text>
</g>
<g id="clust2" class="cluster">
<title>cluster_setup</title>
<path fill="#ede9fe" stroke="#805ad5" d="M20,-1493.15C20,-1493.15 440,-1493.15 440,-1493.15 446,-1493.15 452,-1499.15 452,-1505.15 452,-1505.15 452,-1702.35 452,-1702.35 452,-1708.35 446,-1714.35 440,-1714.35 440,-1714.35 20,-1714.35 20,-1714.35 14,-1714.35 8,-1708.35 8,-1702.35 8,-1702.35 8,-1505.15 8,-1505.15 8,-1499.15 14,-1493.15 20,-1493.15"/>
<text xml:space="preserve" text-anchor="middle" x="230" y="-1699.55" font-family="Helvetica,sans-Serif" font-size="12.00">Setup Options (Choose One)</text>
</g>
<g id="clust3" class="cluster">
<title>cluster_wizard</title>
<path fill="#d1fae5" stroke="#2c7a7b" d="M267,-656.55C267,-656.55 423,-656.55 423,-656.55 429,-656.55 435,-662.55 435,-668.55 435,-668.55 435,-1462.15 435,-1462.15 435,-1468.15 429,-1474.15 423,-1474.15 423,-1474.15 267,-1474.15 267,-1474.15 261,-1474.15 255,-1468.15 255,-1462.15 255,-1462.15 255,-668.55 255,-668.55 255,-662.55 261,-656.55 267,-656.55"/>
<text xml:space="preserve" text-anchor="middle" x="345" y="-1459.35" font-family="Helvetica,sans-Serif" font-size="12.00">Configuration Wizard (8 Steps)</text>
</g>
<g id="clust4" class="cluster">
<title>cluster_validation</title>
<path fill="#dbeafe" stroke="#2b6cb0" d="M20,-238.4C20,-238.4 527,-238.4 527,-238.4 533,-238.4 539,-244.4 539,-250.4 539,-250.4 539,-461.8 539,-461.8 539,-467.8 533,-473.8 527,-473.8 527,-473.8 20,-473.8 20,-473.8 14,-473.8 8,-467.8 8,-461.8 8,-461.8 8,-250.4 8,-250.4 8,-244.4 14,-238.4 20,-238.4"/>
<text xml:space="preserve" text-anchor="middle" x="273.5" y="-459" font-family="Helvetica,sans-Serif" font-size="12.00">Validation &amp; Diagnostics</text>
</g>
<g id="clust5" class="cluster">
<title>cluster_docs</title>
<path fill="#f0fff4" stroke="#38a169" d="M455,-650.55C455,-650.55 807,-650.55 807,-650.55 813,-650.55 819,-656.55 819,-662.55 819,-662.55 819,-744.95 819,-744.95 819,-750.95 813,-756.95 807,-756.95 807,-756.95 455,-756.95 455,-756.95 449,-756.95 443,-750.95 443,-744.95 443,-744.95 443,-662.55 443,-662.55 443,-656.55 449,-650.55 455,-650.55"/>
<text xml:space="preserve" text-anchor="middle" x="631" y="-742.15" font-family="Helvetica,sans-Serif" font-size="12.00">Documentation &amp; Help</text>
</g>
<g id="clust6" class="cluster">
<title>cluster_ready</title>
<path fill="#c6f6d5" stroke="#38a169" d="M391,-8C391,-8 491,-8 491,-8 497,-8 503,-14 503,-20 503,-20 503,-207.4 503,-207.4 503,-213.4 497,-219.4 491,-219.4 491,-219.4 391,-219.4 391,-219.4 385,-219.4 379,-213.4 379,-207.4 379,-207.4 379,-20 379,-20 379,-14 385,-8 391,-8"/>
<text xml:space="preserve" text-anchor="middle" x="441" y="-204.6" font-family="Helvetica,sans-Serif" font-size="12.00">Ready to Operate</text>
</g>
<g id="clust7" class="cluster">
<title>cluster_errors</title>
<path fill="#fee2e2" stroke="#e53e3e" d="M589,-343.4C589,-343.4 699,-343.4 699,-343.4 705,-343.4 711,-349.4 711,-355.4 711,-355.4 711,-609.75 711,-609.75 711,-615.75 705,-621.75 699,-621.75 699,-621.75 589,-621.75 589,-621.75 583,-621.75 577,-615.75 577,-609.75 577,-609.75 577,-355.4 577,-355.4 577,-349.4 583,-343.4 589,-343.4"/>
<text xml:space="preserve" text-anchor="middle" x="644" y="-606.95" font-family="Helvetica,sans-Serif" font-size="12.00">Error Handling</text>
</g>
<g id="clust8" class="cluster">
<title>cluster_legend</title>
<path fill="#fafafa" stroke="#666666" d="M544,-2027.18C544,-2027.18 1320,-2027.18 1320,-2027.18 1326,-2027.18 1332,-2033.18 1332,-2039.18 1332,-2039.18 1332,-2089.58 1332,-2089.58 1332,-2095.58 1326,-2101.58 1320,-2101.58 1320,-2101.58 544,-2101.58 544,-2101.58 538,-2101.58 532,-2095.58 532,-2089.58 532,-2089.58 532,-2039.18 532,-2039.18 532,-2033.18 538,-2027.18 544,-2027.18"/>
<text xml:space="preserve" text-anchor="middle" x="932" y="-2086.78" font-family="Helvetica,sans-Serif" font-size="12.00">Legend</text>
</g>
<!-- START -->
<g id="node1" class="node">
<title>START</title>
<ellipse fill="#38a169" stroke="black" cx="446" cy="-2053.18" rx="75.76" ry="22.63"/>
<text xml:space="preserve" text-anchor="middle" x="446" y="-2056.18" font-family="Helvetica,sans-Serif" font-size="10.00" fill="white">User Runs</text>
<text xml:space="preserve" text-anchor="middle" x="446" y="-2044.18" font-family="Helvetica,sans-Serif" font-size="10.00" fill="white">MarketDataCollector</text>
</g>
<!-- FIRST_RUN -->
<g id="node2" class="node">
<title>FIRST_RUN</title>
<path fill="#fbd38d" stroke="black" d="M500.92,-1973.15C500.92,-1973.15 391.08,-1973.15 391.08,-1973.15 385.08,-1973.15 379.08,-1967.15 379.08,-1961.15 379.08,-1961.15 379.08,-1929.15 379.08,-1929.15 379.08,-1923.15 385.08,-1917.15 391.08,-1917.15 391.08,-1917.15 500.92,-1917.15 500.92,-1917.15 506.92,-1917.15 512.92,-1923.15 512.92,-1929.15 512.92,-1929.15 512.92,-1961.15 512.92,-1961.15 512.92,-1967.15 506.92,-1973.15 500.92,-1973.15"/>
<text xml:space="preserve" text-anchor="middle" x="446" y="-1960.15" font-family="Helvetica,sans-Serif" font-size="10.00">FirstRunDetector</text>
<text xml:space="preserve" text-anchor="middle" x="446" y="-1936.15" font-family="Helvetica,sans-Serif" font-size="10.00">Check for .mdc&#45;initialized</text>
<text xml:space="preserve" text-anchor="middle" x="446" y="-1924.15" font-family="Helvetica,sans-Serif" font-size="10.00">Check for appsettings.json</text>
</g>
<!-- START&#45;&gt;FIRST_RUN -->
<g id="edge1" class="edge">
<title>START&#45;&gt;FIRST_RUN</title>
<path fill="none" stroke="#38a169" d="M446,-2030.27C446,-2030.27 446,-1984.92 446,-1984.92"/>
<polygon fill="#38a169" stroke="#38a169" points="449.5,-1984.92 446,-1974.92 442.5,-1984.92 449.5,-1984.92"/>
</g>
<!-- FIRST_RUN_CHOICE -->
<g id="node4" class="node">
<title>FIRST_RUN_CHOICE</title>
<path fill="#fed7aa" stroke="black" d="M434.64,-1876.28C434.64,-1876.28 404.53,-1866.02 404.53,-1866.02 398.85,-1864.09 398.85,-1860.21 404.53,-1858.28 404.53,-1858.28 434.64,-1848.02 434.64,-1848.02 440.32,-1846.09 451.68,-1846.09 457.36,-1848.02 457.36,-1848.02 487.47,-1858.28 487.47,-1858.28 493.15,-1860.21 493.15,-1864.09 487.47,-1866.02 487.47,-1866.02 457.36,-1876.28 457.36,-1876.28 451.68,-1878.21 440.32,-1878.21 434.64,-1876.28"/>
<text xml:space="preserve" text-anchor="middle" x="446" y="-1859.15" font-family="Helvetica,sans-Serif" font-size="10.00">First Run?</text>
</g>
<!-- FIRST_RUN&#45;&gt;FIRST_RUN_CHOICE -->
<g id="edge2" class="edge">
<title>FIRST_RUN&#45;&gt;FIRST_RUN_CHOICE</title>
<path fill="none" stroke="#4a5568" d="M446,-1917.05C446,-1917.05 446,-1892.08 446,-1892.08"/>
<polygon fill="#4a5568" stroke="#4a5568" points="449.5,-1892.08 446,-1882.08 442.5,-1892.08 449.5,-1892.08"/>
</g>
<!-- WELCOME -->
<g id="node3" class="node">
<title>WELCOME</title>
<path fill="#fbd38d" stroke="black" d="M502.1,-1797.35C502.1,-1797.35 383.9,-1797.35 383.9,-1797.35 377.9,-1797.35 371.9,-1791.35 371.9,-1785.35 371.9,-1785.35 371.9,-1753.35 371.9,-1753.35 371.9,-1747.35 377.9,-1741.35 383.9,-1741.35 383.9,-1741.35 502.1,-1741.35 502.1,-1741.35 508.1,-1741.35 514.1,-1747.35 514.1,-1753.35 514.1,-1753.35 514.1,-1785.35 514.1,-1785.35 514.1,-1791.35 508.1,-1797.35 502.1,-1797.35"/>
<text xml:space="preserve" text-anchor="middle" x="443" y="-1784.35" font-family="Helvetica,sans-Serif" font-size="10.00">Welcome Message</text>
<text xml:space="preserve" text-anchor="middle" x="443" y="-1760.35" font-family="Helvetica,sans-Serif" font-size="10.00">Display ASCII banner</text>
<text xml:space="preserve" text-anchor="middle" x="443" y="-1748.35" font-family="Helvetica,sans-Serif" font-size="10.00">Show getting started options</text>
</g>
<!-- WIZARD_OPT -->
<g id="node5" class="node">
<title>WIZARD_OPT</title>
<path fill="#c4b5fd" stroke="black" d="M422.14,-1569.15C422.14,-1569.15 337.86,-1569.15 337.86,-1569.15 331.86,-1569.15 325.86,-1563.15 325.86,-1557.15 325.86,-1557.15 325.86,-1513.15 325.86,-1513.15 325.86,-1507.15 331.86,-1501.15 337.86,-1501.15 337.86,-1501.15 422.14,-1501.15 422.14,-1501.15 428.14,-1501.15 434.14,-1507.15 434.14,-1513.15 434.14,-1513.15 434.14,-1557.15 434.14,-1557.15 434.14,-1563.15 428.14,-1569.15 422.14,-1569.15"/>
<text xml:space="preserve" text-anchor="middle" x="380" y="-1556.15" font-family="Helvetica,sans-Serif" font-size="10.00">&#45;&#45;wizard</text>
<text xml:space="preserve" text-anchor="middle" x="380" y="-1544.15" font-family="Helvetica,sans-Serif" font-size="10.00">[Interactive Setup]</text>
<text xml:space="preserve" text-anchor="middle" x="380" y="-1520.15" font-family="Helvetica,sans-Serif" font-size="10.00">8&#45;step guided wizard</text>
<text xml:space="preserve" text-anchor="middle" x="380" y="-1508.15" font-family="Helvetica,sans-Serif" font-size="10.00">Best for new users</text>
</g>
<!-- WELCOME&#45;&gt;WIZARD_OPT -->
<g id="edge5" class="edge">
<title>WELCOME&#45;&gt;WIZARD_OPT</title>
<path fill="none" stroke="#4a5568" stroke-dasharray="5,2" d="M447.25,-1741.08C447.25,-1678.75 447.25,-1535 447.25,-1535 447.25,-1535 445.99,-1535 445.99,-1535"/>
<polygon fill="#4a5568" stroke="#4a5568" points="446.12,-1531.5 436.12,-1535 446.12,-1538.5 446.12,-1531.5"/>
</g>
<!-- AUTO_OPT -->
<g id="node6" class="node">
<title>AUTO_OPT</title>
<path fill="#c4b5fd" stroke="black" d="M134.25,-1683.95C134.25,-1683.95 27.75,-1683.95 27.75,-1683.95 21.75,-1683.95 15.75,-1677.95 15.75,-1671.95 15.75,-1671.95 15.75,-1627.95 15.75,-1627.95 15.75,-1621.95 21.75,-1615.95 27.75,-1615.95 27.75,-1615.95 134.25,-1615.95 134.25,-1615.95 140.25,-1615.95 146.25,-1621.95 146.25,-1627.95 146.25,-1627.95 146.25,-1671.95 146.25,-1671.95 146.25,-1677.95 140.25,-1683.95 134.25,-1683.95"/>
<text xml:space="preserve" text-anchor="middle" x="81" y="-1670.95" font-family="Helvetica,sans-Serif" font-size="10.00">&#45;&#45;auto&#45;config</text>
<text xml:space="preserve" text-anchor="middle" x="81" y="-1658.95" font-family="Helvetica,sans-Serif" font-size="10.00">[Quick Setup]</text>
<text xml:space="preserve" text-anchor="middle" x="81" y="-1634.95" font-family="Helvetica,sans-Serif" font-size="10.00">Auto&#45;detect from env vars</text>
<text xml:space="preserve" text-anchor="middle" x="81" y="-1622.95" font-family="Helvetica,sans-Serif" font-size="10.00">Best for CI/CD</text>
</g>
<!-- WELCOME&#45;&gt;AUTO_OPT -->
<g id="edge6" class="edge">
<title>WELCOME&#45;&gt;AUTO_OPT</title>
<path fill="none" stroke="#4a5568" stroke-dasharray="5,2" d="M371.48,-1769C265.98,-1769 81,-1769 81,-1769 81,-1769 81,-1695.9 81,-1695.9"/>
<polygon fill="#4a5568" stroke="#4a5568" points="84.5,-1695.9 81,-1685.9 77.5,-1695.9 84.5,-1695.9"/>
</g>
<!-- DETECT_OPT -->
<g id="node8" class="node">
<title>DETECT_OPT</title>
<path fill="#c4b5fd" stroke="black" d="M431.59,-1683.95C431.59,-1683.95 328.41,-1683.95 328.41,-1683.95 322.41,-1683.95 316.41,-1677.95 316.41,-1671.95 316.41,-1671.95 316.41,-1627.95 316.41,-1627.95 316.41,-1621.95 322.41,-1615.95 328.41,-1615.95 328.41,-1615.95 431.59,-1615.95 431.59,-1615.95 437.59,-1615.95 443.59,-1621.95 443.59,-1627.95 443.59,-1627.95 443.59,-1671.95 443.59,-1671.95 443.59,-1677.95 437.59,-1683.95 431.59,-1683.95"/>
<text xml:space="preserve" text-anchor="middle" x="380" y="-1670.95" font-family="Helvetica,sans-Serif" font-size="10.00">&#45;&#45;detect&#45;providers</text>
<text xml:space="preserve" text-anchor="middle" x="380" y="-1658.95" font-family="Helvetica,sans-Serif" font-size="10.00">[Discovery]</text>
<text xml:space="preserve" text-anchor="middle" x="380" y="-1634.95" font-family="Helvetica,sans-Serif" font-size="10.00">Scan environment</text>
<text xml:space="preserve" text-anchor="middle" x="380" y="-1622.95" font-family="Helvetica,sans-Serif" font-size="10.00">Show available providers</text>
</g>
<!-- WELCOME&#45;&gt;DETECT_OPT -->
<g id="edge7" class="edge">
<title>WELCOME&#45;&gt;DETECT_OPT</title>
<path fill="none" stroke="#4a5568" stroke-dasharray="5,2" d="M407.75,-1741.05C407.75,-1741.05 407.75,-1695.95 407.75,-1695.95"/>
<polygon fill="#4a5568" stroke="#4a5568" points="411.25,-1695.95 407.75,-1685.95 404.25,-1695.95 411.25,-1695.95"/>
</g>
<!-- FIRST_RUN_CHOICE&#45;&gt;WELCOME -->
<g id="edge3" class="edge">
<title>FIRST_RUN_CHOICE&#45;&gt;WELCOME</title>
<path fill="none" stroke="#4a5568" d="M446,-1843.82C446,-1843.82 446,-1809.03 446,-1809.03"/>
<polygon fill="#4a5568" stroke="#4a5568" points="449.5,-1809.03 446,-1799.03 442.5,-1809.03 449.5,-1809.03"/>
<text xml:space="preserve" text-anchor="middle" x="452.75" y="-1818.05" font-family="Helvetica,sans-Serif" font-size="9.00">Yes</text>
</g>
<!-- STARTUP_SUM -->
<g id="node26" class="node">
<title>STARTUP_SUM</title>
<path fill="#68d391" stroke="black" d="M482.58,-189C482.58,-189 399.42,-189 399.42,-189 393.42,-189 387.42,-183 387.42,-177 387.42,-177 387.42,-133 387.42,-133 387.42,-127 393.42,-121 399.42,-121 399.42,-121 482.58,-121 482.58,-121 488.58,-121 494.58,-127 494.58,-133 494.58,-133 494.58,-177 494.58,-177 494.58,-183 488.58,-189 482.58,-189"/>
<text xml:space="preserve" text-anchor="middle" x="441" y="-176" font-family="Helvetica,sans-Serif" font-size="10.00">StartupSummary</text>
<text xml:space="preserve" text-anchor="middle" x="441" y="-152" font-family="Helvetica,sans-Serif" font-size="10.00">Configuration review</text>
<text xml:space="preserve" text-anchor="middle" x="441" y="-140" font-family="Helvetica,sans-Serif" font-size="10.00">Provider status</text>
<text xml:space="preserve" text-anchor="middle" x="441" y="-128" font-family="Helvetica,sans-Serif" font-size="10.00">Health checks</text>
</g>
<!-- FIRST_RUN_CHOICE&#45;&gt;STARTUP_SUM -->
<g id="edge4" class="edge">
<title>FIRST_RUN_CHOICE&#45;&gt;STARTUP_SUM</title>
<path fill="none" stroke="#38a169" d="M499.79,-1862C534.03,-1862 571.98,-1862 571.98,-1862 571.98,-1862 571.98,-155 571.98,-155 571.98,-155 506.54,-155 506.54,-155"/>
<polygon fill="#38a169" stroke="#38a169" points="506.54,-151.5 496.54,-155 506.54,-158.5 506.54,-151.5"/>
<text xml:space="preserve" text-anchor="middle" x="844.75" y="-1046.65" font-family="Helvetica,sans-Serif" font-size="9.00">No</text>
</g>
<!-- W1 -->
<g id="node9" class="node">
<title>W1</title>
<path fill="#6ee7b7" stroke="black" d="M413.19,-1443.75C413.19,-1443.75 322.81,-1443.75 322.81,-1443.75 316.81,-1443.75 310.81,-1437.75 310.81,-1431.75 310.81,-1431.75 310.81,-1399.75 310.81,-1399.75 310.81,-1393.75 316.81,-1387.75 322.81,-1387.75 322.81,-1387.75 413.19,-1387.75 413.19,-1387.75 419.19,-1387.75 425.19,-1393.75 425.19,-1399.75 425.19,-1399.75 425.19,-1431.75 425.19,-1431.75 425.19,-1437.75 419.19,-1443.75 413.19,-1443.75"/>
<text xml:space="preserve" text-anchor="middle" x="368" y="-1430.75" font-family="Helvetica,sans-Serif" font-size="10.00">1. Detect Providers</text>
<text xml:space="preserve" text-anchor="middle" x="368" y="-1406.75" font-family="Helvetica,sans-Serif" font-size="10.00">Scan env vars</text>
<text xml:space="preserve" text-anchor="middle" x="368" y="-1394.75" font-family="Helvetica,sans-Serif" font-size="10.00">Identify available APIs</text>
</g>
<!-- WIZARD_OPT&#45;&gt;W1 -->
<g id="edge8" class="edge">
<title>WIZARD_OPT&#45;&gt;W1</title>
<path fill="none" stroke="#805ad5" d="M375.53,-1500.93C375.53,-1500.93 375.53,-1455.45 375.53,-1455.45"/>
<polygon fill="#805ad5" stroke="#805ad5" points="379.03,-1455.45 375.53,-1445.45 372.03,-1455.45 379.03,-1455.45"/>
</g>
<!-- CONFIG -->
<g id="node25" class="node">
<title>CONFIG</title>
<path fill="#fef3c7" stroke="black" d="M406.93,-595.6C406.93,-600.29 381.41,-604.1 350,-604.1 318.59,-604.1 293.07,-600.29 293.07,-595.6 293.07,-595.6 293.07,-519.1 293.07,-519.1 293.07,-514.41 318.59,-510.6 350,-510.6 381.41,-510.6 406.93,-514.41 406.93,-519.1 406.93,-519.1 406.93,-595.6 406.93,-595.6"/>
<path fill="none" stroke="black" d="M406.93,-595.6C406.93,-590.91 381.41,-587.1 350,-587.1 318.59,-587.1 293.07,-590.91 293.07,-595.6"/>
<text xml:space="preserve" text-anchor="middle" x="350" y="-578.35" font-family="Helvetica,sans-Serif" font-size="10.00">appsettings.json</text>
<text xml:space="preserve" text-anchor="middle" x="350" y="-566.35" font-family="Helvetica,sans-Serif" font-size="10.00">[Configuration File]</text>
<text xml:space="preserve" text-anchor="middle" x="350" y="-542.35" font-family="Helvetica,sans-Serif" font-size="10.00">Generated or updated</text>
<text xml:space="preserve" text-anchor="middle" x="350" y="-530.35" font-family="Helvetica,sans-Serif" font-size="10.00">All settings stored</text>
</g>
<!-- AUTO_OPT&#45;&gt;CONFIG -->
<g id="edge9" class="edge">
<title>AUTO_OPT&#45;&gt;CONFIG</title>
<path fill="none" stroke="#805ad5" d="M58.08,-1615.55C58.08,-1433.33 58.08,-589 58.08,-589 58.08,-589 281.16,-589 281.16,-589"/>
<polygon fill="#805ad5" stroke="#805ad5" points="281.16,-592.5 291.16,-589 281.16,-585.5 281.16,-592.5"/>
<text xml:space="preserve" text-anchor="middle" x="111.01" y="-1098.05" font-family="Helvetica,sans-Serif" font-size="9.00">generates</text>
</g>
<!-- GENERATE_OPT -->
<g id="node7" class="node">
<title>GENERATE_OPT</title>
<path fill="#c4b5fd" stroke="black" d="M286.2,-1683.95C286.2,-1683.95 175.8,-1683.95 175.8,-1683.95 169.8,-1683.95 163.8,-1677.95 163.8,-1671.95 163.8,-1671.95 163.8,-1627.95 163.8,-1627.95 163.8,-1621.95 169.8,-1615.95 175.8,-1615.95 175.8,-1615.95 286.2,-1615.95 286.2,-1615.95 292.2,-1615.95 298.2,-1621.95 298.2,-1627.95 298.2,-1627.95 298.2,-1671.95 298.2,-1671.95 298.2,-1677.95 292.2,-1683.95 286.2,-1683.95"/>
<text xml:space="preserve" text-anchor="middle" x="231" y="-1670.95" font-family="Helvetica,sans-Serif" font-size="10.00">&#45;&#45;generate&#45;config &lt;type&gt;</text>
<text xml:space="preserve" text-anchor="middle" x="231" y="-1658.95" font-family="Helvetica,sans-Serif" font-size="10.00">[Template Generation]</text>
<text xml:space="preserve" text-anchor="middle" x="231" y="-1634.95" font-family="Helvetica,sans-Serif" font-size="10.00">minimal, full, alpaca</text>
<text xml:space="preserve" text-anchor="middle" x="231" y="-1622.95" font-family="Helvetica,sans-Serif" font-size="10.00">backfill, production, docker</text>
</g>
<!-- GENERATE_OPT&#45;&gt;CONFIG -->
<g id="edge10" class="edge">
<title>GENERATE_OPT&#45;&gt;CONFIG</title>
<path fill="none" stroke="#805ad5" d="M282.08,-1615.64C282.08,-1431.94 282.08,-573 282.08,-573 282.08,-573 283.14,-573 283.14,-573"/>
<polygon fill="#805ad5" stroke="#805ad5" points="281.18,-576.5 291.18,-573 281.18,-569.5 281.18,-576.5"/>
<text xml:space="preserve" text-anchor="middle" x="213.27" y="-1098.05" font-family="Helvetica,sans-Serif" font-size="9.00">creates template</text>
</g>
<!-- DETECT_OPT&#45;&gt;WIZARD_OPT -->
<g id="edge11" class="edge">
<title>DETECT_OPT&#45;&gt;WIZARD_OPT</title>
<path fill="none" stroke="#4a5568" stroke-dasharray="5,2" d="M380,-1615.51C380,-1615.51 380,-1581.08 380,-1581.08"/>
<polygon fill="#4a5568" stroke="#4a5568" points="383.5,-1581.08 380,-1571.08 376.5,-1581.08 383.5,-1581.08"/>
<text xml:space="preserve" text-anchor="middle" x="394.75" y="-1589.85" font-family="Helvetica,sans-Serif" font-size="9.00">informs</text>
</g>
<!-- W2 -->
<g id="node10" class="node">
<title>W2</title>
<path fill="#6ee7b7" stroke="black" d="M405.8,-1350.75C405.8,-1350.75 328.2,-1350.75 328.2,-1350.75 322.2,-1350.75 316.2,-1344.75 316.2,-1338.75 316.2,-1338.75 316.2,-1270.75 316.2,-1270.75 316.2,-1264.75 322.2,-1258.75 328.2,-1258.75 328.2,-1258.75 405.8,-1258.75 405.8,-1258.75 411.8,-1258.75 417.8,-1264.75 417.8,-1270.75 417.8,-1270.75 417.8,-1338.75 417.8,-1338.75 417.8,-1344.75 411.8,-1350.75 405.8,-1350.75"/>
<text xml:space="preserve" text-anchor="middle" x="367" y="-1337.75" font-family="Helvetica,sans-Serif" font-size="10.00">2. Select Use Case</text>
<text xml:space="preserve" text-anchor="middle" x="367" y="-1313.75" font-family="Helvetica,sans-Serif" font-size="10.00">Development</text>
<text xml:space="preserve" text-anchor="middle" x="367" y="-1301.75" font-family="Helvetica,sans-Serif" font-size="10.00">Research</text>
<text xml:space="preserve" text-anchor="middle" x="367" y="-1289.75" font-family="Helvetica,sans-Serif" font-size="10.00">Trading</text>
<text xml:space="preserve" text-anchor="middle" x="367" y="-1277.75" font-family="Helvetica,sans-Serif" font-size="10.00">Backfill</text>
<text xml:space="preserve" text-anchor="middle" x="367" y="-1265.75" font-family="Helvetica,sans-Serif" font-size="10.00">Production</text>
</g>
<!-- W1&#45;&gt;W2 -->
<g id="edge12" class="edge">
<title>W1&#45;&gt;W2</title>
<path fill="none" stroke="#2c7a7b" d="M367,-1387.45C367,-1387.45 367,-1362.62 367,-1362.62"/>
<polygon fill="#2c7a7b" stroke="#2c7a7b" points="370.5,-1362.62 367,-1352.62 363.5,-1362.62 370.5,-1362.62"/>
</g>
<!-- W3 -->
<g id="node11" class="node">
<title>W3</title>
<path fill="#6ee7b7" stroke="black" d="M414.42,-1221.75C414.42,-1221.75 309.58,-1221.75 309.58,-1221.75 303.58,-1221.75 297.58,-1215.75 297.58,-1209.75 297.58,-1209.75 297.58,-1177.75 297.58,-1177.75 297.58,-1171.75 303.58,-1165.75 309.58,-1165.75 309.58,-1165.75 414.42,-1165.75 414.42,-1165.75 420.42,-1165.75 426.42,-1171.75 426.42,-1177.75 426.42,-1177.75 426.42,-1209.75 426.42,-1209.75 426.42,-1215.75 420.42,-1221.75 414.42,-1221.75"/>
<text xml:space="preserve" text-anchor="middle" x="362" y="-1208.75" font-family="Helvetica,sans-Serif" font-size="10.00">3. Configure Data Source</text>
<text xml:space="preserve" text-anchor="middle" x="362" y="-1184.75" font-family="Helvetica,sans-Serif" font-size="10.00">Primary provider</text>
<text xml:space="preserve" text-anchor="middle" x="362" y="-1172.75" font-family="Helvetica,sans-Serif" font-size="10.00">Connection settings</text>
</g>
<!-- W2&#45;&gt;W3 -->
<g id="edge13" class="edge">
<title>W2&#45;&gt;W3</title>
<path fill="none" stroke="#2c7a7b" d="M367,-1258.32C367,-1258.32 367,-1233.45 367,-1233.45"/>
<polygon fill="#2c7a7b" stroke="#2c7a7b" points="370.5,-1233.45 367,-1223.45 363.5,-1233.45 370.5,-1233.45"/>
</g>
<!-- W4 -->
<g id="node12" class="node">
<title>W4</title>
<path fill="#6ee7b7" stroke="black" d="M406.47,-1128.75C406.47,-1128.75 315.53,-1128.75 315.53,-1128.75 309.53,-1128.75 303.53,-1122.75 303.53,-1116.75 303.53,-1116.75 303.53,-1084.75 303.53,-1084.75 303.53,-1078.75 309.53,-1072.75 315.53,-1072.75 315.53,-1072.75 406.47,-1072.75 406.47,-1072.75 412.47,-1072.75 418.47,-1078.75 418.47,-1084.75 418.47,-1084.75 418.47,-1116.75 418.47,-1116.75 418.47,-1122.75 412.47,-1128.75 406.47,-1128.75"/>
<text xml:space="preserve" text-anchor="middle" x="361" y="-1115.75" font-family="Helvetica,sans-Serif" font-size="10.00">4. Configure Symbols</text>
<text xml:space="preserve" text-anchor="middle" x="361" y="-1091.75" font-family="Helvetica,sans-Serif" font-size="10.00">Presets: US Indices,</text>
<text xml:space="preserve" text-anchor="middle" x="361" y="-1079.75" font-family="Helvetica,sans-Serif" font-size="10.00">Tech Giants, S&amp;P 500</text>
</g>
<!-- W3&#45;&gt;W4 -->
<g id="edge14" class="edge">
<title>W3&#45;&gt;W4</title>
<path fill="none" stroke="#2c7a7b" d="M361,-1165.34C361,-1165.34 361,-1140.5 361,-1140.5"/>
<polygon fill="#2c7a7b" stroke="#2c7a7b" points="364.5,-1140.5 361,-1130.5 357.5,-1140.5 364.5,-1140.5"/>
</g>
<!-- W5 -->
<g id="node13" class="node">
<title>W5</title>
<path fill="#6ee7b7" stroke="black" d="M403.14,-1025.95C403.14,-1025.95 318.86,-1025.95 318.86,-1025.95 312.86,-1025.95 306.86,-1019.95 306.86,-1013.95 306.86,-1013.95 306.86,-981.95 306.86,-981.95 306.86,-975.95 312.86,-969.95 318.86,-969.95 318.86,-969.95 403.14,-969.95 403.14,-969.95 409.14,-969.95 415.14,-975.95 415.14,-981.95 415.14,-981.95 415.14,-1013.95 415.14,-1013.95 415.14,-1019.95 409.14,-1025.95 403.14,-1025.95"/>
<text xml:space="preserve" text-anchor="middle" x="361" y="-1012.95" font-family="Helvetica,sans-Serif" font-size="10.00">5. Configure Storage</text>
<text xml:space="preserve" text-anchor="middle" x="361" y="-988.95" font-family="Helvetica,sans-Serif" font-size="10.00">Path, format</text>
<text xml:space="preserve" text-anchor="middle" x="361" y="-976.95" font-family="Helvetica,sans-Serif" font-size="10.00">Retention policy</text>
</g>
<!-- W4&#45;&gt;W5 -->
<g id="edge15" class="edge">
<title>W4&#45;&gt;W5</title>
<path fill="none" stroke="#2c7a7b" d="M361,-1072.39C361,-1072.39 361,-1037.73 361,-1037.73"/>
<polygon fill="#2c7a7b" stroke="#2c7a7b" points="364.5,-1037.73 361,-1027.73 357.5,-1037.73 364.5,-1037.73"/>
</g>
<!-- W6 -->
<g id="node14" class="node">
<title>W6</title>
<path fill="#6ee7b7" stroke="black" d="M400.47,-932.95C400.47,-932.95 319.53,-932.95 319.53,-932.95 313.53,-932.95 307.53,-926.95 307.53,-920.95 307.53,-920.95 307.53,-888.95 307.53,-888.95 307.53,-882.95 313.53,-876.95 319.53,-876.95 319.53,-876.95 400.47,-876.95 400.47,-876.95 406.47,-876.95 412.47,-882.95 412.47,-888.95 412.47,-888.95 412.47,-920.95 412.47,-920.95 412.47,-926.95 406.47,-932.95 400.47,-932.95"/>
<text xml:space="preserve" text-anchor="middle" x="360" y="-919.95" font-family="Helvetica,sans-Serif" font-size="10.00">6. Configure Backfill</text>
<text xml:space="preserve" text-anchor="middle" x="360" y="-895.95" font-family="Helvetica,sans-Serif" font-size="10.00">Historical providers</text>
<text xml:space="preserve" text-anchor="middle" x="360" y="-883.95" font-family="Helvetica,sans-Serif" font-size="10.00">Priority chain</text>
</g>
<!-- W5&#45;&gt;W6 -->
<g id="edge16" class="edge">
<title>W5&#45;&gt;W6</title>
<path fill="none" stroke="#2c7a7b" d="M360,-969.54C360,-969.54 360,-944.7 360,-944.7"/>
<polygon fill="#2c7a7b" stroke="#2c7a7b" points="363.5,-944.7 360,-934.7 356.5,-944.7 363.5,-944.7"/>
</g>
<!-- W7 -->
<g id="node15" class="node">
<title>W7</title>
<path fill="#6ee7b7" stroke="black" d="M397.41,-839.95C397.41,-839.95 322.59,-839.95 322.59,-839.95 316.59,-839.95 310.59,-833.95 310.59,-827.95 310.59,-827.95 310.59,-795.95 310.59,-795.95 310.59,-789.95 316.59,-783.95 322.59,-783.95 322.59,-783.95 397.41,-783.95 397.41,-783.95 403.41,-783.95 409.41,-789.95 409.41,-795.95 409.41,-795.95 409.41,-827.95 409.41,-827.95 409.41,-833.95 403.41,-839.95 397.41,-839.95"/>
<text xml:space="preserve" text-anchor="middle" x="360" y="-826.95" font-family="Helvetica,sans-Serif" font-size="10.00">7. Review Settings</text>
<text xml:space="preserve" text-anchor="middle" x="360" y="-802.95" font-family="Helvetica,sans-Serif" font-size="10.00">Summary display</text>
<text xml:space="preserve" text-anchor="middle" x="360" y="-790.95" font-family="Helvetica,sans-Serif" font-size="10.00">Confirmation</text>
</g>
<!-- W6&#45;&gt;W7 -->
<g id="edge17" class="edge">
<title>W6&#45;&gt;W7</title>
<path fill="none" stroke="#2c7a7b" d="M360,-876.54C360,-876.54 360,-851.7 360,-851.7"/>
<polygon fill="#2c7a7b" stroke="#2c7a7b" points="363.5,-851.7 360,-841.7 356.5,-851.7 363.5,-851.7"/>
</g>
<!-- W8 -->
<g id="node16" class="node">
<title>W8</title>
<path fill="#6ee7b7" stroke="black" d="M405.19,-720.55C405.19,-720.55 314.81,-720.55 314.81,-720.55 308.81,-720.55 302.81,-714.55 302.81,-708.55 302.81,-708.55 302.81,-676.55 302.81,-676.55 302.81,-670.55 308.81,-664.55 314.81,-664.55 314.81,-664.55 405.19,-664.55 405.19,-664.55 411.19,-664.55 417.19,-670.55 417.19,-676.55 417.19,-676.55 417.19,-708.55 417.19,-708.55 417.19,-714.55 411.19,-720.55 405.19,-720.55"/>
<text xml:space="preserve" text-anchor="middle" x="360" y="-707.55" font-family="Helvetica,sans-Serif" font-size="10.00">8. Save Configuration</text>
<text xml:space="preserve" text-anchor="middle" x="360" y="-683.55" font-family="Helvetica,sans-Serif" font-size="10.00">Write appsettings.json</text>
<text xml:space="preserve" text-anchor="middle" x="360" y="-671.55" font-family="Helvetica,sans-Serif" font-size="10.00">Create marker file</text>
</g>
<!-- W7&#45;&gt;W8 -->
<g id="edge18" class="edge">
<title>W7&#45;&gt;W8</title>
<path fill="none" stroke="#2c7a7b" d="M360,-783.65C360,-783.65 360,-732.16 360,-732.16"/>
<polygon fill="#2c7a7b" stroke="#2c7a7b" points="363.5,-732.16 360,-722.16 356.5,-732.16 363.5,-732.16"/>
</g>
<!-- W8&#45;&gt;CONFIG -->
<g id="edge19" class="edge">
<title>W8&#45;&gt;CONFIG</title>
<path fill="none" stroke="#2c7a7b" d="M354.87,-664.21C354.87,-664.21 354.87,-616.06 354.87,-616.06"/>
<polygon fill="#2c7a7b" stroke="#2c7a7b" points="358.37,-616.06 354.87,-606.06 351.37,-616.06 358.37,-616.06"/>
</g>
<!-- VAL_CREDS -->
<g id="node17" class="node">
<title>VAL_CREDS</title>
<path fill="#93c5fd" stroke="black" d="M519.41,-437.4C519.41,-437.4 434.59,-437.4 434.59,-437.4 428.59,-437.4 422.59,-431.4 422.59,-425.4 422.59,-425.4 422.59,-381.4 422.59,-381.4 422.59,-375.4 428.59,-369.4 434.59,-369.4 434.59,-369.4 519.41,-369.4 519.41,-369.4 525.41,-369.4 531.41,-375.4 531.41,-381.4 531.41,-381.4 531.41,-425.4 531.41,-425.4 531.41,-431.4 525.41,-437.4 519.41,-437.4"/>
<text xml:space="preserve" text-anchor="middle" x="477" y="-424.4" font-family="Helvetica,sans-Serif" font-size="10.00">&#45;&#45;validate&#45;credentials</text>
<text xml:space="preserve" text-anchor="middle" x="477" y="-400.4" font-family="Helvetica,sans-Serif" font-size="10.00">Test all API keys</text>
<text xml:space="preserve" text-anchor="middle" x="477" y="-388.4" font-family="Helvetica,sans-Serif" font-size="10.00">Show account info</text>
<text xml:space="preserve" text-anchor="middle" x="477" y="-376.4" font-family="Helvetica,sans-Serif" font-size="10.00">Report issues</text>
</g>
<!-- VAL_CREDS&#45;&gt;STARTUP_SUM -->
<g id="edge25" class="edge">
<title>VAL_CREDS&#45;&gt;STARTUP_SUM</title>
<path fill="none" stroke="#38a169" stroke-dasharray="5,2" d="M461.66,-369.12C461.66,-369.12 461.66,-200.84 461.66,-200.84"/>
<polygon fill="#38a169" stroke="#38a169" points="465.16,-200.84 461.66,-190.84 458.16,-200.84 465.16,-200.84"/>
</g>
<!-- TEST_CONN -->
<g id="node18" class="node">
<title>TEST_CONN</title>
<path fill="#93c5fd" stroke="black" d="M129.75,-437.4C129.75,-437.4 28.25,-437.4 28.25,-437.4 22.25,-437.4 16.25,-431.4 16.25,-425.4 16.25,-425.4 16.25,-381.4 16.25,-381.4 16.25,-375.4 22.25,-369.4 28.25,-369.4 28.25,-369.4 129.75,-369.4 129.75,-369.4 135.75,-369.4 141.75,-375.4 141.75,-381.4 141.75,-381.4 141.75,-425.4 141.75,-425.4 141.75,-431.4 135.75,-437.4 129.75,-437.4"/>
<text xml:space="preserve" text-anchor="middle" x="79" y="-424.4" font-family="Helvetica,sans-Serif" font-size="10.00">&#45;&#45;test&#45;connectivity</text>
<text xml:space="preserve" text-anchor="middle" x="79" y="-400.4" font-family="Helvetica,sans-Serif" font-size="10.00">Test internet, DNS</text>
<text xml:space="preserve" text-anchor="middle" x="79" y="-388.4" font-family="Helvetica,sans-Serif" font-size="10.00">Test each provider</text>
<text xml:space="preserve" text-anchor="middle" x="79" y="-376.4" font-family="Helvetica,sans-Serif" font-size="10.00">Measure response times</text>
</g>
<!-- TEST_CONN&#45;&gt;STARTUP_SUM -->
<g id="edge26" class="edge">
<title>TEST_CONN&#45;&gt;STARTUP_SUM</title>
<path fill="none" stroke="#38a169" stroke-dasharray="5,2" d="M79,-368.98C79,-297.16 79,-138 79,-138 79,-138 375.68,-138 375.68,-138"/>
<polygon fill="#38a169" stroke="#38a169" points="375.68,-141.5 385.68,-138 375.68,-134.5 375.68,-141.5"/>
</g>
<!-- QUICK_CHECK -->
<g id="node19" class="node">
<title>QUICK_CHECK</title>
<path fill="#93c5fd" stroke="black" d="M264.58,-443.4C264.58,-443.4 171.42,-443.4 171.42,-443.4 165.42,-443.4 159.42,-437.4 159.42,-431.4 159.42,-431.4 159.42,-375.4 159.42,-375.4 159.42,-369.4 165.42,-363.4 171.42,-363.4 171.42,-363.4 264.58,-363.4 264.58,-363.4 270.58,-363.4 276.58,-369.4 276.58,-375.4 276.58,-375.4 276.58,-431.4 276.58,-431.4 276.58,-437.4 270.58,-443.4 264.58,-443.4"/>
<text xml:space="preserve" text-anchor="middle" x="218" y="-430.4" font-family="Helvetica,sans-Serif" font-size="10.00">&#45;&#45;quick&#45;check</text>
<text xml:space="preserve" text-anchor="middle" x="218" y="-406.4" font-family="Helvetica,sans-Serif" font-size="10.00">Disk space check</text>
<text xml:space="preserve" text-anchor="middle" x="218" y="-394.4" font-family="Helvetica,sans-Serif" font-size="10.00">Symbol configuration</text>
<text xml:space="preserve" text-anchor="middle" x="218" y="-382.4" font-family="Helvetica,sans-Serif" font-size="10.00">Credentials present</text>
<text xml:space="preserve" text-anchor="middle" x="218" y="-370.4" font-family="Helvetica,sans-Serif" font-size="10.00">Compression available</text>
</g>
<!-- QUICK_CHECK&#45;&gt;STARTUP_SUM -->
<g id="edge27" class="edge">
<title>QUICK_CHECK&#45;&gt;STARTUP_SUM</title>
<path fill="none" stroke="#38a169" stroke-dasharray="5,2" d="M218,-362.94C218,-292.55 218,-155 218,-155 218,-155 375.5,-155 375.5,-155"/>
<polygon fill="#38a169" stroke="#38a169" points="375.5,-158.5 385.5,-155 375.5,-151.5 375.5,-158.5"/>
</g>
<!-- VAL_CONFIG -->
<g id="node20" class="node">
<title>VAL_CONFIG</title>
<path fill="#93c5fd" stroke="black" d="M392.97,-437.4C392.97,-437.4 307.03,-437.4 307.03,-437.4 301.03,-437.4 295.03,-431.4 295.03,-425.4 295.03,-425.4 295.03,-381.4 295.03,-381.4 295.03,-375.4 301.03,-369.4 307.03,-369.4 307.03,-369.4 392.97,-369.4 392.97,-369.4 398.97,-369.4 404.97,-375.4 404.97,-381.4 404.97,-381.4 404.97,-425.4 404.97,-425.4 404.97,-431.4 398.97,-437.4 392.97,-437.4"/>
<text xml:space="preserve" text-anchor="middle" x="350" y="-424.4" font-family="Helvetica,sans-Serif" font-size="10.00">&#45;&#45;validate&#45;config</text>
<text xml:space="preserve" text-anchor="middle" x="350" y="-400.4" font-family="Helvetica,sans-Serif" font-size="10.00">Parse configuration</text>
<text xml:space="preserve" text-anchor="middle" x="350" y="-388.4" font-family="Helvetica,sans-Serif" font-size="10.00">Check required fields</text>
<text xml:space="preserve" text-anchor="middle" x="350" y="-376.4" font-family="Helvetica,sans-Serif" font-size="10.00">Validate values</text>
</g>
<!-- DRY_RUN -->
<g id="node21" class="node">
<title>DRY_RUN</title>
<path fill="#93c5fd" stroke="black" d="M416.75,-314.4C416.75,-314.4 345.25,-314.4 345.25,-314.4 339.25,-314.4 333.25,-308.4 333.25,-302.4 333.25,-302.4 333.25,-258.4 333.25,-258.4 333.25,-252.4 339.25,-246.4 345.25,-246.4 345.25,-246.4 416.75,-246.4 416.75,-246.4 422.75,-246.4 428.75,-252.4 428.75,-258.4 428.75,-258.4 428.75,-302.4 428.75,-302.4 428.75,-308.4 422.75,-314.4 416.75,-314.4"/>
<text xml:space="preserve" text-anchor="middle" x="381" y="-301.4" font-family="Helvetica,sans-Serif" font-size="10.00">&#45;&#45;dry&#45;run</text>
<text xml:space="preserve" text-anchor="middle" x="381" y="-277.4" font-family="Helvetica,sans-Serif" font-size="10.00">Full initialization</text>
<text xml:space="preserve" text-anchor="middle" x="381" y="-265.4" font-family="Helvetica,sans-Serif" font-size="10.00">No data collection</text>
<text xml:space="preserve" text-anchor="middle" x="381" y="-253.4" font-family="Helvetica,sans-Serif" font-size="10.00">Test everything</text>
</g>
<!-- VAL_CONFIG&#45;&gt;DRY_RUN -->
<g id="edge24" class="edge">
<title>VAL_CONFIG&#45;&gt;DRY_RUN</title>
<path fill="none" stroke="#4a5568" stroke-dasharray="5,2" d="M369.11,-369.14C369.11,-369.14 369.11,-325.99 369.11,-325.99"/>
<polygon fill="#4a5568" stroke="#4a5568" points="372.61,-325.99 369.11,-315.99 365.61,-325.99 372.61,-325.99"/>
</g>
<!-- DRY_RUN&#45;&gt;STARTUP_SUM -->
<g id="edge28" class="edge">
<title>DRY_RUN&#45;&gt;STARTUP_SUM</title>
<path fill="none" stroke="#38a169" stroke-dasharray="5,2" d="M408.08,-246.13C408.08,-246.13 408.08,-200.74 408.08,-200.74"/>
<polygon fill="#38a169" stroke="#38a169" points="411.58,-200.74 408.08,-190.74 404.58,-200.74 411.58,-200.74"/>
</g>
<!-- SHOW_CONFIG -->
<g id="node22" class="node">
<title>SHOW_CONFIG</title>
<path fill="#9ae6b4" stroke="black" d="M551.08,-720.55C551.08,-720.55 462.92,-720.55 462.92,-720.55 456.92,-720.55 450.92,-714.55 450.92,-708.55 450.92,-708.55 450.92,-676.55 450.92,-676.55 450.92,-670.55 456.92,-664.55 462.92,-664.55 462.92,-664.55 551.08,-664.55 551.08,-664.55 557.08,-664.55 563.08,-670.55 563.08,-676.55 563.08,-676.55 563.08,-708.55 563.08,-708.55 563.08,-714.55 557.08,-720.55 551.08,-720.55"/>
<text xml:space="preserve" text-anchor="middle" x="507" y="-707.55" font-family="Helvetica,sans-Serif" font-size="10.00">&#45;&#45;show&#45;config</text>
<text xml:space="preserve" text-anchor="middle" x="507" y="-683.55" font-family="Helvetica,sans-Serif" font-size="10.00">Display current config</text>
<text xml:space="preserve" text-anchor="middle" x="507" y="-671.55" font-family="Helvetica,sans-Serif" font-size="10.00">Masked credentials</text>
</g>
<!-- SHOW_CONFIG&#45;&gt;CONFIG -->
<g id="edge32" class="edge">
<title>SHOW_CONFIG&#45;&gt;CONFIG</title>
<path fill="none" stroke="#4a5568" stroke-dasharray="5,2" d="M491.17,-664.18C491.17,-636.33 491.17,-598 491.17,-598 491.17,-598 418.93,-598 418.93,-598"/>
<polygon fill="#4a5568" stroke="#4a5568" points="418.93,-594.5 408.93,-598 418.93,-601.5 418.93,-594.5"/>
<text xml:space="preserve" text-anchor="middle" x="454.26" y="-632.45" font-family="Helvetica,sans-Serif" font-size="9.00">reads</text>
</g>
<!-- ERROR_CODES -->
<g id="node23" class="node">
<title>ERROR_CODES</title>
<path fill="#9ae6b4" stroke="black" d="M687.11,-726.55C687.11,-726.55 592.89,-726.55 592.89,-726.55 586.89,-726.55 580.89,-720.55 580.89,-714.55 580.89,-714.55 580.89,-670.55 580.89,-670.55 580.89,-664.55 586.89,-658.55 592.89,-658.55 592.89,-658.55 687.11,-658.55 687.11,-658.55 693.11,-658.55 699.11,-664.55 699.11,-670.55 699.11,-670.55 699.11,-714.55 699.11,-714.55 699.11,-720.55 693.11,-726.55 687.11,-726.55"/>
<text xml:space="preserve" text-anchor="middle" x="640" y="-713.55" font-family="Helvetica,sans-Serif" font-size="10.00">&#45;&#45;error&#45;codes</text>
<text xml:space="preserve" text-anchor="middle" x="640" y="-689.55" font-family="Helvetica,sans-Serif" font-size="10.00">24 error codes</text>
<text xml:space="preserve" text-anchor="middle" x="640" y="-677.55" font-family="Helvetica,sans-Serif" font-size="10.00">MDC&#45;XXX&#45;NNN format</text>
<text xml:space="preserve" text-anchor="middle" x="640" y="-665.55" font-family="Helvetica,sans-Serif" font-size="10.00">Troubleshooting tips</text>
</g>
<!-- ERROR_FMT -->
<g id="node28" class="node">
<title>ERROR_FMT</title>
<path fill="#fc8181" stroke="black" d="M690.56,-591.35C690.56,-591.35 597.44,-591.35 597.44,-591.35 591.44,-591.35 585.44,-585.35 585.44,-579.35 585.44,-579.35 585.44,-535.35 585.44,-535.35 585.44,-529.35 591.44,-523.35 597.44,-523.35 597.44,-523.35 690.56,-523.35 690.56,-523.35 696.56,-523.35 702.56,-529.35 702.56,-535.35 702.56,-535.35 702.56,-579.35 702.56,-579.35 702.56,-585.35 696.56,-591.35 690.56,-591.35"/>
<text xml:space="preserve" text-anchor="middle" x="644" y="-578.35" font-family="Helvetica,sans-Serif" font-size="10.00" fill="white">FriendlyErrorFormatter</text>
<text xml:space="preserve" text-anchor="middle" x="644" y="-554.35" font-family="Helvetica,sans-Serif" font-size="10.00" fill="white">Parse exception</text>
<text xml:space="preserve" text-anchor="middle" x="644" y="-542.35" font-family="Helvetica,sans-Serif" font-size="10.00" fill="white">Assign error code</text>
<text xml:space="preserve" text-anchor="middle" x="644" y="-530.35" font-family="Helvetica,sans-Serif" font-size="10.00" fill="white">Generate suggestions</text>
</g>
<!-- ERROR_CODES&#45;&gt;ERROR_FMT -->
<g id="edge33" class="edge">
<title>ERROR_CODES&#45;&gt;ERROR_FMT</title>
<path fill="none" stroke="#4a5568" stroke-dasharray="5,2" d="M642.27,-658.08C642.27,-658.08 642.27,-603.27 642.27,-603.27"/>
<polygon fill="#4a5568" stroke="#4a5568" points="645.77,-603.27 642.27,-593.27 638.77,-603.27 645.77,-603.27"/>
<text xml:space="preserve" text-anchor="middle" x="659.01" y="-632.45" font-family="Helvetica,sans-Serif" font-size="9.00">reference</text>
</g>
<!-- HELP -->
<g id="node24" class="node">
<title>HELP</title>
<path fill="#9ae6b4" stroke="black" d="M798.63,-720.55C798.63,-720.55 729.37,-720.55 729.37,-720.55 723.37,-720.55 717.37,-714.55 717.37,-708.55 717.37,-708.55 717.37,-676.55 717.37,-676.55 717.37,-670.55 723.37,-664.55 729.37,-664.55 729.37,-664.55 798.63,-664.55 798.63,-664.55 804.63,-664.55 810.63,-670.55 810.63,-676.55 810.63,-676.55 810.63,-708.55 810.63,-708.55 810.63,-714.55 804.63,-720.55 798.63,-720.55"/>
<text xml:space="preserve" text-anchor="middle" x="764" y="-707.55" font-family="Helvetica,sans-Serif" font-size="10.00">&#45;&#45;help</text>
<text xml:space="preserve" text-anchor="middle" x="764" y="-683.55" font-family="Helvetica,sans-Serif" font-size="10.00">All available flags</text>
<text xml:space="preserve" text-anchor="middle" x="764" y="-671.55" font-family="Helvetica,sans-Serif" font-size="10.00">Usage examples</text>
</g>
<!-- CONFIG&#45;&gt;VAL_CREDS -->
<g id="edge20" class="edge">
<title>CONFIG&#45;&gt;VAL_CREDS</title>
<path fill="none" stroke="#4a5568" stroke-dasharray="5,2" d="M407.06,-517C420.14,-517 430.28,-517 430.28,-517 430.28,-517 430.28,-449.31 430.28,-449.31"/>
<polygon fill="#4a5568" stroke="#4a5568" points="433.78,-449.31 430.28,-439.31 426.78,-449.31 433.78,-449.31"/>
<text xml:space="preserve" text-anchor="middle" x="456.76" y="-484.5" font-family="Helvetica,sans-Serif" font-size="9.00">optional</text>
</g>
<!-- CONFIG&#45;&gt;TEST_CONN -->
<g id="edge21" class="edge">
<title>CONFIG&#45;&gt;TEST_CONN</title>
<path fill="none" stroke="#4a5568" stroke-dasharray="5,2" d="M292.63,-542C218.79,-542 99.92,-542 99.92,-542 99.92,-542 99.92,-449.17 99.92,-449.17"/>
<polygon fill="#4a5568" stroke="#4a5568" points="103.42,-449.17 99.92,-439.17 96.42,-449.17 103.42,-449.17"/>
<text xml:space="preserve" text-anchor="middle" x="137.76" y="-484.5" font-family="Helvetica,sans-Serif" font-size="9.00">optional</text>
</g>
<!-- CONFIG&#45;&gt;QUICK_CHECK -->
<g id="edge22" class="edge">
<title>CONFIG&#45;&gt;QUICK_CHECK</title>
<path fill="none" stroke="#4a5568" stroke-dasharray="5,2" d="M292.69,-526C257.91,-526 220.19,-526 220.19,-526 220.19,-526 220.19,-455.4 220.19,-455.4"/>
<polygon fill="#4a5568" stroke="#4a5568" points="223.69,-455.4 220.19,-445.4 216.69,-455.4 223.69,-455.4"/>
<text xml:space="preserve" text-anchor="middle" x="272.76" y="-484.5" font-family="Helvetica,sans-Serif" font-size="9.00">optional</text>
</g>
<!-- CONFIG&#45;&gt;VAL_CONFIG -->
<g id="edge23" class="edge">
<title>CONFIG&#45;&gt;VAL_CONFIG</title>
<path fill="none" stroke="#4a5568" stroke-dasharray="5,2" d="M350,-510.32C350,-510.32 350,-448.95 350,-448.95"/>
<polygon fill="#4a5568" stroke="#4a5568" points="353.5,-448.95 350,-438.95 346.5,-448.95 353.5,-448.95"/>
<text xml:space="preserve" text-anchor="middle" x="365.76" y="-484.5" font-family="Helvetica,sans-Serif" font-size="9.00">optional</text>
</g>
<!-- CONFIG&#45;&gt;STARTUP_SUM -->
<g id="edge29" class="edge">
<title>CONFIG&#45;&gt;STARTUP_SUM</title>
<path fill="none" stroke="#38a169" d="M292.9,-557C289.59,-557 287.58,-557 287.58,-557 287.58,-557 287.58,-172 287.58,-172 287.58,-172 375.83,-172 375.83,-172"/>
<polygon fill="#38a169" stroke="#38a169" points="375.83,-175.5 385.83,-172 375.83,-168.5 375.83,-175.5"/>
</g>
<!-- RUN_NORMAL -->
<g id="node27" class="node">
<title>RUN_NORMAL</title>
<path fill="#38a169" stroke="black" d="M482.85,-84C482.85,-84 399.15,-84 399.15,-84 393.15,-84 387.15,-78 387.15,-72 387.15,-72 387.15,-28 387.15,-28 387.15,-22 393.15,-16 399.15,-16 399.15,-16 482.85,-16 482.85,-16 488.85,-16 494.85,-22 494.85,-28 494.85,-28 494.85,-72 494.85,-72 494.85,-78 488.85,-84 482.85,-84"/>
<text xml:space="preserve" text-anchor="middle" x="441" y="-71" font-family="Helvetica,sans-Serif" font-size="10.00" fill="white">Normal Operation</text>
<text xml:space="preserve" text-anchor="middle" x="441" y="-47" font-family="Helvetica,sans-Serif" font-size="10.00" fill="white">&#45;&#45;ui (with dashboard)</text>
<text xml:space="preserve" text-anchor="middle" x="441" y="-35" font-family="Helvetica,sans-Serif" font-size="10.00" fill="white">&#45;&#45;backfill (historical)</text>
<text xml:space="preserve" text-anchor="middle" x="441" y="-23" font-family="Helvetica,sans-Serif" font-size="10.00" fill="white">default (streaming)</text>
</g>
<!-- STARTUP_SUM&#45;&gt;RUN_NORMAL -->
<g id="edge30" class="edge">
<title>STARTUP_SUM&#45;&gt;RUN_NORMAL</title>
<path fill="none" stroke="#38a169" d="M441,-120.62C441,-120.62 441,-95.97 441,-95.97"/>
<polygon fill="#38a169" stroke="#38a169" points="444.5,-95.97 441,-85.97 437.5,-95.97 444.5,-95.97"/>
</g>
<!-- ERROR_DISPLAY -->
<g id="node29" class="node">
<title>ERROR_DISPLAY</title>
<path fill="#fecaca" stroke="black" d="M686.97,-455.4C686.97,-455.4 601.03,-455.4 601.03,-455.4 595.03,-455.4 589.03,-449.4 589.03,-443.4 589.03,-443.4 589.03,-363.4 589.03,-363.4 589.03,-357.4 595.03,-351.4 601.03,-351.4 601.03,-351.4 686.97,-351.4 686.97,-351.4 692.97,-351.4 698.97,-357.4 698.97,-363.4 698.97,-363.4 698.97,-443.4 698.97,-443.4 698.97,-449.4 692.97,-455.4 686.97,-455.4"/>
<text xml:space="preserve" text-anchor="middle" x="644" y="-442.4" font-family="Helvetica,sans-Serif" font-size="10.00">User&#45;Friendly Error</text>
<text xml:space="preserve" text-anchor="middle" x="644" y="-418.4" font-family="Helvetica,sans-Serif" font-size="10.00">[MDC&#45;CFG&#45;001]</text>
<text xml:space="preserve" text-anchor="middle" x="644" y="-406.4" font-family="Helvetica,sans-Serif" font-size="10.00">Missing configuration</text>
<text xml:space="preserve" text-anchor="middle" x="644" y="-382.4" font-family="Helvetica,sans-Serif" font-size="10.00">Suggestions:</text>
<text xml:space="preserve" text-anchor="middle" x="644" y="-370.4" font-family="Helvetica,sans-Serif" font-size="10.00">1. Run &#45;&#45;wizard</text>
<text xml:space="preserve" text-anchor="middle" x="644" y="-358.4" font-family="Helvetica,sans-Serif" font-size="10.00">2. Check env vars</text>
</g>
<!-- ERROR_FMT&#45;&gt;ERROR_DISPLAY -->
<g id="edge31" class="edge">
<title>ERROR_FMT&#45;&gt;ERROR_DISPLAY</title>
<path fill="none" stroke="#e53e3e" d="M644,-523.18C644,-523.18 644,-467.14 644,-467.14"/>
<polygon fill="#e53e3e" stroke="#e53e3e" points="647.5,-467.14 644,-457.14 640.5,-467.14 647.5,-467.14"/>
</g>
<!-- L1 -->
<g id="node30" class="node">
<title>L1</title>
<path fill="#fbd38d" stroke="black" d="M626.12,-2071.18C626.12,-2071.18 551.88,-2071.18 551.88,-2071.18 545.88,-2071.18 539.88,-2065.18 539.88,-2059.18 539.88,-2059.18 539.88,-2047.18 539.88,-2047.18 539.88,-2041.18 545.88,-2035.18 551.88,-2035.18 551.88,-2035.18 626.12,-2035.18 626.12,-2035.18 632.12,-2035.18 638.12,-2041.18 638.12,-2047.18 638.12,-2047.18 638.12,-2059.18 638.12,-2059.18 638.12,-2065.18 632.12,-2071.18 626.12,-2071.18"/>
<text xml:space="preserve" text-anchor="middle" x="589" y="-2050.18" font-family="Helvetica,sans-Serif" font-size="10.00">First&#45;Run Services</text>
</g>
<!-- L2 -->
<g id="node31" class="node">
<title>L2</title>
<path fill="#c4b5fd" stroke="black" d="M723.69,-2071.18C723.69,-2071.18 668.31,-2071.18 668.31,-2071.18 662.31,-2071.18 656.31,-2065.18 656.31,-2059.18 656.31,-2059.18 656.31,-2047.18 656.31,-2047.18 656.31,-2041.18 662.31,-2035.18 668.31,-2035.18 668.31,-2035.18 723.69,-2035.18 723.69,-2035.18 729.69,-2035.18 735.69,-2041.18 735.69,-2047.18 735.69,-2047.18 735.69,-2059.18 735.69,-2059.18 735.69,-2065.18 729.69,-2071.18 723.69,-2071.18"/>
<text xml:space="preserve" text-anchor="middle" x="696" y="-2050.18" font-family="Helvetica,sans-Serif" font-size="10.00">Setup Options</text>
</g>
<!-- L3 -->
<g id="node32" class="node">
<title>L3</title>
<path fill="#6ee7b7" stroke="black" d="M816.73,-2071.18C816.73,-2071.18 765.27,-2071.18 765.27,-2071.18 759.27,-2071.18 753.27,-2065.18 753.27,-2059.18 753.27,-2059.18 753.27,-2047.18 753.27,-2047.18 753.27,-2041.18 759.27,-2035.18 765.27,-2035.18 765.27,-2035.18 816.73,-2035.18 816.73,-2035.18 822.73,-2035.18 828.73,-2041.18 828.73,-2047.18 828.73,-2047.18 828.73,-2059.18 828.73,-2059.18 828.73,-2065.18 822.73,-2071.18 816.73,-2071.18"/>
<text xml:space="preserve" text-anchor="middle" x="791" y="-2050.18" font-family="Helvetica,sans-Serif" font-size="10.00">Wizard Steps</text>
</g>
<!-- L4 -->
<g id="node33" class="node">
<title>L4</title>
<path fill="#93c5fd" stroke="black" d="M949.19,-2071.18C949.19,-2071.18 858.81,-2071.18 858.81,-2071.18 852.81,-2071.18 846.81,-2065.18 846.81,-2059.18 846.81,-2059.18 846.81,-2047.18 846.81,-2047.18 846.81,-2041.18 852.81,-2035.18 858.81,-2035.18 858.81,-2035.18 949.19,-2035.18 949.19,-2035.18 955.19,-2035.18 961.19,-2041.18 961.19,-2047.18 961.19,-2047.18 961.19,-2059.18 961.19,-2059.18 961.19,-2065.18 955.19,-2071.18 949.19,-2071.18"/>
<text xml:space="preserve" text-anchor="middle" x="904" y="-2050.18" font-family="Helvetica,sans-Serif" font-size="10.00">Validation/Diagnostics</text>
</g>
<!-- L5 -->
<g id="node34" class="node">
<title>L5</title>
<path fill="#9ae6b4" stroke="black" d="M1050.63,-2071.18C1050.63,-2071.18 991.37,-2071.18 991.37,-2071.18 985.37,-2071.18 979.37,-2065.18 979.37,-2059.18 979.37,-2059.18 979.37,-2047.18 979.37,-2047.18 979.37,-2041.18 985.37,-2035.18 991.37,-2035.18 991.37,-2035.18 1050.63,-2035.18 1050.63,-2035.18 1056.63,-2035.18 1062.63,-2041.18 1062.63,-2047.18 1062.63,-2047.18 1062.63,-2059.18 1062.63,-2059.18 1062.63,-2065.18 1056.63,-2071.18 1050.63,-2071.18"/>
<text xml:space="preserve" text-anchor="middle" x="1021" y="-2050.18" font-family="Helvetica,sans-Serif" font-size="10.00">Documentation</text>
</g>
<!-- L6 -->
<g id="node35" class="node">
<title>L6</title>
<path fill="#fc8181" stroke="black" d="M1149.24,-2071.18C1149.24,-2071.18 1092.76,-2071.18 1092.76,-2071.18 1086.76,-2071.18 1080.76,-2065.18 1080.76,-2059.18 1080.76,-2059.18 1080.76,-2047.18 1080.76,-2047.18 1080.76,-2041.18 1086.76,-2035.18 1092.76,-2035.18 1092.76,-2035.18 1149.24,-2035.18 1149.24,-2035.18 1155.24,-2035.18 1161.24,-2041.18 1161.24,-2047.18 1161.24,-2047.18 1161.24,-2059.18 1161.24,-2059.18 1161.24,-2065.18 1155.24,-2071.18 1149.24,-2071.18"/>
<text xml:space="preserve" text-anchor="middle" x="1121" y="-2050.18" font-family="Helvetica,sans-Serif" font-size="10.00" fill="white">Error Handling</text>
</g>
<!-- LEG_FLOW -->
<g id="node36" class="node">
<title>LEG_FLOW</title>
<path fill="lightgrey" stroke="none" d="M1312.48,-2071.18C1312.48,-2071.18 1191.52,-2071.18 1191.52,-2071.18 1185.52,-2071.18 1179.52,-2065.18 1179.52,-2059.18 1179.52,-2059.18 1179.52,-2047.18 1179.52,-2047.18 1179.52,-2041.18 1185.52,-2035.18 1191.52,-2035.18 1191.52,-2035.18 1312.48,-2035.18 1312.48,-2035.18 1318.48,-2035.18 1324.48,-2041.18 1324.48,-2047.18 1324.48,-2047.18 1324.48,-2059.18 1324.48,-2059.18 1324.48,-2065.18 1318.48,-2071.18 1312.48,-2071.18"/>
<text xml:space="preserve" text-anchor="middle" x="1252" y="-2056.18" font-family="Helvetica,sans-Serif" font-size="10.00"> Primary flow</text>
<text xml:space="preserve" text-anchor="middle" x="1252" y="-2044.18" font-family="Helvetica,sans-Serif" font-size="10.00">  Optional/alternative flow</text>
</g>
</g>
</svg>
