<?xml version="1.0" encoding="UTF-8" standalone="no"?>
<!DOCTYPE svg PUBLIC "-//W3C//DTD SVG 1.1//EN"
 "http://www.w3.org/Graphics/SVG/1.1/DTD/svg11.dtd">
<!-- Generated by graphviz version 14.1.1 (20251213.1925)
 -->
<!-- Title: ProjectDependencies Pages: 1 -->
<svg width="1244pt" height="662pt"
 viewBox="0.00 0.00 1244.00 662.00" xmlns="http://www.w3.org/2000/svg" xmlns:xlink="http://www.w3.org/1999/xlink">
<g id="graph0" class="graph" transform="scale(1 1) rotate(0) translate(4 658.4)">
<title>ProjectDependencies</title>
<polygon fill="white" stroke="none" points="-4,4 -4,-658.4 1240,-658.4 1240,4 -4,4"/>
<text xml:space="preserve" text-anchor="middle" x="618" y="-637.8" font-family="Segoe UI, Helvetica, Arial, sans-serif" font-size="14.00">Market Data Collector &#45; Project Dependencies</text>
<g id="clust1" class="cluster">
<title>cluster_layer0</title>
<path fill="none" stroke="#cccccc" stroke-dasharray="5,2" d="M837,-8C837,-8 1094,-8 1094,-8 1100,-8 1106,-14 1106,-20 1106,-20 1106,-69.2 1106,-69.2 1106,-75.2 1100,-81.2 1094,-81.2 1094,-81.2 837,-81.2 837,-81.2 831,-81.2 825,-75.2 825,-69.2 825,-69.2 825,-20 825,-20 825,-14 831,-8 837,-8"/>
<text xml:space="preserve" text-anchor="middle" x="965.5" y="-67.3" font-family="Segoe UI, Helvetica, Arial, sans-serif" font-size="11.00">Layer 0: Foundation</text>
</g>
<g id="clust2" class="cluster">
<title>cluster_layer1</title>
<path fill="none" stroke="#cccccc" stroke-dasharray="5,2" d="M213,-8C213,-8 382,-8 382,-8 388,-8 394,-14 394,-20 394,-20 394,-300 394,-300 394,-306 388,-312 382,-312 382,-312 213,-312 213,-312 207,-312 201,-306 201,-300 201,-300 201,-20 201,-20 201,-14 207,-8 213,-8"/>
<text xml:space="preserve" text-anchor="middle" x="297.5" y="-298.1" font-family="Segoe UI, Helvetica, Arial, sans-serif" font-size="11.00">Layer 1: Core Domain &amp; SDK</text>
</g>
<g id="clust3" class="cluster">
<title>cluster_layer2</title>
<path fill="none" stroke="#cccccc" stroke-dasharray="5,2" d="M475,-238.8C475,-238.8 794,-238.8 794,-238.8 800,-238.8 806,-244.8 806,-250.8 806,-250.8 806,-300 806,-300 806,-306 800,-312 794,-312 794,-312 475,-312 475,-312 469,-312 463,-306 463,-300 463,-300 463,-250.8 463,-250.8 463,-244.8 469,-238.8 475,-238.8"/>
<text xml:space="preserve" text-anchor="middle" x="634.5" y="-298.1" font-family="Segoe UI, Helvetica, Arial, sans-serif" font-size="11.00">Layer 2: Infrastructure &amp; Storage</text>
</g>
<g id="clust4" class="cluster">
<title>cluster_layer3</title>
<path fill="none" stroke="#cccccc" stroke-dasharray="5,2" d="M108,-342C108,-342 246,-342 246,-342 252,-342 258,-348 258,-354 258,-354 258,-403.2 258,-403.2 258,-409.2 252,-415.2 246,-415.2 246,-415.2 108,-415.2 108,-415.2 102,-415.2 96,-409.2 96,-403.2 96,-403.2 96,-354 96,-354 96,-348 102,-342 108,-342"/>
<text xml:space="preserve" text-anchor="middle" x="177" y="-401.3" font-family="Segoe UI, Helvetica, Arial, sans-serif" font-size="11.00">Layer 3: Application Logic</text>
</g>
<g id="clust5" class="cluster">
<title>cluster_layer4</title>
<path fill="none" stroke="#cccccc" stroke-dasharray="5,2" d="M993,-342C993,-342 1216,-342 1216,-342 1222,-342 1228,-348 1228,-354 1228,-354 1228,-506.4 1228,-506.4 1228,-512.4 1222,-518.4 1216,-518.4 1216,-518.4 993,-518.4 993,-518.4 987,-518.4 981,-512.4 981,-506.4 981,-506.4 981,-354 981,-354 981,-348 987,-342 993,-342"/>
<text xml:space="preserve" text-anchor="middle" x="1104.5" y="-504.5" font-family="Segoe UI, Helvetica, Arial, sans-serif" font-size="11.00">Layer 4: UI &amp; Presentation</text>
</g>
<g id="clust6" class="cluster">
<title>cluster_layer5</title>
<path fill="none" stroke="#cccccc" stroke-dasharray="5,2" d="M319,-445.2C319,-445.2 417,-445.2 417,-445.2 423,-445.2 429,-451.2 429,-457.2 429,-457.2 429,-506.4 429,-506.4 429,-512.4 423,-518.4 417,-518.4 417,-518.4 319,-518.4 319,-518.4 313,-518.4 307,-512.4 307,-506.4 307,-506.4 307,-457.2 307,-457.2 307,-451.2 313,-445.2 319,-445.2"/>
<text xml:space="preserve" text-anchor="middle" x="368" y="-504.5" font-family="Segoe UI, Helvetica, Arial, sans-serif" font-size="11.00">Layer 5: Entry Point</text>
</g>
<g id="clust7" class="cluster">
<title>cluster_tests</title>
<path fill="none" stroke="#999999" stroke-dasharray="5,2" d="M780,-548.4C780,-548.4 1203,-548.4 1203,-548.4 1209,-548.4 1215,-554.4 1215,-560.4 1215,-560.4 1215,-609.6 1215,-609.6 1215,-615.6 1209,-621.6 1203,-621.6 1203,-621.6 780,-621.6 780,-621.6 774,-621.6 768,-615.6 768,-609.6 768,-609.6 768,-560.4 768,-560.4 768,-554.4 774,-548.4 780,-548.4"/>
<text xml:space="preserve" text-anchor="middle" x="991.5" y="-607.7" font-family="Segoe UI, Helvetica, Arial, sans-serif" font-size="11.00">Test Projects</text>
</g>
<g id="clust8" class="cluster">
<title>cluster_benchmarks</title>
<path fill="none" stroke="#999999" stroke-dasharray="5,2" d="M20,-548.4C20,-548.4 116,-548.4 116,-548.4 122,-548.4 128,-554.4 128,-560.4 128,-560.4 128,-609.6 128,-609.6 128,-615.6 122,-621.6 116,-621.6 116,-621.6 20,-621.6 20,-621.6 14,-621.6 8,-615.6 8,-609.6 8,-609.6 8,-560.4 8,-560.4 8,-554.4 14,-548.4 20,-548.4"/>
<text xml:space="preserve" text-anchor="middle" x="68" y="-607.7" font-family="Segoe UI, Helvetica, Arial, sans-serif" font-size="11.00">Benchmarks</text>
</g>
<!-- Contracts -->
<g id="node1" class="node">
<title>Contracts</title>
<path fill="#e8f5e9" stroke="black" d="M926.6,-52C926.6,-52 845.4,-52 845.4,-52 839.4,-52 833.4,-46 833.4,-40 833.4,-40 833.4,-28 833.4,-28 833.4,-22 839.4,-16 845.4,-16 845.4,-16 926.6,-16 926.6,-16 932.6,-16 938.6,-22 938.6,-28 938.6,-28 938.6,-40 938.6,-40 938.6,-46 932.6,-52 926.6,-52"/>
<text xml:space="preserve" text-anchor="middle" x="886" y="-37" font-family="Segoe UI, Helvetica, Arial, sans-serif" font-size="10.00">Contracts</text>
<text xml:space="preserve" text-anchor="middle" x="886" y="-25" font-family="Segoe UI, Helvetica, Arial, sans-serif" font-size="10.00">(API models, DTOs)</text>
</g>
<!-- FSharp -->
<g id="node2" class="node">
<title>FSharp</title>
<path fill="#e8f5e9" stroke="black" d="M1086.15,-52C1086.15,-52 993.85,-52 993.85,-52 987.85,-52 981.85,-46 981.85,-40 981.85,-40 981.85,-28 981.85,-28 981.85,-22 987.85,-16 993.85,-16 993.85,-16 1086.15,-16 1086.15,-16 1092.15,-16 1098.15,-22 1098.15,-28 1098.15,-28 1098.15,-40 1098.15,-40 1098.15,-46 1092.15,-52 1086.15,-52"/>
<text xml:space="preserve" text-anchor="middle" x="1040" y="-37" font-family="Segoe UI, Helvetica, Arial, sans-serif" font-size="10.00">FSharp</text>
<text xml:space="preserve" text-anchor="middle" x="1040" y="-25" font-family="Segoe UI, Helvetica, Arial, sans-serif" font-size="10.00">(F# domain, validation)</text>
</g>
<!-- ProviderSdk -->
<g id="node3" class="node">
<title>ProviderSdk</title>
<path fill="#e3f2fd" stroke="black" d="M374.38,-52C374.38,-52 239.62,-52 239.62,-52 233.62,-52 227.62,-46 227.62,-40 227.62,-40 227.62,-28 227.62,-28 227.62,-22 233.62,-16 239.62,-16 239.62,-16 374.38,-16 374.38,-16 380.38,-16 386.38,-22 386.38,-28 386.38,-28 386.38,-40 386.38,-40 386.38,-46 380.38,-52 374.38,-52"/>
<text xml:space="preserve" text-anchor="middle" x="307" y="-37" font-family="Segoe UI, Helvetica, Arial, sans-serif" font-size="10.00">ProviderSdk</text>
<text xml:space="preserve" text-anchor="middle" x="307" y="-25" font-family="Segoe UI, Helvetica, Arial, sans-serif" font-size="10.00">(IDataSource, IMarketDataClient)</text>
</g>
<!-- ProviderSdk&#45;&gt;Contracts -->
<g id="edge1" class="edge">
<title>ProviderSdk&#45;&gt;Contracts</title>
<path fill="none" stroke="#666666" d="M386.6,-22C386.6,-22 824.57,-22 824.57,-22"/>
<polygon fill="#666666" stroke="#666666" points="824.57,-24.45 831.57,-22 824.57,-19.55 824.57,-24.45"/>
</g>
<!-- Domain -->
<g id="node4" class="node">
<title>Domain</title>
<path fill="#e3f2fd" stroke="black" d="M328.78,-155.2C328.78,-155.2 221.22,-155.2 221.22,-155.2 215.22,-155.2 209.22,-149.2 209.22,-143.2 209.22,-143.2 209.22,-131.2 209.22,-131.2 209.22,-125.2 215.22,-119.2 221.22,-119.2 221.22,-119.2 328.78,-119.2 328.78,-119.2 334.78,-119.2 340.78,-125.2 340.78,-131.2 340.78,-131.2 340.78,-143.2 340.78,-143.2 340.78,-149.2 334.78,-155.2 328.78,-155.2"/>
<text xml:space="preserve" text-anchor="middle" x="275" y="-140.2" font-family="Segoe UI, Helvetica, Arial, sans-serif" font-size="10.00">Domain</text>
<text xml:space="preserve" text-anchor="middle" x="275" y="-128.2" font-family="Segoe UI, Helvetica, Arial, sans-serif" font-size="10.00">(collectors, events, models)</text>
</g>
<!-- Domain&#45;&gt;Contracts -->
<g id="edge2" class="edge">
<title>Domain&#45;&gt;Contracts</title>
<path fill="none" stroke="#666666" d="M341.07,-125C489.52,-125 836.58,-125 836.58,-125 836.58,-125 836.58,-60.93 836.58,-60.93"/>
<polygon fill="#666666" stroke="#666666" points="839.03,-60.93 836.58,-53.93 834.13,-60.93 839.03,-60.93"/>
</g>
<!-- Domain&#45;&gt;ProviderSdk -->
<g id="edge3" class="edge">
<title>Domain&#45;&gt;ProviderSdk</title>
<path fill="none" stroke="#666666" d="M284.2,-118.75C284.2,-118.75 284.2,-60.8 284.2,-60.8"/>
<polygon fill="#666666" stroke="#666666" points="286.65,-60.8 284.2,-53.8 281.75,-60.8 286.65,-60.8"/>
</g>
<!-- Core -->
<g id="node5" class="node">
<title>Core</title>
<path fill="#e3f2fd" stroke="black" d="M373.62,-282.8C373.62,-282.8 254.38,-282.8 254.38,-282.8 248.38,-282.8 242.38,-276.8 242.38,-270.8 242.38,-270.8 242.38,-258.8 242.38,-258.8 242.38,-252.8 248.38,-246.8 254.38,-246.8 254.38,-246.8 373.62,-246.8 373.62,-246.8 379.62,-246.8 385.62,-252.8 385.62,-258.8 385.62,-258.8 385.62,-270.8 385.62,-270.8 385.62,-276.8 379.62,-282.8 373.62,-282.8"/>
<text xml:space="preserve" text-anchor="middle" x="314" y="-267.8" font-family="Segoe UI, Helvetica, Arial, sans-serif" font-size="10.00">Core</text>
<text xml:space="preserve" text-anchor="middle" x="314" y="-255.8" font-family="Segoe UI, Helvetica, Arial, sans-serif" font-size="10.00">(config, logging, serialization)</text>
</g>
<!-- Core&#45;&gt;Contracts -->
<g id="edge4" class="edge">
<title>Core&#45;&gt;Contracts</title>
<path fill="none" stroke="#666666" d="M355.73,-246.35C355.73,-227.5 355.73,-201 355.73,-201 355.73,-201 839.76,-201 839.76,-201 839.76,-201 839.76,-60.7 839.76,-60.7"/>
<polygon fill="#666666" stroke="#666666" points="842.22,-60.7 839.77,-53.7 837.32,-60.7 842.22,-60.7"/>
</g>
<!-- Core&#45;&gt;ProviderSdk -->
<g id="edge6" class="edge">
<title>Core&#45;&gt;ProviderSdk</title>
<path fill="none" stroke="#666666" d="M370.67,-246.3C370.67,-246.3 370.67,-60.78 370.67,-60.78"/>
<polygon fill="#666666" stroke="#666666" points="373.12,-60.78 370.67,-53.78 368.22,-60.78 373.12,-60.78"/>
</g>
<!-- Core&#45;&gt;Domain -->
<g id="edge5" class="edge">
<title>Core&#45;&gt;Domain</title>
<path fill="none" stroke="#666666" d="M291.58,-246.52C291.58,-246.52 291.58,-163.96 291.58,-163.96"/>
<polygon fill="#666666" stroke="#666666" points="294.03,-163.96 291.58,-156.96 289.13,-163.96 294.03,-163.96"/>
</g>
<!-- Infrastructure -->
<g id="node6" class="node">
<title>Infrastructure</title>
<path fill="#fff3e0" stroke="black" d="M785.67,-282.8C785.67,-282.8 670.33,-282.8 670.33,-282.8 664.33,-282.8 658.33,-276.8 658.33,-270.8 658.33,-270.8 658.33,-258.8 658.33,-258.8 658.33,-252.8 664.33,-246.8 670.33,-246.8 670.33,-246.8 785.67,-246.8 785.67,-246.8 791.67,-246.8 797.67,-252.8 797.67,-258.8 797.67,-258.8 797.67,-270.8 797.67,-270.8 797.67,-276.8 791.67,-282.8 785.67,-282.8"/>
<text xml:space="preserve" text-anchor="middle" x="728" y="-267.8" font-family="Segoe UI, Helvetica, Arial, sans-serif" font-size="10.00">Infrastructure</text>
<text xml:space="preserve" text-anchor="middle" x="728" y="-255.8" font-family="Segoe UI, Helvetica, Arial, sans-serif" font-size="10.00">(providers, resilience, HTTP)</text>
</g>
<!-- Infrastructure&#45;&gt;Contracts -->
<g id="edge9" class="edge">
<title>Infrastructure&#45;&gt;Contracts</title>
<path fill="none" stroke="#666666" d="M797.85,-265C821.92,-265 842.95,-265 842.95,-265 842.95,-265 842.95,-60.64 842.95,-60.64"/>
<polygon fill="#666666" stroke="#666666" points="845.4,-60.64 842.95,-53.64 840.5,-60.64 845.4,-60.64"/>
</g>
<!-- Infrastructure&#45;&gt;ProviderSdk -->
<g id="edge10" class="edge">
<title>Infrastructure&#45;&gt;ProviderSdk</title>
<path fill="none" stroke="#666666" d="M751.22,-246.61C751.22,-191.16 751.22,-28 751.22,-28 751.22,-28 395.19,-28 395.19,-28"/>
<polygon fill="#666666" stroke="#666666" points="395.19,-25.55 388.19,-28 395.19,-30.45 395.19,-25.55"/>
</g>
<!-- Infrastructure&#45;&gt;Domain -->
<g id="edge8" class="edge">
<title>Infrastructure&#45;&gt;Domain</title>
<path fill="none" stroke="#666666" d="M704.78,-246.49C704.78,-211.15 704.78,-137 704.78,-137 704.78,-137 349.72,-137 349.72,-137"/>
<polygon fill="#666666" stroke="#666666" points="349.72,-134.55 342.72,-137 349.72,-139.45 349.72,-134.55"/>
</g>
<!-- Infrastructure&#45;&gt;Core -->
<g id="edge7" class="edge">
<title>Infrastructure&#45;&gt;Core</title>
<path fill="none" stroke="#666666" d="M687.83,-283.02C687.83,-293.65 687.83,-305 687.83,-305 687.83,-305 367.89,-305 367.89,-305 367.89,-305 367.89,-291.53 367.89,-291.53"/>
<polygon fill="#666666" stroke="#666666" points="370.34,-291.53 367.89,-284.53 365.44,-291.53 370.34,-291.53"/>
</g>
<!-- Storage -->
<g id="node7" class="node">
<title>Storage</title>
<path fill="#fff3e0" stroke="black" d="M603.17,-282.8C603.17,-282.8 482.83,-282.8 482.83,-282.8 476.83,-282.8 470.83,-276.8 470.83,-270.8 470.83,-270.8 470.83,-258.8 470.83,-258.8 470.83,-252.8 476.83,-246.8 482.83,-246.8 482.83,-246.8 603.17,-246.8 603.17,-246.8 609.17,-246.8 615.17,-252.8 615.17,-258.8 615.17,-258.8 615.17,-270.8 615.17,-270.8 615.17,-276.8 609.17,-282.8 603.17,-282.8"/>
<text xml:space="preserve" text-anchor="middle" x="543" y="-267.8" font-family="Segoe UI, Helvetica, Arial, sans-serif" font-size="10.00">Storage</text>
<text xml:space="preserve" text-anchor="middle" x="543" y="-255.8" font-family="Segoe UI, Helvetica, Arial, sans-serif" font-size="10.00">(sinks, export, archival, WAL)</text>
</g>
<!-- Storage&#45;&gt;Contracts -->
<g id="edge13" class="edge">
<title>Storage&#45;&gt;Contracts</title>
<path fill="none" stroke="#666666" d="M579.08,-246.4C579.08,-192.71 579.08,-40 579.08,-40 579.08,-40 824.73,-40 824.73,-40"/>
<polygon fill="#666666" stroke="#666666" points="824.73,-42.45 831.73,-40 824.73,-37.55 824.73,-42.45"/>
</g>
<!-- Storage&#45;&gt;ProviderSdk -->
<g id="edge14" class="edge">
<title>Storage&#45;&gt;ProviderSdk</title>
<path fill="none" stroke="#666666" d="M543,-246.3C543,-191.53 543,-34 543,-34 543,-34 395.08,-34 395.08,-34"/>
<polygon fill="#666666" stroke="#666666" points="395.08,-31.55 388.08,-34 395.08,-36.45 395.08,-31.55"/>
</g>
<!-- Storage&#45;&gt;Domain -->
<g id="edge12" class="edge">
<title>Storage&#45;&gt;Domain</title>
<path fill="none" stroke="#666666" d="M506.92,-246.3C506.92,-212.23 506.92,-143 506.92,-143 506.92,-143 349.66,-143 349.66,-143"/>
<polygon fill="#666666" stroke="#666666" points="349.66,-140.55 342.66,-143 349.66,-145.45 349.66,-140.55"/>
</g>
<!-- Storage&#45;&gt;Core -->
<g id="edge11" class="edge">
<title>Storage&#45;&gt;Core</title>
<path fill="none" stroke="#666666" d="M470.54,-259C470.54,-259 394.5,-259 394.5,-259"/>
<polygon fill="#666666" stroke="#666666" points="394.5,-256.55 387.5,-259 394.5,-261.45 394.5,-256.55"/>
</g>
<!-- Application -->
<g id="node8" class="node">
<title>Application</title>
<path fill="#fce4ec" stroke="black" d="M237.73,-386C237.73,-386 116.27,-386 116.27,-386 110.27,-386 104.27,-380 104.27,-374 104.27,-374 104.27,-362 104.27,-362 104.27,-356 110.27,-350 116.27,-350 116.27,-350 237.73,-350 237.73,-350 243.73,-350 249.73,-356 249.73,-362 249.73,-362 249.73,-374 249.73,-374 249.73,-380 243.73,-386 237.73,-386"/>
<text xml:space="preserve" text-anchor="middle" x="177" y="-371" font-family="Segoe UI, Helvetica, Arial, sans-serif" font-size="10.00">Application</text>
<text xml:space="preserve" text-anchor="middle" x="177" y="-359" font-family="Segoe UI, Helvetica, Arial, sans-serif" font-size="10.00">(pipeline, backfill, monitoring)</text>
</g>
<!-- Application&#45;&gt;Contracts -->
<g id="edge19" class="edge">
<title>Application&#45;&gt;Contracts</title>
<path fill="none" stroke="#666666" d="M250.2,-361C423.83,-361 846.13,-361 846.13,-361 846.13,-361 846.13,-60.56 846.13,-60.56"/>
<polygon fill="#666666" stroke="#666666" points="848.58,-60.56 846.13,-53.56 843.68,-60.56 848.58,-60.56"/>
</g>
<!-- Application&#45;&gt;ProviderSdk -->
<g id="edge20" class="edge">
<title>Application&#45;&gt;ProviderSdk</title>
<path fill="none" stroke="#666666" d="M156.74,-349.57C156.74,-279.55 156.74,-34 156.74,-34 156.74,-34 218.96,-34 218.96,-34"/>
<polygon fill="#666666" stroke="#666666" points="218.96,-36.45 225.96,-34 218.96,-31.55 218.96,-36.45"/>
</g>
<!-- Application&#45;&gt;Domain -->
<g id="edge18" class="edge">
<title>Application&#45;&gt;Domain</title>
<path fill="none" stroke="#666666" d="M225.8,-349.5C225.8,-349.5 225.8,-163.98 225.8,-163.98"/>
<polygon fill="#666666" stroke="#666666" points="228.25,-163.98 225.8,-156.98 223.35,-163.98 228.25,-163.98"/>
</g>
<!-- Application&#45;&gt;Core -->
<g id="edge17" class="edge">
<title>Application&#45;&gt;Core</title>
<path fill="none" stroke="#666666" d="M246.06,-349.55C246.06,-349.55 246.06,-291.6 246.06,-291.6"/>
<polygon fill="#666666" stroke="#666666" points="248.51,-291.6 246.06,-284.6 243.61,-291.6 248.51,-291.6"/>
</g>
<!-- Application&#45;&gt;Infrastructure -->
<g id="edge15" class="edge">
<title>Application&#45;&gt;Infrastructure</title>
<path fill="none" stroke="#666666" d="M250.15,-357C397.76,-357 717.32,-357 717.32,-357 717.32,-357 717.32,-291.53 717.32,-291.53"/>
<polygon fill="#666666" stroke="#666666" points="719.77,-291.53 717.32,-284.53 714.87,-291.53 719.77,-291.53"/>
</g>
<!-- Application&#45;&gt;Storage -->
<g id="edge16" class="edge">
<title>Application&#45;&gt;Storage</title>
<path fill="none" stroke="#666666" d="M249.94,-354C350.36,-354 518.94,-354 518.94,-354 518.94,-354 518.94,-291.8 518.94,-291.8"/>
<polygon fill="#666666" stroke="#666666" points="521.39,-291.8 518.94,-284.8 516.49,-291.8 521.39,-291.8"/>
</g>
<!-- UiShared -->
<g id="node9" class="node">
<title>UiShared</title>
<path fill="#f3e5f5" stroke="black" d="M1071.32,-386C1071.32,-386 1000.68,-386 1000.68,-386 994.68,-386 988.68,-380 988.68,-374 988.68,-374 988.68,-362 988.68,-362 988.68,-356 994.68,-350 1000.68,-350 1000.68,-350 1071.32,-350 1071.32,-350 1077.32,-350 1083.32,-356 1083.32,-362 1083.32,-362 1083.32,-374 1083.32,-374 1083.32,-380 1077.32,-386 1071.32,-386"/>
<text xml:space="preserve" text-anchor="middle" x="1036" y="-371" font-family="Segoe UI, Helvetica, Arial, sans-serif" font-size="10.00">Ui.Shared</text>
<text xml:space="preserve" text-anchor="middle" x="1036" y="-359" font-family="Segoe UI, Helvetica, Arial, sans-serif" font-size="10.00">(HTTP endpoints)</text>
</g>
<!-- UiShared&#45;&gt;Contracts -->
<g id="edge22" class="edge">
<title>UiShared&#45;&gt;Contracts</title>
<path fill="none" stroke="#666666" d="M988.29,-364C955.82,-364 918.71,-364 918.71,-364 918.71,-364 918.71,-60.73 918.71,-60.73"/>
<polygon fill="#666666" stroke="#666666" points="921.16,-60.73 918.71,-53.73 916.26,-60.73 921.16,-60.73"/>
</g>
<!-- UiShared&#45;&gt;Application -->
<g id="edge21" class="edge">
<title>UiShared&#45;&gt;Application</title>
<path fill="none" stroke="#666666" d="M988.28,-368C988.28,-368 258.61,-368 258.61,-368"/>
<polygon fill="#666666" stroke="#666666" points="258.61,-365.55 251.61,-368 258.61,-370.45 258.61,-365.55"/>
</g>
<!-- UiServices -->
<g id="node10" class="node">
<title>UiServices</title>
<path fill="#f3e5f5" stroke="black" stroke-dasharray="5,2" d="M1208.04,-386C1208.04,-386 1137.96,-386 1137.96,-386 1131.96,-386 1125.96,-380 1125.96,-374 1125.96,-374 1125.96,-362 1125.96,-362 1125.96,-356 1131.96,-350 1137.96,-350 1137.96,-350 1208.04,-350 1208.04,-350 1214.04,-350 1220.04,-356 1220.04,-362 1220.04,-362 1220.04,-374 1220.04,-374 1220.04,-380 1214.04,-386 1208.04,-386"/>
<text xml:space="preserve" text-anchor="middle" x="1173" y="-371" font-family="Segoe UI, Helvetica, Arial, sans-serif" font-size="10.00">Ui.Services</text>
<text xml:space="preserve" text-anchor="middle" x="1173" y="-359" font-family="Segoe UI, Helvetica, Arial, sans-serif" font-size="10.00">(desktop services)</text>
</g>
<!-- UiServices&#45;&gt;Contracts -->
<g id="edge24" class="edge">
<title>UiServices&#45;&gt;Contracts</title>
<path fill="none" stroke="#666666" stroke-dasharray="5,2" d="M1173,-349.87C1173,-339.29 1173,-328 1173,-328 1173,-328 928.66,-328 928.66,-328 928.66,-328 928.66,-60.9 928.66,-60.9"/>
<polygon fill="#666666" stroke="#666666" points="931.11,-60.9 928.66,-53.9 926.21,-60.9 931.11,-60.9"/>
<text xml:space="preserve" text-anchor="middle" x="1178.27" y="-205.2" font-family="Times,serif" font-size="14.00">source</text>
<text xml:space="preserve" text-anchor="middle" x="1178.27" y="-188.4" font-family="Times,serif" font-size="14.00">link</text>
</g>
<!-- Ui -->
<g id="node11" class="node">
<title>Ui</title>
<path fill="#f3e5f5" stroke="black" d="M1065.26,-489.2C1065.26,-489.2 1000.74,-489.2 1000.74,-489.2 994.74,-489.2 988.74,-483.2 988.74,-477.2 988.74,-477.2 988.74,-465.2 988.74,-465.2 988.74,-459.2 994.74,-453.2 1000.74,-453.2 1000.74,-453.2 1065.26,-453.2 1065.26,-453.2 1071.26,-453.2 1077.26,-459.2 1077.26,-465.2 1077.26,-465.2 1077.26,-477.2 1077.26,-477.2 1077.26,-483.2 1071.26,-489.2 1065.26,-489.2"/>
<text xml:space="preserve" text-anchor="middle" x="1033" y="-474.2" font-family="Segoe UI, Helvetica, Arial, sans-serif" font-size="10.00">Ui</text>
<text xml:space="preserve" text-anchor="middle" x="1033" y="-462.2" font-family="Segoe UI, Helvetica, Arial, sans-serif" font-size="10.00">(web dashboard)</text>
</g>
<!-- Ui&#45;&gt;UiShared -->
<g id="edge23" class="edge">
<title>Ui&#45;&gt;UiShared</title>
<path fill="none" stroke="#666666" d="M1033,-452.75C1033,-452.75 1033,-394.8 1033,-394.8"/>
<polygon fill="#666666" stroke="#666666" points="1035.45,-394.8 1033,-387.8 1030.55,-394.8 1035.45,-394.8"/>
</g>
<!-- Wpf -->
<g id="node12" class="node">
<title>Wpf</title>
<path fill="#f3e5f5" stroke="black" stroke-dasharray="5,2" d="M1207.68,-489.2C1207.68,-489.2 1132.32,-489.2 1132.32,-489.2 1126.32,-489.2 1120.32,-483.2 1120.32,-477.2 1120.32,-477.2 1120.32,-465.2 1120.32,-465.2 1120.32,-459.2 1126.32,-453.2 1132.32,-453.2 1132.32,-453.2 1207.68,-453.2 1207.68,-453.2 1213.68,-453.2 1219.68,-459.2 1219.68,-465.2 1219.68,-465.2 1219.68,-477.2 1219.68,-477.2 1219.68,-483.2 1213.68,-489.2 1207.68,-489.2"/>
<text xml:space="preserve" text-anchor="middle" x="1170" y="-474.2" font-family="Segoe UI, Helvetica, Arial, sans-serif" font-size="10.00">Wpf</text>
<text xml:space="preserve" text-anchor="middle" x="1170" y="-462.2" font-family="Segoe UI, Helvetica, Arial, sans-serif" font-size="10.00">(WPF desktop app)</text>
</g>
<!-- Wpf&#45;&gt;UiServices -->
<g id="edge25" class="edge">
<title>Wpf&#45;&gt;UiServices</title>
<path fill="none" stroke="#666666" stroke-dasharray="5,2" d="M1188.44,-452.75C1188.44,-452.75 1188.44,-394.8 1188.44,-394.8"/>
<polygon fill="#666666" stroke="#666666" points="1190.89,-394.8 1188.44,-387.8 1185.99,-394.8 1190.89,-394.8"/>
</g>
<!-- MainApp -->
<g id="node13" class="node">
<title>MainApp</title>
<path fill="#ffebee" stroke="black" d="M409.28,-489.2C409.28,-489.2 326.72,-489.2 326.72,-489.2 320.72,-489.2 314.72,-483.2 314.72,-477.2 314.72,-477.2 314.72,-465.2 314.72,-465.2 314.72,-459.2 320.72,-453.2 326.72,-453.2 326.72,-453.2 409.28,-453.2 409.28,-453.2 415.28,-453.2 421.28,-459.2 421.28,-465.2 421.28,-465.2 421.28,-477.2 421.28,-477.2 421.28,-483.2 415.28,-489.2 409.28,-489.2"/>
<text xml:space="preserve" text-anchor="middle" x="368" y="-474.2" font-family="Segoe UI, Helvetica, Arial, sans-serif" font-size="10.00">MarketDataCollector</text>
<text xml:space="preserve" text-anchor="middle" x="368" y="-462.2" font-family="Segoe UI, Helvetica, Arial, sans-serif" font-size="10.00">(entry point, CLI)</text>
</g>
<!-- MainApp&#45;&gt;Contracts -->
<g id="edge31" class="edge">
<title>MainApp&#45;&gt;Contracts</title>
<path fill="none" stroke="#666666" d="M421.35,-471C546.66,-471 849.32,-471 849.32,-471 849.32,-471 849.32,-61.01 849.32,-61.01"/>
<polygon fill="#666666" stroke="#666666" points="851.77,-61.01 849.32,-54.01 846.87,-61.01 851.77,-61.01"/>
</g>
<!-- MainApp&#45;&gt;ProviderSdk -->
<g id="edge32" class="edge">
<title>MainApp&#45;&gt;ProviderSdk</title>
<path fill="none" stroke="#666666" d="M400.34,-452.93C400.34,-371.54 400.34,-46 400.34,-46 400.34,-46 395.08,-46 395.08,-46"/>
<polygon fill="#666666" stroke="#666666" points="395.08,-43.55 388.08,-46 395.08,-48.45 395.08,-43.55"/>
</g>
<!-- MainApp&#45;&gt;Domain -->
<g id="edge30" class="edge">
<title>MainApp&#45;&gt;Domain</title>
<path fill="none" stroke="#666666" d="M393.36,-452.95C393.36,-384.79 393.36,-149 393.36,-149 393.36,-149 349.62,-149 349.62,-149"/>
<polygon fill="#666666" stroke="#666666" points="349.62,-146.55 342.62,-149 349.62,-151.45 349.62,-146.55"/>
</g>
<!-- MainApp&#45;&gt;Core -->
<g id="edge29" class="edge">
<title>MainApp&#45;&gt;Core</title>
<path fill="none" stroke="#666666" d="M350.17,-452.88C350.17,-452.88 350.17,-291.59 350.17,-291.59"/>
<polygon fill="#666666" stroke="#666666" points="352.62,-291.59 350.17,-284.59 347.72,-291.59 352.62,-291.59"/>
</g>
<!-- MainApp&#45;&gt;Infrastructure -->
<g id="edge27" class="edge">
<title>MainApp&#45;&gt;Infrastructure</title>
<path fill="none" stroke="#666666" d="M421.47,-462C525.89,-462 746.82,-462 746.82,-462 746.82,-462 746.82,-291.51 746.82,-291.51"/>
<polygon fill="#666666" stroke="#666666" points="749.27,-291.51 746.82,-284.51 744.37,-291.51 749.27,-291.51"/>
</g>
<!-- MainApp&#45;&gt;Storage -->
<g id="edge28" class="edge">
<title>MainApp&#45;&gt;Storage</title>
<path fill="none" stroke="#666666" d="M407.32,-452.72C407.32,-403.16 407.32,-271 407.32,-271 407.32,-271 461.88,-271 461.88,-271"/>
<polygon fill="#666666" stroke="#666666" points="461.88,-273.45 468.88,-271 461.88,-268.55 461.88,-273.45"/>
</g>
<!-- MainApp&#45;&gt;Application -->
<g id="edge26" class="edge">
<title>MainApp&#45;&gt;Application</title>
<path fill="none" stroke="#666666" d="M332.44,-453.11C332.44,-425.24 332.44,-375 332.44,-375 332.44,-375 258.68,-375 258.68,-375"/>
<polygon fill="#666666" stroke="#666666" points="258.68,-372.55 251.68,-375 258.68,-377.45 258.68,-372.55"/>
</g>
<!-- MainApp&#45;&gt;UiShared -->
<g id="edge33" class="edge">
<title>MainApp&#45;&gt;UiShared</title>
<path fill="none" stroke="#666666" d="M414.3,-452.98C414.3,-426.11 414.3,-379 414.3,-379 414.3,-379 979.74,-379 979.74,-379"/>
<polygon fill="#666666" stroke="#666666" points="979.74,-381.45 986.74,-379 979.74,-376.55 979.74,-381.45"/>
</g>
<!-- Tests -->
<g id="node14" class="node">
<title>Tests</title>
<path fill="#eceff1" stroke="black" d="M843.68,-592.4C843.68,-592.4 788.32,-592.4 788.32,-592.4 782.32,-592.4 776.32,-586.4 776.32,-580.4 776.32,-580.4 776.32,-568.4 776.32,-568.4 776.32,-562.4 782.32,-556.4 788.32,-556.4 788.32,-556.4 843.68,-556.4 843.68,-556.4 849.68,-556.4 855.68,-562.4 855.68,-568.4 855.68,-568.4 855.68,-580.4 855.68,-580.4 855.68,-586.4 849.68,-592.4 843.68,-592.4"/>
<text xml:space="preserve" text-anchor="middle" x="816" y="-577.4" font-family="Segoe UI, Helvetica, Arial, sans-serif" font-size="10.00">Tests</text>
<text xml:space="preserve" text-anchor="middle" x="816" y="-565.4" font-family="Segoe UI, Helvetica, Arial, sans-serif" font-size="10.00">(140 test files)</text>
</g>
<!-- Tests&#45;&gt;Domain -->
<g id="edge39" class="edge">
<title>Tests&#45;&gt;Domain</title>
<path fill="none" stroke="#999999" stroke-dasharray="1,5" d="M815.53,-555.91C815.53,-472 815.53,-131 815.53,-131 815.53,-131 349.79,-131 349.79,-131"/>
<polygon fill="#999999" stroke="#999999" points="349.79,-128.55 342.79,-131 349.79,-133.45 349.79,-128.55"/>
</g>
<!-- Tests&#45;&gt;Core -->
<g id="edge38" class="edge">
<title>Tests&#45;&gt;Core</title>
<path fill="none" stroke="#999999" stroke-dasharray="1,5" d="M775.83,-583C653.38,-583 293.05,-583 293.05,-583 293.05,-583 293.05,-291.8 293.05,-291.8"/>
<polygon fill="#999999" stroke="#999999" points="295.5,-291.8 293.05,-284.8 290.6,-291.8 295.5,-291.8"/>
</g>
<!-- Tests&#45;&gt;Infrastructure -->
<g id="edge36" class="edge">
<title>Tests&#45;&gt;Infrastructure</title>
<path fill="none" stroke="#999999" stroke-dasharray="1,5" d="M792.33,-555.96C792.33,-555.96 792.33,-291.66 792.33,-291.66"/>
<polygon fill="#999999" stroke="#999999" points="794.78,-291.66 792.33,-284.66 789.88,-291.66 794.78,-291.66"/>
</g>
<!-- Tests&#45;&gt;Storage -->
<g id="edge37" class="edge">
<title>Tests&#45;&gt;Storage</title>
<path fill="none" stroke="#999999" stroke-dasharray="1,5" d="M776,-574C705.63,-574 567.06,-574 567.06,-574 567.06,-574 567.06,-291.73 567.06,-291.73"/>
<polygon fill="#999999" stroke="#999999" points="569.51,-291.73 567.06,-284.73 564.61,-291.73 569.51,-291.73"/>
</g>
<!-- Tests&#45;&gt;Application -->
<g id="edge35" class="edge">
<title>Tests&#45;&gt;Application</title>
<path fill="none" stroke="#999999" stroke-dasharray="1,5" d="M786.99,-556.08C786.99,-506.26 786.99,-372 786.99,-372 786.99,-372 258.49,-372 258.49,-372"/>
<polygon fill="#999999" stroke="#999999" points="258.49,-369.55 251.49,-372 258.49,-374.45 258.49,-369.55"/>
</g>
<!-- Tests&#45;&gt;UiShared -->
<g id="edge40" class="edge">
<title>Tests&#45;&gt;UiShared</title>
<path fill="none" stroke="#999999" stroke-dasharray="1,5" d="M852.5,-555.95C852.5,-507.8 852.5,-382 852.5,-382 852.5,-382 979.75,-382 979.75,-382"/>
<polygon fill="#999999" stroke="#999999" points="979.75,-384.45 986.75,-382 979.75,-379.55 979.75,-384.45"/>
</g>
<!-- Tests&#45;&gt;MainApp -->
<g id="edge34" class="edge">
<title>Tests&#45;&gt;MainApp</title>
<path fill="none" stroke="#999999" stroke-dasharray="1,5" d="M781.66,-556.2C781.66,-528.77 781.66,-480 781.66,-480 781.66,-480 430.17,-480 430.17,-480"/>
<polygon fill="#999999" stroke="#999999" points="430.17,-477.55 423.17,-480 430.17,-482.45 430.17,-477.55"/>
</g>
<!-- FSharpTests -->
<g id="node15" class="node">
<title>FSharpTests</title>
<path fill="#eceff1" stroke="black" d="M1195.05,-592.4C1195.05,-592.4 1144.95,-592.4 1144.95,-592.4 1138.95,-592.4 1132.95,-586.4 1132.95,-580.4 1132.95,-580.4 1132.95,-568.4 1132.95,-568.4 1132.95,-562.4 1138.95,-556.4 1144.95,-556.4 1144.95,-556.4 1195.05,-556.4 1195.05,-556.4 1201.05,-556.4 1207.05,-562.4 1207.05,-568.4 1207.05,-568.4 1207.05,-580.4 1207.05,-580.4 1207.05,-586.4 1201.05,-592.4 1195.05,-592.4"/>
<text xml:space="preserve" text-anchor="middle" x="1170" y="-577.4" font-family="Segoe UI, Helvetica, Arial, sans-serif" font-size="10.00">FSharp.Tests</text>
<text xml:space="preserve" text-anchor="middle" x="1170" y="-565.4" font-family="Segoe UI, Helvetica, Arial, sans-serif" font-size="10.00">(4 test files)</text>
</g>
<!-- FSharpTests&#45;&gt;FSharp -->
<g id="edge41" class="edge">
<title>FSharpTests&#45;&gt;FSharp</title>
<path fill="none" stroke="#999999" stroke-dasharray="1,5" d="M1132.78,-568C1113.04,-568 1092.84,-568 1092.84,-568 1092.84,-568 1092.84,-60.9 1092.84,-60.9"/>
<polygon fill="#999999" stroke="#999999" points="1095.29,-60.9 1092.84,-53.9 1090.39,-60.9 1095.29,-60.9"/>
</g>
<!-- WpfTests -->
<g id="node16" class="node">
<title>WpfTests</title>
<path fill="#eceff1" stroke="black" stroke-dasharray="5,2" d="M961.18,-592.4C961.18,-592.4 910.82,-592.4 910.82,-592.4 904.82,-592.4 898.82,-586.4 898.82,-580.4 898.82,-580.4 898.82,-568.4 898.82,-568.4 898.82,-562.4 904.82,-556.4 910.82,-556.4 910.82,-556.4 961.18,-556.4 961.18,-556.4 967.18,-556.4 973.18,-562.4 973.18,-568.4 973.18,-568.4 973.18,-580.4 973.18,-580.4 973.18,-586.4 967.18,-592.4 961.18,-592.4"/>
<text xml:space="preserve" text-anchor="middle" x="936" y="-577.4" font-family="Segoe UI, Helvetica, Arial, sans-serif" font-size="10.00">Wpf.Tests</text>
<text xml:space="preserve" text-anchor="middle" x="936" y="-565.4" font-family="Segoe UI, Helvetica, Arial, sans-serif" font-size="10.00">(19 test files)</text>
</g>
<!-- WpfTests&#45;&gt;Contracts -->
<g id="edge44" class="edge">
<title>WpfTests&#45;&gt;Contracts</title>
<path fill="none" stroke="#999999" stroke-dasharray="1,5" d="M908.76,-556.11C908.76,-556.11 908.76,-60.8 908.76,-60.8"/>
<polygon fill="#999999" stroke="#999999" points="911.21,-60.8 908.76,-53.8 906.31,-60.8 911.21,-60.8"/>
</g>
<!-- WpfTests&#45;&gt;UiServices -->
<g id="edge43" class="edge">
<title>WpfTests&#45;&gt;UiServices</title>
<path fill="none" stroke="#999999" stroke-dasharray="1,5" d="M950.13,-556.08C950.13,-515.18 950.13,-420 950.13,-420 950.13,-420 1157.2,-420 1157.2,-420 1157.2,-420 1157.2,-394.99 1157.2,-394.99"/>
<polygon fill="#999999" stroke="#999999" points="1159.65,-394.99 1157.2,-387.99 1154.75,-394.99 1159.65,-394.99"/>
</g>
<!-- WpfTests&#45;&gt;Wpf -->
<g id="edge42" class="edge">
<title>WpfTests&#45;&gt;Wpf</title>
<path fill="none" stroke="#999999" stroke-dasharray="1,5" d="M961.66,-556.13C961.66,-541.36 961.66,-523 961.66,-523 961.66,-523 1126.63,-523 1126.63,-523 1126.63,-523 1126.63,-498.12 1126.63,-498.12"/>
<polygon fill="#999999" stroke="#999999" points="1129.08,-498.12 1126.63,-491.12 1124.18,-498.12 1129.08,-498.12"/>
</g>
<!-- UiTests -->
<g id="node17" class="node">
<title>UiTests</title>
<path fill="#eceff1" stroke="black" stroke-dasharray="5,2" d="M1078.18,-592.4C1078.18,-592.4 1027.82,-592.4 1027.82,-592.4 1021.82,-592.4 1015.82,-586.4 1015.82,-580.4 1015.82,-580.4 1015.82,-568.4 1015.82,-568.4 1015.82,-562.4 1021.82,-556.4 1027.82,-556.4 1027.82,-556.4 1078.18,-556.4 1078.18,-556.4 1084.18,-556.4 1090.18,-562.4 1090.18,-568.4 1090.18,-568.4 1090.18,-580.4 1090.18,-580.4 1090.18,-586.4 1084.18,-592.4 1078.18,-592.4"/>
<text xml:space="preserve" text-anchor="middle" x="1053" y="-577.4" font-family="Segoe UI, Helvetica, Arial, sans-serif" font-size="10.00">Ui.Tests</text>
<text xml:space="preserve" text-anchor="middle" x="1053" y="-565.4" font-family="Segoe UI, Helvetica, Arial, sans-serif" font-size="10.00">(50 test files)</text>
</g>
<!-- UiTests&#45;&gt;UiServices -->
<g id="edge45" class="edge">
<title>UiTests&#45;&gt;UiServices</title>
<path fill="none" stroke="#999999" stroke-dasharray="1,5" d="M1090.62,-580C1093.61,-580 1095.5,-580 1095.5,-580 1095.5,-580 1095.5,-368 1095.5,-368 1095.5,-368 1117.17,-368 1117.17,-368"/>
<polygon fill="#999999" stroke="#999999" points="1117.17,-370.45 1124.17,-368 1117.17,-365.55 1117.17,-370.45"/>
</g>
<!-- Benchmarks -->
<g id="node18" class="node">
<title>Benchmarks</title>
<path fill="#eceff1" stroke="black" d="M107.9,-592.4C107.9,-592.4 28.1,-592.4 28.1,-592.4 22.1,-592.4 16.1,-586.4 16.1,-580.4 16.1,-580.4 16.1,-568.4 16.1,-568.4 16.1,-562.4 22.1,-556.4 28.1,-556.4 28.1,-556.4 107.9,-556.4 107.9,-556.4 113.9,-556.4 119.9,-562.4 119.9,-568.4 119.9,-568.4 119.9,-580.4 119.9,-580.4 119.9,-586.4 113.9,-592.4 107.9,-592.4"/>
<text xml:space="preserve" text-anchor="middle" x="68" y="-577.4" font-family="Segoe UI, Helvetica, Arial, sans-serif" font-size="10.00">Benchmarks</text>
<text xml:space="preserve" text-anchor="middle" x="68" y="-565.4" font-family="Segoe UI, Helvetica, Arial, sans-serif" font-size="10.00">(BenchmarkDotNet)</text>
</g>
<!-- Benchmarks&#45;&gt;Domain -->
<g id="edge49" class="edge">
<title>Benchmarks&#45;&gt;Domain</title>
<path fill="none" stroke="#999999" stroke-dasharray="1,5" d="M60.19,-556.16C60.19,-473.38 60.19,-137 60.19,-137 60.19,-137 200.28,-137 200.28,-137"/>
<polygon fill="#999999" stroke="#999999" points="200.28,-139.45 207.28,-137 200.28,-134.55 200.28,-139.45"/>
</g>
<!-- Benchmarks&#45;&gt;Core -->
<g id="edge48" class="edge">
<title>Benchmarks&#45;&gt;Core</title>
<path fill="none" stroke="#999999" stroke-dasharray="1,5" d="M120.38,-565C180.64,-565 271.39,-565 271.39,-565 271.39,-565 271.39,-291.64 271.39,-291.64"/>
<polygon fill="#999999" stroke="#999999" points="273.84,-291.64 271.39,-284.64 268.94,-291.64 273.84,-291.64"/>
</g>
<!-- Benchmarks&#45;&gt;Application -->
<g id="edge47" class="edge">
<title>Benchmarks&#45;&gt;Application</title>
<path fill="none" stroke="#999999" stroke-dasharray="1,5" d="M109.48,-556.08C109.48,-556.08 109.48,-394.79 109.48,-394.79"/>
<polygon fill="#999999" stroke="#999999" points="111.93,-394.79 109.48,-387.79 107.03,-394.79 111.93,-394.79"/>
</g>
<!-- Benchmarks&#45;&gt;MainApp -->
<g id="edge46" class="edge">
<title>Benchmarks&#45;&gt;MainApp</title>
<path fill="none" stroke="#999999" stroke-dasharray="1,5" d="M114.69,-555.91C114.69,-526.17 114.69,-471 114.69,-471 114.69,-471 305.77,-471 305.77,-471"/>
<polygon fill="#999999" stroke="#999999" points="305.77,-473.45 312.77,-471 305.77,-468.55 305.77,-473.45"/>
</g>
</g>
</svg>
