<?xml version="1.0" encoding="UTF-8" standalone="no"?>
<!DOCTYPE svg PUBLIC "-//W3C//DTD SVG 1.1//EN"
 "http://www.w3.org/Graphics/SVG/1.1/DTD/svg11.dtd">
<!-- Generated by graphviz version 2.43.0 (0)
 -->
<!-- Title: ProviderArchitecture Pages: 1 -->
<svg width="2458pt" height="1056pt"
 viewBox="0.00 0.00 2458.45 1056.02" xmlns="http://www.w3.org/2000/svg" xmlns:xlink="http://www.w3.org/1999/xlink">
<g id="graph0" class="graph" transform="scale(1 1) rotate(0) translate(36 1020.02)">
<title>ProviderArchitecture</title>
<polygon fill="white" stroke="transparent" points="-36,36 -36,-1020.02 2422.45,-1020.02 2422.45,36 -36,36"/>
<text text-anchor="middle" x="1193.22" y="-970.42" font-family="Helvetica,sans-Serif" font-size="12.00">Market Data Collector &#45; Provider Architecture</text>
<text text-anchor="middle" x="1193.22" y="-957.42" font-family="Helvetica,sans-Serif" font-size="12.00">Unified Data Source Abstraction | v1.6.1</text>
<g id="clust1" class="cluster">
<title>cluster_interfaces</title>
<path fill="#faf5ff" stroke="#805ad5" d="M65.45,-154C65.45,-154 601.45,-154 601.45,-154 607.45,-154 613.45,-160 613.45,-166 613.45,-166 613.45,-810.02 613.45,-810.02 613.45,-816.02 607.45,-822.02 601.45,-822.02 601.45,-822.02 65.45,-822.02 65.45,-822.02 59.45,-822.02 53.45,-816.02 53.45,-810.02 53.45,-810.02 53.45,-166 53.45,-166 53.45,-160 59.45,-154 65.45,-154"/>
<text text-anchor="middle" x="333.45" y="-808.42" font-family="Helvetica,sans-Serif" font-size="12.00">Provider Abstractions (Infrastructure/DataSources/)</text>
</g>
<g id="clust2" class="cluster">
<title>cluster_core_interfaces</title>
<polygon fill="#faf5ff" stroke="#6b21a8" stroke-dasharray="5,2" points="61.45,-162 61.45,-448.26 455.45,-448.26 455.45,-162 61.45,-162"/>
<text text-anchor="middle" x="258.45" y="-434.66" font-family="Helvetica,sans-Serif" font-size="12.00">Core Interfaces</text>
</g>
<g id="clust3" class="cluster">
<title>cluster_legacy_interfaces</title>
<polygon fill="#faf5ff" stroke="#6b21a8" stroke-dasharray="5,2" points="205.45,-665.51 205.45,-793.02 605.45,-793.02 605.45,-665.51 205.45,-665.51"/>
<text text-anchor="middle" x="405.45" y="-779.42" font-family="Helvetica,sans-Serif" font-size="12.00">Legacy Interfaces (Compatibility)</text>
</g>
<g id="clust4" class="cluster">
<title>cluster_streaming</title>
<path fill="#dbeafe" stroke="#2b6cb0" d="M695.45,-486.51C695.45,-486.51 1459.45,-486.51 1459.45,-486.51 1465.45,-486.51 1471.45,-492.51 1471.45,-498.51 1471.45,-498.51 1471.45,-634.51 1471.45,-634.51 1471.45,-640.51 1465.45,-646.51 1459.45,-646.51 1459.45,-646.51 695.45,-646.51 695.45,-646.51 689.45,-646.51 683.45,-640.51 683.45,-634.51 683.45,-634.51 683.45,-498.51 683.45,-498.51 683.45,-492.51 689.45,-486.51 695.45,-486.51"/>
<text text-anchor="middle" x="1077.45" y="-632.91" font-family="Helvetica,sans-Serif" font-size="12.00">Real&#45;Time Streaming Providers (5 Production)</text>
</g>
<g id="clust5" class="cluster">
<title>cluster_production_streaming</title>
<polygon fill="#dbeafe" stroke="#1e40af" stroke-dasharray="5,2" points="861.45,-494.51 861.45,-617.51 1463.45,-617.51 1463.45,-494.51 861.45,-494.51"/>
<text text-anchor="middle" x="1162.45" y="-603.91" font-family="Helvetica,sans-Serif" font-size="12.00">Implemented</text>
</g>
<g id="clust6" class="cluster">
<title>cluster_polygon_streaming</title>
<polygon fill="#dbeafe" stroke="#1e40af" stroke-dasharray="5,2" points="691.45,-505.51 691.45,-606.51 853.45,-606.51 853.45,-505.51 691.45,-505.51"/>
<text text-anchor="middle" x="772.45" y="-592.91" font-family="Helvetica,sans-Serif" font-size="12.00">Additional Providers</text>
</g>
<g id="clust7" class="cluster">
<title>cluster_historical</title>
<path fill="#d1fae5" stroke="#2c7a7b" d="M633.45,-8C633.45,-8 1670.45,-8 1670.45,-8 1676.45,-8 1682.45,-14 1682.45,-20 1682.45,-20 1682.45,-280.75 1682.45,-280.75 1682.45,-286.75 1676.45,-292.75 1670.45,-292.75 1670.45,-292.75 633.45,-292.75 633.45,-292.75 627.45,-292.75 621.45,-286.75 621.45,-280.75 621.45,-280.75 621.45,-20 621.45,-20 621.45,-14 627.45,-8 633.45,-8"/>
<text text-anchor="middle" x="1151.95" y="-279.15" font-family="Helvetica,sans-Serif" font-size="12.00">Historical Data Providers (8 Implemented)</text>
</g>
<g id="clust8" class="cluster">
<title>cluster_hist_tier1</title>
<polygon fill="#d1fae5" stroke="#047857" stroke-dasharray="5,2" points="629.45,-16 629.45,-128 804.45,-128 804.45,-16 629.45,-16"/>
<text text-anchor="middle" x="716.95" y="-114.4" font-family="Helvetica,sans-Serif" font-size="12.00">Tier 1 &#45; Primary (Priority 5)</text>
</g>
<g id="clust9" class="cluster">
<title>cluster_hist_tier2</title>
<polygon fill="#d1fae5" stroke="#047857" stroke-dasharray="5,2" points="812.45,-16 812.45,-128 1170.45,-128 1170.45,-16 812.45,-16"/>
<text text-anchor="middle" x="991.45" y="-114.4" font-family="Helvetica,sans-Serif" font-size="12.00">Tier 2 &#45; Secondary (Priority 10&#45;20)</text>
</g>
<g id="clust10" class="cluster">
<title>cluster_hist_tier3</title>
<polygon fill="#d1fae5" stroke="#047857" stroke-dasharray="5,2" points="1178.45,-21.5 1178.45,-122.5 1674.45,-122.5 1674.45,-21.5 1178.45,-21.5"/>
<text text-anchor="middle" x="1426.45" y="-108.9" font-family="Helvetica,sans-Serif" font-size="12.00">Tier 3 &#45; Fallback (Priority 30+)</text>
</g>
<g id="clust11" class="cluster">
<title>cluster_resilience</title>
<path fill="#fee2e2" stroke="#c53030" d="M841.45,-320.51C841.45,-320.51 1463.45,-320.51 1463.45,-320.51 1469.45,-320.51 1475.45,-326.51 1475.45,-332.51 1475.45,-332.51 1475.45,-457.51 1475.45,-457.51 1475.45,-463.51 1469.45,-469.51 1463.45,-469.51 1463.45,-469.51 841.45,-469.51 841.45,-469.51 835.45,-469.51 829.45,-463.51 829.45,-457.51 829.45,-457.51 829.45,-332.51 829.45,-332.51 829.45,-326.51 835.45,-320.51 841.45,-320.51"/>
<text text-anchor="middle" x="1152.45" y="-455.91" font-family="Helvetica,sans-Serif" font-size="12.00">Resilience &amp; Connection Management</text>
</g>
<g id="clust12" class="cluster">
<title>cluster_connection</title>
<polygon fill="#fee2e2" stroke="#991b1b" stroke-dasharray="5,2" points="1113.45,-328.51 1113.45,-440.51 1467.45,-440.51 1467.45,-328.51 1113.45,-328.51"/>
<text text-anchor="middle" x="1290.45" y="-426.91" font-family="Helvetica,sans-Serif" font-size="12.00">Connection Management</text>
</g>
<g id="clust13" class="cluster">
<title>cluster_failover</title>
<polygon fill="#fee2e2" stroke="#991b1b" stroke-dasharray="5,2" points="837.45,-334.01 837.45,-435.01 1105.45,-435.01 1105.45,-334.01 837.45,-334.01"/>
<text text-anchor="middle" x="971.45" y="-421.41" font-family="Helvetica,sans-Serif" font-size="12.00">Failover &amp; Load Balancing</text>
</g>
<g id="clust14" class="cluster">
<title>cluster_symbols</title>
<path fill="#c6f6d5" stroke="#38a169" d="M1373.45,-678.76C1373.45,-678.76 1678.45,-678.76 1678.45,-678.76 1684.45,-678.76 1690.45,-684.76 1690.45,-690.76 1690.45,-690.76 1690.45,-930.02 1690.45,-930.02 1690.45,-936.02 1684.45,-942.02 1678.45,-942.02 1678.45,-942.02 1373.45,-942.02 1373.45,-942.02 1367.45,-942.02 1361.45,-936.02 1361.45,-930.02 1361.45,-930.02 1361.45,-690.76 1361.45,-690.76 1361.45,-684.76 1367.45,-678.76 1373.45,-678.76"/>
<text text-anchor="middle" x="1525.95" y="-928.42" font-family="Helvetica,sans-Serif" font-size="12.00">Symbol Resolution &amp; Mapping</text>
</g>
<g id="clust15" class="cluster">
<title>cluster_legend</title>
<path fill="#fafafa" stroke="#666666" d="M1710.45,-855.02C1710.45,-855.02 2366.45,-855.02 2366.45,-855.02 2372.45,-855.02 2378.45,-861.02 2378.45,-867.02 2378.45,-867.02 2378.45,-916.02 2378.45,-916.02 2378.45,-922.02 2372.45,-928.02 2366.45,-928.02 2366.45,-928.02 1710.45,-928.02 1710.45,-928.02 1704.45,-928.02 1698.45,-922.02 1698.45,-916.02 1698.45,-916.02 1698.45,-867.02 1698.45,-867.02 1698.45,-861.02 1704.45,-855.02 1710.45,-855.02"/>
<text text-anchor="middle" x="2038.45" y="-914.42" font-family="Helvetica,sans-Serif" font-size="12.00">Legend</text>
</g>
<!-- I_DATASOURCE -->
<g id="node1" class="node">
<title>I_DATASOURCE</title>
<ellipse fill="#ddd6fe" stroke="black" cx="173.45" cy="-374.01" rx="103.89" ry="45.01"/>
<text text-anchor="middle" x="173.45" y="-394.01" font-family="Helvetica,sans-Serif" font-size="10.00">IDataSource</text>
<text text-anchor="middle" x="173.45" y="-383.01" font-family="Helvetica,sans-Serif" font-size="10.00">[Base Interface]</text>
<text text-anchor="middle" x="173.45" y="-360.01" font-family="Helvetica,sans-Serif" font-size="10.00">Common provider contract</text>
<text text-anchor="middle" x="173.45" y="-349.01" font-family="Helvetica,sans-Serif" font-size="10.00">Capabilities discovery</text>
</g>
<!-- I_REALTIME -->
<g id="node2" class="node">
<title>I_REALTIME</title>
<ellipse fill="#ddd6fe" stroke="black" cx="160.45" cy="-215.25" rx="91.43" ry="45.01"/>
<text text-anchor="middle" x="160.45" y="-235.25" font-family="Helvetica,sans-Serif" font-size="10.00">IRealtimeDataSource</text>
<text text-anchor="middle" x="160.45" y="-224.25" font-family="Helvetica,sans-Serif" font-size="10.00">[Interface]</text>
<text text-anchor="middle" x="160.45" y="-201.25" font-family="Helvetica,sans-Serif" font-size="10.00">Trades, Quotes, Depth</text>
<text text-anchor="middle" x="160.45" y="-190.25" font-family="Helvetica,sans-Serif" font-size="10.00">Streaming subscription</text>
</g>
<!-- I_DATASOURCE&#45;&gt;I_REALTIME -->
<g id="edge1" class="edge">
<title>I_DATASOURCE&#45;&gt;I_REALTIME</title>
<path fill="none" stroke="#4a5568" stroke-dasharray="5,2" d="M169.76,-328.51C168.26,-310.48 166.52,-289.49 164.95,-270.57"/>
<polygon fill="#4a5568" stroke="#4a5568" points="168.44,-270.27 164.13,-260.59 161.46,-270.85 168.44,-270.27"/>
<text text-anchor="middle" x="186.95" y="-303.55" font-family="Helvetica,sans-Serif" font-size="9.00">extends</text>
</g>
<!-- I_HISTORICAL -->
<g id="node3" class="node">
<title>I_HISTORICAL</title>
<ellipse fill="#ddd6fe" stroke="black" cx="358.45" cy="-215.25" rx="89.19" ry="45.01"/>
<text text-anchor="middle" x="358.45" y="-235.25" font-family="Helvetica,sans-Serif" font-size="10.00">IHistoricalDataSource</text>
<text text-anchor="middle" x="358.45" y="-224.25" font-family="Helvetica,sans-Serif" font-size="10.00">[Interface]</text>
<text text-anchor="middle" x="358.45" y="-201.25" font-family="Helvetica,sans-Serif" font-size="10.00">Bars, Dividends, Splits</text>
<text text-anchor="middle" x="358.45" y="-190.25" font-family="Helvetica,sans-Serif" font-size="10.00">Date range queries</text>
</g>
<!-- I_DATASOURCE&#45;&gt;I_HISTORICAL -->
<g id="edge2" class="edge">
<title>I_DATASOURCE&#45;&gt;I_HISTORICAL</title>
<path fill="none" stroke="#4a5568" stroke-dasharray="5,2" d="M220.13,-333.45C246.14,-311.41 278.62,-283.89 305.57,-261.06"/>
<polygon fill="#4a5568" stroke="#4a5568" points="308.01,-263.58 313.38,-254.44 303.49,-258.24 308.01,-263.58"/>
<text text-anchor="middle" x="273.95" y="-303.55" font-family="Helvetica,sans-Serif" font-size="9.00">extends</text>
</g>
<!-- I_MARKET -->
<g id="node4" class="node">
<title>I_MARKET</title>
<ellipse fill="#e9d5ff" stroke="black" cx="519.45" cy="-718.76" rx="77.56" ry="45.01"/>
<text text-anchor="middle" x="519.45" y="-738.76" font-family="Helvetica,sans-Serif" font-size="10.00">IMarketDataClient</text>
<text text-anchor="middle" x="519.45" y="-727.76" font-family="Helvetica,sans-Serif" font-size="10.00">[Interface]</text>
<text text-anchor="middle" x="519.45" y="-704.76" font-family="Helvetica,sans-Serif" font-size="10.00">Connect, Subscribe</text>
<text text-anchor="middle" x="519.45" y="-693.76" font-family="Helvetica,sans-Serif" font-size="10.00">GetEventsAsync</text>
</g>
<!-- IB_CLIENT -->
<g id="node8" class="node">
<title>IB_CLIENT</title>
<path fill="#bfdbfe" stroke="black" d="M1443.45,-588.51C1443.45,-588.51 1329.45,-588.51 1329.45,-588.51 1323.45,-588.51 1317.45,-582.51 1317.45,-576.51 1317.45,-576.51 1317.45,-514.51 1317.45,-514.51 1317.45,-508.51 1323.45,-502.51 1329.45,-502.51 1329.45,-502.51 1443.45,-502.51 1443.45,-502.51 1449.45,-502.51 1455.45,-508.51 1455.45,-514.51 1455.45,-514.51 1455.45,-576.51 1455.45,-576.51 1455.45,-582.51 1449.45,-588.51 1443.45,-588.51"/>
<text text-anchor="middle" x="1386.45" y="-576.51" font-family="Helvetica,sans-Serif" font-size="10.00">IBMarketDataClient</text>
<text text-anchor="middle" x="1386.45" y="-565.51" font-family="Helvetica,sans-Serif" font-size="10.00">[Production]</text>
<text text-anchor="middle" x="1386.45" y="-542.51" font-family="Helvetica,sans-Serif" font-size="10.00">IB TWS/Gateway API</text>
<text text-anchor="middle" x="1386.45" y="-531.51" font-family="Helvetica,sans-Serif" font-size="10.00">Trades, Quotes, L2 Depth</text>
<text text-anchor="middle" x="1386.45" y="-520.51" font-family="Helvetica,sans-Serif" font-size="10.00">Market Scanner, News</text>
<text text-anchor="middle" x="1386.45" y="-509.51" font-family="Helvetica,sans-Serif" font-size="10.00">Free equity data support</text>
</g>
<!-- I_MARKET&#45;&gt;IB_CLIENT -->
<g id="edge3" class="edge">
<title>I_MARKET&#45;&gt;IB_CLIENT</title>
<path fill="none" stroke="#4a5568" stroke-dasharray="5,2" d="M596.53,-712.47C788.98,-699.01 1277.47,-663.4 1308.45,-646.51 1329.15,-635.22 1346.18,-615.88 1358.99,-597.19"/>
<polygon fill="#4a5568" stroke="#4a5568" points="1362.02,-598.96 1364.58,-588.68 1356.16,-595.12 1362.02,-598.96"/>
</g>
<!-- ALP_CLIENT -->
<g id="node9" class="node">
<title>ALP_CLIENT</title>
<path fill="#bfdbfe" stroke="black" d="M1286.95,-583.01C1286.95,-583.01 1175.95,-583.01 1175.95,-583.01 1169.95,-583.01 1163.95,-577.01 1163.95,-571.01 1163.95,-571.01 1163.95,-520.01 1163.95,-520.01 1163.95,-514.01 1169.95,-508.01 1175.95,-508.01 1175.95,-508.01 1286.95,-508.01 1286.95,-508.01 1292.95,-508.01 1298.95,-514.01 1298.95,-520.01 1298.95,-520.01 1298.95,-571.01 1298.95,-571.01 1298.95,-577.01 1292.95,-583.01 1286.95,-583.01"/>
<text text-anchor="middle" x="1231.45" y="-571.01" font-family="Helvetica,sans-Serif" font-size="10.00">AlpacaMarketDataClient</text>
<text text-anchor="middle" x="1231.45" y="-560.01" font-family="Helvetica,sans-Serif" font-size="10.00">[Production]</text>
<text text-anchor="middle" x="1231.45" y="-537.01" font-family="Helvetica,sans-Serif" font-size="10.00">WebSocket streaming</text>
<text text-anchor="middle" x="1231.45" y="-526.01" font-family="Helvetica,sans-Serif" font-size="10.00">IEX/SIP feeds</text>
<text text-anchor="middle" x="1231.45" y="-515.01" font-family="Helvetica,sans-Serif" font-size="10.00">Trades + Quotes</text>
</g>
<!-- I_MARKET&#45;&gt;ALP_CLIENT -->
<g id="edge4" class="edge">
<title>I_MARKET&#45;&gt;ALP_CLIENT</title>
<path fill="none" stroke="#4a5568" stroke-dasharray="5,2" d="M597.37,-716.6C745.62,-713.16 1061.84,-699.64 1155.45,-646.51 1177.59,-633.95 1195.34,-612.05 1208.1,-591.94"/>
<polygon fill="#4a5568" stroke="#4a5568" points="1211.23,-593.53 1213.43,-583.17 1205.25,-589.89 1211.23,-593.53"/>
</g>
<!-- NYSE_CLIENT -->
<g id="node10" class="node">
<title>NYSE_CLIENT</title>
<path fill="#bfdbfe" stroke="black" d="M982.95,-583.01C982.95,-583.01 881.95,-583.01 881.95,-583.01 875.95,-583.01 869.95,-577.01 869.95,-571.01 869.95,-571.01 869.95,-520.01 869.95,-520.01 869.95,-514.01 875.95,-508.01 881.95,-508.01 881.95,-508.01 982.95,-508.01 982.95,-508.01 988.95,-508.01 994.95,-514.01 994.95,-520.01 994.95,-520.01 994.95,-571.01 994.95,-571.01 994.95,-577.01 988.95,-583.01 982.95,-583.01"/>
<text text-anchor="middle" x="932.45" y="-571.01" font-family="Helvetica,sans-Serif" font-size="10.00">NYSEDataSource</text>
<text text-anchor="middle" x="932.45" y="-560.01" font-family="Helvetica,sans-Serif" font-size="10.00">[Production]</text>
<text text-anchor="middle" x="932.45" y="-537.01" font-family="Helvetica,sans-Serif" font-size="10.00">Exchange&#45;direct feed</text>
<text text-anchor="middle" x="932.45" y="-526.01" font-family="Helvetica,sans-Serif" font-size="10.00">US Equities</text>
<text text-anchor="middle" x="932.45" y="-515.01" font-family="Helvetica,sans-Serif" font-size="10.00">Real&#45;time + Historical</text>
</g>
<!-- I_MARKET&#45;&gt;NYSE_CLIENT -->
<g id="edge5" class="edge">
<title>I_MARKET&#45;&gt;NYSE_CLIENT</title>
<path fill="none" stroke="#4a5568" stroke-dasharray="5,2" d="M597.42,-716.68C669.96,-712.31 778.44,-696.88 857.45,-646.51 878.49,-633.1 895.76,-611.56 908.4,-591.9"/>
<polygon fill="#4a5568" stroke="#4a5568" points="911.42,-593.67 913.71,-583.33 905.47,-589.99 911.42,-593.67"/>
</g>
<!-- SS_CLIENT -->
<g id="node11" class="node">
<title>SS_CLIENT</title>
<path fill="#bfdbfe" stroke="black" d="M1133.95,-583.01C1133.95,-583.01 1024.95,-583.01 1024.95,-583.01 1018.95,-583.01 1012.95,-577.01 1012.95,-571.01 1012.95,-571.01 1012.95,-520.01 1012.95,-520.01 1012.95,-514.01 1018.95,-508.01 1024.95,-508.01 1024.95,-508.01 1133.95,-508.01 1133.95,-508.01 1139.95,-508.01 1145.95,-514.01 1145.95,-520.01 1145.95,-520.01 1145.95,-571.01 1145.95,-571.01 1145.95,-577.01 1139.95,-583.01 1133.95,-583.01"/>
<text text-anchor="middle" x="1079.45" y="-571.01" font-family="Helvetica,sans-Serif" font-size="10.00">StockSharpConnector</text>
<text text-anchor="middle" x="1079.45" y="-560.01" font-family="Helvetica,sans-Serif" font-size="10.00">[Production]</text>
<text text-anchor="middle" x="1079.45" y="-537.01" font-family="Helvetica,sans-Serif" font-size="10.00">Multi&#45;exchange adapter</text>
<text text-anchor="middle" x="1079.45" y="-526.01" font-family="Helvetica,sans-Serif" font-size="10.00">Global markets</text>
<text text-anchor="middle" x="1079.45" y="-515.01" font-family="Helvetica,sans-Serif" font-size="10.00">90+ connectors</text>
</g>
<!-- I_MARKET&#45;&gt;SS_CLIENT -->
<g id="edge6" class="edge">
<title>I_MARKET&#45;&gt;SS_CLIENT</title>
<path fill="none" stroke="#4a5568" stroke-dasharray="5,2" d="M596.99,-713.52C716.05,-705.83 937.16,-686.54 1004.45,-646.51 1026.06,-633.66 1043.47,-611.96 1056.06,-592.05"/>
<polygon fill="#4a5568" stroke="#4a5568" points="1059.13,-593.73 1061.32,-583.36 1053.15,-590.1 1059.13,-593.73"/>
</g>
<!-- POL_CLIENT -->
<g id="node12" class="node">
<title>POL_CLIENT</title>
<path fill="#bfdbfe" stroke="black" d="M832.95,-577.51C832.95,-577.51 711.95,-577.51 711.95,-577.51 705.95,-577.51 699.95,-571.51 699.95,-565.51 699.95,-565.51 699.95,-525.51 699.95,-525.51 699.95,-519.51 705.95,-513.51 711.95,-513.51 711.95,-513.51 832.95,-513.51 832.95,-513.51 838.95,-513.51 844.95,-519.51 844.95,-525.51 844.95,-525.51 844.95,-565.51 844.95,-565.51 844.95,-571.51 838.95,-577.51 832.95,-577.51"/>
<text text-anchor="middle" x="772.45" y="-565.51" font-family="Helvetica,sans-Serif" font-size="10.00">PolygonMarketDataClient</text>
<text text-anchor="middle" x="772.45" y="-554.51" font-family="Helvetica,sans-Serif" font-size="10.00">[Production]</text>
<text text-anchor="middle" x="772.45" y="-531.51" font-family="Helvetica,sans-Serif" font-size="10.00">Polygon.io streaming</text>
<text text-anchor="middle" x="772.45" y="-520.51" font-family="Helvetica,sans-Serif" font-size="10.00">Trades, quotes, websocket</text>
</g>
<!-- I_MARKET&#45;&gt;POL_CLIENT -->
<g id="edge7" class="edge">
<title>I_MARKET&#45;&gt;POL_CLIENT</title>
<path fill="none" stroke="#4a5568" stroke-dasharray="5,2" d="M589.73,-698.78C619.12,-688.79 652.6,-674.59 679.45,-655.51 705.82,-636.77 729.39,-608.95 746.21,-586.1"/>
<polygon fill="#4a5568" stroke="#4a5568" points="749.09,-588.1 752.09,-577.94 743.41,-584.01 749.09,-588.1"/>
</g>
<!-- I_HIST_PROVIDER -->
<g id="node5" class="node">
<title>I_HIST_PROVIDER</title>
<ellipse fill="#e9d5ff" stroke="black" cx="318.45" cy="-718.76" rx="105.22" ry="45.01"/>
<text text-anchor="middle" x="318.45" y="-738.76" font-family="Helvetica,sans-Serif" font-size="10.00">IHistoricalDataProvider</text>
<text text-anchor="middle" x="318.45" y="-727.76" font-family="Helvetica,sans-Serif" font-size="10.00">[Interface]</text>
<text text-anchor="middle" x="318.45" y="-704.76" font-family="Helvetica,sans-Serif" font-size="10.00">GetHistoricalBarsAsync</text>
<text text-anchor="middle" x="318.45" y="-693.76" font-family="Helvetica,sans-Serif" font-size="10.00">StreamHistoricalBarsAsync</text>
</g>
<!-- ALPACA_HIST -->
<g id="node13" class="node">
<title>ALPACA_HIST</title>
<path fill="#a7f3d0" stroke="black" d="M772.45,-99C772.45,-99 660.45,-99 660.45,-99 654.45,-99 648.45,-93 648.45,-87 648.45,-87 648.45,-36 648.45,-36 648.45,-30 654.45,-24 660.45,-24 660.45,-24 772.45,-24 772.45,-24 778.45,-24 784.45,-30 784.45,-36 784.45,-36 784.45,-87 784.45,-87 784.45,-93 778.45,-99 772.45,-99"/>
<text text-anchor="middle" x="716.45" y="-87" font-family="Helvetica,sans-Serif" font-size="10.00">Alpaca Historical</text>
<text text-anchor="middle" x="716.45" y="-76" font-family="Helvetica,sans-Serif" font-size="10.00">[Priority 5]</text>
<text text-anchor="middle" x="716.45" y="-53" font-family="Helvetica,sans-Serif" font-size="10.00">OHLCV, Trades, Auctions</text>
<text text-anchor="middle" x="716.45" y="-42" font-family="Helvetica,sans-Serif" font-size="10.00">Adjusted prices</text>
<text text-anchor="middle" x="716.45" y="-31" font-family="Helvetica,sans-Serif" font-size="10.00">1min to 1day bars</text>
</g>
<!-- I_HIST_PROVIDER&#45;&gt;ALPACA_HIST -->
<g id="edge8" class="edge">
<title>I_HIST_PROVIDER&#45;&gt;ALPACA_HIST</title>
<path fill="none" stroke="#4a5568" stroke-dasharray="5,2" d="M387.92,-684.62C402.51,-678.02 417.9,-671.34 432.45,-665.51 445.11,-660.44 452.84,-666.08 461.45,-655.51 492.28,-617.63 475.45,-595.35 475.45,-546.51 475.45,-546.51 475.45,-546.51 475.45,-214.25 475.45,-177.88 474.1,-162.09 499.45,-136 535.92,-98.46 592.24,-80.09 638.36,-71.1"/>
<polygon fill="#4a5568" stroke="#4a5568" points="639.13,-74.52 648.33,-69.27 637.87,-67.63 639.13,-74.52"/>
</g>
<!-- YAHOO_HIST -->
<g id="node14" class="node">
<title>YAHOO_HIST</title>
<path fill="#6ee7b7" stroke="black" d="M1043.95,-99C1043.95,-99 940.95,-99 940.95,-99 934.95,-99 928.95,-93 928.95,-87 928.95,-87 928.95,-36 928.95,-36 928.95,-30 934.95,-24 940.95,-24 940.95,-24 1043.95,-24 1043.95,-24 1049.95,-24 1055.95,-30 1055.95,-36 1055.95,-36 1055.95,-87 1055.95,-87 1055.95,-93 1049.95,-99 1043.95,-99"/>
<text text-anchor="middle" x="992.45" y="-87" font-family="Helvetica,sans-Serif" font-size="10.00">Yahoo Finance</text>
<text text-anchor="middle" x="992.45" y="-76" font-family="Helvetica,sans-Serif" font-size="10.00">[Priority 10]</text>
<text text-anchor="middle" x="992.45" y="-53" font-family="Helvetica,sans-Serif" font-size="10.00">50K+ global securities</text>
<text text-anchor="middle" x="992.45" y="-42" font-family="Helvetica,sans-Serif" font-size="10.00">Free, no API key</text>
<text text-anchor="middle" x="992.45" y="-31" font-family="Helvetica,sans-Serif" font-size="10.00">Dividends, Splits</text>
</g>
<!-- I_HIST_PROVIDER&#45;&gt;YAHOO_HIST -->
<g id="edge9" class="edge">
<title>I_HIST_PROVIDER&#45;&gt;YAHOO_HIST</title>
<path fill="none" stroke="#4a5568" stroke-dasharray="5,2" d="M385.08,-683.53C400.34,-676.74 416.71,-670.25 432.45,-665.51 469.1,-654.48 490.57,-674.72 516.45,-646.51 548.28,-611.81 551.45,-593.6 551.45,-546.51 551.45,-546.51 551.45,-546.51 551.45,-214.25 551.45,-178.92 538.61,-158.98 565.45,-136 580.39,-123.2 901.16,-135.24 919.45,-128 931.94,-123.06 943.66,-114.94 953.91,-106.07"/>
<polygon fill="#4a5568" stroke="#4a5568" points="956.42,-108.52 961.44,-99.19 951.7,-103.35 956.42,-108.52"/>
</g>
<!-- STOOQ_HIST -->
<g id="node15" class="node">
<title>STOOQ_HIST</title>
<path fill="#6ee7b7" stroke="black" d="M898.45,-99C898.45,-99 832.45,-99 832.45,-99 826.45,-99 820.45,-93 820.45,-87 820.45,-87 820.45,-36 820.45,-36 820.45,-30 826.45,-24 832.45,-24 832.45,-24 898.45,-24 898.45,-24 904.45,-24 910.45,-30 910.45,-36 910.45,-36 910.45,-87 910.45,-87 910.45,-93 904.45,-99 898.45,-99"/>
<text text-anchor="middle" x="865.45" y="-87" font-family="Helvetica,sans-Serif" font-size="10.00">Stooq</text>
<text text-anchor="middle" x="865.45" y="-76" font-family="Helvetica,sans-Serif" font-size="10.00">[Priority 20]</text>
<text text-anchor="middle" x="865.45" y="-53" font-family="Helvetica,sans-Serif" font-size="10.00">Global equities</text>
<text text-anchor="middle" x="865.45" y="-42" font-family="Helvetica,sans-Serif" font-size="10.00">EOD data</text>
<text text-anchor="middle" x="865.45" y="-31" font-family="Helvetica,sans-Serif" font-size="10.00">No rate limits</text>
</g>
<!-- I_HIST_PROVIDER&#45;&gt;STOOQ_HIST -->
<g id="edge10" class="edge">
<title>I_HIST_PROVIDER&#45;&gt;STOOQ_HIST</title>
<path fill="none" stroke="#4a5568" stroke-dasharray="5,2" d="M386.26,-683.98C401.25,-677.28 417.2,-670.72 432.45,-665.51 457.72,-656.88 473.99,-668.28 489.45,-646.51 515.91,-609.24 513.45,-592.22 513.45,-546.51 513.45,-546.51 513.45,-546.51 513.45,-214.25 513.45,-177.88 508.52,-158.06 537.45,-136 561.41,-117.74 781.22,-140.89 808.45,-128 818.78,-123.11 827.99,-115.38 835.83,-106.91"/>
<polygon fill="#4a5568" stroke="#4a5568" points="838.49,-109.19 842.37,-99.33 833.19,-104.61 838.49,-109.19"/>
</g>
<!-- POLYGON_HIST -->
<g id="node16" class="node">
<title>POLYGON_HIST</title>
<path fill="#6ee7b7" stroke="black" d="M1150.95,-99C1150.95,-99 1085.95,-99 1085.95,-99 1079.95,-99 1073.95,-93 1073.95,-87 1073.95,-87 1073.95,-36 1073.95,-36 1073.95,-30 1079.95,-24 1085.95,-24 1085.95,-24 1150.95,-24 1150.95,-24 1156.95,-24 1162.95,-30 1162.95,-36 1162.95,-36 1162.95,-87 1162.95,-87 1162.95,-93 1156.95,-99 1150.95,-99"/>
<text text-anchor="middle" x="1118.45" y="-87" font-family="Helvetica,sans-Serif" font-size="10.00">Polygon.io</text>
<text text-anchor="middle" x="1118.45" y="-76" font-family="Helvetica,sans-Serif" font-size="10.00">[Priority 15]</text>
<text text-anchor="middle" x="1118.45" y="-53" font-family="Helvetica,sans-Serif" font-size="10.00">Historical bars</text>
<text text-anchor="middle" x="1118.45" y="-42" font-family="Helvetica,sans-Serif" font-size="10.00">Minute/Day</text>
<text text-anchor="middle" x="1118.45" y="-31" font-family="Helvetica,sans-Serif" font-size="10.00">Trades, Quotes</text>
</g>
<!-- I_HIST_PROVIDER&#45;&gt;POLYGON_HIST -->
<g id="edge11" class="edge">
<title>I_HIST_PROVIDER&#45;&gt;POLYGON_HIST</title>
<path fill="none" stroke="#4a5568" stroke-dasharray="5,2" d="M384.32,-683.29C399.76,-676.42 416.4,-669.97 432.45,-665.51 482.79,-651.53 510.29,-682.19 548.45,-646.51 583.54,-613.71 589.45,-594.54 589.45,-546.51 589.45,-546.51 589.45,-546.51 589.45,-304.75 589.45,-229 556.68,-186.16 613.45,-136 632.27,-119.37 1042.88,-139.02 1065.45,-128 1075.41,-123.14 1084.12,-115.41 1091.45,-106.94"/>
<polygon fill="#4a5568" stroke="#4a5568" points="1094.27,-109.02 1097.78,-99.02 1088.8,-104.65 1094.27,-109.02"/>
</g>
<!-- NASDAQ_HIST -->
<g id="node17" class="node">
<title>NASDAQ_HIST</title>
<path fill="#bbf7d0" stroke="black" d="M1516.45,-93.5C1516.45,-93.5 1424.45,-93.5 1424.45,-93.5 1418.45,-93.5 1412.45,-87.5 1412.45,-81.5 1412.45,-81.5 1412.45,-41.5 1412.45,-41.5 1412.45,-35.5 1418.45,-29.5 1424.45,-29.5 1424.45,-29.5 1516.45,-29.5 1516.45,-29.5 1522.45,-29.5 1528.45,-35.5 1528.45,-41.5 1528.45,-41.5 1528.45,-81.5 1528.45,-81.5 1528.45,-87.5 1522.45,-93.5 1516.45,-93.5"/>
<text text-anchor="middle" x="1470.45" y="-81.5" font-family="Helvetica,sans-Serif" font-size="10.00">Nasdaq Data Link</text>
<text text-anchor="middle" x="1470.45" y="-70.5" font-family="Helvetica,sans-Serif" font-size="10.00">[Priority 30]</text>
<text text-anchor="middle" x="1470.45" y="-47.5" font-family="Helvetica,sans-Serif" font-size="10.00">Quandl API</text>
<text text-anchor="middle" x="1470.45" y="-36.5" font-family="Helvetica,sans-Serif" font-size="10.00">Alternative datasets</text>
</g>
<!-- I_HIST_PROVIDER&#45;&gt;NASDAQ_HIST -->
<g id="edge12" class="edge">
<title>I_HIST_PROVIDER&#45;&gt;NASDAQ_HIST</title>
<path fill="none" stroke="#4a5568" stroke-dasharray="5,2" d="M383.93,-683.09C399.46,-676.19 416.23,-669.77 432.45,-665.51 465.16,-656.92 557.92,-668.69 583.45,-646.51 620.11,-614.67 627.45,-595.07 627.45,-546.51 627.45,-546.51 627.45,-546.51 627.45,-214.25 627.45,-177.88 622.31,-157.78 651.45,-136 668.18,-123.49 1384.15,-135.99 1403.45,-128 1417.49,-122.19 1430.21,-111.89 1440.7,-101.16"/>
<polygon fill="#4a5568" stroke="#4a5568" points="1443.37,-103.43 1447.59,-93.71 1438.23,-98.67 1443.37,-103.43"/>
</g>
<!-- TIINGO_HIST -->
<g id="node18" class="node">
<title>TIINGO_HIST</title>
<path fill="#bbf7d0" stroke="black" d="M1653.95,-93.5C1653.95,-93.5 1558.95,-93.5 1558.95,-93.5 1552.95,-93.5 1546.95,-87.5 1546.95,-81.5 1546.95,-81.5 1546.95,-41.5 1546.95,-41.5 1546.95,-35.5 1552.95,-29.5 1558.95,-29.5 1558.95,-29.5 1653.95,-29.5 1653.95,-29.5 1659.95,-29.5 1665.95,-35.5 1665.95,-41.5 1665.95,-41.5 1665.95,-81.5 1665.95,-81.5 1665.95,-87.5 1659.95,-93.5 1653.95,-93.5"/>
<text text-anchor="middle" x="1606.45" y="-81.5" font-family="Helvetica,sans-Serif" font-size="10.00">Tiingo</text>
<text text-anchor="middle" x="1606.45" y="-70.5" font-family="Helvetica,sans-Serif" font-size="10.00">[Priority 25]</text>
<text text-anchor="middle" x="1606.45" y="-47.5" font-family="Helvetica,sans-Serif" font-size="10.00">Dividend&#45;adjusted</text>
<text text-anchor="middle" x="1606.45" y="-36.5" font-family="Helvetica,sans-Serif" font-size="10.00">Fundamentals, News</text>
</g>
<!-- I_HIST_PROVIDER&#45;&gt;TIINGO_HIST -->
<g id="edge13" class="edge">
<title>I_HIST_PROVIDER&#45;&gt;TIINGO_HIST</title>
<path fill="none" stroke="#4a5568" stroke-dasharray="5,2" d="M383.58,-683.04C399.2,-676.09 416.1,-669.67 432.45,-665.51 472.93,-655.22 586.98,-672.79 619.45,-646.51 657.47,-615.73 665.45,-595.43 665.45,-546.51 665.45,-546.51 665.45,-546.51 665.45,-214.25 665.45,-178.92 652.46,-158.8 679.45,-136 697.65,-120.62 1515.35,-136.94 1537.45,-128 1551.76,-122.21 1564.81,-111.92 1575.62,-101.19"/>
<polygon fill="#4a5568" stroke="#4a5568" points="1578.36,-103.39 1582.74,-93.74 1573.3,-98.56 1578.36,-103.39"/>
</g>
<!-- FINNHUB_HIST -->
<g id="node19" class="node">
<title>FINNHUB_HIST</title>
<path fill="#bbf7d0" stroke="black" d="M1266.45,-93.5C1266.45,-93.5 1198.45,-93.5 1198.45,-93.5 1192.45,-93.5 1186.45,-87.5 1186.45,-81.5 1186.45,-81.5 1186.45,-41.5 1186.45,-41.5 1186.45,-35.5 1192.45,-29.5 1198.45,-29.5 1198.45,-29.5 1266.45,-29.5 1266.45,-29.5 1272.45,-29.5 1278.45,-35.5 1278.45,-41.5 1278.45,-41.5 1278.45,-81.5 1278.45,-81.5 1278.45,-87.5 1272.45,-93.5 1266.45,-93.5"/>
<text text-anchor="middle" x="1232.45" y="-81.5" font-family="Helvetica,sans-Serif" font-size="10.00">Finnhub</text>
<text text-anchor="middle" x="1232.45" y="-70.5" font-family="Helvetica,sans-Serif" font-size="10.00">[Priority 35]</text>
<text text-anchor="middle" x="1232.45" y="-47.5" font-family="Helvetica,sans-Serif" font-size="10.00">Fundamentals</text>
<text text-anchor="middle" x="1232.45" y="-36.5" font-family="Helvetica,sans-Serif" font-size="10.00">Earnings, News</text>
</g>
<!-- I_HIST_PROVIDER&#45;&gt;FINNHUB_HIST -->
<g id="edge14" class="edge">
<title>I_HIST_PROVIDER&#45;&gt;FINNHUB_HIST</title>
<path fill="none" stroke="#4a5568" stroke-dasharray="5,2" d="M255.48,-682.47C240.78,-675.68 224.9,-669.47 209.45,-665.51 189.83,-660.48 42.88,-668.63 27.45,-655.51 -10.35,-623.38 3.45,-596.11 3.45,-546.51 3.45,-546.51 3.45,-546.51 3.45,-214.25 3.45,-185.43 3.85,-170.56 27.45,-154 78.5,-118.18 526.1,-137.43 588.45,-136 604.72,-135.63 1159.65,-134.78 1174.45,-128 1187.1,-122.2 1198.13,-112.16 1207.07,-101.66"/>
<polygon fill="#4a5568" stroke="#4a5568" points="1210,-103.6 1213.5,-93.6 1204.53,-99.23 1210,-103.6"/>
</g>
<!-- AV_HIST -->
<g id="node20" class="node">
<title>AV_HIST</title>
<path fill="#bbf7d0" stroke="black" d="M1382.45,-93.5C1382.45,-93.5 1308.45,-93.5 1308.45,-93.5 1302.45,-93.5 1296.45,-87.5 1296.45,-81.5 1296.45,-81.5 1296.45,-41.5 1296.45,-41.5 1296.45,-35.5 1302.45,-29.5 1308.45,-29.5 1308.45,-29.5 1382.45,-29.5 1382.45,-29.5 1388.45,-29.5 1394.45,-35.5 1394.45,-41.5 1394.45,-41.5 1394.45,-81.5 1394.45,-81.5 1394.45,-87.5 1388.45,-93.5 1382.45,-93.5"/>
<text text-anchor="middle" x="1345.45" y="-81.5" font-family="Helvetica,sans-Serif" font-size="10.00">Alpha Vantage</text>
<text text-anchor="middle" x="1345.45" y="-70.5" font-family="Helvetica,sans-Serif" font-size="10.00">[Priority 40]</text>
<text text-anchor="middle" x="1345.45" y="-47.5" font-family="Helvetica,sans-Serif" font-size="10.00">Intraday data</text>
<text text-anchor="middle" x="1345.45" y="-36.5" font-family="Helvetica,sans-Serif" font-size="10.00">5min to monthly</text>
</g>
<!-- I_HIST_PROVIDER&#45;&gt;AV_HIST -->
<g id="edge15" class="edge">
<title>I_HIST_PROVIDER&#45;&gt;AV_HIST</title>
<path fill="none" stroke="#4a5568" stroke-dasharray="5,2" d="M254.11,-682.7C239.75,-676.08 224.35,-669.87 209.45,-665.51 176.36,-655.82 80.03,-670.69 55.45,-646.51 23.46,-615.04 41.45,-591.39 41.45,-546.51 41.45,-546.51 41.45,-546.51 41.45,-304.75 41.45,-237.38 8.01,-199.78 57.45,-154 63.12,-148.75 327.73,-146.25 335.45,-146 460.35,-141.98 491.52,-138.97 616.45,-136 635.08,-135.56 1270.5,-135.75 1287.45,-128 1300.11,-122.21 1311.14,-112.17 1320.08,-101.67"/>
<polygon fill="#4a5568" stroke="#4a5568" points="1323.01,-103.61 1326.5,-93.61 1317.53,-99.25 1323.01,-103.61"/>
</g>
<!-- CAPABILITIES -->
<g id="node6" class="node">
<title>CAPABILITIES</title>
<polygon fill="#f3e8ff" stroke="black" points="189.45,-756.26 61.45,-756.26 61.45,-681.26 195.45,-681.26 195.45,-750.26 189.45,-756.26"/>
<polyline fill="none" stroke="black" points="189.45,-756.26 189.45,-750.26 "/>
<polyline fill="none" stroke="black" points="195.45,-750.26 189.45,-750.26 "/>
<text text-anchor="middle" x="128.45" y="-744.26" font-family="Helvetica,sans-Serif" font-size="10.00">DataSourceCapabilities</text>
<text text-anchor="middle" x="128.45" y="-721.26" font-family="Helvetica,sans-Serif" font-size="10.00">• SupportsRealtime</text>
<text text-anchor="middle" x="128.45" y="-710.26" font-family="Helvetica,sans-Serif" font-size="10.00">• SupportsHistorical</text>
<text text-anchor="middle" x="128.45" y="-699.26" font-family="Helvetica,sans-Serif" font-size="10.00">• SupportsLevel2</text>
<text text-anchor="middle" x="128.45" y="-688.26" font-family="Helvetica,sans-Serif" font-size="10.00">• SupportedTimeframes</text>
</g>
<!-- REGISTRY -->
<g id="node7" class="node">
<title>REGISTRY</title>
<polygon fill="#f3e8ff" stroke="black" points="199.95,-577.51 80.95,-577.51 80.95,-513.51 205.95,-513.51 205.95,-571.51 199.95,-577.51"/>
<polyline fill="none" stroke="black" points="199.95,-577.51 199.95,-571.51 "/>
<polyline fill="none" stroke="black" points="205.95,-571.51 199.95,-571.51 "/>
<text text-anchor="middle" x="143.45" y="-565.51" font-family="Helvetica,sans-Serif" font-size="10.00">DataSourceRegistry</text>
<text text-anchor="middle" x="143.45" y="-542.51" font-family="Helvetica,sans-Serif" font-size="10.00">[DataSource] attribute</text>
<text text-anchor="middle" x="143.45" y="-531.51" font-family="Helvetica,sans-Serif" font-size="10.00">Automatic discovery</text>
<text text-anchor="middle" x="143.45" y="-520.51" font-family="Helvetica,sans-Serif" font-size="10.00">DI registration</text>
</g>
<!-- CAPABILITIES&#45;&gt;REGISTRY -->
<g id="edge38" class="edge">
<title>CAPABILITIES&#45;&gt;REGISTRY</title>
<path fill="none" stroke="#4a5568" stroke-dasharray="5,2" d="M131.67,-681.03C134.07,-653.63 137.35,-616.19 139.84,-587.76"/>
<polygon fill="#4a5568" stroke="#4a5568" points="143.33,-588 140.71,-577.73 136.35,-587.39 143.33,-588"/>
</g>
<!-- REGISTRY&#45;&gt;I_DATASOURCE -->
<g id="edge39" class="edge">
<title>REGISTRY&#45;&gt;I_DATASOURCE</title>
<path fill="none" stroke="#4a5568" stroke-dasharray="5,2" d="M148.95,-513.42C153.11,-489.93 158.92,-457.09 163.84,-429.29"/>
<polygon fill="#4a5568" stroke="#4a5568" points="167.31,-429.77 165.61,-419.31 160.42,-428.55 167.31,-429.77"/>
</g>
<!-- CONN_MGR -->
<g id="node22" class="node">
<title>CONN_MGR</title>
<path fill="#fecaca" stroke="black" d="M1446.95,-411.51C1446.95,-411.51 1299.95,-411.51 1299.95,-411.51 1293.95,-411.51 1287.95,-405.51 1287.95,-399.51 1287.95,-399.51 1287.95,-348.51 1287.95,-348.51 1287.95,-342.51 1293.95,-336.51 1299.95,-336.51 1299.95,-336.51 1446.95,-336.51 1446.95,-336.51 1452.95,-336.51 1458.95,-342.51 1458.95,-348.51 1458.95,-348.51 1458.95,-399.51 1458.95,-399.51 1458.95,-405.51 1452.95,-411.51 1446.95,-411.51"/>
<text text-anchor="middle" x="1373.45" y="-399.51" font-family="Helvetica,sans-Serif" font-size="10.00">EnhancedIBConnectionManager</text>
<text text-anchor="middle" x="1373.45" y="-376.51" font-family="Helvetica,sans-Serif" font-size="10.00">Automatic reconnection</text>
<text text-anchor="middle" x="1373.45" y="-365.51" font-family="Helvetica,sans-Serif" font-size="10.00">Heartbeat monitoring</text>
<text text-anchor="middle" x="1373.45" y="-354.51" font-family="Helvetica,sans-Serif" font-size="10.00">State machine</text>
<text text-anchor="middle" x="1373.45" y="-343.51" font-family="Helvetica,sans-Serif" font-size="10.00">Graceful degradation</text>
</g>
<!-- IB_CLIENT&#45;&gt;CONN_MGR -->
<g id="edge24" class="edge">
<title>IB_CLIENT&#45;&gt;CONN_MGR</title>
<path fill="none" stroke="#c53030" d="M1383.2,-502.17C1381.32,-477.7 1378.96,-446.86 1377.03,-421.69"/>
<polygon fill="#c53030" stroke="#c53030" points="1380.51,-421.34 1376.26,-411.64 1373.53,-421.87 1380.51,-421.34"/>
</g>
<!-- WS_RESILIENCE -->
<g id="node23" class="node">
<title>WS_RESILIENCE</title>
<path fill="#fecaca" stroke="black" d="M1257.95,-411.51C1257.95,-411.51 1132.95,-411.51 1132.95,-411.51 1126.95,-411.51 1120.95,-405.51 1120.95,-399.51 1120.95,-399.51 1120.95,-348.51 1120.95,-348.51 1120.95,-342.51 1126.95,-336.51 1132.95,-336.51 1132.95,-336.51 1257.95,-336.51 1257.95,-336.51 1263.95,-336.51 1269.95,-342.51 1269.95,-348.51 1269.95,-348.51 1269.95,-399.51 1269.95,-399.51 1269.95,-405.51 1263.95,-411.51 1257.95,-411.51"/>
<text text-anchor="middle" x="1195.45" y="-399.51" font-family="Helvetica,sans-Serif" font-size="10.00">WebSocketResiliencePolicy</text>
<text text-anchor="middle" x="1195.45" y="-376.51" font-family="Helvetica,sans-Serif" font-size="10.00">Polly retry policies</text>
<text text-anchor="middle" x="1195.45" y="-365.51" font-family="Helvetica,sans-Serif" font-size="10.00">Circuit breaker</text>
<text text-anchor="middle" x="1195.45" y="-354.51" font-family="Helvetica,sans-Serif" font-size="10.00">Exponential backoff</text>
<text text-anchor="middle" x="1195.45" y="-343.51" font-family="Helvetica,sans-Serif" font-size="10.00">Jitter randomization</text>
</g>
<!-- ALP_CLIENT&#45;&gt;WS_RESILIENCE -->
<g id="edge25" class="edge">
<title>ALP_CLIENT&#45;&gt;WS_RESILIENCE</title>
<path fill="none" stroke="#c53030" d="M1223.64,-507.73C1218.28,-482.52 1211.14,-448.87 1205.38,-421.76"/>
<polygon fill="#c53030" stroke="#c53030" points="1208.75,-420.77 1203.25,-411.72 1201.9,-422.23 1208.75,-420.77"/>
</g>
<!-- NYSE_CLIENT&#45;&gt;WS_RESILIENCE -->
<g id="edge26" class="edge">
<title>NYSE_CLIENT&#45;&gt;WS_RESILIENCE</title>
<path fill="none" stroke="#c53030" d="M970.36,-507.98C980.72,-499.75 992.43,-491.87 1004.45,-486.51 1047.63,-467.26 1067.88,-492.03 1109.45,-469.51 1131.27,-457.69 1150.44,-438.15 1165.11,-419.9"/>
<polygon fill="#c53030" stroke="#c53030" points="1168.16,-421.69 1171.53,-411.64 1162.63,-417.39 1168.16,-421.69"/>
</g>
<!-- COMPOSITE -->
<g id="node21" class="node">
<title>COMPOSITE</title>
<path fill="#fef3c7" stroke="black" d="M1252.95,-263.75C1252.95,-263.75 1097.95,-263.75 1097.95,-263.75 1091.95,-263.75 1085.95,-257.75 1085.95,-251.75 1085.95,-251.75 1085.95,-178.75 1085.95,-178.75 1085.95,-172.75 1091.95,-166.75 1097.95,-166.75 1097.95,-166.75 1252.95,-166.75 1252.95,-166.75 1258.95,-166.75 1264.95,-172.75 1264.95,-178.75 1264.95,-178.75 1264.95,-251.75 1264.95,-251.75 1264.95,-257.75 1258.95,-263.75 1252.95,-263.75"/>
<text text-anchor="middle" x="1175.45" y="-251.75" font-family="Helvetica,sans-Serif" font-size="10.00">CompositeHistoricalDataProvider</text>
<text text-anchor="middle" x="1175.45" y="-240.75" font-family="Helvetica,sans-Serif" font-size="10.00">[Orchestrator]</text>
<text text-anchor="middle" x="1175.45" y="-217.75" font-family="Helvetica,sans-Serif" font-size="10.00">Automatic provider failover</text>
<text text-anchor="middle" x="1175.45" y="-206.75" font-family="Helvetica,sans-Serif" font-size="10.00">Rate&#45;limit rotation</text>
<text text-anchor="middle" x="1175.45" y="-195.75" font-family="Helvetica,sans-Serif" font-size="10.00">Priority&#45;based selection</text>
<text text-anchor="middle" x="1175.45" y="-184.75" font-family="Helvetica,sans-Serif" font-size="10.00">Health monitoring</text>
<text text-anchor="middle" x="1175.45" y="-173.75" font-family="Helvetica,sans-Serif" font-size="10.00">Circuit breaker per provider</text>
</g>
<!-- COMPOSITE&#45;&gt;ALPACA_HIST -->
<g id="edge16" class="edge">
<title>COMPOSITE&#45;&gt;ALPACA_HIST</title>
<path fill="none" stroke="#4a5568" d="M1085.94,-203.12C1009.63,-191.35 898.35,-168.66 808.45,-128 794.95,-121.89 781.41,-113.69 769.02,-105.15"/>
<polygon fill="#4a5568" stroke="#4a5568" points="770.82,-102.14 760.64,-99.21 766.77,-107.85 770.82,-102.14"/>
<text text-anchor="middle" x="866.45" y="-138.8" font-family="Helvetica,sans-Serif" font-size="9.00">priority 5</text>
</g>
<!-- COMPOSITE&#45;&gt;YAHOO_HIST -->
<g id="edge17" class="edge">
<title>COMPOSITE&#45;&gt;YAHOO_HIST</title>
<path fill="none" stroke="#4a5568" d="M1113.2,-166.61C1097.46,-154.24 1080.69,-140.79 1065.45,-128 1057.06,-120.96 1048.28,-113.32 1039.83,-105.84"/>
<polygon fill="#4a5568" stroke="#4a5568" points="1041.98,-103.06 1032.19,-99.02 1037.32,-108.29 1041.98,-103.06"/>
<text text-anchor="middle" x="1109.45" y="-138.8" font-family="Helvetica,sans-Serif" font-size="9.00">priority 10</text>
</g>
<!-- COMPOSITE&#45;&gt;STOOQ_HIST -->
<g id="edge19" class="edge">
<title>COMPOSITE&#45;&gt;STOOQ_HIST</title>
<path fill="none" stroke="#4a5568" d="M1085.9,-196.66C1034.34,-183.56 970.14,-161.94 920.45,-128 911.99,-122.22 904.09,-114.8 897.07,-107.04"/>
<polygon fill="#4a5568" stroke="#4a5568" points="899.53,-104.52 890.36,-99.22 894.21,-109.08 899.53,-104.52"/>
</g>
<!-- COMPOSITE&#45;&gt;POLYGON_HIST -->
<g id="edge18" class="edge">
<title>COMPOSITE&#45;&gt;POLYGON_HIST</title>
<path fill="none" stroke="#4a5568" d="M1157.57,-166.66C1150.65,-148.23 1142.76,-127.22 1135.88,-108.91"/>
<polygon fill="#4a5568" stroke="#4a5568" points="1139.08,-107.47 1132.29,-99.34 1132.53,-109.93 1139.08,-107.47"/>
</g>
<!-- COMPOSITE&#45;&gt;NASDAQ_HIST -->
<g id="edge21" class="edge">
<title>COMPOSITE&#45;&gt;NASDAQ_HIST</title>
<path fill="none" stroke="#4a5568" d="M1264.97,-189.86C1308.74,-175.63 1360.99,-155.09 1403.45,-128 1415.14,-120.54 1426.48,-110.78 1436.4,-101.09"/>
<polygon fill="#4a5568" stroke="#4a5568" points="1439.14,-103.29 1443.69,-93.72 1434.17,-98.37 1439.14,-103.29"/>
</g>
<!-- COMPOSITE&#45;&gt;TIINGO_HIST -->
<g id="edge20" class="edge">
<title>COMPOSITE&#45;&gt;TIINGO_HIST</title>
<path fill="none" stroke="#4a5568" d="M1265.28,-206.04C1341.51,-196.07 1451.82,-174.41 1537.45,-128 1550.3,-121.03 1562.52,-111.05 1573,-100.98"/>
<polygon fill="#4a5568" stroke="#4a5568" points="1575.71,-103.21 1580.31,-93.67 1570.76,-98.26 1575.71,-103.21"/>
</g>
<!-- COMPOSITE&#45;&gt;FINNHUB_HIST -->
<g id="edge22" class="edge">
<title>COMPOSITE&#45;&gt;FINNHUB_HIST</title>
<path fill="none" stroke="#4a5568" d="M1193.33,-166.66C1200.98,-146.28 1209.83,-122.73 1217.17,-103.18"/>
<polygon fill="#4a5568" stroke="#4a5568" points="1220.51,-104.25 1220.75,-93.65 1213.95,-101.79 1220.51,-104.25"/>
</g>
<!-- COMPOSITE&#45;&gt;AV_HIST -->
<g id="edge23" class="edge">
<title>COMPOSITE&#45;&gt;AV_HIST</title>
<path fill="none" stroke="#4a5568" d="M1241.71,-166.55C1257.19,-154.51 1273.28,-141.23 1287.45,-128 1296.3,-119.74 1305.25,-110.27 1313.4,-101.16"/>
<polygon fill="#4a5568" stroke="#4a5568" points="1316.06,-103.43 1320.03,-93.61 1310.8,-98.81 1316.06,-103.43"/>
</g>
<!-- CIRCUIT -->
<g id="node24" class="node">
<title>CIRCUIT</title>
<path fill="#fecaca" stroke="black" d="M1084.95,-406.01C1084.95,-406.01 981.95,-406.01 981.95,-406.01 975.95,-406.01 969.95,-400.01 969.95,-394.01 969.95,-394.01 969.95,-354.01 969.95,-354.01 969.95,-348.01 975.95,-342.01 981.95,-342.01 981.95,-342.01 1084.95,-342.01 1084.95,-342.01 1090.95,-342.01 1096.95,-348.01 1096.95,-354.01 1096.95,-354.01 1096.95,-394.01 1096.95,-394.01 1096.95,-400.01 1090.95,-406.01 1084.95,-406.01"/>
<text text-anchor="middle" x="1033.45" y="-394.01" font-family="Helvetica,sans-Serif" font-size="10.00">CircuitBreaker</text>
<text text-anchor="middle" x="1033.45" y="-371.01" font-family="Helvetica,sans-Serif" font-size="10.00">Open/Closed/HalfOpen</text>
<text text-anchor="middle" x="1033.45" y="-360.01" font-family="Helvetica,sans-Serif" font-size="10.00">Failure counting</text>
<text text-anchor="middle" x="1033.45" y="-349.01" font-family="Helvetica,sans-Serif" font-size="10.00">Auto recovery</text>
</g>
<!-- CIRCUIT&#45;&gt;COMPOSITE -->
<g id="edge32" class="edge">
<title>CIRCUIT&#45;&gt;COMPOSITE</title>
<path fill="none" stroke="#c53030" stroke-dasharray="5,2" d="M1061.84,-341.66C1080.03,-321.59 1104.13,-294.98 1125.46,-271.44"/>
<polygon fill="#c53030" stroke="#c53030" points="1128.15,-273.68 1132.27,-263.92 1122.96,-268.98 1128.15,-273.68"/>
</g>
<!-- RATE_LIMIT -->
<g id="node25" class="node">
<title>RATE_LIMIT</title>
<path fill="#fecaca" stroke="black" d="M939.95,-406.01C939.95,-406.01 856.95,-406.01 856.95,-406.01 850.95,-406.01 844.95,-400.01 844.95,-394.01 844.95,-394.01 844.95,-354.01 844.95,-354.01 844.95,-348.01 850.95,-342.01 856.95,-342.01 856.95,-342.01 939.95,-342.01 939.95,-342.01 945.95,-342.01 951.95,-348.01 951.95,-354.01 951.95,-354.01 951.95,-394.01 951.95,-394.01 951.95,-400.01 945.95,-406.01 939.95,-406.01"/>
<text text-anchor="middle" x="898.45" y="-394.01" font-family="Helvetica,sans-Serif" font-size="10.00">RateLimiter</text>
<text text-anchor="middle" x="898.45" y="-371.01" font-family="Helvetica,sans-Serif" font-size="10.00">Per&#45;provider limits</text>
<text text-anchor="middle" x="898.45" y="-360.01" font-family="Helvetica,sans-Serif" font-size="10.00">Token bucket</text>
<text text-anchor="middle" x="898.45" y="-349.01" font-family="Helvetica,sans-Serif" font-size="10.00">Request queuing</text>
</g>
<!-- RATE_LIMIT&#45;&gt;COMPOSITE -->
<g id="edge33" class="edge">
<title>RATE_LIMIT&#45;&gt;COMPOSITE</title>
<path fill="none" stroke="#c53030" stroke-dasharray="5,2" d="M932.61,-342C941.66,-334.51 951.65,-326.85 961.45,-320.51 997.44,-297.24 1039.39,-275.71 1076.57,-258.33"/>
<polygon fill="#c53030" stroke="#c53030" points="1078.31,-261.38 1085.91,-254.01 1075.37,-255.03 1078.31,-261.38"/>
</g>
<!-- FIGI -->
<g id="node26" class="node">
<title>FIGI</title>
<path fill="#9ae6b4" stroke="black" d="M1670.95,-913.02C1670.95,-913.02 1545.95,-913.02 1545.95,-913.02 1539.95,-913.02 1533.95,-907.02 1533.95,-901.02 1533.95,-901.02 1533.95,-861.02 1533.95,-861.02 1533.95,-855.02 1539.95,-849.02 1545.95,-849.02 1545.95,-849.02 1670.95,-849.02 1670.95,-849.02 1676.95,-849.02 1682.95,-855.02 1682.95,-861.02 1682.95,-861.02 1682.95,-901.02 1682.95,-901.02 1682.95,-907.02 1676.95,-913.02 1670.95,-913.02"/>
<text text-anchor="middle" x="1608.45" y="-901.02" font-family="Helvetica,sans-Serif" font-size="10.00">OpenFIGI Resolver</text>
<text text-anchor="middle" x="1608.45" y="-878.02" font-family="Helvetica,sans-Serif" font-size="10.00">Global symbol mapping</text>
<text text-anchor="middle" x="1608.45" y="-867.02" font-family="Helvetica,sans-Serif" font-size="10.00">FIGI to ticker</text>
<text text-anchor="middle" x="1608.45" y="-856.02" font-family="Helvetica,sans-Serif" font-size="10.00">Cross&#45;market identification</text>
</g>
<!-- MAPPER -->
<g id="node27" class="node">
<title>MAPPER</title>
<path fill="#9ae6b4" stroke="black" d="M1588.95,-750.76C1588.95,-750.76 1473.95,-750.76 1473.95,-750.76 1467.95,-750.76 1461.95,-744.76 1461.95,-738.76 1461.95,-738.76 1461.95,-698.76 1461.95,-698.76 1461.95,-692.76 1467.95,-686.76 1473.95,-686.76 1473.95,-686.76 1588.95,-686.76 1588.95,-686.76 1594.95,-686.76 1600.95,-692.76 1600.95,-698.76 1600.95,-698.76 1600.95,-738.76 1600.95,-738.76 1600.95,-744.76 1594.95,-750.76 1588.95,-750.76"/>
<text text-anchor="middle" x="1531.45" y="-738.76" font-family="Helvetica,sans-Serif" font-size="10.00">SymbolMapper</text>
<text text-anchor="middle" x="1531.45" y="-715.76" font-family="Helvetica,sans-Serif" font-size="10.00">Provider&#45;specific formats</text>
<text text-anchor="middle" x="1531.45" y="-704.76" font-family="Helvetica,sans-Serif" font-size="10.00">Exchange suffixes</text>
<text text-anchor="middle" x="1531.45" y="-693.76" font-family="Helvetica,sans-Serif" font-size="10.00">CUSIP/SEDOL/ISIN</text>
</g>
<!-- FIGI&#45;&gt;MAPPER -->
<g id="edge34" class="edge">
<title>FIGI&#45;&gt;MAPPER</title>
<path fill="none" stroke="#38a169" d="M1593.42,-848.74C1581.28,-823.48 1564.11,-787.75 1550.92,-760.3"/>
<polygon fill="#38a169" stroke="#38a169" points="1553.93,-758.46 1546.44,-750.96 1547.62,-761.49 1553.93,-758.46"/>
</g>
<!-- MAPPER&#45;&gt;IB_CLIENT -->
<g id="edge36" class="edge">
<title>MAPPER&#45;&gt;IB_CLIENT</title>
<path fill="none" stroke="#38a169" d="M1505.19,-686.75C1483.84,-661.53 1453.3,-625.47 1428.55,-596.23"/>
<polygon fill="#38a169" stroke="#38a169" points="1431.19,-593.94 1422.06,-588.57 1425.85,-598.46 1431.19,-593.94"/>
</g>
<!-- MAPPER&#45;&gt;COMPOSITE -->
<g id="edge35" class="edge">
<title>MAPPER&#45;&gt;COMPOSITE</title>
<path fill="none" stroke="#38a169" d="M1537.58,-686.73C1549.81,-616.11 1570.44,-440.25 1500.45,-320.51 1477.16,-280.67 1361.92,-250.72 1275.22,-233.37"/>
<polygon fill="#38a169" stroke="#38a169" points="1275.82,-229.92 1265.33,-231.42 1274.47,-236.79 1275.82,-229.92"/>
</g>
<!-- CONTRACT -->
<g id="node28" class="node">
<title>CONTRACT</title>
<path fill="#9ae6b4" stroke="black" d="M1503.45,-913.02C1503.45,-913.02 1381.45,-913.02 1381.45,-913.02 1375.45,-913.02 1369.45,-907.02 1369.45,-901.02 1369.45,-901.02 1369.45,-861.02 1369.45,-861.02 1369.45,-855.02 1375.45,-849.02 1381.45,-849.02 1381.45,-849.02 1503.45,-849.02 1503.45,-849.02 1509.45,-849.02 1515.45,-855.02 1515.45,-861.02 1515.45,-861.02 1515.45,-901.02 1515.45,-901.02 1515.45,-907.02 1509.45,-913.02 1503.45,-913.02"/>
<text text-anchor="middle" x="1442.45" y="-901.02" font-family="Helvetica,sans-Serif" font-size="10.00">ContractFactory</text>
<text text-anchor="middle" x="1442.45" y="-878.02" font-family="Helvetica,sans-Serif" font-size="10.00">IB contract resolution</text>
<text text-anchor="middle" x="1442.45" y="-867.02" font-family="Helvetica,sans-Serif" font-size="10.00">Symbol to contract</text>
<text text-anchor="middle" x="1442.45" y="-856.02" font-family="Helvetica,sans-Serif" font-size="10.00">Multiple exchange support</text>
</g>
<!-- CONTRACT&#45;&gt;IB_CLIENT -->
<g id="edge37" class="edge">
<title>CONTRACT&#45;&gt;IB_CLIENT</title>
<path fill="none" stroke="#38a169" d="M1437.23,-848.94C1427.62,-791.68 1407.01,-668.98 1395.22,-598.73"/>
<polygon fill="#38a169" stroke="#38a169" points="1398.65,-598.04 1393.54,-588.76 1391.75,-599.2 1398.65,-598.04"/>
</g>
<!-- FAILOVER -->
<g id="node29" class="node">
<title>FAILOVER</title>
<path fill="lightgrey" stroke="black" d="M1340.95,-736.76C1340.95,-736.76 1301.95,-736.76 1301.95,-736.76 1295.95,-736.76 1289.95,-730.76 1289.95,-724.76 1289.95,-724.76 1289.95,-712.76 1289.95,-712.76 1289.95,-706.76 1295.95,-700.76 1301.95,-700.76 1301.95,-700.76 1340.95,-700.76 1340.95,-700.76 1346.95,-700.76 1352.95,-706.76 1352.95,-712.76 1352.95,-712.76 1352.95,-724.76 1352.95,-724.76 1352.95,-730.76 1346.95,-736.76 1340.95,-736.76"/>
<text text-anchor="middle" x="1321.45" y="-716.26" font-family="Helvetica,sans-Serif" font-size="10.00">FAILOVER</text>
</g>
<!-- FAILOVER&#45;&gt;IB_CLIENT -->
<g id="edge28" class="edge">
<title>FAILOVER&#45;&gt;IB_CLIENT</title>
<path fill="none" stroke="#c53030" stroke-dasharray="5,2" d="M1332.98,-700.69C1340.77,-688.52 1350.82,-671.55 1357.45,-655.51 1364.9,-637.49 1370.94,-617 1375.54,-598.69"/>
<polygon fill="#c53030" stroke="#c53030" points="1378.99,-599.31 1377.95,-588.77 1372.19,-597.66 1378.99,-599.31"/>
</g>
<!-- FAILOVER&#45;&gt;ALP_CLIENT -->
<g id="edge29" class="edge">
<title>FAILOVER&#45;&gt;ALP_CLIENT</title>
<path fill="none" stroke="#c53030" stroke-dasharray="5,2" d="M1312.49,-700.72C1299.35,-675.71 1274.37,-628.18 1255.6,-592.47"/>
<polygon fill="#c53030" stroke="#c53030" points="1258.48,-590.43 1250.73,-583.2 1252.29,-593.68 1258.48,-590.43"/>
</g>
<!-- FAILOVER&#45;&gt;COMPOSITE -->
<g id="edge27" class="edge">
<title>FAILOVER&#45;&gt;COMPOSITE</title>
<path fill="none" stroke="#c53030" d="M1328.8,-700.67C1334.77,-688.88 1344.37,-673.88 1357.45,-665.51 1399.24,-638.77 1435.07,-684.1 1467.45,-646.51 1514.74,-591.62 1513.31,-379.64 1471.45,-320.51 1427.35,-258.23 1342.91,-232.89 1275.46,-222.71"/>
<polygon fill="#c53030" stroke="#c53030" points="1275.61,-219.2 1265.22,-221.26 1274.63,-226.13 1275.61,-219.2"/>
</g>
<!-- MULTI_CONN -->
<g id="node30" class="node">
<title>MULTI_CONN</title>
<path fill="lightgrey" stroke="black" d="M1259.95,-736.76C1259.95,-736.76 1202.95,-736.76 1202.95,-736.76 1196.95,-736.76 1190.95,-730.76 1190.95,-724.76 1190.95,-724.76 1190.95,-712.76 1190.95,-712.76 1190.95,-706.76 1196.95,-700.76 1202.95,-700.76 1202.95,-700.76 1259.95,-700.76 1259.95,-700.76 1265.95,-700.76 1271.95,-706.76 1271.95,-712.76 1271.95,-712.76 1271.95,-724.76 1271.95,-724.76 1271.95,-730.76 1265.95,-736.76 1259.95,-736.76"/>
<text text-anchor="middle" x="1231.45" y="-716.26" font-family="Helvetica,sans-Serif" font-size="10.00">MULTI_CONN</text>
</g>
<!-- MULTI_CONN&#45;&gt;IB_CLIENT -->
<g id="edge30" class="edge">
<title>MULTI_CONN&#45;&gt;IB_CLIENT</title>
<path fill="none" stroke="#c53030" d="M1246.43,-700.47C1255.98,-689.87 1268.88,-676.32 1281.45,-665.51 1292.57,-655.94 1297.82,-656.63 1308.45,-646.51 1324.07,-631.64 1339.16,-613.5 1351.84,-596.78"/>
<polygon fill="#c53030" stroke="#c53030" points="1354.69,-598.81 1357.86,-588.71 1349.07,-594.63 1354.69,-598.81"/>
</g>
<!-- MULTI_CONN&#45;&gt;ALP_CLIENT -->
<g id="edge31" class="edge">
<title>MULTI_CONN&#45;&gt;ALP_CLIENT</title>
<path fill="none" stroke="#c53030" d="M1231.45,-700.72C1231.45,-675.92 1231.45,-628.99 1231.45,-593.38"/>
<polygon fill="#c53030" stroke="#c53030" points="1234.95,-593.2 1231.45,-583.2 1227.95,-593.2 1234.95,-593.2"/>
</g>
<!-- L1 -->
<g id="node31" class="node">
<title>L1</title>
<path fill="#bfdbfe" stroke="black" d="M2358.45,-899.02C2358.45,-899.02 2260.45,-899.02 2260.45,-899.02 2254.45,-899.02 2248.45,-893.02 2248.45,-887.02 2248.45,-887.02 2248.45,-875.02 2248.45,-875.02 2248.45,-869.02 2254.45,-863.02 2260.45,-863.02 2260.45,-863.02 2358.45,-863.02 2358.45,-863.02 2364.45,-863.02 2370.45,-869.02 2370.45,-875.02 2370.45,-875.02 2370.45,-887.02 2370.45,-887.02 2370.45,-893.02 2364.45,-899.02 2358.45,-899.02"/>
<text text-anchor="middle" x="2309.45" y="-878.52" font-family="Helvetica,sans-Serif" font-size="10.00">Production Streaming</text>
</g>
<!-- L2 -->
<g id="node32" class="node">
<title>L2</title>
<path fill="#a7f3d0" stroke="black" d="M2218.45,-899.02C2218.45,-899.02 2148.45,-899.02 2148.45,-899.02 2142.45,-899.02 2136.45,-893.02 2136.45,-887.02 2136.45,-887.02 2136.45,-875.02 2136.45,-875.02 2136.45,-869.02 2142.45,-863.02 2148.45,-863.02 2148.45,-863.02 2218.45,-863.02 2218.45,-863.02 2224.45,-863.02 2230.45,-869.02 2230.45,-875.02 2230.45,-875.02 2230.45,-887.02 2230.45,-887.02 2230.45,-893.02 2224.45,-899.02 2218.45,-899.02"/>
<text text-anchor="middle" x="2183.45" y="-878.52" font-family="Helvetica,sans-Serif" font-size="10.00">Tier 1 Historical</text>
</g>
<!-- L3 -->
<g id="node33" class="node">
<title>L3</title>
<path fill="#6ee7b7" stroke="black" d="M2106.45,-899.02C2106.45,-899.02 2036.45,-899.02 2036.45,-899.02 2030.45,-899.02 2024.45,-893.02 2024.45,-887.02 2024.45,-887.02 2024.45,-875.02 2024.45,-875.02 2024.45,-869.02 2030.45,-863.02 2036.45,-863.02 2036.45,-863.02 2106.45,-863.02 2106.45,-863.02 2112.45,-863.02 2118.45,-869.02 2118.45,-875.02 2118.45,-875.02 2118.45,-887.02 2118.45,-887.02 2118.45,-893.02 2112.45,-899.02 2106.45,-899.02"/>
<text text-anchor="middle" x="2071.45" y="-878.52" font-family="Helvetica,sans-Serif" font-size="10.00">Tier 2 Historical</text>
</g>
<!-- L4 -->
<g id="node34" class="node">
<title>L4</title>
<path fill="#bbf7d0" stroke="black" d="M1994.45,-899.02C1994.45,-899.02 1924.45,-899.02 1924.45,-899.02 1918.45,-899.02 1912.45,-893.02 1912.45,-887.02 1912.45,-887.02 1912.45,-875.02 1912.45,-875.02 1912.45,-869.02 1918.45,-863.02 1924.45,-863.02 1924.45,-863.02 1994.45,-863.02 1994.45,-863.02 2000.45,-863.02 2006.45,-869.02 2006.45,-875.02 2006.45,-875.02 2006.45,-887.02 2006.45,-887.02 2006.45,-893.02 2000.45,-899.02 1994.45,-899.02"/>
<text text-anchor="middle" x="1959.45" y="-878.52" font-family="Helvetica,sans-Serif" font-size="10.00">Tier 3 Historical</text>
</g>
<!-- L5 -->
<g id="node35" class="node">
<title>L5</title>
<path fill="#fef3c7" stroke="black" d="M1881.95,-899.02C1881.95,-899.02 1828.95,-899.02 1828.95,-899.02 1822.95,-899.02 1816.95,-893.02 1816.95,-887.02 1816.95,-887.02 1816.95,-875.02 1816.95,-875.02 1816.95,-869.02 1822.95,-863.02 1828.95,-863.02 1828.95,-863.02 1881.95,-863.02 1881.95,-863.02 1887.95,-863.02 1893.95,-869.02 1893.95,-875.02 1893.95,-875.02 1893.95,-887.02 1893.95,-887.02 1893.95,-893.02 1887.95,-899.02 1881.95,-899.02"/>
<text text-anchor="middle" x="1855.45" y="-878.52" font-family="Helvetica,sans-Serif" font-size="10.00">Orchestrator</text>
</g>
<!-- L6 -->
<g id="node36" class="node">
<title>L6</title>
<path fill="#fecaca" stroke="black" d="M1786.45,-899.02C1786.45,-899.02 1718.45,-899.02 1718.45,-899.02 1712.45,-899.02 1706.45,-893.02 1706.45,-887.02 1706.45,-887.02 1706.45,-875.02 1706.45,-875.02 1706.45,-869.02 1712.45,-863.02 1718.45,-863.02 1718.45,-863.02 1786.45,-863.02 1786.45,-863.02 1792.45,-863.02 1798.45,-869.02 1798.45,-875.02 1798.45,-875.02 1798.45,-887.02 1798.45,-887.02 1798.45,-893.02 1792.45,-899.02 1786.45,-899.02"/>
<text text-anchor="middle" x="1752.45" y="-878.52" font-family="Helvetica,sans-Serif" font-size="10.00">Stub/Resilience</text>
</g>
</g>
</svg>
